<svg xmlns="http://www.w3.org/2000/svg" xmlns:xlink="http://www.w3.org/1999/xlink" width="141" height="125" viewBox="0 0 141 125">
  <defs>
    <clipPath id="clip-path">
      <rect id="Rectangle_1" data-name="Rectangle 1" width="141" height="125" fill="#fff"/>
    </clipPath>
  </defs>
  <g id="Groupe_4" data-name="Groupe 4" clip-path="url(#clip-path)">
    <path id="Tracé_1" data-name="Tracé 1" d="M10.321,77.793C27.708,97.688,45.263,100.2,69.94,104.921s42.8,1.453,56.148-10.559c15.416-13.889,14.8-45.706-8.783-57.035-7.37-3.551-16.146-4.625-22.6-9.61C82.374,18.2,72.4,3.386,52.591.593S19.455,11.062,19.455,11.062C3.219,28.848-7.065,57.883,10.321,77.793Z" fill="#6449d1"/>
    <path id="Tracé_2" data-name="Tracé 2" d="M10.321,77.793C27.708,97.688,45.263,100.2,69.94,104.921s42.8,1.453,56.148-10.559c15.416-13.889,14.8-45.706-8.783-57.035-7.37-3.551-16.146-4.625-22.6-9.61C82.374,18.2,72.4,3.386,52.591.593S19.455,11.062,19.455,11.062C3.219,28.848-7.065,57.883,10.321,77.793Z" fill="#fff" opacity="0.7"/>
    <path id="Tracé_3" data-name="Tracé 3" d="M136.443,110.657c0-1.791-16.131-3.247-36.028-3.247-17.744,0-32.483,1.156-35.468,2.68H62.927c-34.216,0-61.972,3.333-61.972,7.444S28.7,125,62.927,125s61.969-3.333,61.969-7.447c0-1.442-3.414-2.789-9.325-3.927C127.9,113.086,136.443,111.963,136.443,110.657Z" fill="#6449d1"/>
    <path id="Tracé_4" data-name="Tracé 4" d="M136.443,110.657c0-1.791-16.131-3.247-36.028-3.247-17.744,0-32.483,1.156-35.468,2.68H62.927c-34.216,0-61.972,3.333-61.972,7.444S28.7,125,62.927,125s61.969-3.333,61.969-7.447c0-1.442-3.414-2.789-9.325-3.927C127.9,113.086,136.443,111.963,136.443,110.657Z" fill="#fff" opacity="0.4"/>
    <path id="Tracé_5" data-name="Tracé 5" d="M8.46,73.7C12.22,83.51,23.079,88.48,23.079,88.48s4.726-10.938.951-20.751S9.4,52.95,9.4,52.95,4.685,63.889,8.46,73.7Z" fill="#6449d1"/>
    <path id="Tracé_6" data-name="Tracé 6" d="M8.46,73.7C12.22,83.51,23.079,88.48,23.079,88.48s4.726-10.938.951-20.751S9.4,52.95,9.4,52.95,4.685,63.889,8.46,73.7Z" fill="#fff" opacity="0.4"/>
    <path id="Tracé_7" data-name="Tracé 7" d="M23.079,88.48,9.411,52.95" fill="none" stroke="#fff" stroke-linecap="round" stroke-linejoin="round" stroke-width="0.898"/>
    <path id="Tracé_8" data-name="Tracé 8" d="M14.269,65.578,8.449,63.45" fill="none" stroke="#fff" stroke-linecap="round" stroke-linejoin="round" stroke-width="0.898"/>
    <path id="Tracé_9" data-name="Tracé 9" d="M16.6,71.423l2.4-9.872" fill="none" stroke="#fff" stroke-linecap="round" stroke-linejoin="round" stroke-width="0.898"/>
    <path id="Tracé_10" data-name="Tracé 10" d="M17.83,74.835l-8.64-3.266" fill="none" stroke="#fff" stroke-linecap="round" stroke-linejoin="round" stroke-width="0.898"/>
    <path id="Tracé_11" data-name="Tracé 11" d="M19.653,79.366l4.185-8.1" fill="none" stroke="#fff" stroke-linecap="round" stroke-linejoin="round" stroke-width="0.898"/>
    <path id="Tracé_12" data-name="Tracé 12" d="M21.169,83.3l-6.5-2.027" fill="none" stroke="#fff" stroke-linecap="round" stroke-linejoin="round" stroke-width="0.898"/>
    <path id="Tracé_13" data-name="Tracé 13" d="M8.885,90.9c5.418,2.8,12.032.8,12.032.8s-2.166-6.562-7.584-9.366-12.032-.8-12.032-.8S3.467,88.093,8.885,90.9Z" fill="#6449d1"/>
    <path id="Tracé_14" data-name="Tracé 14" d="M8.885,90.9c5.418,2.8,12.032.8,12.032.8s-2.166-6.562-7.584-9.366-12.032-.8-12.032-.8S3.467,88.093,8.885,90.9Z" fill="#fff" opacity="0.4"/>
    <path id="Tracé_15" data-name="Tracé 15" d="M20.924,91.7,1.3,81.532" fill="none" stroke="#fff" stroke-linecap="round" stroke-linejoin="round" stroke-width="0.898"/>
    <path id="Tracé_16" data-name="Tracé 16" d="M8.279,85.146l-3.346,1.31" fill="none" stroke="#fff" stroke-linecap="round" stroke-linejoin="round" stroke-width="0.898"/>
    <path id="Tracé_17" data-name="Tracé 17" d="M11.539,86.787l-2.767-5.2" fill="none" stroke="#fff" stroke-linecap="round" stroke-linejoin="round" stroke-width="0.898"/>
    <path id="Tracé_18" data-name="Tracé 18" d="M13.389,87.793,8.381,89.7" fill="none" stroke="#fff" stroke-linecap="round" stroke-linejoin="round" stroke-width="0.898"/>
    <path id="Tracé_19" data-name="Tracé 19" d="M15.927,89.058l-1.308-5.124" fill="none" stroke="#fff" stroke-linecap="round" stroke-linejoin="round" stroke-width="0.898"/>
    <path id="Tracé_20" data-name="Tracé 20" d="M18.1,90.188,14.5,91.8" fill="none" stroke="#fff" stroke-linecap="round" stroke-linejoin="round" stroke-width="0.898"/>
    <path id="Tracé_21" data-name="Tracé 21" d="M26.365,77.166c-2.4,5.6.105,12.042.105,12.042s6.392-2.628,8.787-8.258-.1-12.046-.1-12.046S28.768,71.562,26.365,77.166Z" fill="#6449d1"/>
    <path id="Tracé_22" data-name="Tracé 22" d="M26.365,77.166c-2.4,5.6.105,12.042.105,12.042s6.392-2.628,8.787-8.258-.1-12.046-.1-12.046S28.768,71.562,26.365,77.166Z" fill="#fff" opacity="0.4"/>
    <path id="Tracé_23" data-name="Tracé 23" d="M26.47,89.208l8.686-20.293" fill="none" stroke="#fff" stroke-linecap="round" stroke-linejoin="round" stroke-width="0.898"/>
    <path id="Tracé_24" data-name="Tracé 24" d="M32.069,76.13,30.508,72.9" fill="none" stroke="#fff" stroke-linecap="round" stroke-linejoin="round" stroke-width="0.898"/>
    <path id="Tracé_25" data-name="Tracé 25" d="M30.674,79.5l4.99-3.142" fill="none" stroke="#fff" stroke-linecap="round" stroke-linejoin="round" stroke-width="0.898"/>
    <path id="Tracé_26" data-name="Tracé 26" d="M29.806,81.415l-2.275-4.842" fill="none" stroke="#fff" stroke-linecap="round" stroke-linejoin="round" stroke-width="0.898"/>
    <path id="Tracé_27" data-name="Tracé 27" d="M28.73,84.035l5.02-1.682" fill="none" stroke="#fff" stroke-linecap="round" stroke-linejoin="round" stroke-width="0.898"/>
    <path id="Tracé_28" data-name="Tracé 28" d="M27.768,86.284l-1.884-3.461" fill="none" stroke="#fff" stroke-linecap="round" stroke-linejoin="round" stroke-width="0.898"/>
    <path id="Tracé_29" data-name="Tracé 29" d="M67.571,11.783c.59-.218,1.162-.488,1.745-.751s1.147-.522,1.715-.8a40.5,40.5,0,0,0,6.456-3.915,28.5,28.5,0,0,0,5.441-5.2,28.477,28.477,0,0,1-5.535,5.068,40.5,40.5,0,0,1-6.5,3.754c-4.512,2.166-9.438,3.168-14.179,4.835a18.389,18.389,0,0,0,1.707-1.839c.812-1.062,1.282-2.252.327-3.217-1.173-1.2-3.237-.529-3.384,1.633a7.872,7.872,0,0,0,.707,3.656c-1,.375-1.985.751-2.963,1.149-.718.315-1.429.638-2.132.983a12.6,12.6,0,0,0,1.049-1.186c.812-1.062,1.282-2.23.327-3.213-1.173-1.209-3.234-.533-3.384,1.633a7.722,7.722,0,0,0,.628,3.476,35.377,35.377,0,0,0-5.7,3.829,14.3,14.3,0,0,0,.793-1.5c.53-1.227.7-2.474-.462-3.2-1.433-.89-3.271.267-2.892,2.4a7.811,7.811,0,0,0,1.47,3.243,37.262,37.262,0,0,0-4.888,5.349,12.586,12.586,0,0,0,.267-1.4c.162-1.325-.03-2.571-1.354-2.935-1.624-.447-3.057,1.179-2.087,3.119a7.713,7.713,0,0,0,2.184,2.586,46.319,46.319,0,0,0-2.865,4.741c-.135.259-.263.518-.395.777a1.747,1.747,0,0,0-.218.116v-.751c-.045-1.336-.425-2.538-1.786-2.691-1.677-.191-2.843,1.633-1.583,3.4a7.665,7.665,0,0,0,2.429,2.151.442.442,0,0,0,0,.154q-.846,1.877-1.56,3.821c-.353.965-.681,1.941-.993,2.924-1.38-.405-2.8.811-2.335,2.733a7.3,7.3,0,0,0,.985,2.252q-.654,2.834-1.1,5.706a1.591,1.591,0,0,0-1.376-.777A2.067,2.067,0,0,0,24.2,55.285a1.818,1.818,0,0,0-.812,1.051c-.376-1.149-.681-2.316-.974-3.487a8.62,8.62,0,0,0,2.959-1.914c1.613-1.629.94-3.652-.7-3.69-1.327-.03-1.974,1.126-2.331,2.5a13.822,13.822,0,0,0-.308,1.562c-.1-.435-.2-.871-.3-1.306-.252-1.1-.417-2.218-.628-3.326a7.507,7.507,0,0,1-.128-.822,8.567,8.567,0,0,0,3.26-1.321c1.88-1.3,1.609-3.416,0-3.754-1.3-.278-2.155.751-2.76,2.02a14.721,14.721,0,0,0-.673,1.7l-.143-1.183a56.62,56.62,0,0,1-.218-7.984,8.637,8.637,0,0,0,3.625-1.006c2.012-1.1,1.944-3.236.376-3.754-1.263-.405-2.218.537-2.948,1.734a17.49,17.49,0,0,0-1.011,2q.132-2.286.41-4.561c.1-.95.267-1.877.421-2.827a8.6,8.6,0,0,0,3.869-.514c2.136-.833,2.346-2.958.868-3.656-1.2-.567-2.256.244-3.151,1.336a22.132,22.132,0,0,0-1.478,2.189c.214-1.081.417-2.166.684-3.232a50.186,50.186,0,0,1,1.963-6.531,50.979,50.979,0,0,0-2.166,6.479c-.286,1.01-.511,2.035-.752,3.059a16.959,16.959,0,0,0-.376-2.252c-.335-1.3-.963-2.387-2.328-2.252-1.677.173-2.425,2.207-.816,3.664a7.819,7.819,0,0,0,3.384,1.7c-.18.92-.376,1.843-.5,2.774q-.346,2.207-.541,4.441a15.911,15.911,0,0,0-.545-1.839c-.5-1.239-1.263-2.252-2.6-1.926-1.639.375-2.117,2.5-.331,3.754a7.847,7.847,0,0,0,3.384,1.254,56.615,56.615,0,0,0-.026,8.025l.071.807a12.952,12.952,0,0,0-.538-1.213c-.617-1.182-1.481-2.1-2.779-1.655-1.594.548-1.854,2.7.045,3.754a7.756,7.756,0,0,0,3.429.908c.026.278.056.552.105.826.18,1.126.316,2.278.534,3.4.06.323.128.642.192.965a9.576,9.576,0,0,0-.6-.848c-.827-1.047-1.85-1.791-3.038-1.126-1.463.841-1.316,3,.752,3.679a7.713,7.713,0,0,0,3.309.282c.274,1.254.575,2.5.929,3.754.132.473.267.942.41,1.411A12.846,12.846,0,0,0,21.782,57c-.827-1.047-1.85-1.791-3.038-1.126-1.463.837-1.316,3,.752,3.679a7.841,7.841,0,0,0,3.67.225q.3.878.643,1.749c-1.042.668-1.241,2.252.135,3.4A7.523,7.523,0,0,0,26.2,66.182c.075.105.151.21.233.315l.038.053a120.036,120.036,0,0,0,.286,12.031q.278,3.791.775,7.556c.342,2.519.729,5,1.275,7.534l2.444-.582c-.56-2.365-1-4.839-1.387-7.286s-.681-4.929-.917-7.4c-.3-3.3-.489-6.607-.523-9.917.158.086.289.184.466.263a2.262,2.262,0,0,0,.639.218l.222-1.659H29.7l-.132-.053c-.087-.03-.188-.105-.282-.15a4.293,4.293,0,0,1-.579-.432l-.214-.191a8.372,8.372,0,0,0,2.974-.687c2.1-.931,2.211-3.059.7-3.69-1.226-.511-2.256.345-3.087,1.475-.233.323-.451.664-.658,1.006,0-.375,0-.728.034-1.092q.064-1.61.18-3.217a8.487,8.487,0,0,0,3.2-.7c2.094-.931,2.211-3.059.7-3.69-1.226-.51-2.256.345-3.087,1.475-.241.327-.462.676-.669,1.025.071-.777.147-1.554.237-2.327.068-.574.147-1.149.229-1.719.2-.788.421-1.573.658-2.354.135-.428.274-.852.421-1.276a8.6,8.6,0,0,0,2.816,1.239c2.237.507,3.606-1.126,2.775-2.537-.673-1.145-2.012-1.07-3.358-.661a16.616,16.616,0,0,0-1.771.687,36.759,36.759,0,0,1,2.444-5.2A31.364,31.364,0,0,1,35.092,41.4a8.615,8.615,0,0,0,3.008,1.37c2.237.507,3.606-1.126,2.775-2.537-.677-1.126-2.015-1.07-3.358-.661a13.57,13.57,0,0,0-1.41.529,24.687,24.687,0,0,1,2.327-2.447,22.283,22.283,0,0,1,5.64-3.754,8.547,8.547,0,0,0,2.406,2.586c1.88,1.3,3.76.289,3.523-1.321-.2-1.314-1.474-1.745-2.873-1.877a14.2,14.2,0,0,0-1.6-.03h.038a34.67,34.67,0,0,1,6.847-1.914,8.606,8.606,0,0,0,2.015,3.074c1.654,1.584,3.674.886,3.688-.751,0-1.329-1.177-1.956-2.538-2.294a14.87,14.87,0,0,0-1.624-.289c2.474-.375,4.982-.7,7.456-1.2h.053a8.593,8.593,0,0,0,2.809,2.718c1.978,1.16,3.76,0,3.41-1.58-.3-1.3-1.6-1.629-3.008-1.644-.395,0-.793.023-1.181.052a50.6,50.6,0,0,0,4.948-1.479l.079.154.041-.045a8.536,8.536,0,0,0,2.824,2.744c1.982,1.16,3.76,0,3.414-1.58-.3-1.3-1.6-1.629-3.008-1.644a26.875,26.875,0,0,0-3.008.251c.587-.214,1.173-.435,1.748-.672a71.557,71.557,0,0,0,7.768-3.724,68.359,68.359,0,0,1-9.043,3.96,16.6,16.6,0,0,0,1.5-1.622c.812-1.062,1.278-2.252.323-3.213-1.173-1.209-3.234-.533-3.384,1.633a7.778,7.778,0,0,0,.647,3.514,48.382,48.382,0,0,1-6.125,1.565l-.2.037a17.3,17.3,0,0,0,1.613-1.745c.812-1.062,1.282-2.234.327-3.213-1.177-1.209-3.237-.533-3.384,1.633a7.7,7.7,0,0,0,.628,3.472c-2.482.424-4.99.668-7.52.991l-.376.049a14.548,14.548,0,0,0,1.651-1.126c1.038-.845,1.767-1.877,1.064-3.052-.857-1.445-3.008-1.269-3.67.8a7.777,7.777,0,0,0-.2,3.54,35.017,35.017,0,0,0-6.933,1.749l-.075.03A13.413,13.413,0,0,0,46.2,31.426c.887-1,1.444-2.132.564-3.183a1.882,1.882,0,0,0-2.632-.259,1.966,1.966,0,0,0-.289.3,1.681,1.681,0,0,0-.414-.717c-.917-.965-2.2-.6-3.422.1a9.671,9.671,0,0,0-.925.6,35.6,35.6,0,0,1,4.392-4.936,8.591,8.591,0,0,0,3.038,1.652c2.2.646,3.67-.9,2.925-2.357-.6-1.186-1.944-1.2-3.309-.871a13.556,13.556,0,0,0-1.346.4,33.735,33.735,0,0,1,5.189-3.585,8.536,8.536,0,0,0,2.662,2.5c1.982,1.16,3.76,0,3.41-1.58-.3-1.3-1.594-1.629-3.008-1.64a16,16,0,0,0-1.989.131c.752-.375,1.5-.751,2.286-1.126,1-.447,2.023-.863,3.064-1.254a8.562,8.562,0,0,0,2.632,2.444c1.981,1.156,3.76,0,3.41-1.584-.3-1.291-1.594-1.625-3.008-1.64a8.707,8.707,0,0,0-.989.037c1.82-.631,3.662-1.2,5.5-1.8C65.2,12.646,66.394,12.237,67.571,11.783ZM36.1,37.827a3.851,3.851,0,0,0,.579-.03c-.323.315-.635.642-.94.972.09-.206.177-.413.256-.623A2.116,2.116,0,0,0,36.1,37.827ZM24.44,59.279l.4-.2a7.838,7.838,0,0,0,1.756.878v.1l.316.026Q26.8,61.3,26.719,62.5a2.07,2.07,0,0,0-1.47-1.272A19.8,19.8,0,0,1,24.44,59.279Zm7.738-15.706c-.316.522-.613,1.055-.9,1.592l-.071-.12c.331-1.175.7-2.338,1.094-3.495.278-.807.579-1.607.891-2.4a8.351,8.351,0,0,0,.985,1.468,31.006,31.006,0,0,0-2.012,2.958Zm9.159-12.943a2.943,2.943,0,0,0,1.948-.642,7.8,7.8,0,0,0,.376,3.056,23.522,23.522,0,0,0-4.181,2.395,1.595,1.595,0,0,0-.639-1.085c-1.053-.811-2.256-.248-3.384.627l-.049.045-.072-.045a1.691,1.691,0,0,0-.237-.105c.034-.064.06-.128.094-.188a45.04,45.04,0,0,1,2.782-4.782,8.541,8.541,0,0,0,3.358.724Z" fill="#6449d1"/>
    <path id="Tracé_30" data-name="Tracé 30" d="M82.927,1.149a28.476,28.476,0,0,1-5.535,5.068,40.5,40.5,0,0,1-6.5,3.754l-.256.12A19.372,19.372,0,0,0,72.4,8.213c.812-1.059,1.278-2.23.323-3.213-1.173-1.209-3.234-.533-3.384,1.633a7.751,7.751,0,0,0,.752,3.731,51.946,51.946,0,0,1-5.843,2.121,18.281,18.281,0,0,0,1.685-1.813c.812-1.062,1.278-2.252.323-3.217-1.173-1.209-3.234-.529-3.384,1.633a7.739,7.739,0,0,0,.688,3.607c-2.279.691-4.583,1.336-6.84,2.128a18.413,18.413,0,0,0,1.707-1.839c.812-1.062,1.282-2.252.327-3.217-1.173-1.2-3.237-.529-3.384,1.633a7.872,7.872,0,0,0,.707,3.656c-1,.375-1.985.751-2.963,1.149-.718.315-1.429.638-2.132.983A12.6,12.6,0,0,0,52.035,16c.812-1.062,1.282-2.23.327-3.213-1.173-1.209-3.234-.533-3.384,1.633a7.722,7.722,0,0,0,.628,3.476,35.377,35.377,0,0,0-5.7,3.829,14.3,14.3,0,0,0,.793-1.5c.53-1.227.7-2.474-.463-3.2-1.433-.89-3.271.267-2.891,2.4a7.81,7.81,0,0,0,1.47,3.243,37.262,37.262,0,0,0-4.888,5.349,12.586,12.586,0,0,0,.267-1.4c.162-1.325-.03-2.571-1.354-2.935-1.624-.447-3.057,1.179-2.087,3.119a7.714,7.714,0,0,0,2.185,2.586,46.319,46.319,0,0,0-2.865,4.741c-.135.259-.263.518-.395.777a1.754,1.754,0,0,0-.218.116v-.751c-.045-1.336-.425-2.538-1.786-2.691-1.677-.192-2.843,1.633-1.583,3.4a7.665,7.665,0,0,0,2.429,2.151.44.44,0,0,0,.019.154q-.846,1.877-1.56,3.821c-.354.965-.681,1.941-.993,2.924-1.38-.405-2.8.811-2.335,2.733a7.3,7.3,0,0,0,.985,2.252q-.654,2.83-1.1,5.706a1.591,1.591,0,0,0-1.376-.777,2.067,2.067,0,0,0-1.929,1.378,1.817,1.817,0,0,0-.812,1.051c-.376-1.149-.681-2.316-.974-3.487A8.619,8.619,0,0,0,25.4,50.976c1.613-1.629.94-3.652-.7-3.69-1.327-.03-1.974,1.126-2.331,2.5a13.823,13.823,0,0,0-.308,1.562c-.1-.435-.2-.871-.3-1.306-.252-1.1-.417-2.219-.628-3.326a7.482,7.482,0,0,1-.128-.822,8.567,8.567,0,0,0,3.26-1.321c1.88-1.3,1.609-3.416,0-3.754-1.3-.278-2.155.751-2.76,2.02a14.727,14.727,0,0,0-.673,1.7L20.7,43.36a56.621,56.621,0,0,1-.218-7.984A8.637,8.637,0,0,0,24.1,34.369c2.012-1.1,1.944-3.236.376-3.754-1.263-.405-2.218.537-2.948,1.734a17.5,17.5,0,0,0-1.011,2q.128-2.286.41-4.561c.1-.95.267-1.877.421-2.827a8.6,8.6,0,0,0,3.843-.518c2.136-.833,2.346-2.958.868-3.656-1.2-.567-2.256.244-3.151,1.336a22.13,22.13,0,0,0-1.47,2.2c.214-1.081.417-2.166.684-3.232a50.186,50.186,0,0,1,1.963-6.531,50.986,50.986,0,0,0-2.166,6.479c-.286,1.01-.511,2.035-.752,3.059a16.962,16.962,0,0,0-.376-2.252c-.335-1.3-.963-2.387-2.327-2.252-1.677.173-2.425,2.207-.816,3.664a7.845,7.845,0,0,0,3.384,1.659c-.181.92-.376,1.843-.5,2.774q-.346,2.207-.541,4.441a15.9,15.9,0,0,0-.553-1.847c-.5-1.239-1.263-2.252-2.6-1.926-1.639.375-2.117,2.5-.331,3.754a7.847,7.847,0,0,0,3.384,1.254,56.615,56.615,0,0,0-.026,8.025l.071.807a12.952,12.952,0,0,0-.538-1.213c-.617-1.182-1.481-2.1-2.779-1.655-1.594.548-1.854,2.7.045,3.754a7.756,7.756,0,0,0,3.429.908c.026.278.056.552.105.826.18,1.126.316,2.278.534,3.4.06.323.128.642.192.965a9.576,9.576,0,0,0-.6-.848c-.827-1.047-1.85-1.791-3.038-1.126-1.463.841-1.316,3,.752,3.679a7.713,7.713,0,0,0,3.309.282c.274,1.254.575,2.5.929,3.754.132.473.267.942.41,1.411A12.846,12.846,0,0,0,21.782,57c-.827-1.047-1.85-1.791-3.038-1.126-1.463.837-1.316,3,.752,3.679a7.841,7.841,0,0,0,3.67.225q.3.878.643,1.749c-1.042.668-1.241,2.252.135,3.4A7.523,7.523,0,0,0,26.2,66.182c.075.105.151.21.233.315l.038.053a120.036,120.036,0,0,0,.286,12.031q.278,3.791.775,7.556c.342,2.519.729,5,1.275,7.534l2.444-.582c-.56-2.365-1-4.839-1.387-7.286s-.681-4.929-.917-7.4c-.3-3.3-.489-6.607-.523-9.917.158.086.289.184.466.263a2.262,2.262,0,0,0,.639.218l.222-1.659H29.7l-.132-.053c-.087-.03-.188-.105-.282-.15a4.293,4.293,0,0,1-.579-.432l-.214-.191a8.372,8.372,0,0,0,2.974-.687c2.1-.931,2.211-3.059.7-3.69-1.226-.511-2.256.345-3.087,1.475-.233.323-.451.664-.658,1.006,0-.375,0-.728.034-1.092q.064-1.61.18-3.217a8.487,8.487,0,0,0,3.2-.7c2.094-.931,2.211-3.059.7-3.69-1.226-.51-2.256.345-3.087,1.475-.241.327-.462.676-.669,1.025.071-.777.147-1.554.237-2.327.068-.574.147-1.149.229-1.719.2-.788.421-1.573.658-2.354.135-.428.274-.852.421-1.276a8.6,8.6,0,0,0,2.816,1.239c2.237.507,3.606-1.126,2.775-2.537-.673-1.145-2.012-1.07-3.358-.661a16.616,16.616,0,0,0-1.771.687,36.759,36.759,0,0,1,2.444-5.2A31.364,31.364,0,0,1,35.092,41.4a8.615,8.615,0,0,0,3.008,1.37c2.237.507,3.606-1.126,2.775-2.537-.677-1.126-2.015-1.07-3.358-.661a13.57,13.57,0,0,0-1.41.529,24.687,24.687,0,0,1,2.327-2.447,22.283,22.283,0,0,1,5.64-3.754,8.547,8.547,0,0,0,2.406,2.586c1.88,1.3,3.76.289,3.523-1.321-.2-1.314-1.474-1.745-2.873-1.877a14.2,14.2,0,0,0-1.6-.03h.038a34.67,34.67,0,0,1,6.847-1.914,8.606,8.606,0,0,0,2.015,3.074c1.654,1.584,3.674.886,3.688-.751,0-1.329-1.177-1.956-2.538-2.294a14.87,14.87,0,0,0-1.624-.289c2.474-.375,4.982-.7,7.456-1.2h.053a8.593,8.593,0,0,0,2.809,2.718c1.978,1.16,3.76,0,3.41-1.58-.3-1.3-1.6-1.629-3.008-1.644-.395,0-.793.023-1.181.052a50.6,50.6,0,0,0,4.948-1.479l.079.154.041-.045a8.536,8.536,0,0,0,2.824,2.744c1.982,1.16,3.76,0,3.414-1.58-.3-1.3-1.6-1.629-3.008-1.644a26.875,26.875,0,0,0-3.008.251c.587-.214,1.173-.435,1.748-.672a71.557,71.557,0,0,0,7.768-3.724,68.359,68.359,0,0,1-9.043,3.96,16.6,16.6,0,0,0,1.5-1.622c.812-1.062,1.278-2.252.323-3.213-1.173-1.209-3.234-.533-3.384,1.633a7.778,7.778,0,0,0,.647,3.514,48.382,48.382,0,0,1-6.125,1.565l-.2.037a17.3,17.3,0,0,0,1.613-1.745c.812-1.062,1.282-2.234.327-3.213-1.177-1.209-3.237-.533-3.384,1.633a7.7,7.7,0,0,0,.628,3.472c-2.482.424-4.99.668-7.52.991l-.376.049a14.548,14.548,0,0,0,1.651-1.126c1.038-.845,1.767-1.877,1.064-3.052-.857-1.445-3.008-1.269-3.67.8a7.777,7.777,0,0,0-.2,3.54,35.017,35.017,0,0,0-6.933,1.749l-.075.03A13.413,13.413,0,0,0,46.2,31.426c.887-1,1.444-2.132.564-3.183a1.882,1.882,0,0,0-2.632-.259,1.966,1.966,0,0,0-.289.3,1.681,1.681,0,0,0-.414-.717c-.917-.965-2.2-.6-3.422.1a9.671,9.671,0,0,0-.925.6,35.6,35.6,0,0,1,4.392-4.936,8.591,8.591,0,0,0,3.038,1.652c2.2.646,3.67-.9,2.925-2.357-.6-1.186-1.944-1.2-3.309-.871a13.556,13.556,0,0,0-1.346.4,33.735,33.735,0,0,1,5.189-3.585,8.536,8.536,0,0,0,2.662,2.5c1.982,1.16,3.76,0,3.41-1.58-.3-1.3-1.594-1.629-3.008-1.64a16,16,0,0,0-1.989.131c.752-.375,1.5-.751,2.286-1.126,1-.447,2.023-.863,3.064-1.254a8.562,8.562,0,0,0,2.632,2.444c1.981,1.156,3.76,0,3.41-1.584-.3-1.291-1.594-1.625-3.008-1.64a8.707,8.707,0,0,0-.989.037c1.764-.612,3.549-1.171,5.335-1.749a8.607,8.607,0,0,0,2.745,2.628c1.981,1.156,3.76,0,3.414-1.584-.3-1.291-1.6-1.625-3.008-1.64a16.1,16.1,0,0,0-1.647.094c.752-.251,1.5-.514,2.226-.8.59-.218,1.162-.488,1.745-.751.331-.135.658-.285.981-.439a8.619,8.619,0,0,0,2.76,2.628c1.982,1.156,3.779,0,3.414-1.584-.3-1.3-1.6-1.629-3.008-1.64a18.689,18.689,0,0,0-2.335.173,40.764,40.764,0,0,0,6.354-3.866A28.559,28.559,0,0,0,82.927,1.149ZM26.7,62.5a2.071,2.071,0,0,0-1.47-1.273c-.286-.642-.545-1.3-.793-1.952l.4-.2a7.838,7.838,0,0,0,1.756.878v.1l.316.026C26.816,60.9,26.745,61.7,26.7,62.5Zm5.475-18.93c-.316.522-.613,1.055-.9,1.592l-.064-.12c.331-1.175.7-2.338,1.094-3.495.278-.807.579-1.607.891-2.4a8.351,8.351,0,0,0,.985,1.468,31.006,31.006,0,0,0-2.012,2.958Zm3.576-4.8c.09-.206.177-.413.256-.623.038-.105.071-.214.105-.319a3.852,3.852,0,0,0,.579-.03c-.327.315-.639.642-.944.972Zm5.584-8.138a2.943,2.943,0,0,0,1.948-.642,7.8,7.8,0,0,0,.376,3.056,23.464,23.464,0,0,0-4.174,2.395,1.595,1.595,0,0,0-.639-1.085c-1.053-.811-2.256-.248-3.384.627l-.049.045-.072-.045a1.691,1.691,0,0,0-.237-.105c.034-.064.06-.128.094-.188a45.04,45.04,0,0,1,2.782-4.782,8.541,8.541,0,0,0,3.358.724Z" fill="#6449d1"/>
    <g id="Groupe_1" data-name="Groupe 1" opacity="0.7">
      <path id="Tracé_31" data-name="Tracé 31" d="M82.927,1.149a28.476,28.476,0,0,1-5.535,5.068,40.5,40.5,0,0,1-6.5,3.754l-.256.12A19.372,19.372,0,0,0,72.4,8.213c.812-1.059,1.278-2.23.323-3.213-1.173-1.209-3.234-.533-3.384,1.633a7.751,7.751,0,0,0,.752,3.731,51.946,51.946,0,0,1-5.843,2.121,18.281,18.281,0,0,0,1.685-1.813c.812-1.062,1.278-2.252.323-3.217-1.173-1.209-3.234-.529-3.384,1.633a7.739,7.739,0,0,0,.688,3.607c-2.279.691-4.583,1.336-6.84,2.128a18.413,18.413,0,0,0,1.707-1.839c.812-1.062,1.282-2.252.327-3.217-1.173-1.2-3.237-.529-3.384,1.633a7.872,7.872,0,0,0,.707,3.656c-1,.375-1.985.751-2.963,1.149-.718.315-1.429.638-2.132.983A12.6,12.6,0,0,0,52.035,16c.812-1.062,1.282-2.23.327-3.213-1.173-1.209-3.234-.533-3.384,1.633a7.722,7.722,0,0,0,.628,3.476,35.377,35.377,0,0,0-5.7,3.829,14.3,14.3,0,0,0,.793-1.5c.53-1.227.7-2.474-.463-3.2-1.433-.89-3.271.267-2.891,2.4a7.81,7.81,0,0,0,1.47,3.243,37.262,37.262,0,0,0-4.888,5.349,12.586,12.586,0,0,0,.267-1.4c.162-1.325-.03-2.571-1.354-2.935-1.624-.447-3.057,1.179-2.087,3.119a7.714,7.714,0,0,0,2.185,2.586,46.319,46.319,0,0,0-2.865,4.741c-.135.259-.263.518-.395.777a1.754,1.754,0,0,0-.218.116v-.751c-.045-1.336-.425-2.538-1.786-2.691-1.677-.192-2.843,1.633-1.583,3.4a7.665,7.665,0,0,0,2.429,2.151.44.44,0,0,0,.019.154q-.846,1.877-1.56,3.821c-.354.965-.681,1.941-.993,2.924-1.38-.405-2.8.811-2.335,2.733a7.3,7.3,0,0,0,.985,2.252q-.654,2.83-1.1,5.706a1.591,1.591,0,0,0-1.376-.777,2.067,2.067,0,0,0-1.929,1.378,1.817,1.817,0,0,0-.812,1.051c-.376-1.149-.681-2.316-.974-3.487A8.619,8.619,0,0,0,25.4,50.976c1.613-1.629.94-3.652-.7-3.69-1.327-.03-1.974,1.126-2.331,2.5a13.823,13.823,0,0,0-.308,1.562c-.1-.435-.2-.871-.3-1.306-.252-1.1-.417-2.219-.628-3.326a7.482,7.482,0,0,1-.128-.822,8.567,8.567,0,0,0,3.26-1.321c1.88-1.3,1.609-3.416,0-3.754-1.3-.278-2.155.751-2.76,2.02a14.727,14.727,0,0,0-.673,1.7L20.7,43.36a56.621,56.621,0,0,1-.218-7.984A8.637,8.637,0,0,0,24.1,34.369c2.012-1.1,1.944-3.236.376-3.754-1.263-.405-2.218.537-2.948,1.734a17.5,17.5,0,0,0-1.011,2q.128-2.286.41-4.561c.1-.95.267-1.877.421-2.827a8.6,8.6,0,0,0,3.843-.518c2.136-.833,2.346-2.958.868-3.656-1.2-.567-2.256.244-3.151,1.336a22.13,22.13,0,0,0-1.47,2.2c.214-1.081.417-2.166.684-3.232a50.186,50.186,0,0,1,1.963-6.531,50.986,50.986,0,0,0-2.166,6.479c-.286,1.01-.511,2.035-.752,3.059a16.962,16.962,0,0,0-.376-2.252c-.335-1.3-.963-2.387-2.327-2.252-1.677.173-2.425,2.207-.816,3.664a7.845,7.845,0,0,0,3.384,1.659c-.181.92-.376,1.843-.5,2.774q-.346,2.207-.541,4.441a15.9,15.9,0,0,0-.553-1.847c-.5-1.239-1.263-2.252-2.6-1.926-1.639.375-2.117,2.5-.331,3.754a7.847,7.847,0,0,0,3.384,1.254,56.615,56.615,0,0,0-.026,8.025l.071.807a12.952,12.952,0,0,0-.538-1.213c-.617-1.182-1.481-2.1-2.779-1.655-1.594.548-1.854,2.7.045,3.754a7.756,7.756,0,0,0,3.429.908c.026.278.056.552.105.826.18,1.126.316,2.278.534,3.4.06.323.128.642.192.965a9.576,9.576,0,0,0-.6-.848c-.827-1.047-1.85-1.791-3.038-1.126-1.463.841-1.316,3,.752,3.679a7.713,7.713,0,0,0,3.309.282c.274,1.254.575,2.5.929,3.754.132.473.267.942.41,1.411A12.846,12.846,0,0,0,21.782,57c-.827-1.047-1.85-1.791-3.038-1.126-1.463.837-1.316,3,.752,3.679a7.841,7.841,0,0,0,3.67.225q.3.878.643,1.749c-1.042.668-1.241,2.252.135,3.4A7.523,7.523,0,0,0,26.2,66.182c.075.105.151.21.233.315l.038.053a120.036,120.036,0,0,0,.286,12.031q.278,3.791.775,7.556c.342,2.519.729,5,1.275,7.534l2.444-.582c-.56-2.365-1-4.839-1.387-7.286s-.681-4.929-.917-7.4c-.3-3.3-.489-6.607-.523-9.917.158.086.289.184.466.263a2.262,2.262,0,0,0,.639.218l.222-1.659H29.7l-.132-.053c-.087-.03-.188-.105-.282-.15a4.293,4.293,0,0,1-.579-.432l-.214-.191a8.372,8.372,0,0,0,2.974-.687c2.1-.931,2.211-3.059.7-3.69-1.226-.511-2.256.345-3.087,1.475-.233.323-.451.664-.658,1.006,0-.375,0-.728.034-1.092q.064-1.61.18-3.217a8.487,8.487,0,0,0,3.2-.7c2.094-.931,2.211-3.059.7-3.69-1.226-.51-2.256.345-3.087,1.475-.241.327-.462.676-.669,1.025.071-.777.147-1.554.237-2.327.068-.574.147-1.149.229-1.719.2-.788.421-1.573.658-2.354.135-.428.274-.852.421-1.276a8.6,8.6,0,0,0,2.816,1.239c2.237.507,3.606-1.126,2.775-2.537-.673-1.145-2.012-1.07-3.358-.661a16.616,16.616,0,0,0-1.771.687,36.759,36.759,0,0,1,2.444-5.2A31.364,31.364,0,0,1,35.092,41.4a8.615,8.615,0,0,0,3.008,1.37c2.237.507,3.606-1.126,2.775-2.537-.677-1.126-2.015-1.07-3.358-.661a13.57,13.57,0,0,0-1.41.529,24.687,24.687,0,0,1,2.327-2.447,22.283,22.283,0,0,1,5.64-3.754,8.547,8.547,0,0,0,2.406,2.586c1.88,1.3,3.76.289,3.523-1.321-.2-1.314-1.474-1.745-2.873-1.877a14.2,14.2,0,0,0-1.6-.03h.038a34.67,34.67,0,0,1,6.847-1.914,8.606,8.606,0,0,0,2.015,3.074c1.654,1.584,3.674.886,3.688-.751,0-1.329-1.177-1.956-2.538-2.294a14.87,14.87,0,0,0-1.624-.289c2.474-.375,4.982-.7,7.456-1.2h.053a8.593,8.593,0,0,0,2.809,2.718c1.978,1.16,3.76,0,3.41-1.58-.3-1.3-1.6-1.629-3.008-1.644-.395,0-.793.023-1.181.052a50.6,50.6,0,0,0,4.948-1.479l.079.154.041-.045a8.536,8.536,0,0,0,2.824,2.744c1.982,1.16,3.76,0,3.414-1.58-.3-1.3-1.6-1.629-3.008-1.644a26.875,26.875,0,0,0-3.008.251c.587-.214,1.173-.435,1.748-.672a71.557,71.557,0,0,0,7.768-3.724,68.359,68.359,0,0,1-9.043,3.96,16.6,16.6,0,0,0,1.5-1.622c.812-1.062,1.278-2.252.323-3.213-1.173-1.209-3.234-.533-3.384,1.633a7.778,7.778,0,0,0,.647,3.514,48.382,48.382,0,0,1-6.125,1.565l-.2.037a17.3,17.3,0,0,0,1.613-1.745c.812-1.062,1.282-2.234.327-3.213-1.177-1.209-3.237-.533-3.384,1.633a7.7,7.7,0,0,0,.628,3.472c-2.482.424-4.99.668-7.52.991l-.376.049a14.548,14.548,0,0,0,1.651-1.126c1.038-.845,1.767-1.877,1.064-3.052-.857-1.445-3.008-1.269-3.67.8a7.777,7.777,0,0,0-.2,3.54,35.017,35.017,0,0,0-6.933,1.749l-.075.03A13.413,13.413,0,0,0,46.2,31.426c.887-1,1.444-2.132.564-3.183a1.882,1.882,0,0,0-2.632-.259,1.966,1.966,0,0,0-.289.3,1.681,1.681,0,0,0-.414-.717c-.917-.965-2.2-.6-3.422.1a9.671,9.671,0,0,0-.925.6,35.6,35.6,0,0,1,4.392-4.936,8.591,8.591,0,0,0,3.038,1.652c2.2.646,3.67-.9,2.925-2.357-.6-1.186-1.944-1.2-3.309-.871a13.556,13.556,0,0,0-1.346.4,33.735,33.735,0,0,1,5.189-3.585,8.536,8.536,0,0,0,2.662,2.5c1.982,1.16,3.76,0,3.41-1.58-.3-1.3-1.594-1.629-3.008-1.64a16,16,0,0,0-1.989.131c.752-.375,1.5-.751,2.286-1.126,1-.447,2.023-.863,3.064-1.254a8.562,8.562,0,0,0,2.632,2.444c1.981,1.156,3.76,0,3.41-1.584-.3-1.291-1.594-1.625-3.008-1.64a8.707,8.707,0,0,0-.989.037c1.764-.612,3.549-1.171,5.335-1.749a8.607,8.607,0,0,0,2.745,2.628c1.981,1.156,3.76,0,3.414-1.584-.3-1.291-1.6-1.625-3.008-1.64a16.1,16.1,0,0,0-1.647.094c.752-.251,1.5-.514,2.226-.8.59-.218,1.162-.488,1.745-.751.331-.135.658-.285.981-.439a8.619,8.619,0,0,0,2.76,2.628c1.982,1.156,3.779,0,3.414-1.584-.3-1.3-1.6-1.629-3.008-1.64a18.689,18.689,0,0,0-2.335.173,40.764,40.764,0,0,0,6.354-3.866A28.559,28.559,0,0,0,82.927,1.149ZM26.7,62.5a2.071,2.071,0,0,0-1.47-1.273c-.286-.642-.545-1.3-.793-1.952l.4-.2a7.838,7.838,0,0,0,1.756.878v.1l.316.026C26.816,60.9,26.745,61.7,26.7,62.5Zm5.475-18.93c-.316.522-.613,1.055-.9,1.592l-.064-.12c.331-1.175.7-2.338,1.094-3.495.278-.807.579-1.607.891-2.4a8.351,8.351,0,0,0,.985,1.468,31.006,31.006,0,0,0-2.012,2.958Zm3.576-4.8c.09-.206.177-.413.256-.623.038-.105.071-.214.105-.319a3.852,3.852,0,0,0,.579-.03c-.327.315-.639.642-.944.972Zm5.584-8.138a2.943,2.943,0,0,0,1.948-.642,7.8,7.8,0,0,0,.376,3.056,23.464,23.464,0,0,0-4.174,2.395,1.595,1.595,0,0,0-.639-1.085c-1.053-.811-2.256-.248-3.384.627l-.049.045-.072-.045a1.691,1.691,0,0,0-.237-.105c.034-.064.06-.128.094-.188a45.04,45.04,0,0,1,2.782-4.782,8.541,8.541,0,0,0,3.358.724Z" fill="#fff" opacity="0.4"/>
    </g>
    <path id="Tracé_32" data-name="Tracé 32" d="M126.52,39.861c-.075-.548-.1-1.1-.158-1.659s-.071-1.126-.094-1.663a36.025,36.025,0,0,1,.357-6.637,25.141,25.141,0,0,1,1.779-6.381,25.133,25.133,0,0,0-1.639,6.4,35.583,35.583,0,0,0-.222,6.607c.191,4.4,1.466,8.634,2.139,13.018a17.391,17.391,0,0,1,.722-2.095c.489-1.07,1.2-1.922,2.369-1.592,1.429.409,1.76,2.29.139,3.307a6.911,6.911,0,0,1-3.143.972c.135.923.252,1.847.342,2.778.052.687.1,1.374.124,2.065a11.441,11.441,0,0,1,.485-1.306c.489-1.074,1.207-1.922,2.369-1.592,1.429.409,1.759,2.29.139,3.307a6.828,6.828,0,0,1-2.971.957,30.669,30.669,0,0,1-.605,6.006,12.158,12.158,0,0,1,.842-1.239c.752-.923,1.636-1.577,2.681-.972,1.29.751,1.155,2.628-.665,3.239a6.9,6.9,0,0,1-3.14.21,32.316,32.316,0,0,1-2.132,6.006,12.347,12.347,0,0,1,.978-.792c.966-.676,2.015-1.047,2.85-.173,1.026,1.074.357,2.864-1.561,2.92a6.812,6.812,0,0,1-2.921-.612,41.457,41.457,0,0,1-2.5,4.2c-.146.214-.3.42-.443.631q0,.107,0,.214a5.85,5.85,0,0,1,.594-.323c1.056-.522,2.15-.728,2.838.267.85,1.22-.086,2.883-1.989,2.628a6.775,6.775,0,0,1-2.684-.991l-.128.053q-1.128,1.438-2.324,2.8c-.6.676-1.229,1.336-1.88,1.989.891.9.534,2.511-1.154,2.95a6.582,6.582,0,0,1-2.151.165q-1.937,1.685-3.985,3.228a1.394,1.394,0,0,1,1.177.751,1.816,1.816,0,0,1-.271,2.072,1.589,1.589,0,0,1-.478,1.066c1.046-.2,2.083-.435,3.121-.7a7.522,7.522,0,0,1,.256-3.089c.6-1.93,2.455-2.252,3.162-1,.579,1.017-.068,2-.974,2.849a13.044,13.044,0,0,1-1.094.886l1.128-.312c.962-.263,1.88-.6,2.85-.9.233-.068.462-.15.692-.24a7.485,7.485,0,0,1-.327-3.082c.222-2.008,1.985-2.673,2.917-1.573.752.893.313,1.986-.421,2.984a14.581,14.581,0,0,1-1.045,1.231l.978-.375a50.729,50.729,0,0,0,6.305-3.157,7.586,7.586,0,0,1-.669-3.213c.022-2.016,1.711-2.853,2.748-1.854.843.811.508,1.944-.12,3a15.483,15.483,0,0,1-1.128,1.618q1.727-1.053,3.384-2.218c.7-.473,1.354-.995,2.023-1.5a7.54,7.54,0,0,1-1.2-3.21c-.241-2,1.323-3.052,2.481-2.2.944.7.752,1.877.275,3a19.238,19.238,0,0,1-1.1,2.053c.752-.616,1.5-1.224,2.233-1.877a44.533,44.533,0,0,0,4.264-4.246,45.056,45.056,0,0,1-4.136,4.381c-.669.642-1.372,1.243-2.071,1.851a14.988,14.988,0,0,1,1.921-.661c1.147-.282,2.256-.248,2.718.867.564,1.374-.71,2.8-2.515,2.158a6.911,6.911,0,0,1-2.719-1.877c-.643.522-1.282,1.055-1.951,1.543q-1.579,1.182-3.234,2.252a12.889,12.889,0,0,1,1.677-.334c1.173-.131,2.256.049,2.583,1.216.376,1.434-1.064,2.68-2.771,1.813a6.86,6.86,0,0,1-2.4-2.113,50.253,50.253,0,0,1-6.23,3.378l-.662.282a10.17,10.17,0,0,1,1.17-.09c1.176,0,2.256.274,2.447,1.468.233,1.464-1.331,2.564-2.94,1.528a6.83,6.83,0,0,1-2.136-2.282c-.225.094-.451.188-.684.263-.959.33-1.906.7-2.873,1l-.827.252c.305.022.609.06.91.113,1.162.206,2.162.687,2.128,1.9-.045,1.483-1.786,2.252-3.173.95a6.792,6.792,0,0,1-1.632-2.444c-1.09.308-2.188.6-3.3.837-.421.094-.846.184-1.27.27a11.247,11.247,0,0,1,1.417.146c1.162.206,2.166.691,2.128,1.9-.041,1.5-1.786,2.271-3.173.95a6.791,6.791,0,0,1-1.7-2.752c-.541.09-1.082.165-1.631.229a1.811,1.811,0,0,1-2.7,1.314,6.642,6.642,0,0,1-1.925-1.243,1.747,1.747,0,0,1-.338-.049h-.06c-3.076,1.76-6.25,3.345-9.483,4.79q-3.068,1.362-6.208,2.545c-2.1.781-4.2,1.5-6.392,2.147l-.568-2.14c2.072-.548,4.185-1.235,6.249-1.955s4.136-1.524,6.148-2.372c2.692-1.126,5.347-2.372,7.937-3.724a3.964,3.964,0,0,1-.4-.252,1.941,1.941,0,0,1-.436-.405l1.2-.86-.019-.022.03.03.1.079a1.952,1.952,0,0,0,.233.158,4.015,4.015,0,0,0,.575.27l.236.086a7.506,7.506,0,0,1-.7-2.594c-.147-2.012,1.463-3,2.58-2.083.91.751.673,1.9.139,3-.154.315-.331.627-.508.927l.835-.477c.82-.48,1.628-.976,2.429-1.479a7.5,7.5,0,0,1-.79-2.778c-.15-2.012,1.459-3,2.58-2.083.91.751.669,1.9.135,3-.154.323-.335.638-.515.946q.861-.567,1.711-1.152c.417-.293.831-.593,1.244-.893.53-.484,1.049-.987,1.557-1.5.274-.282.549-.571.816-.86a7.519,7.519,0,0,1-2.136-1.67c-1.323-1.524-.62-3.27.82-3.209,1.173.049,1.673,1.126,1.914,2.331a14.683,14.683,0,0,1,.2,1.659,32.475,32.475,0,0,0,3.008-4.05,27.916,27.916,0,0,0,1.44-2.628,7.554,7.554,0,0,1-2.32-1.764c-1.327-1.524-.621-3.266.819-3.206,1.174.049,1.674,1.126,1.914,2.327A13.052,13.052,0,0,1,117.541,76a21.956,21.956,0,0,0,.937-2.827,19.513,19.513,0,0,0,.571-5.935,7.5,7.5,0,0,1-3.008-.788c-1.8-.923-1.8-2.8-.436-3.285,1.1-.375,1.966.417,2.632,1.453a12.632,12.632,0,0,1,.688,1.231v-.038a30.343,30.343,0,0,0-1.361-6.107,7.591,7.591,0,0,1-3.23-.285c-1.925-.627-2.218-2.481-.955-3.172,1.03-.563,2.012.1,2.843,1.014a14.1,14.1,0,0,1,.9,1.126c-.733-2.076-1.53-4.155-2.173-6.284v-.049a7.6,7.6,0,0,1-3.279-1.006c-1.726-1.055-1.579-2.932-.188-3.307,1.128-.308,1.933.559,2.527,1.644.165.3.315.619.451.938q-.564-2.207-.91-4.456h-.15a.068.068,0,0,1,0-.053,7.565,7.565,0,0,1-3.313-1.047c-1.726-1.055-1.579-2.932-.188-3.307,1.128-.308,1.933.559,2.527,1.644a24.141,24.141,0,0,1,1.06,2.444c-.079-.544-.147-1.089-.207-1.637a63.662,63.662,0,0,1-.334-7.575A61.3,61.3,0,0,0,113.653,45a14.371,14.371,0,0,1,.651-1.836c.489-1.07,1.207-1.922,2.369-1.588,1.429.405,1.759,2.286.139,3.3a6.846,6.846,0,0,1-3.008.965,42.541,42.541,0,0,0,1.327,5.405c.019.056.038.113.053.169a15.912,15.912,0,0,1,.688-1.978c.489-1.07,1.2-1.922,2.369-1.592,1.428.409,1.759,2.29.135,3.307a6.832,6.832,0,0,1-2.967.961c.7,2.1,1.561,4.129,2.354,6.231.041.1.075.206.117.308a12.946,12.946,0,0,1,.188-1.746c.222-1.16.722-2.151,1.929-2.1,1.485.064,2.256,1.817.906,3.183a6.912,6.912,0,0,1-2.674,1.625,31.084,31.084,0,0,1,1.527,6.111V65.8a11.083,11.083,0,0,1,.376-1.235c.41-1.1,1.056-2.008,2.256-1.764a1.641,1.641,0,0,1,1.192,2.3,1.506,1.506,0,0,1,.733.022c1.128.308,1.38,1.46,1.342,2.7a8.051,8.051,0,0,1-.079.968,31.393,31.393,0,0,0,2.016-5.465,7.484,7.484,0,0,1-2.55-1.667c-1.421-1.441-.823-3.224.617-3.254,1.173-.026,1.737,1.01,2.053,2.207a10.907,10.907,0,0,1,.241,1.2,30.22,30.22,0,0,0,.639-5.5,7.557,7.557,0,0,1-3.057-1.029c-1.722-1.055-1.575-2.928-.188-3.3,1.128-.308,1.933.559,2.531,1.644a14.618,14.618,0,0,1,.721,1.6c0-.751-.037-1.5-.079-2.252-.071-.968-.169-1.933-.3-2.9a7.574,7.574,0,0,1-3.008-1.021c-1.722-1.051-1.58-2.928-.188-3.3,1.128-.308,1.932.559,2.53,1.644.139.255.263.518.376.785-.271-1.674-.586-3.345-.887-5.019C126.836,42.061,126.656,40.965,126.52,39.861Zm-7.174,35.263c-.075-.15-.15-.3-.218-.465-.113.375-.233.751-.376,1.126.124-.154.248-.312.376-.454Zm-11.84,17.969v-.375a6.777,6.777,0,0,1-1.414-.995l-.075.053-.154-.229q-.891.586-1.8,1.152a1.829,1.829,0,0,1,1.606.612C106.276,93.262,106.893,93.191,107.506,93.093Zm9.005-12.541c-.274.462-.564.916-.865,1.363h.117q1.161-1.126,2.256-2.309c.511-.548,1.011-1.126,1.5-1.689a7.438,7.438,0,0,1-1.553-.154,27.348,27.348,0,0,1-1.459,2.8Zm6.264-12.5a2.585,2.585,0,0,1-.312-1.779,6.968,6.968,0,0,1-2.542.972,20.166,20.166,0,0,1-.116,4.261,1.419,1.419,0,0,1,1.128.041c1.071.48,1.128,1.655.91,2.872v.056l.064.037a2.2,2.2,0,0,1,.18.139c.038-.049.075-.1.109-.15a38.756,38.756,0,0,0,2.572-4.129,7.476,7.476,0,0,1-1.993-2.3Z" fill="#6449d1"/>
    <path id="Tracé_33" data-name="Tracé 33" d="M128.4,23.517a25.134,25.134,0,0,0-1.639,6.4,35.582,35.582,0,0,0-.222,6.607v.259a17.288,17.288,0,0,1,.752-2.155c.489-1.07,1.2-1.922,2.365-1.592,1.432.409,1.763,2.29.139,3.307a6.905,6.905,0,0,1-3.215.976,45.168,45.168,0,0,0,.782,5.417,16.672,16.672,0,0,1,.711-2.061c.489-1.074,1.207-1.922,2.369-1.592,1.428.409,1.759,2.29.139,3.307a6.9,6.9,0,0,1-3.1.968c.41,2.057.869,4.11,1.188,6.194a17.393,17.393,0,0,1,.722-2.095c.489-1.07,1.2-1.922,2.369-1.592,1.429.409,1.76,2.29.139,3.307a6.909,6.909,0,0,1-3.143.972c.135.924.252,1.847.342,2.778.053.687.1,1.374.124,2.065a11.59,11.59,0,0,1,.489-1.314c.489-1.074,1.207-1.922,2.369-1.592,1.429.409,1.759,2.29.139,3.307a6.827,6.827,0,0,1-2.971.957,30.669,30.669,0,0,1-.605,6.006,12.169,12.169,0,0,1,.842-1.239c.752-.923,1.636-1.577,2.681-.972,1.29.751,1.155,2.628-.665,3.239a6.894,6.894,0,0,1-3.14.21,32.313,32.313,0,0,1-2.132,6.006,12.347,12.347,0,0,1,.978-.792c.966-.676,2.015-1.047,2.85-.173,1.026,1.074.357,2.864-1.561,2.92a6.812,6.812,0,0,1-2.921-.612,41.457,41.457,0,0,1-2.5,4.2c-.146.214-.3.42-.443.631q0,.107,0,.214a5.85,5.85,0,0,1,.594-.323c1.056-.522,2.15-.728,2.838.267.85,1.22-.086,2.883-1.989,2.628a6.774,6.774,0,0,1-2.684-.991l-.128.053q-1.128,1.438-2.324,2.8c-.6.676-1.229,1.336-1.88,1.989.891.9.534,2.511-1.154,2.95a6.582,6.582,0,0,1-2.151.165q-1.937,1.685-3.985,3.228a1.394,1.394,0,0,1,1.177.751,1.817,1.817,0,0,1-.271,2.072,1.589,1.589,0,0,1-.478,1.066c1.046-.2,2.083-.435,3.121-.7a7.522,7.522,0,0,1,.256-3.089c.6-1.929,2.455-2.252,3.162-1,.579,1.017-.068,2-.974,2.849a13.024,13.024,0,0,1-1.094.886l1.128-.312c.962-.263,1.88-.6,2.85-.9.233-.068.462-.15.692-.24a7.485,7.485,0,0,1-.327-3.082c.222-2.008,1.985-2.673,2.917-1.573.752.893.313,1.986-.421,2.984a14.581,14.581,0,0,1-1.045,1.231l.978-.375a50.758,50.758,0,0,0,6.305-3.157,7.587,7.587,0,0,1-.669-3.213c.022-2.016,1.711-2.853,2.748-1.854.843.811.508,1.944-.12,3a15.5,15.5,0,0,1-1.128,1.618q1.727-1.053,3.384-2.219c.7-.473,1.354-.995,2.023-1.5a7.54,7.54,0,0,1-1.2-3.21c-.241-2,1.323-3.052,2.481-2.2.944.7.752,1.877.275,3a19.238,19.238,0,0,1-1.1,2.053c.752-.616,1.5-1.224,2.233-1.877a44.533,44.533,0,0,0,4.264-4.246,45.057,45.057,0,0,1-4.136,4.381c-.669.642-1.372,1.242-2.071,1.851a14.988,14.988,0,0,1,1.921-.661c1.147-.282,2.256-.248,2.718.867.564,1.374-.71,2.8-2.515,2.158a6.911,6.911,0,0,1-2.719-1.877c-.643.522-1.282,1.055-1.951,1.543q-1.579,1.182-3.234,2.252a12.905,12.905,0,0,1,1.677-.334c1.173-.131,2.256.049,2.583,1.216.376,1.434-1.064,2.68-2.771,1.813a6.86,6.86,0,0,1-2.4-2.113,50.253,50.253,0,0,1-6.23,3.378l-.662.282a10.17,10.17,0,0,1,1.17-.09c1.176,0,2.256.274,2.447,1.468.233,1.464-1.331,2.564-2.94,1.528a6.83,6.83,0,0,1-2.136-2.282c-.225.094-.451.188-.684.263-.959.33-1.906.7-2.873,1l-.827.252c.305.022.609.06.91.113,1.162.206,2.162.687,2.128,1.9-.045,1.483-1.786,2.252-3.173.95a6.792,6.792,0,0,1-1.632-2.444c-1.09.308-2.188.6-3.3.837-.421.094-.846.184-1.27.27a11.247,11.247,0,0,1,1.417.146c1.162.206,2.166.691,2.128,1.9-.041,1.5-1.786,2.271-3.173.95a6.791,6.791,0,0,1-1.7-2.752c-.541.09-1.082.165-1.631.229a1.811,1.811,0,0,1-2.7,1.314,6.642,6.642,0,0,1-1.925-1.243,1.747,1.747,0,0,1-.338-.049h-.06c-3.076,1.76-6.25,3.345-9.483,4.79q-3.068,1.362-6.208,2.545c-2.1.781-4.2,1.5-6.392,2.147l-.568-2.14c2.072-.548,4.185-1.235,6.249-1.955s4.136-1.524,6.148-2.372c2.692-1.126,5.347-2.372,7.937-3.724a3.981,3.981,0,0,1-.4-.252,1.945,1.945,0,0,1-.436-.405l1.2-.86-.019-.022.03.03.1.079a1.94,1.94,0,0,0,.233.158,4.015,4.015,0,0,0,.575.27l.236.086a7.506,7.506,0,0,1-.7-2.594c-.147-2.012,1.463-3,2.58-2.083.91.751.673,1.9.139,3-.154.315-.331.627-.508.927l.835-.477c.82-.48,1.628-.976,2.429-1.479a7.5,7.5,0,0,1-.79-2.778c-.15-2.012,1.459-3,2.58-2.083.91.751.669,1.9.135,3-.154.323-.335.638-.515.946q.861-.567,1.711-1.152c.417-.293.831-.593,1.244-.893.53-.484,1.049-.987,1.557-1.5.274-.282.549-.571.816-.86a7.519,7.519,0,0,1-2.136-1.67c-1.323-1.524-.62-3.27.82-3.209,1.173.049,1.673,1.126,1.914,2.331a14.683,14.683,0,0,1,.2,1.659,32.475,32.475,0,0,0,3.008-4.05,27.916,27.916,0,0,0,1.44-2.628,7.554,7.554,0,0,1-2.32-1.764c-1.327-1.524-.621-3.266.819-3.206,1.174.049,1.674,1.126,1.914,2.327A13.052,13.052,0,0,1,117.541,76a21.959,21.959,0,0,0,.937-2.826,19.514,19.514,0,0,0,.571-5.935,7.5,7.5,0,0,1-3.008-.788c-1.8-.923-1.8-2.8-.436-3.285,1.1-.375,1.966.417,2.632,1.453a12.632,12.632,0,0,1,.688,1.231v-.038a30.343,30.343,0,0,0-1.361-6.107,7.591,7.591,0,0,1-3.23-.285c-1.925-.627-2.218-2.481-.955-3.172,1.03-.563,2.012.1,2.843,1.014a14.114,14.114,0,0,1,.9,1.126c-.733-2.076-1.53-4.155-2.173-6.284v-.049a7.6,7.6,0,0,1-3.279-1.006c-1.726-1.055-1.579-2.932-.188-3.307,1.128-.308,1.933.559,2.527,1.644.165.3.315.619.451.938q-.564-2.207-.91-4.456h-.15a.068.068,0,0,1,0-.053,7.565,7.565,0,0,1-3.313-1.047c-1.726-1.055-1.579-2.932-.188-3.307,1.128-.308,1.933.559,2.527,1.644a24.141,24.141,0,0,1,1.06,2.444c-.079-.544-.147-1.089-.207-1.637a63.662,63.662,0,0,1-.334-7.575A61.3,61.3,0,0,0,113.653,45a14.376,14.376,0,0,1,.651-1.836c.489-1.07,1.207-1.922,2.369-1.588,1.429.405,1.759,2.286.139,3.3a6.846,6.846,0,0,1-3.008.965,42.541,42.541,0,0,0,1.327,5.405c.019.056.038.113.053.169a15.908,15.908,0,0,1,.688-1.978c.489-1.07,1.2-1.922,2.369-1.592,1.428.409,1.759,2.29.135,3.307a6.834,6.834,0,0,1-2.967.961c.7,2.1,1.561,4.129,2.354,6.231.041.1.075.206.117.308a12.946,12.946,0,0,1,.188-1.746c.222-1.16.722-2.151,1.929-2.1,1.485.064,2.256,1.817.906,3.183a6.912,6.912,0,0,1-2.674,1.625,31.084,31.084,0,0,1,1.527,6.111V65.8a11.083,11.083,0,0,1,.376-1.235c.41-1.1,1.056-2.008,2.256-1.764a1.641,1.641,0,0,1,1.192,2.3,1.5,1.5,0,0,1,.733.023c1.128.308,1.38,1.46,1.342,2.7a8.051,8.051,0,0,1-.079.968,31.4,31.4,0,0,0,2.016-5.465,7.485,7.485,0,0,1-2.55-1.667c-1.421-1.441-.823-3.224.617-3.254,1.173-.026,1.737,1.01,2.053,2.207a10.907,10.907,0,0,1,.241,1.2,30.219,30.219,0,0,0,.639-5.5,7.558,7.558,0,0,1-3.057-1.028c-1.722-1.055-1.575-2.928-.188-3.3,1.128-.308,1.933.559,2.531,1.644a14.618,14.618,0,0,1,.721,1.6c0-.751-.037-1.5-.079-2.252-.071-.968-.169-1.933-.3-2.9a7.574,7.574,0,0,1-3.008-1.021c-1.722-1.051-1.58-2.928-.188-3.3,1.128-.308,1.932.559,2.53,1.644.139.255.263.518.376.785-.259-1.625-.568-3.243-.861-4.88a7.532,7.532,0,0,1-3.185-1.04c-1.725-1.055-1.579-2.928-.191-3.307,1.128-.3,1.932.563,2.53,1.648a12.281,12.281,0,0,1,.609,1.317c-.109-.683-.214-1.37-.3-2.061-.075-.548-.1-1.1-.157-1.659-.034-.312-.053-.627-.064-.942a7.6,7.6,0,0,1-3.211-1.04c-1.726-1.055-1.58-2.932-.188-3.307,1.128-.308,1.932.559,2.526,1.644a16.322,16.322,0,0,1,.839,1.877,35.768,35.768,0,0,1,.376-6.539A25.182,25.182,0,0,1,128.4,23.517Zm-24.35,69.2a1.832,1.832,0,0,1,1.606.612c.616-.049,1.233-.12,1.846-.2v-.375a6.777,6.777,0,0,1-1.414-.995l-.075.053-.154-.229Q104.96,92.132,104.054,92.718Zm12.457-12.132c-.274.462-.564.916-.865,1.363h.117q1.161-1.126,2.256-2.309c.511-.548,1.011-1.126,1.5-1.689a7.438,7.438,0,0,1-1.553-.154,27.333,27.333,0,0,1-1.459,2.77Zm2.256-4.775c.124-.154.248-.312.376-.454l.2-.214c-.075-.15-.15-.3-.218-.465-.113.375-.233.751-.376,1.126Zm4.012-7.721a2.579,2.579,0,0,1-.312-1.779,6.968,6.968,0,0,1-2.542.972,20.165,20.165,0,0,1-.116,4.26,1.42,1.42,0,0,1,1.128.041c1.071.48,1.128,1.655.909,2.872v.056l.064.037c.064.045.124.09.181.139.037-.049.075-.1.109-.15a38.749,38.749,0,0,0,2.572-4.129,7.511,7.511,0,0,1-2-2.339Z" fill="#6449d1"/>
    <g id="Groupe_2" data-name="Groupe 2" opacity="0.7">
      <path id="Tracé_34" data-name="Tracé 34" d="M126.52,39.86c-.075-.548-.1-1.1-.158-1.659s-.071-1.126-.094-1.663a36.026,36.026,0,0,1,.357-6.637A25.141,25.141,0,0,1,128.4,23.52a25.133,25.133,0,0,0-1.639,6.4,35.583,35.583,0,0,0-.222,6.607c.191,4.4,1.466,8.634,2.139,13.018a17.385,17.385,0,0,1,.722-2.095c.489-1.07,1.2-1.922,2.369-1.592,1.429.409,1.76,2.29.139,3.307a6.911,6.911,0,0,1-3.143.972c.135.923.252,1.847.342,2.778.052.687.1,1.374.124,2.065a11.448,11.448,0,0,1,.485-1.306c.489-1.074,1.207-1.922,2.369-1.592,1.429.409,1.759,2.29.139,3.307a6.83,6.83,0,0,1-2.971.957,30.67,30.67,0,0,1-.605,6.006,12.159,12.159,0,0,1,.842-1.239c.752-.923,1.636-1.576,2.681-.972,1.29.751,1.155,2.628-.665,3.239a6.894,6.894,0,0,1-3.14.21,32.31,32.31,0,0,1-2.132,6.006,12.346,12.346,0,0,1,.978-.792c.966-.676,2.015-1.047,2.85-.173,1.026,1.074.357,2.864-1.561,2.92a6.812,6.812,0,0,1-2.921-.612,41.468,41.468,0,0,1-2.5,4.2c-.146.214-.3.42-.443.631q0,.107,0,.214a5.831,5.831,0,0,1,.594-.323c1.056-.522,2.15-.728,2.838.267.85,1.22-.086,2.883-1.989,2.628a6.776,6.776,0,0,1-2.684-.991l-.128.053q-1.128,1.438-2.324,2.8c-.6.676-1.229,1.336-1.88,1.989.891.9.534,2.511-1.154,2.951a6.585,6.585,0,0,1-2.151.165q-1.937,1.686-3.985,3.228a1.394,1.394,0,0,1,1.177.751,1.817,1.817,0,0,1-.271,2.072,1.589,1.589,0,0,1-.478,1.066c1.046-.2,2.083-.436,3.121-.7a7.522,7.522,0,0,1,.256-3.089c.6-1.929,2.455-2.252,3.162-1,.579,1.017-.068,2-.974,2.849a13.023,13.023,0,0,1-1.094.886l1.128-.312c.962-.263,1.88-.6,2.85-.9.233-.068.462-.15.692-.24a7.486,7.486,0,0,1-.327-3.082c.222-2.008,1.985-2.673,2.917-1.573.752.893.313,1.986-.421,2.984a14.6,14.6,0,0,1-1.045,1.231l.978-.375a50.743,50.743,0,0,0,6.305-3.157,7.587,7.587,0,0,1-.669-3.213c.022-2.016,1.711-2.853,2.748-1.854.843.811.508,1.944-.12,3a15.474,15.474,0,0,1-1.128,1.618q1.727-1.053,3.384-2.219c.7-.473,1.354-.995,2.023-1.5a7.539,7.539,0,0,1-1.2-3.209c-.241-2,1.323-3.052,2.481-2.2.944.7.752,1.877.275,3a19.219,19.219,0,0,1-1.1,2.053c.752-.616,1.5-1.224,2.233-1.877a44.545,44.545,0,0,0,4.264-4.246,45.068,45.068,0,0,1-4.136,4.381c-.669.642-1.372,1.243-2.071,1.851a15,15,0,0,1,1.921-.661c1.147-.282,2.256-.248,2.718.867.564,1.374-.71,2.8-2.515,2.158a6.912,6.912,0,0,1-2.719-1.877c-.643.522-1.282,1.055-1.951,1.543q-1.579,1.182-3.234,2.252a12.907,12.907,0,0,1,1.677-.334c1.173-.131,2.256.049,2.583,1.216.376,1.434-1.064,2.68-2.771,1.813a6.861,6.861,0,0,1-2.4-2.113,50.252,50.252,0,0,1-6.23,3.378l-.662.282a10.17,10.17,0,0,1,1.17-.09c1.176,0,2.256.274,2.447,1.468.233,1.464-1.331,2.564-2.94,1.528a6.831,6.831,0,0,1-2.136-2.282c-.225.094-.451.188-.684.263-.959.33-1.906.7-2.873,1l-.827.251c.305.023.609.06.91.113,1.162.207,2.162.687,2.128,1.9-.045,1.483-1.786,2.252-3.173.95a6.792,6.792,0,0,1-1.632-2.444c-1.09.308-2.188.6-3.3.837-.421.094-.846.184-1.27.27a11.285,11.285,0,0,1,1.417.146c1.162.206,2.166.691,2.128,1.9-.041,1.5-1.786,2.271-3.173.95a6.792,6.792,0,0,1-1.7-2.752c-.541.09-1.082.165-1.631.229a1.811,1.811,0,0,1-2.7,1.314,6.644,6.644,0,0,1-1.925-1.243,1.755,1.755,0,0,1-.338-.049h-.06c-3.076,1.76-6.25,3.345-9.483,4.79q-3.068,1.362-6.208,2.545c-2.1.781-4.2,1.5-6.392,2.147l-.568-2.14c2.072-.548,4.185-1.235,6.249-1.955s4.136-1.524,6.148-2.372c2.692-1.126,5.347-2.372,7.937-3.724a3.944,3.944,0,0,1-.4-.251,1.945,1.945,0,0,1-.436-.405l1.2-.86-.019-.022.03.03.1.079a1.952,1.952,0,0,0,.233.158,4.025,4.025,0,0,0,.575.27l.236.086a7.507,7.507,0,0,1-.7-2.594c-.147-2.012,1.463-3,2.58-2.083.91.751.673,1.9.139,3-.154.315-.331.627-.508.927l.835-.477c.82-.48,1.628-.976,2.429-1.479a7.5,7.5,0,0,1-.79-2.778c-.15-2.012,1.459-3,2.58-2.083.91.751.669,1.9.135,3-.154.323-.335.638-.515.946q.861-.567,1.711-1.152c.417-.293.831-.593,1.244-.893.53-.484,1.049-.987,1.557-1.5.274-.282.549-.571.816-.86a7.517,7.517,0,0,1-2.136-1.67c-1.323-1.524-.62-3.27.82-3.21,1.173.049,1.673,1.126,1.914,2.331a14.685,14.685,0,0,1,.2,1.659,32.475,32.475,0,0,0,3.008-4.05,27.941,27.941,0,0,0,1.44-2.628,7.557,7.557,0,0,1-2.32-1.764c-1.327-1.524-.621-3.266.819-3.206,1.174.049,1.674,1.126,1.914,2.327A13.054,13.054,0,0,1,117.541,76a21.961,21.961,0,0,0,.937-2.827,19.513,19.513,0,0,0,.571-5.935,7.5,7.5,0,0,1-3.008-.788c-1.8-.923-1.8-2.8-.436-3.285,1.1-.375,1.966.417,2.632,1.453a12.629,12.629,0,0,1,.688,1.231v-.037a30.344,30.344,0,0,0-1.361-6.107,7.591,7.591,0,0,1-3.23-.285c-1.925-.627-2.218-2.481-.955-3.172,1.03-.563,2.012.1,2.843,1.014a14.115,14.115,0,0,1,.9,1.126c-.733-2.076-1.53-4.155-2.173-6.284v-.049a7.6,7.6,0,0,1-3.279-1.006c-1.726-1.055-1.579-2.932-.188-3.307,1.128-.308,1.933.559,2.527,1.644.165.3.315.619.451.938q-.564-2.207-.91-4.456h-.15a.068.068,0,0,1,0-.053,7.564,7.564,0,0,1-3.313-1.047c-1.726-1.055-1.579-2.932-.188-3.307,1.128-.308,1.933.559,2.527,1.644a24.16,24.16,0,0,1,1.06,2.444c-.079-.544-.147-1.089-.207-1.637a63.664,63.664,0,0,1-.334-7.575A61.3,61.3,0,0,0,113.653,45a14.371,14.371,0,0,1,.651-1.836c.489-1.07,1.207-1.922,2.369-1.588,1.429.405,1.759,2.286.139,3.3a6.849,6.849,0,0,1-3.008.965,42.545,42.545,0,0,0,1.327,5.405c.019.056.038.113.053.169a15.907,15.907,0,0,1,.688-1.978c.489-1.07,1.2-1.922,2.369-1.592,1.428.409,1.759,2.29.135,3.307a6.831,6.831,0,0,1-2.967.961c.7,2.1,1.561,4.129,2.354,6.231.041.1.075.206.117.308a12.948,12.948,0,0,1,.188-1.746c.222-1.16.722-2.151,1.929-2.1,1.485.064,2.256,1.817.906,3.183a6.912,6.912,0,0,1-2.674,1.625,31.083,31.083,0,0,1,1.527,6.111V65.8a11.089,11.089,0,0,1,.376-1.235c.41-1.1,1.056-2.008,2.256-1.764a1.641,1.641,0,0,1,1.192,2.3,1.506,1.506,0,0,1,.733.022c1.128.308,1.38,1.46,1.342,2.7a8.052,8.052,0,0,1-.079.968,31.4,31.4,0,0,0,2.016-5.465,7.483,7.483,0,0,1-2.55-1.667c-1.421-1.441-.823-3.224.617-3.255,1.173-.026,1.737,1.01,2.053,2.207a10.911,10.911,0,0,1,.241,1.2,30.219,30.219,0,0,0,.639-5.5,7.557,7.557,0,0,1-3.057-1.029c-1.722-1.055-1.575-2.928-.188-3.3,1.128-.308,1.933.559,2.531,1.644a14.618,14.618,0,0,1,.721,1.6c0-.751-.037-1.5-.079-2.252-.071-.969-.169-1.933-.3-2.9a7.577,7.577,0,0,1-3.008-1.021c-1.722-1.051-1.58-2.928-.188-3.3,1.128-.308,1.932.559,2.53,1.644.139.255.263.518.376.785-.271-1.674-.586-3.344-.887-5.019C126.836,42.06,126.656,40.964,126.52,39.86Zm-7.174,35.263c-.075-.15-.15-.3-.218-.465-.113.375-.233.751-.376,1.126.124-.154.248-.312.376-.454Zm-11.84,17.969v-.375a6.772,6.772,0,0,1-1.414-.995l-.075.052-.154-.229q-.891.586-1.8,1.152a1.828,1.828,0,0,1,1.606.612C106.276,93.261,106.893,93.19,107.506,93.092Zm9.005-12.541c-.274.462-.564.916-.865,1.363h.117q1.161-1.126,2.256-2.309c.511-.548,1.011-1.126,1.5-1.689a7.438,7.438,0,0,1-1.553-.154,27.347,27.347,0,0,1-1.459,2.8Zm6.264-12.5a2.585,2.585,0,0,1-.312-1.779,6.97,6.97,0,0,1-2.542.972,20.166,20.166,0,0,1-.116,4.261,1.421,1.421,0,0,1,1.128.041c1.071.48,1.128,1.655.91,2.872v.056l.064.037a2.181,2.181,0,0,1,.18.139c.038-.049.075-.1.109-.15a38.736,38.736,0,0,0,2.572-4.129,7.476,7.476,0,0,1-1.993-2.3Z" fill="#fff" opacity="0.4"/>
      <path id="Tracé_35" data-name="Tracé 35" d="M128.4,23.517a25.134,25.134,0,0,0-1.639,6.4,35.582,35.582,0,0,0-.222,6.607v.259a17.288,17.288,0,0,1,.752-2.155c.489-1.07,1.2-1.922,2.365-1.592,1.432.409,1.763,2.29.139,3.307a6.905,6.905,0,0,1-3.215.976,45.168,45.168,0,0,0,.782,5.417,16.672,16.672,0,0,1,.711-2.061c.489-1.074,1.207-1.922,2.369-1.592,1.428.409,1.759,2.29.139,3.307a6.9,6.9,0,0,1-3.1.968c.41,2.057.869,4.11,1.188,6.194a17.393,17.393,0,0,1,.722-2.095c.489-1.07,1.2-1.922,2.369-1.592,1.429.409,1.76,2.29.139,3.307a6.909,6.909,0,0,1-3.143.972c.135.924.252,1.847.342,2.778.053.687.1,1.374.124,2.065a11.59,11.59,0,0,1,.489-1.314c.489-1.074,1.207-1.922,2.369-1.592,1.429.409,1.759,2.29.139,3.307a6.827,6.827,0,0,1-2.971.957,30.669,30.669,0,0,1-.605,6.006,12.169,12.169,0,0,1,.842-1.239c.752-.923,1.636-1.577,2.681-.972,1.29.751,1.155,2.628-.665,3.239a6.894,6.894,0,0,1-3.14.21,32.313,32.313,0,0,1-2.132,6.006,12.347,12.347,0,0,1,.978-.792c.966-.676,2.015-1.047,2.85-.173,1.026,1.074.357,2.864-1.561,2.92a6.812,6.812,0,0,1-2.921-.612,41.457,41.457,0,0,1-2.5,4.2c-.146.214-.3.42-.443.631q0,.107,0,.214a5.85,5.85,0,0,1,.594-.323c1.056-.522,2.15-.728,2.838.267.85,1.22-.086,2.883-1.989,2.628a6.774,6.774,0,0,1-2.684-.991l-.128.053q-1.128,1.438-2.324,2.8c-.6.676-1.229,1.336-1.88,1.989.891.9.534,2.511-1.154,2.95a6.582,6.582,0,0,1-2.151.165q-1.937,1.685-3.985,3.228a1.394,1.394,0,0,1,1.177.751,1.817,1.817,0,0,1-.271,2.072,1.589,1.589,0,0,1-.478,1.066c1.046-.2,2.083-.435,3.121-.7a7.522,7.522,0,0,1,.256-3.089c.6-1.929,2.455-2.252,3.162-1,.579,1.017-.068,2-.974,2.849a13.024,13.024,0,0,1-1.094.886l1.128-.312c.962-.263,1.88-.6,2.85-.9.233-.068.462-.15.692-.24a7.485,7.485,0,0,1-.327-3.082c.222-2.008,1.985-2.673,2.917-1.573.752.893.313,1.986-.421,2.984a14.581,14.581,0,0,1-1.045,1.231l.978-.375a50.758,50.758,0,0,0,6.305-3.157,7.587,7.587,0,0,1-.669-3.213c.022-2.016,1.711-2.853,2.748-1.854.843.811.508,1.944-.12,3a15.5,15.5,0,0,1-1.128,1.618q1.727-1.053,3.384-2.219c.7-.473,1.354-.995,2.023-1.5a7.54,7.54,0,0,1-1.2-3.21c-.241-2,1.323-3.052,2.481-2.2.944.7.752,1.877.275,3a19.238,19.238,0,0,1-1.1,2.053c.752-.616,1.5-1.224,2.233-1.877a44.533,44.533,0,0,0,4.264-4.246,45.057,45.057,0,0,1-4.136,4.381c-.669.642-1.372,1.242-2.071,1.851a14.988,14.988,0,0,1,1.921-.661c1.147-.282,2.256-.248,2.718.867.564,1.374-.71,2.8-2.515,2.158a6.911,6.911,0,0,1-2.719-1.877c-.643.522-1.282,1.055-1.951,1.543q-1.579,1.182-3.234,2.252a12.905,12.905,0,0,1,1.677-.334c1.173-.131,2.256.049,2.583,1.216.376,1.434-1.064,2.68-2.771,1.813a6.86,6.86,0,0,1-2.4-2.113,50.253,50.253,0,0,1-6.23,3.378l-.662.282a10.17,10.17,0,0,1,1.17-.09c1.176,0,2.256.274,2.447,1.468.233,1.464-1.331,2.564-2.94,1.528a6.83,6.83,0,0,1-2.136-2.282c-.225.094-.451.188-.684.263-.959.33-1.906.7-2.873,1l-.827.252c.305.022.609.06.91.113,1.162.206,2.162.687,2.128,1.9-.045,1.483-1.786,2.252-3.173.95a6.792,6.792,0,0,1-1.632-2.444c-1.09.308-2.188.6-3.3.837-.421.094-.846.184-1.27.27a11.247,11.247,0,0,1,1.417.146c1.162.206,2.166.691,2.128,1.9-.041,1.5-1.786,2.271-3.173.95a6.791,6.791,0,0,1-1.7-2.752c-.541.09-1.082.165-1.631.229a1.811,1.811,0,0,1-2.7,1.314,6.642,6.642,0,0,1-1.925-1.243,1.747,1.747,0,0,1-.338-.049h-.06c-3.076,1.76-6.25,3.345-9.483,4.79q-3.068,1.362-6.208,2.545c-2.1.781-4.2,1.5-6.392,2.147l-.568-2.14c2.072-.548,4.185-1.235,6.249-1.955s4.136-1.524,6.148-2.372c2.692-1.126,5.347-2.372,7.937-3.724a3.981,3.981,0,0,1-.4-.252,1.945,1.945,0,0,1-.436-.405l1.2-.86-.019-.022.03.03.1.079a1.94,1.94,0,0,0,.233.158,4.015,4.015,0,0,0,.575.27l.236.086a7.506,7.506,0,0,1-.7-2.594c-.147-2.012,1.463-3,2.58-2.083.91.751.673,1.9.139,3-.154.315-.331.627-.508.927l.835-.477c.82-.48,1.628-.976,2.429-1.479a7.5,7.5,0,0,1-.79-2.778c-.15-2.012,1.459-3,2.58-2.083.91.751.669,1.9.135,3-.154.323-.335.638-.515.946q.861-.567,1.711-1.152c.417-.293.831-.593,1.244-.893.53-.484,1.049-.987,1.557-1.5.274-.282.549-.571.816-.86a7.519,7.519,0,0,1-2.136-1.67c-1.323-1.524-.62-3.27.82-3.209,1.173.049,1.673,1.126,1.914,2.331a14.683,14.683,0,0,1,.2,1.659,32.475,32.475,0,0,0,3.008-4.05,27.916,27.916,0,0,0,1.44-2.628,7.554,7.554,0,0,1-2.32-1.764c-1.327-1.524-.621-3.266.819-3.206,1.174.049,1.674,1.126,1.914,2.327A13.052,13.052,0,0,1,117.541,76a21.959,21.959,0,0,0,.937-2.826,19.514,19.514,0,0,0,.571-5.935,7.5,7.5,0,0,1-3.008-.788c-1.8-.923-1.8-2.8-.436-3.285,1.1-.375,1.966.417,2.632,1.453a12.632,12.632,0,0,1,.688,1.231v-.038a30.343,30.343,0,0,0-1.361-6.107,7.591,7.591,0,0,1-3.23-.285c-1.925-.627-2.218-2.481-.955-3.172,1.03-.563,2.012.1,2.843,1.014a14.114,14.114,0,0,1,.9,1.126c-.733-2.076-1.53-4.155-2.173-6.284v-.049a7.6,7.6,0,0,1-3.279-1.006c-1.726-1.055-1.579-2.932-.188-3.307,1.128-.308,1.933.559,2.527,1.644.165.3.315.619.451.938q-.564-2.207-.91-4.456h-.15a.068.068,0,0,1,0-.053,7.565,7.565,0,0,1-3.313-1.047c-1.726-1.055-1.579-2.932-.188-3.307,1.128-.308,1.933.559,2.527,1.644a24.141,24.141,0,0,1,1.06,2.444c-.079-.544-.147-1.089-.207-1.637a63.662,63.662,0,0,1-.334-7.575A61.3,61.3,0,0,0,113.653,45a14.376,14.376,0,0,1,.651-1.836c.489-1.07,1.207-1.922,2.369-1.588,1.429.405,1.759,2.286.139,3.3a6.846,6.846,0,0,1-3.008.965,42.541,42.541,0,0,0,1.327,5.405c.019.056.038.113.053.169a15.908,15.908,0,0,1,.688-1.978c.489-1.07,1.2-1.922,2.369-1.592,1.428.409,1.759,2.29.135,3.307a6.834,6.834,0,0,1-2.967.961c.7,2.1,1.561,4.129,2.354,6.231.041.1.075.206.117.308a12.946,12.946,0,0,1,.188-1.746c.222-1.16.722-2.151,1.929-2.1,1.485.064,2.256,1.817.906,3.183a6.912,6.912,0,0,1-2.674,1.625,31.084,31.084,0,0,1,1.527,6.111V65.8a11.083,11.083,0,0,1,.376-1.235c.41-1.1,1.056-2.008,2.256-1.764a1.641,1.641,0,0,1,1.192,2.3,1.5,1.5,0,0,1,.733.023c1.128.308,1.38,1.46,1.342,2.7a8.051,8.051,0,0,1-.079.968,31.4,31.4,0,0,0,2.016-5.465,7.485,7.485,0,0,1-2.55-1.667c-1.421-1.441-.823-3.224.617-3.254,1.173-.026,1.737,1.01,2.053,2.207a10.907,10.907,0,0,1,.241,1.2,30.219,30.219,0,0,0,.639-5.5,7.558,7.558,0,0,1-3.057-1.028c-1.722-1.055-1.575-2.928-.188-3.3,1.128-.308,1.933.559,2.531,1.644a14.618,14.618,0,0,1,.721,1.6c0-.751-.037-1.5-.079-2.252-.071-.968-.169-1.933-.3-2.9a7.574,7.574,0,0,1-3.008-1.021c-1.722-1.051-1.58-2.928-.188-3.3,1.128-.308,1.932.559,2.53,1.644.139.255.263.518.376.785-.259-1.625-.568-3.243-.861-4.88a7.532,7.532,0,0,1-3.185-1.04c-1.725-1.055-1.579-2.928-.191-3.307,1.128-.3,1.932.563,2.53,1.648a12.281,12.281,0,0,1,.609,1.317c-.109-.683-.214-1.37-.3-2.061-.075-.548-.1-1.1-.157-1.659-.034-.312-.053-.627-.064-.942a7.6,7.6,0,0,1-3.211-1.04c-1.726-1.055-1.58-2.932-.188-3.307,1.128-.308,1.932.559,2.526,1.644a16.322,16.322,0,0,1,.839,1.877,35.768,35.768,0,0,1,.376-6.539A25.182,25.182,0,0,1,128.4,23.517Zm-24.35,69.2a1.832,1.832,0,0,1,1.606.612c.616-.049,1.233-.12,1.846-.2v-.375a6.777,6.777,0,0,1-1.414-.995l-.075.053-.154-.229Q104.96,92.132,104.054,92.718Zm12.457-12.132c-.274.462-.564.916-.865,1.363h.117q1.161-1.126,2.256-2.309c.511-.548,1.011-1.126,1.5-1.689a7.438,7.438,0,0,1-1.553-.154,27.333,27.333,0,0,1-1.459,2.77Zm2.256-4.775c.124-.154.248-.312.376-.454l.2-.214c-.075-.15-.15-.3-.218-.465-.113.375-.233.751-.376,1.126Zm4.012-7.721a2.579,2.579,0,0,1-.312-1.779,6.968,6.968,0,0,1-2.542.972,20.165,20.165,0,0,1-.116,4.26,1.42,1.42,0,0,1,1.128.041c1.071.48,1.128,1.655.909,2.872v.056l.064.037c.064.045.124.09.181.139.037-.049.075-.1.109-.15a38.749,38.749,0,0,0,2.572-4.129,7.511,7.511,0,0,1-2-2.339Z" fill="#fff" opacity="0.4"/>
    </g>
    <path id="Tracé_36" data-name="Tracé 36" d="M82.675,89.009,26.944,78.829a3.043,3.043,0,0,1-2.455-3.547l5.8-31.678a3.056,3.056,0,0,1,3.557-2.451l55.731,10.18a3.052,3.052,0,0,1,2.459,3.547L86.232,86.558a3.056,3.056,0,0,1-3.557,2.451Z" fill="#2e353a" stroke="#2e353a" stroke-linecap="round" stroke-linejoin="round" stroke-width="1"/>
    <path id="Tracé_37" data-name="Tracé 37" d="M81.791,49.925A32.729,32.729,0,0,1,68.3,54.245c-13.352.837-19.022-5.184-33.889-3.262a37.652,37.652,0,0,0-5.681,1.194L26.237,65.758a34.544,34.544,0,0,1,13.649-6.186c13.126-2.748,18.631,2.113,30.486.424,7.035-1,13.325-5.5,17.3-9.009Z" fill="#ff0c39" stroke="#2e353a" stroke-linecap="round" stroke-linejoin="round" stroke-width="1"/>
    <path id="Tracé_38" data-name="Tracé 38" d="M29.392,48.521c.523-.135,1.053-.266,1.6-.375,13.126-2.748,18.631,2.113,30.486.421a24.1,24.1,0,0,0,5.264-1.4l-32.562-5.95a3.406,3.406,0,0,0-3.959,2.733Z" fill="#ff0c39" stroke="#2e353a" stroke-linecap="round" stroke-linejoin="round" stroke-width="1"/>
    <path id="Tracé_39" data-name="Tracé 39" d="M34.314,51.641l-.753,4.091a1.149,1.149,0,0,0,.924,1.337l4.319.792a1.15,1.15,0,0,0,1.34-.922l.753-4.091a1.149,1.149,0,0,0-.924-1.337l-4.319-.792A1.15,1.15,0,0,0,34.314,51.641Z" fill="#fff" stroke="#2e353a" stroke-linecap="round" stroke-linejoin="round" stroke-width="0.996"/>
    <path id="Tracé_40" data-name="Tracé 40" d="M36.5,53.98l-.159.868a.563.563,0,0,0,.453.655l.939.172a.564.564,0,0,0,.656-.452l.159-.868A.563.563,0,0,0,38.1,53.7l-.939-.172A.564.564,0,0,0,36.5,53.98Z" fill="#fff" stroke="#2e353a" stroke-linecap="round" stroke-linejoin="round" stroke-width="1"/>
    <path id="Tracé_41" data-name="Tracé 41" d="M34.592,51.52l1.936.357a.687.687,0,0,1,.556.8h0l-.147.8" fill="none" stroke="#2e353a" stroke-linecap="round" stroke-linejoin="round" stroke-width="1"/>
    <path id="Tracé_42" data-name="Tracé 42" d="M41.21,52.729,39.3,52.38a.691.691,0,0,0-.808.552h0l-.147.8" fill="none" stroke="#2e353a" stroke-linecap="round" stroke-linejoin="round" stroke-width="1"/>
    <path id="Tracé_43" data-name="Tracé 43" d="M33.689,56.524l1.933.353a.691.691,0,0,0,.808-.559l.147-.8" fill="none" stroke="#2e353a" stroke-linecap="round" stroke-linejoin="round" stroke-width="1"/>
    <path id="Tracé_44" data-name="Tracé 44" d="M40.292,57.729l-1.91-.349a.691.691,0,0,1-.556-.8h0l.147-.8" fill="none" stroke="#2e353a" stroke-linecap="round" stroke-linejoin="round" stroke-width="1"/>
    <path id="Tracé_45" data-name="Tracé 45" d="M34.133,54.152l2.267.413" fill="none" stroke="#2e353a" stroke-linecap="round" stroke-linejoin="round" stroke-width="1"/>
    <path id="Tracé_46" data-name="Tracé 46" d="M38.394,54.929l2.267.413" fill="none" stroke="#2e353a" stroke-linecap="round" stroke-linejoin="round" stroke-width="1"/>
    <path id="Tracé_47" data-name="Tracé 47" d="M77.1,81.55A3.139,3.139,0,1,1,76.59,79.2,3.136,3.136,0,0,1,77.1,81.55Z" fill="#fff" stroke="#2e353a" stroke-linecap="round" stroke-linejoin="round" stroke-width="1"/>
    <path id="Tracé_48" data-name="Tracé 48" d="M81.3,82.32a3.13,3.13,0,1,1-.018-1.223A3.134,3.134,0,0,1,81.3,82.32Z" fill="#6449d1" stroke="#2e353a" stroke-linecap="round" stroke-linejoin="round" stroke-width="1"/>
    <path id="Tracé_49" data-name="Tracé 49" d="M76.7,46.922s11.2-1.836,12.686-1.749,14.01,3.285,14.01,3.285a7.316,7.316,0,0,1,.263,2.29,8.616,8.616,0,0,1-1.368,3.089L89.424,48.048l-11.81.548Z" fill="#fff" stroke="#2e353a" stroke-linecap="round" stroke-linejoin="round" stroke-width="1"/>
    <path id="Tracé_50" data-name="Tracé 50" d="M98.343,47.192l3.41,3.754L99.61,50.09l1.545,1.625-1.632-.687-.771.6-4.711-3.082,1.2,1.284s-5.742-3-6.016-3S78,48.453,78,48.453l.966.079,10.46-.484,12.848,5.788a8.631,8.631,0,0,0,1.369-3.089,7.626,7.626,0,0,0-.263-2.29S101.084,47.868,98.343,47.192Z" fill="#6449d1" opacity="0.5"/>
    <path id="Tracé_51" data-name="Tracé 51" d="M77.614,48.6a23.105,23.105,0,0,1-3.2.916c-.32-.03-1.835-.1-2.632-.135-.267,0-.526,0-.541-.27a.514.514,0,0,1,.425-.529l1.015-.176s-3.523-.5-3.79-.92,1.414-.229,1.842-.3c.662-.113,4-.071,4-.071l1.966-.184Z" fill="#fff" stroke="#2e353a" stroke-linecap="round" stroke-linejoin="round" stroke-width="1"/>
    <path id="Tracé_52" data-name="Tracé 52" d="M93.726,38.949l-.233,3.994,1.286.2s1.166,4.463,1.538,4.741,3.324-1.34,3.324-1.34l1.816,2.174,2.429-1.671-1.308-2s.827-7.582.537-9.279-1.3-2.143-3.624-2.279a10.247,10.247,0,0,0-4.181.672s.726-1.381-1.741-1.265a3.338,3.338,0,0,0-2.955,4.1C91.041,38.307,93.726,38.949,93.726,38.949Z" fill="#fff" stroke="#2e353a" stroke-linecap="round" stroke-linejoin="round" stroke-width="1"/>
    <path id="Tracé_53" data-name="Tracé 53" d="M102.569,45.019s.827-7.583.538-9.279-1.3-2.143-3.625-2.279a10.248,10.248,0,0,0-4.181.665.817.817,0,0,0-.09-.893,11.284,11.284,0,0,0-1.685.42c-.8.278-1.756.593-2.557.848a3.437,3.437,0,0,0-.425,2.252l.823,1.16a7.957,7.957,0,0,0,2.354,1.055l-.045.77a9.689,9.689,0,0,0,1.474.18,6.054,6.054,0,0,0,2.143-.683s-.752,1.2.169,1.877a3.349,3.349,0,0,0,1.8.687,17.3,17.3,0,0,1,.6,2.736c0,.533-2.455,2.53-3.531,3.378.44.222,3.294-1.366,3.294-1.366l1.816,2.174,2.429-1.671Z" fill="#6449d1" opacity="0.5"/>
    <path id="Tracé_54" data-name="Tracé 54" d="M103.107,35.739c-.293-1.7-1.3-2.143-3.625-2.278a10.246,10.246,0,0,0-4.181.664s.726-1.381-1.741-1.265a3.338,3.338,0,0,0-2.955,4.1c.429,1.318,3.121,1.993,3.121,1.993s3.241-.071,4.858-1.126c0,0-1.128,1.5-.917,2.406a.925.925,0,0,0,1.087.721h.041l.312,1.31s.752.432.907.053.124-2.188,1.128-1.5,1.049,2,.511,2.357-.91.075-.568.871,1.5.995,1.5.995S103.4,37.436,103.107,35.739Z" fill="#2e353a" stroke="#2e353a" stroke-linecap="round" stroke-linejoin="round" stroke-width="1"/>
    <path id="Tracé_55" data-name="Tracé 55" d="M95.88,35.353s-1.128-1.126-1.76.308.62,2.271,3.414,1.858A37.923,37.923,0,0,0,102.5,36.28" fill="none" stroke="#fff" stroke-linecap="round" stroke-linejoin="round" stroke-width="0.5"/>
    <path id="Tracé_56" data-name="Tracé 56" d="M97.843,38.664a12.535,12.535,0,0,0,5.181-.413" fill="none" stroke="#fff" stroke-linecap="round" stroke-linejoin="round" stroke-width="0.5"/>
    <path id="Tracé_57" data-name="Tracé 57" d="M95.729,40.976c.038.251-.026.473-.143.488s-.248-.173-.286-.424.026-.473.147-.492S95.692,40.721,95.729,40.976Z" fill="#2e353a"/>
    <path id="Tracé_58" data-name="Tracé 58" d="M96.256,45.2a1.785,1.785,0,0,0,1.474-.785" fill="none" stroke="#2e353a" stroke-linecap="round" stroke-linejoin="round" stroke-width="1"/>
    <path id="Tracé_59" data-name="Tracé 59" d="M94.9,39.358a.968.968,0,0,1,1.045.124" fill="none" stroke="#2e353a" stroke-linecap="round" stroke-linejoin="round" stroke-width="1"/>
    <path id="Tracé_60" data-name="Tracé 60" d="M108.506,71.321l.515,1.5s-8.9,5.942-11.242,8.307-4.531,4.587-4.313,5.777,2.929,18.1,2.929,18.1l3.384-.244s.218-16.452.685-16.865,13.942-9.343,13.942-9.343a3.343,3.343,0,0,1,1.759.105c.568.33,3.719,12.121,4.565,12.763s11.622,13.649,11.622,13.649l2.82-.721s-9.475-17.06-9.452-17.5a142.142,142.142,0,0,0-4.114-15.39c-1.568-4.448-3.331-6.074-3.331-6.074Z" fill="#2e353a" stroke="#2e353a" stroke-linecap="round" stroke-linejoin="round" stroke-width="1"/>
    <path id="Tracé_61" data-name="Tracé 61" d="M117.846,67.072s1.771,3.172,2.546,4.332.887,3.96.887,3.96,3.847,10.833,4.162,12.665,9.122,16.3,9.122,16.3" fill="none" stroke="#fff" stroke-linecap="round" stroke-linejoin="round" stroke-width="0.5"/>
    <path id="Tracé_62" data-name="Tracé 62" d="M109.476,76.359l4.944,2.2-3.508-.443" fill="none" stroke="#fff" stroke-linecap="round" stroke-linejoin="round" stroke-width="0.5"/>
    <path id="Tracé_63" data-name="Tracé 63" d="M102.738,84.084l-3.572,3.7s-3.076-.037-2.124.435a12.348,12.348,0,0,1,2.019,1.374v14.658" fill="none" stroke="#fff" stroke-linecap="round" stroke-linejoin="round" stroke-width="0.5"/>
    <path id="Tracé_64" data-name="Tracé 64" d="M109.593,71.9a13.163,13.163,0,0,0,8.719-5.631" fill="none" stroke="#fff" stroke-linecap="round" stroke-linejoin="round" stroke-width="0.5"/>
    <path id="Tracé_65" data-name="Tracé 65" d="M112.356,70.105l.493,1.145" fill="none" stroke="#fff" stroke-linecap="round" stroke-linejoin="round" stroke-width="0.5"/>
    <path id="Tracé_66" data-name="Tracé 66" d="M115.41,68.048l.643,1.014" fill="none" stroke="#fff" stroke-linecap="round" stroke-linejoin="round" stroke-width="0.5"/>
    <path id="Tracé_67" data-name="Tracé 67" d="M100.949,49.261a20.143,20.143,0,0,0,.481,6.937c.929,4.309,7.076,15.124,7.076,15.124l.985-.21a13.92,13.92,0,0,0,7.238-4.058l1.546-1.637S112.695,54.947,110.567,51a7.647,7.647,0,0,0-6.678-4.208C102.862,46.727,100.836,48.667,100.949,49.261Z" fill="#fff" stroke="#2e353a" stroke-linecap="round" stroke-linejoin="round" stroke-width="1"/>
    <g id="Groupe_3" data-name="Groupe 3" opacity="0.5">
      <path id="Tracé_68" data-name="Tracé 68" d="M110.567,50.991a7.544,7.544,0,0,0-5.287-4.035,8.1,8.1,0,0,1,3.67,3.468c1.128,2.395-.342,5.987-.342,5.987l-.019-.51c-.752,2.744-2.015,6.888-2.914,9.553l1.128-2.879.515-1.877,3.76,1.456L109.1,60.184a54.788,54.788,0,0,1,5.23,3.51,3.152,3.152,0,0,1,.858,3.754,7.907,7.907,0,0,1-1.237,1.836,14.094,14.094,0,0,0,2.756-2.252l1.545-1.637S112.695,54.936,110.567,50.991Z" fill="#6449d1" opacity="0.5"/>
    </g>
    <path id="Tracé_69" data-name="Tracé 69" d="M107.623,57.992s2.308-2.181,3.459-3.2" fill="none" stroke="#2e353a" stroke-linecap="round" stroke-linejoin="round" stroke-width="0.5"/>
    <path id="Tracé_70" data-name="Tracé 70" d="M111.191,57.763c.237-.06.466-.128.684-.206" fill="none" stroke="#2e353a" stroke-linecap="round" stroke-linejoin="round" stroke-width="0.5"/>
    <path id="Tracé_71" data-name="Tracé 71" d="M106.935,58.089a18.535,18.535,0,0,0,3.384-.154" fill="none" stroke="#2e353a" stroke-linecap="round" stroke-linejoin="round" stroke-width="0.5"/>
    <path id="Tracé_72" data-name="Tracé 72" d="M104.107,45.619l-4.452,3.127,1.234,1.539,4.177-3.435Z" fill="#fff" stroke="#2e353a" stroke-linecap="round" stroke-linejoin="round" stroke-width="1"/>
    <path id="Tracé_73" data-name="Tracé 73" d="M109.239,53.243c-.158,1.5-4.064,14.392-4.568,14.775s-16.593,4.64-16.593,4.64l-.872-1.291,13.818-6.854L104,51.089" fill="#fff"/>
    <path id="Tracé_74" data-name="Tracé 74" d="M109.239,53.243c-.158,1.5-4.064,14.392-4.568,14.775s-16.593,4.64-16.593,4.64l-.872-1.291,13.818-6.854L104,51.089" fill="none" stroke="#2e353a" stroke-linecap="round" stroke-linejoin="round" stroke-width="1"/>
    <path id="Tracé_75" data-name="Tracé 75" d="M108.592,55.9c-.037-1.014-.146-3.134-.409-2.74-.343.514-1.031,4.621-2.144,7.616s-3.256,4.279-2.827,4.362.771,1.456.771,1.456L88.435,72.564c.868-.229,3.241-.86,5.918-1.584l10.318-2.962,1.007-2.564C106.577,62.789,107.837,58.645,108.592,55.9Z" fill="#6449d1" opacity="0.5"/>
    <path id="Tracé_76" data-name="Tracé 76" d="M88.154,72.748l-.948-1.381-4.617-.908a.289.289,0,0,0-.327.252.048.048,0,0,0,0,.022.285.285,0,0,0,.18.285l1.692.7-1.218.995c-.35.27-1.857,1.175-1.97,1.52-.222.676.688.12.91.041.493-.18.8-.4,1.632-.724.162.221-1.711,1.265-1.925,1.434-.09.071-.237.158-.241.293-.03.518.839,0,1.041-.1.583-.244,1.158-.51,1.741-.751-.406.3-1.09.646-1.5.95a4.482,4.482,0,0,0-.541.375c-.211.214-.034.451.274.357a6.1,6.1,0,0,0,.959-.5c.47-.252.729-.48,1.2-.751-.338.263-.5.458-.846.721-.132.1-.432.278-.493.439-.218.563,1.015-.214,1.154-.315.485-.345,1.053-.631,1.5-1,.064-.053.752-.732.752-.725Z" fill="#fff" stroke="#2e353a" stroke-linecap="round" stroke-linejoin="round" stroke-width="0.5"/>
    <path id="Tracé_77" data-name="Tracé 77" d="M100.81,53.1,98.3,49.426" fill="none" stroke="#2e353a" stroke-linecap="round" stroke-linejoin="round" stroke-width="0.5"/>
    <path id="Tracé_78" data-name="Tracé 78" d="M100.55,52.984l-2.794-2.342" fill="none" stroke="#2e353a" stroke-linecap="round" stroke-linejoin="round" stroke-width="0.5"/>
    <path id="Tracé_79" data-name="Tracé 79" d="M96.4,105.011l-.252.271-1.771,1.876s-3.986,1.438-4.016,1.994,4.256.247,5.565.135a6.893,6.893,0,0,0,2.861-1.318s1.654.282,1.917-1a2.461,2.461,0,0,0-.906-2.207Z" fill="#fff" stroke="#2e353a" stroke-linecap="round" stroke-linejoin="round" stroke-width="1"/>
    <path id="Tracé_80" data-name="Tracé 80" d="M132.352,105.075a30.567,30.567,0,0,0-1.327,3.3c-.455,1.456-1.971,1.926-1.271,2.706s2.4.323,3.8-1.449,2.745-2.44,2.787-3.179-1.166-2.1-1.166-2.1Z" fill="#fff" stroke="#2e353a" stroke-linecap="round" stroke-linejoin="round" stroke-width="1"/>
    <path id="Tracé_81" data-name="Tracé 81" d="M129.72,111.077a4.653,4.653,0,0,0,2.715-.972c1.184-.987,2.173-2.958,2.865-3.453l.692-.492" fill="none" stroke="#2e353a" stroke-linecap="round" stroke-linejoin="round" stroke-width="0.5"/>
    <path id="Tracé_82" data-name="Tracé 82" d="M90.774,109.02s3.854-.394,5.433-.593,2.072-1.28,2.568-1.381a11.529,11.529,0,0,0,1.579-.492" fill="none" stroke="#2e353a" stroke-linecap="round" stroke-linejoin="round" stroke-width="0.5"/>
    <path id="Tracé_83" data-name="Tracé 83" d="M3.61,89.313A14.356,14.356,0,0,0,.549,99.662c.726,6.014,7.11,9.152,7.11,9.152L15.472,93.54a7.474,7.474,0,0,1-1.166-8.825S7.746,85.529,3.61,89.313Z" fill="#fff" stroke="#2e353a" stroke-linecap="round" stroke-linejoin="round" stroke-width="1"/>
    <path id="Tracé_84" data-name="Tracé 84" d="M3.61,89.313A14.356,14.356,0,0,0,.549,99.662c.726,6.014,7.11,9.152,7.11,9.152L15.472,93.54a7.474,7.474,0,0,1-1.166-8.825S7.746,85.529,3.61,89.313Z" fill="#6449d1" opacity="0.5"/>
    <path id="Tracé_85" data-name="Tracé 85" d="M37.359,78.033s-4.918.15-6.569.946-12.329,8.386-18.424,17.23a24.343,24.343,0,0,0-3.1,5.469,13.256,13.256,0,0,1-.617,1.55,14.613,14.613,0,0,0-1.391,7.658c.583,4.414,3.166,8.716,13.1,10.544s13.69-5.555,13.935-8.712c0,0,24.124,1.738,39.1,3.431s19.954.75,24.97,2.729,6.241,3.265,8.362,3.295,8.215-6.756,8.366-8.746-1.88-4.778-2.527-4.959-8.5-11.775-8.5-11.775-.353-2.279-3.786-4.129-20.53-7.02-29.873-9.595S42.134,78.007,37.359,78.033Z" fill="#fff" stroke="#2e353a" stroke-linecap="round" stroke-linejoin="round" stroke-width="1"/>
    <path id="Tracé_86" data-name="Tracé 86" d="M114.105,110.3a32.593,32.593,0,0,0-6.569-2.474L79.268,100.09,42,93.607s-15.5-2.507-22.41.837c-4.914,2.38-9.934,10.136-12.408,14.441a10.907,10.907,0,0,0,.071,2.012c.583,4.415,3.166,8.716,13.1,10.544s13.69-5.555,13.935-8.712c0,0,24.124,1.738,39.1,3.431s19.954.751,24.97,2.729,6.242,3.266,8.362,3.3,8.216-6.757,8.366-8.747A6.011,6.011,0,0,0,114.105,110.3Z" fill="#6449d1" opacity="0.5"/>
    <path id="Tracé_87" data-name="Tracé 87" d="M9.426,104.85s7.118-11.359,14.2-12.132,29.625,2.56,29.625,2.56" fill="none" stroke="#2e353a" stroke-linecap="round" stroke-linejoin="round" stroke-width="1"/>
    <path id="Tracé_88" data-name="Tracé 88" d="M55.6,95.721s13.912,2,32.1,6.591,25.568,7.132,26.55,8.015" fill="none" stroke="#2e353a" stroke-linecap="round" stroke-linejoin="round" stroke-width="1"/>
    <path id="Tracé_89" data-name="Tracé 89" d="M69.162,85.867s29.727,7.7,31.606,8.468a6.822,6.822,0,0,1,2.816,2.083" fill="#fff"/>
    <path id="Tracé_90" data-name="Tracé 90" d="M69.162,85.867s29.727,7.7,31.606,8.468a6.822,6.822,0,0,1,2.816,2.083" fill="none" stroke="#2e353a" stroke-linecap="round" stroke-linejoin="round" stroke-width="1"/>
    <path id="Tracé_91" data-name="Tracé 91" d="M31.934,79.6,24.316,90.653s10.754-.225,39.16,4.358l.658-10.135s-13.72-4.242-19.39-4.681S31.934,79.6,31.934,79.6Z" fill="#2e353a" stroke="#2e353a" stroke-linecap="round" stroke-linejoin="round" stroke-width="1"/>
    <path id="Tracé_92" data-name="Tracé 92" d="M24.44,90.649c.579,0,3.125,0,8.14.409l-5.29-4.722-.346.5Z" fill="#fff" stroke="#2e353a" stroke-linecap="round" stroke-linejoin="round" stroke-width="1"/>
    <path id="Tracé_93" data-name="Tracé 93" d="M31.934,79.6,30.486,81.7l12.6,10.417c3.211.375,6.881.856,11.043,1.46q2.211.248,4.6.541l-17.4-14.167C36.57,79.7,31.934,79.6,31.934,79.6Z" fill="#fff" stroke="#2e353a" stroke-linecap="round" stroke-linejoin="round" stroke-width="1"/>
    <path id="Tracé_94" data-name="Tracé 94" d="M64.642,87l-.1,6.006A11.55,11.55,0,0,1,70,93.836a13.538,13.538,0,0,0-.914-6.006Z" fill="#fff" stroke="#2e353a" stroke-miterlimit="10" stroke-width="1"/>
    <path id="Tracé_95" data-name="Tracé 95" d="M68.808,87.17a11.721,11.721,0,0,0-1.128-1.877l-3.008-.631-.03,1.877Z" fill="#fff" stroke="#2e353a" stroke-miterlimit="10" stroke-width="1"/>
    <path id="Tracé_96" data-name="Tracé 96" d="M64.529,93.821l-.03,1.667,5.11.8a11.674,11.674,0,0,0,.338-1.828A11,11,0,0,0,64.529,93.821Z" fill="#fff" stroke="#2e353a" stroke-miterlimit="10" stroke-width="1"/>
    <path id="Tracé_97" data-name="Tracé 97" d="M76.166,87.519a30.4,30.4,0,0,0-3.343-.676c-.489.03-.62.852-.62.852l1.023,2.016s-.165.33,1.324.792a5.524,5.524,0,0,0,2.948.375c.154-.188.128-.751.233-1.228S76.854,87.571,76.166,87.519Z" fill="#fff" stroke="#2e353a" stroke-linecap="round" stroke-linejoin="round" stroke-width="1"/>
    <path id="Tracé_98" data-name="Tracé 98" d="M78.039,91.051a25.376,25.376,0,0,0-3.328-.882c-.489.03-.978,1.032-.978,1.032a11.477,11.477,0,0,0,.681,2.819,18.59,18.59,0,0,0,3.933,1.066c.481.037.669-.571.714-1.19S78.584,91.216,78.039,91.051Z" fill="#fff" stroke="#2e353a" stroke-linecap="round" stroke-linejoin="round" stroke-width="1"/>
    <path id="Tracé_99" data-name="Tracé 99" d="M79.114,95.007s-3.594-.972-3.937-1-.835.9-.782,1.126-.023,2.072-.023,2.072l5.591,1.126-.421-2.59S79.554,95.593,79.114,95.007Z" fill="#fff" stroke="#2e353a" stroke-linecap="round" stroke-linejoin="round" stroke-width="1"/>
    <path id="Tracé_100" data-name="Tracé 100" d="M78.877,88.281l-.4.728,1.211,2.252s.034.421,1.188.717,3.267.751,3.267.751.605-.646.489-.931a11.591,11.591,0,0,0-1.936-2.706C82.164,88.776,79.039,87.947,78.877,88.281Z" fill="#fff" stroke="#2e353a" stroke-linecap="round" stroke-linejoin="round" stroke-width="1"/>
    <path id="Tracé_101" data-name="Tracé 101" d="M80.874,91.967a3.664,3.664,0,0,0-.417.935c-.022.274.357,2.515.94,3.044s3.944.931,4.425.968.609-.713.654-1.265a5.13,5.13,0,0,0-1.237-2.793,28.9,28.9,0,0,0-3.591-1.04S81.115,91.565,80.874,91.967Z" fill="#fff" stroke="#2e353a" stroke-linecap="round" stroke-linejoin="round" stroke-width="1"/>
    <path id="Tracé_102" data-name="Tracé 102" d="M86.743,96.96a1.127,1.127,0,0,0-.342-.2c-.775-.263-3.662-1.224-4.162-.961a1.763,1.763,0,0,0-.752,1.667A8.352,8.352,0,0,0,81.66,98.8l5.967,1.636L87.116,97.6a1.077,1.077,0,0,0-.376-.638Z" fill="#fff" stroke="#2e353a" stroke-linecap="round" stroke-linejoin="round" stroke-width="1"/>
    <path id="Tracé_103" data-name="Tracé 103" d="M85.055,89.865,84.9,91.029s.628,1.708,1.3,1.967,3.8.987,4.008,1,.677-.706.639-1.126a5.456,5.456,0,0,0-1.88-2.5c-.669-.248-3.4-.751-3.4-.751S84.946,89.512,85.055,89.865Z" fill="#fff" stroke="#2e353a" stroke-linecap="round" stroke-linejoin="round" stroke-width="1"/>
    <path id="Tracé_104" data-name="Tracé 104" d="M87.638,93.179l-.6,1.471s.782,2.414.895,2.766,4.474,1.246,4.689,1.126.718-.293.654-1.265-1.406-3.288-1.951-3.4-2.854-.706-3.061-.721S87.729,92.909,87.638,93.179Z" fill="#fff" stroke="#2e353a" stroke-linecap="round" stroke-linejoin="round" stroke-width="1"/>
    <path id="Tracé_105" data-name="Tracé 105" d="M89.293,97.733a4.742,4.742,0,0,0-.587,2.166,7.748,7.748,0,0,0,.451,1.347l5.907,1.5s-.7-2.545-.842-3.379-1.636-1.231-2.854-1.6S89.187,97.309,89.293,97.733Z" fill="#fff" stroke="#2e353a" stroke-linecap="round" stroke-linejoin="round" stroke-width="1"/>
    <path id="Tracé_106" data-name="Tracé 106" d="M91.255,91.179l-.09,1.167s1.44,1.978,1.824,2.354a13.215,13.215,0,0,0,3.809.916c.282-.049.4-.728.3-1.152a7.667,7.667,0,0,0-2.233-2.455c-.605-.255-3.106-1-3.106-1S91.082,90.747,91.255,91.179Z" fill="#fff" stroke="#2e353a" stroke-linecap="round" stroke-linejoin="round" stroke-width="1"/>
    <path id="Tracé_107" data-name="Tracé 107" d="M93.947,94.842s-.4,1.562-.2,1.712,1.06,2.436,1.523,2.676a19.247,19.247,0,0,0,4.3.885c.425-.108.485-.927.263-1.636A6.984,6.984,0,0,0,97.422,95.6c-.575-.244-2.85-.773-2.85-.773S94.113,94.508,93.947,94.842Z" fill="#fff" stroke="#2e353a" stroke-linecap="round" stroke-linejoin="round" stroke-width="1"/>
    <path id="Tracé_108" data-name="Tracé 108" d="M99.1,99.876a10.658,10.658,0,0,0-2.444-.676c-.357.109-.79,1.254-.8,1.461s.752,2.684.752,2.684l5.557,1.606v-1.036a9.608,9.608,0,0,0-1.6-3.51A6.4,6.4,0,0,0,99.1,99.876Z" fill="#fff" stroke="#2e353a" stroke-linecap="round" stroke-linejoin="round" stroke-width="1"/>
    <path id="Tracé_109" data-name="Tracé 109" d="M97.688,93.059a7.161,7.161,0,0,0-.222,1.089c-.034.413,1.177,1.749,1.771,2.143a20.78,20.78,0,0,0,3.715,1.186.9.9,0,0,0,.376-1.284,8.263,8.263,0,0,0-2.188-2.177A10.751,10.751,0,0,0,97.688,93.059Z" fill="#6449d1" stroke="#2e353a" stroke-linecap="round" stroke-linejoin="round" stroke-width="1"/>
    <path id="Tracé_110" data-name="Tracé 110" d="M100.655,96.745a4.5,4.5,0,0,0-.274.878,14.379,14.379,0,0,0,1.65,2.823,14.42,14.42,0,0,0,3.659,1.043c.346.027,1.128-.049.842-1.04s-1.128-2.575-1.925-2.845-2.3-.732-2.974-.923a1.1,1.1,0,0,0-.978.064Z" fill="#6449d1" stroke="#2e353a" stroke-linecap="round" stroke-linejoin="round" stroke-width="1"/>
    <path id="Tracé_111" data-name="Tracé 111" d="M103.588,100.916a4.213,4.213,0,0,0-.613,1.61,5.2,5.2,0,0,0,1.147,3.063,30.612,30.612,0,0,0,4.591,1.532,19.333,19.333,0,0,0,.5-1.967c.124-.751-1.9-3.123-2.09-3.412A11.546,11.546,0,0,0,103.588,100.916Z" fill="#6449d1" stroke="#2e353a" stroke-linecap="round" stroke-linejoin="round" stroke-width="1"/>
    <path id="Tracé_112" data-name="Tracé 112" d="M111.221,116.847c-1.429-.376-3.658-.683-4.489-1.937s-1.76-2.917-10.194-3.57-65.341-8.634-71.147-8.96-10.325,6.61-10.325,6.61a36.746,36.746,0,0,1-5.745-1.126,5.224,5.224,0,0,1-1.88-1.081,12.19,12.19,0,0,0-.2,4.1c.583,4.415,3.166,8.717,13.1,10.545s13.69-5.556,13.935-8.713c0,0,24.124,1.738,39.1,3.431s19.954.751,24.97,2.729,6.242,3.266,8.362,3.3c1.282.019,4.02-2.466,6.016-4.88C112.146,117.117,111.612,116.948,111.221,116.847Z" fill="#2e353a" stroke="#2e353a" stroke-linecap="round" stroke-linejoin="round" stroke-width="1"/>
    <path id="Tracé_113" data-name="Tracé 113" d="M14.145,110.642s-1.76,3.848-2.448,5.9" fill="none" stroke="#fff" stroke-linecap="round" stroke-linejoin="round" stroke-width="0.75"/>
    <path id="Tracé_114" data-name="Tracé 114" d="M16.5,109.366s10.152,2.376,16.457,3.13" fill="none" stroke="#fff" stroke-linecap="round" stroke-linejoin="round" stroke-width="0.75"/>
    <path id="Tracé_115" data-name="Tracé 115" d="M24.316,90.653s-6.3-4.193-11.442-4.595S3.61,89.313,3.61,89.313,16.266,78.251,19.744,77.86s8.016-.837,12.19,1.738Z" fill="#fff" stroke="#2e353a" stroke-linecap="round" stroke-linejoin="round" stroke-width="1"/>
  </g>
</svg>
