<svg xmlns="http://www.w3.org/2000/svg" width="122.051" height="120.652" viewBox="0 0 122.051 120.652">
  <g id="Groupe_5" data-name="Groupe 5" transform="translate(-0.008 -0.505)">
    <path id="Tracé_116" data-name="Tracé 116" d="M38.262,10.418S17.5,20.994,7.147,37.292a44.984,44.984,0,0,0,3.047,52.827c12.582,15.563,36.631,13.519,56.767,23.378s42.352,7.828,51.874-13.059-4.836-28.693-7.3-52.866S87.275-12,38.262,10.418Z" fill="#6449d1"/>
    <path id="Tracé_117" data-name="Tracé 117" d="M38.262,10.418S17.5,20.994,7.147,37.292a44.984,44.984,0,0,0,3.047,52.827c12.582,15.563,36.631,13.519,56.767,23.378s42.352,7.828,51.874-13.059-4.836-28.693-7.3-52.866S87.275-12,38.262,10.418Z" fill="#fff" opacity="0.7"/>
    <path id="Tracé_118" data-name="Tracé 118" d="M99.381,105.17s-11.667-20.476-8.974-25.7,9.571,4.167,9.571,4.167S94,64.541,97.287,56.2s8.974,0,9.272,5.9-1.2,15.974-1.2,15.974,2.4-20.824,8.078-14.585-7.179,27.085-7.179,27.085,8.675-4.861,8.373,1.389-10.467,11.807-10.467,11.807" fill="#ff0c39"/>
    <path id="Tracé_119" data-name="Tracé 119" d="M99.479,101.35s-10.8-10.072-5.535-14.584,8.028,4.861,8.028,4.861S96.159,62.8,105.57,61.76s2.491,25,2.491,25,8.028-11.111,7.475-2.069-12.456,16.67-12.456,16.67" fill="none" stroke="#263238" stroke-miterlimit="10" stroke-width="1"/>
    <path id="Tracé_120" data-name="Tracé 120" d="M104.781,99.517l-7.294-7.9" fill="none" stroke="#263238" stroke-miterlimit="10" stroke-width="1"/>
    <path id="Tracé_121" data-name="Tracé 121" d="M103.263,100.126l1.976-23.107" fill="none" stroke="#263238" stroke-miterlimit="10" stroke-width="1"/>
    <path id="Tracé_122" data-name="Tracé 122" d="M102.959,98.451l6.535-8.664" fill="none" stroke="#263238" stroke-miterlimit="10" stroke-width="1"/>
    <path id="Tracé_123" data-name="Tracé 123" d="M112.412,96.84H92.232l2.019,23.8h16.142Z" fill="#263238"/>
    <path id="Tracé_124" data-name="Tracé 124" d="M35.374,69.238a61.514,61.514,0,0,0-8.116-3.288c-4.006-1.233-8.732-.1-8.837,1.23s.608.723,1.543,2.17.512,4.828,1.85,7.91,5.34,4.622,5.34,4.622Z" fill="#8f77f1" stroke="#263238" stroke-linecap="round" stroke-linejoin="round" stroke-width="1"/>
    <path id="Tracé_125" data-name="Tracé 125" d="M32.7,72.219a73.172,73.172,0,0,0-9.76-5.242c-3.595-1.337-3.8.616-3.8.616A2.984,2.984,0,0,1,21.1,70.506c0,2.307,1.153,7.086,3.957,8.072S32.7,72.219,32.7,72.219Z" opacity="0.3"/>
    <path id="Tracé_126" data-name="Tracé 126" d="M76.692,76.581a3.36,3.36,0,1,0-4.107-2.024A3.242,3.242,0,0,0,76.692,76.581Z" fill="#8f77f1" stroke="#263238" stroke-linecap="round" stroke-linejoin="round" stroke-width="1"/>
    <path id="Tracé_127" data-name="Tracé 127" d="M32.519,109.305l3.458,10.373a1.411,1.411,0,0,0,1.34.965h5.39a1.41,1.41,0,0,0,1.3-.852l2.411-5.6" fill="#8f77f1"/>
    <path id="Tracé_128" data-name="Tracé 128" d="M34.253,109.305l2.861,10.373a1.216,1.216,0,0,0,1.112.965H42.7a1.18,1.18,0,0,0,1.074-.852l2-5.6" opacity="0.3"/>
    <path id="Tracé_129" data-name="Tracé 129" d="M32.519,109.305l3.458,10.373a1.411,1.411,0,0,0,1.34.965h5.39a1.41,1.41,0,0,0,1.3-.852l2.411-5.6" fill="none" stroke="#263238" stroke-linecap="round" stroke-linejoin="round" stroke-width="1"/>
    <path id="Tracé_130" data-name="Tracé 130" d="M58.527,109.305l-3.455,10.373a1.411,1.411,0,0,1-1.34.965H48.348a1.41,1.41,0,0,1-1.3-.852l-2.411-5.6" fill="#263238"/>
    <path id="Tracé_131" data-name="Tracé 131" d="M58.527,109.305l-3.455,10.373a1.411,1.411,0,0,1-1.34.965H48.348a1.41,1.41,0,0,1-1.3-.852l-2.411-5.6" fill="none" stroke="#263238" stroke-linecap="round" stroke-linejoin="round" stroke-width="1"/>
    <path id="Tracé_132" data-name="Tracé 132" d="M69.978,109.305,66.52,119.678a1.411,1.411,0,0,1-1.34.965H59.79a1.41,1.41,0,0,1-1.3-.852l-2.411-5.6" fill="#8f77f1"/>
    <path id="Tracé_133" data-name="Tracé 133" d="M67.528,109.305l-2.365,10.373c-.132.576-.5.965-.915.965H60.563c-.384,0-.732-.334-.885-.852l-2.291-5.48" opacity="0.3"/>
    <path id="Tracé_134" data-name="Tracé 134" d="M69.978,109.305,66.52,119.678a1.411,1.411,0,0,1-1.34.965H59.79a1.41,1.41,0,0,1-1.3-.852l-2.411-5.6" fill="none" stroke="#263238" stroke-linecap="round" stroke-linejoin="round" stroke-width="1"/>
    <path id="Tracé_135" data-name="Tracé 135" d="M51.5,116.13c16.369,0,29.639-12.034,29.639-26.879S67.868,62.371,51.5,62.371,21.86,74.406,21.86,89.251,35.13,116.13,51.5,116.13Z" fill="#8f77f1"/>
    <path id="Tracé_136" data-name="Tracé 136" d="M71.912,70.884A24.691,24.691,0,0,1,74.556,82c0,14.845-13.27,26.879-29.639,26.879A31.613,31.613,0,0,1,27.724,103.9,29.625,29.625,0,0,0,51.562,115.4c15.892,0,28.77-11.675,28.77-26.079A24.949,24.949,0,0,0,71.912,70.884Z" opacity="0.3"/>
    <path id="Tracé_137" data-name="Tracé 137" d="M51.5,116.13c16.369,0,29.639-12.034,29.639-26.879S67.868,62.371,51.5,62.371,21.86,74.406,21.86,89.251,35.13,116.13,51.5,116.13Z" fill="none" stroke="#263238" stroke-linecap="round" stroke-linejoin="round" stroke-width="1"/>
    <path id="Tracé_138" data-name="Tracé 138" d="M78.644,91.662a24.615,24.615,0,0,1-6.9,14.207" fill="none" stroke="#8f77f1" stroke-linecap="round" stroke-linejoin="round" stroke-width="2"/>
    <path id="Tracé_139" data-name="Tracé 139" d="M78.154,83.324a23.6,23.6,0,0,1,.658,5.538" fill="none" stroke="#8f77f1" stroke-linecap="round" stroke-linejoin="round" stroke-width="2"/>
    <path id="Tracé_140" data-name="Tracé 140" d="M44.15,64.048a32.563,32.563,0,0,1,7.45-.855,32.907,32.907,0,0,1,4.8.351" fill="none" stroke="#263238" stroke-linecap="round" stroke-linejoin="round" stroke-width="4"/>
    <path id="Tracé_141" data-name="Tracé 141" d="M57.313,82.812a7.411,7.411,0,0,0,2.981-5.549c.1-3.595-4.625-8.834-8.426-10.993s-6.576-1.745-6.677-.206-1.438,3.288-1.951,6.266-.721,7.4,3.288,8.837" fill="#8f77f1"/>
    <path id="Tracé_142" data-name="Tracé 142" d="M57.313,82.812a7.411,7.411,0,0,0,2.981-5.549c.1-3.595-4.625-8.834-8.426-10.993s-6.576-1.745-6.677-.206-1.438,3.288-1.951,6.266-.721,7.4,3.288,8.837" fill="none" stroke="#263238" stroke-linecap="round" stroke-linejoin="round" stroke-width="1"/>
    <path id="Tracé_143" data-name="Tracé 143" d="M51.123,81.658l.589.088c2.526.365,3.414-1.285,3.34-3.762-.1-3.494-4.724-10.892-6.677-11.919s-2.567.411-2.567.411.274.184-.688,3.376c-.444,1.474-2.1,6.614-.46,8.894C46.106,80.759,48.794,81.31,51.123,81.658Z" opacity="0.3"/>
    <path id="Tracé_144" data-name="Tracé 144" d="M59.308,78.118H59.27a.274.274,0,0,1-.236-.31,5.478,5.478,0,0,0,.052-.636c.055-1.918-1.51-4.672-4.083-7.212a.275.275,0,0,1,.386-.392c2.718,2.685,4.3,5.532,4.244,7.617a6.538,6.538,0,0,1-.055.7.274.274,0,0,1-.271.236Z" opacity="0.3"/>
    <path id="Tracé_145" data-name="Tracé 145" d="M57.834,81.422a.274.274,0,0,1-.214-.447,6.732,6.732,0,0,0,1.069-1.841.274.274,0,0,1,.512.195,7.254,7.254,0,0,1-1.156,1.992.274.274,0,0,1-.211.1Z" opacity="0.3"/>
    <path id="Tracé_146" data-name="Tracé 146" d="M37.881,94.451c.81-3.248-2.014-6.749-6.309-7.821s-8.433.693-9.243,3.94,2.014,6.749,6.309,7.821S37.07,97.7,37.881,94.451Z" opacity="0.3"/>
    <path id="Tracé_147" data-name="Tracé 147" d="M37.5,93.862c.81-3.248-2.014-6.749-6.309-7.821s-8.433.693-9.243,3.94,2.014,6.749,6.309,7.821S36.685,97.109,37.5,93.862Z" fill="#8f77f1" stroke="#263238" stroke-linecap="round" stroke-linejoin="round" stroke-width="1"/>
    <path id="Tracé_148" data-name="Tracé 148" d="M27.3,90.941c.049.734-.233,1.354-.627,1.37s-.759-.548-.822-1.282.233-1.356.63-1.37S27.25,90.2,27.3,90.941Z" fill="none" stroke="#263238" stroke-linecap="round" stroke-linejoin="round" stroke-width="1"/>
    <path id="Tracé_149" data-name="Tracé 149" d="M32.73,92.3c.049.737-.233,1.354-.627,1.37s-.759-.548-.822-1.285.233-1.354.63-1.37S32.672,91.566,32.73,92.3Z" fill="none" stroke="#263238" stroke-linecap="round" stroke-linejoin="round" stroke-width="1"/>
    <path id="Tracé_150" data-name="Tracé 150" d="M41.693,94.207a6.391,6.391,0,0,1-.367,1.543c-1.573,4.25-7.266,6.088-12.892,4.258" fill="none" stroke="#263238" stroke-linecap="round" stroke-linejoin="round" stroke-width="3"/>
    <path id="Tracé_151" data-name="Tracé 151" d="M40.775,93.8H42.52" fill="none" stroke="#263238" stroke-linecap="round" stroke-linejoin="round" stroke-width="3"/>
    <path id="Tracé_152" data-name="Tracé 152" d="M29.656,82.428c-.192.8-.682,1.37-1.1,1.266s-.595-.822-.4-1.628.682-1.37,1.1-1.269S29.85,81.628,29.656,82.428Z" fill="#263238" stroke="#263238" stroke-linecap="round" stroke-linejoin="round" stroke-width="1"/>
    <path id="Tracé_153" data-name="Tracé 153" d="M34.709,83.53c.193-.8.014-1.53-.4-1.629s-.9.468-1.1,1.269-.014,1.53.4,1.63S34.516,84.33,34.709,83.53Z" fill="#263238" stroke="#263238" stroke-linecap="round" stroke-linejoin="round" stroke-width="1"/>
    <path id="Tracé_154" data-name="Tracé 154" d="M42.254,112.642l3.014,7.151a1.415,1.415,0,0,0,1.3.864h5.48a1.417,1.417,0,0,0,1.3-.85l3.288-7.6h-.143" fill="#8f77f1"/>
    <path id="Tracé_155" data-name="Tracé 155" d="M48.622,111.73a25.573,25.573,0,0,1-5.4-.151l2.817,8.2a1.187,1.187,0,0,0,1.077.863h4.515a1.182,1.182,0,0,0,1.069-.85l2.726-8.365-1.1.151A30.674,30.674,0,0,1,48.622,111.73Z" opacity="0.3"/>
    <path id="Tracé_156" data-name="Tracé 156" d="M42.254,112.642l3.014,7.151a1.415,1.415,0,0,0,1.3.864h5.48a1.417,1.417,0,0,0,1.3-.85l3.288-7.6h-.143" fill="none" stroke="#263238" stroke-linecap="round" stroke-linejoin="round" stroke-width="1"/>
    <path id="Tracé_157" data-name="Tracé 157" d="M96.846,1.245,81.691,23.08A34.447,34.447,0,0,1,78.8,28.464c-1.595,2.293-6.066,4.587-6.066,4.587s-.4,4.285-1.693,5.781-4.088.6-4.088.6a9.5,9.5,0,0,1-2.493,1.893c-1.3.6-5.283-1.595-5.283-1.595s3.587,3.888,4.085,5.184,1.4,2.392-.2,3.589-3.392-.5-3.392-.5.8,2.592-1.493,3.091-4.792-4.488-5.79-6.181-3.888-8.078-4.384-8.376a2.64,2.64,0,0,1-.2-3.389c1-1.5,8.072-11.067,8.869-11.749s16.056-4.3,16.056-4.3L78.518,1.146" fill="#fff"/>
    <path id="Tracé_158" data-name="Tracé 158" d="M80.132,23.318s-1.644,4.932-3.425,5.891-11.919,3.562-15.892,3.014a15.366,15.366,0,0,1-6.165-2.055S52.458,33.045,51.5,34a6.282,6.282,0,0,1-2.329,1.37s4.768,11.976,8.2,15.684a1.645,1.645,0,0,0,.822.038c2.293-.5,1.493-3.091,1.493-3.091s1.795,1.693,3.392.5.7-2.293.2-3.589-4.1-5.184-4.1-5.184,3.987,2.192,5.283,1.595a9.476,9.476,0,0,0,2.493-1.9s2.792.9,4.088-.6,1.693-5.781,1.693-5.781,4.485-2.293,6.083-4.587A34.181,34.181,0,0,0,81.7,23.08l6.245-9Z" opacity="0.2"/>
    <path id="Tracé_159" data-name="Tracé 159" d="M96.846,1.245,81.691,23.08A34.447,34.447,0,0,1,78.8,28.464c-1.595,2.293-6.066,4.587-6.066,4.587s-.4,4.285-1.693,5.781-4.088.6-4.088.6a9.5,9.5,0,0,1-2.493,1.893c-1.3.6-5.283-1.595-5.283-1.595s3.587,3.888,4.085,5.184,1.4,2.392-.2,3.589-3.392-.5-3.392-.5.8,2.592-1.493,3.091-4.792-4.488-5.79-6.181-3.888-8.078-4.384-8.376a2.64,2.64,0,0,1-.2-3.389c1-1.5,8.072-11.067,8.869-11.749s16.056-4.3,16.056-4.3L78.518,1.146" fill="none" stroke="#263238" stroke-linecap="round" stroke-linejoin="round" stroke-width="1"/>
    <path id="Tracé_160" data-name="Tracé 160" d="M45.014,59.47l.4,1.5,6.181-1.5,5.784-15.155-3.789-1.3Z" fill="#fff" stroke="#263238" stroke-linecap="round" stroke-linejoin="round" stroke-width="1"/>
    <path id="Tracé_161" data-name="Tracé 161" d="M46.907,39.331l8.573,3.192L51.294,61.464,41.224,58.374Z" fill="#fff" stroke="#263238" stroke-linecap="round" stroke-linejoin="round" stroke-width="1"/>
    <path id="Tracé_162" data-name="Tracé 162" d="M41.561,57.242,50.5,59.87l3.888-16.851L46.556,40.5Z" fill="#ff0c39" stroke="#263238" stroke-linecap="round" stroke-linejoin="round" stroke-width="1"/>
    <path id="Tracé_163" data-name="Tracé 163" d="M46.521,44.671a2.825,2.825,0,0,0-1.192-.055l-2.335,7.823a2.8,2.8,0,0,0,1.208.693c1.83.5,3.836-.984,4.477-3.321S48.348,45.172,46.521,44.671Z" fill="#fff" stroke="#263238" stroke-linecap="round" stroke-linejoin="round" stroke-width="1"/>
    <path id="Tracé_164" data-name="Tracé 164" d="M46.189,45.967a.057.057,0,0,1-.033-.063l.1-.406a.12.12,0,0,0-.01-.1.122.122,0,0,0-.038-.039.121.121,0,0,0-.051-.018l-.436-.1a.118.118,0,0,0-.162.1l-.085.419a.055.055,0,0,1-.057.041,2.193,2.193,0,0,0-.447,0l-.8,2.677c.622.647,1.592.97,1.463,1.513a.635.635,0,0,1-.844.438.721.721,0,0,1-.6-.912l.025-.11c.014-.06-.022-.11-.107-.129l-.167-.041-.474,1.584a1.965,1.965,0,0,0,.655.395.058.058,0,0,1,.033.066l-.1.348a.115.115,0,0,0,.1.162l.452.11a.118.118,0,0,0,.1,0,.117.117,0,0,0,.042-.032.118.118,0,0,0,.024-.048l.074-.345a.063.063,0,0,1,.06-.044,1.549,1.549,0,0,0,1.822-1.217,1.643,1.643,0,0,0-.773-1.786c-.644-.488-1.324-.729-1.206-1.228.082-.345.4-.5.822-.4a.737.737,0,0,1,.584.956l-.019.077c0,.047.027.088.112.11l.8.192a.121.121,0,0,0,.162-.1l.06-.255A1.487,1.487,0,0,0,46.189,45.967Z" fill="#263238"/>
    <path id="Tracé_165" data-name="Tracé 165" d="M53.984,29.36a9.622,9.622,0,0,1,1.4,3.392,5.8,5.8,0,0,1-.9,3.888,12.62,12.62,0,0,0-1.693,3.091c-.5,1.4-.6,3.389-1.3,4.384s-1.1,1.992-.1,2.891,3.589.8,4.987-1.795,2.293-5.384,3.189-6.382a48.519,48.519,0,0,1,3.789-3.288s7.875-1.1,9.371-2.491,2.792-5.184,2.792-5.184" fill="#fff"/>
    <path id="Tracé_166" data-name="Tracé 166" d="M74.926,29.209a31.992,31.992,0,0,1-7.535,3.562c-3.288.822-5.343.822-6.576,2.466s-2.466,6.85-4.11,7.809-1.918-2.466-4.247-1.781l-.077.027a8.491,8.491,0,0,1-.888,2.825c-.7,1-1.1,1.992-.1,2.891s3.589.8,4.987-1.795,2.293-5.384,3.189-6.381a48.519,48.519,0,0,1,3.789-3.288s7.875-1.1,9.371-2.491a12.284,12.284,0,0,0,2.249-3.787Z" opacity="0.2"/>
    <path id="Tracé_167" data-name="Tracé 167" d="M53.984,29.36a9.622,9.622,0,0,1,1.4,3.392,5.8,5.8,0,0,1-.9,3.888,12.62,12.62,0,0,0-1.693,3.091c-.5,1.4-.6,3.389-1.3,4.384s-1.1,1.992-.1,2.891,3.589.8,4.987-1.795,2.293-5.384,3.189-6.382a48.519,48.519,0,0,1,3.789-3.288s7.875-1.1,9.371-2.491,2.792-5.184,2.792-5.184" fill="none" stroke="#263238" stroke-linecap="round" stroke-linejoin="round" stroke-width="1"/>
    <path id="Tracé_168" data-name="Tracé 168" d="M50.894,34.347s2.595,1.395,4.488-.2" fill="none" stroke="#263238" stroke-linecap="round" stroke-linejoin="round" stroke-width="1"/>
    <path id="Tracé_169" data-name="Tracé 169" d="M59.667,48.005l-2.291-4.387" fill="none" stroke="#263238" stroke-linecap="round" stroke-linejoin="round" stroke-width="1"/>
    <path id="Tracé_170" data-name="Tracé 170" d="M66.947,39.432a6.057,6.057,0,0,0,1.693-4.787" fill="none" stroke="#263238" stroke-linecap="round" stroke-linejoin="round" stroke-width="1"/>
  </g>
</svg>
