<svg xmlns="http://www.w3.org/2000/svg" width="132.936" height="120.686" viewBox="0 0 132.936 120.686">
  <g id="Groupe_10" data-name="Groupe 10" transform="translate(-0.548 -0.93)">
    <path id="Tracé_171" data-name="Tracé 171" d="M67.016,121.616c36.71,0,66.468-18.31,66.468-40.9s-29.758-40.9-66.468-40.9S.548,58.132.548,80.719,30.307,121.616,67.016,121.616Z" fill="#6449d1"/>
    <path id="Tracé_172" data-name="Tracé 172" d="M67.016,121.616c36.71,0,66.468-18.31,66.468-40.9s-29.758-40.9-66.468-40.9S.548,58.132.548,80.719,30.307,121.616,67.016,121.616Z" fill="#fff" opacity="0.7"/>
    <path id="Tracé_173" data-name="Tracé 173" d="M50.731,58.051l7.431-4.284-.78,8.924Z" fill="#263238"/>
    <path id="Tracé_174" data-name="Tracé 174" d="M55.383,55.732,43.031,27.21,34.8,35.529l-7.2-21.988-7.2,7.726L14.214,2.253,7.01,9.976,8.862,11.7l4.269-4.579,6.176,19.015,7.215-7.735,7.16,21.85,8.515-8.6L53.056,56.737Z" fill="#232323"/>
    <path id="Tracé_175" data-name="Tracé 175" d="M14.214,2.253,16.5.93,22.4,19.1,20.39,21.268Z" fill="#ff0c39"/>
    <path id="Tracé_176" data-name="Tracé 176" d="M29.882,12.219l-2.289,1.323,7.2,21.988L36.855,33.5Z" fill="#ff0c39"/>
    <path id="Tracé_177" data-name="Tracé 177" d="M45.32,25.887,43.031,27.21,55.383,55.733l2.289-1.323Z" fill="#ff0c39"/>
    <path id="Tracé_178" data-name="Tracé 178" d="M8.861,11.7l4.847-2.8L13.13,7.126Z" fill="#232323"/>
    <path id="Tracé_179" data-name="Tracé 179" d="M19.307,26.141l3.606-2.079,4.348-3.393-.739-2.263Z" fill="#232323"/>
    <path id="Tracé_180" data-name="Tracé 180" d="M33.682,40.257l3.606-2.076L43,33.517,42.2,31.654Z" fill="#232323"/>
    <path id="Tracé_181" data-name="Tracé 181" d="M52.813,57.213l7.429-4.284-.686,8.915Z" fill="#ff0c39"/>
    <path id="Tracé_182" data-name="Tracé 182" d="M57.383,62.691l2.172-.847-6.742-4.631-2.082.838Z" fill="#232323"/>
    <path id="Tracé_183" data-name="Tracé 183" d="M58.163,53.767l2.079-.838-2.57,1.481-.125-.289Z" fill="#263238"/>
    <path id="Tracé_184" data-name="Tracé 184" d="M37.532,105.735a4.513,4.513,0,0,0,2.044.876,4.738,4.738,0,0,0,3.1-1.128,3.471,3.471,0,0,1-2.7,1.568,2.6,2.6,0,0,1-2.441-1.316Z" opacity="0.15"/>
    <path id="Tracé_185" data-name="Tracé 185" d="M37.649,106.932a3.175,3.175,0,0,0,2.459.616,1.591,1.591,0,0,1-1.3.184A1.438,1.438,0,0,1,37.649,106.932Z" opacity="0.15"/>
    <path id="Tracé_186" data-name="Tracé 186" d="M54.027,95.7c1.752.634,2.85,1.381,2.628,1.9a5.517,5.517,0,0,1-1.305,1.329,10.859,10.859,0,0,0,1.9-1.273c.406-.458-.026-.894-1.168-1.381A7.5,7.5,0,0,0,54.027,95.7Z" opacity="0.15"/>
    <path id="Tracé_187" data-name="Tracé 187" d="M42.365,108.284c2.572-.876,5.358-2.727,7.747-3.98q3.783-1.989,7.353-4.348A3.211,3.211,0,0,0,59.07,98.11c.128-.657-.12-.934-.657-1.323a12.77,12.77,0,0,0-3.545-1.8,5.008,5.008,0,0,0-1.8-.377c-.71.032-1.413.131-2.117.231a9.278,9.278,0,0,0-2.535.958c-.858.409-1.691.876-2.523,1.326l-5.481,3.016c-1.986,1.1-3.069,1.673-5.42,3.194-.464.292-1.708,1.063-1.729,1.615a1.882,1.882,0,0,0,.832,1.384A8.888,8.888,0,0,0,42.365,108.284Z" opacity="0.1"/>
    <path id="Tracé_188" data-name="Tracé 188" d="M50.208,91.412a4.685,4.685,0,0,0-4.43.178c-4.088,1.971-7.735,7.808-8.129,13.038-.222,2.961.642,5.092,2.175,6.03.394.239,1.918,1.1,2.283,1.32a4.66,4.66,0,0,0,4.488-.146c4.088-1.969,7.732-7.806,8.126-13.038.228-3.008-.669-5.16-2.249-6.071Z" fill="#6449d1"/>
    <path id="Tracé_189" data-name="Tracé 189" d="M50.208,91.412a4.685,4.685,0,0,0-4.43.178c-4.088,1.971-7.735,7.808-8.129,13.038-.222,2.961.642,5.092,2.175,6.03.394.239,1.918,1.1,2.283,1.32a4.66,4.66,0,0,0,4.488-.146c4.088-1.969,7.732-7.806,8.126-13.038.228-3.008-.669-5.16-2.249-6.071Z" opacity="0.25"/>
    <path id="Tracé_190" data-name="Tracé 190" d="M54.109,102,41.778,94.875a18.179,18.179,0,0,0-4.129,9.756c-.222,2.961.642,5.092,2.175,6.03.394.239,1.918,1.1,2.283,1.32a4.66,4.66,0,0,0,4.488-.146C49.867,110.264,52.842,106.222,54.109,102Z" opacity="0.1"/>
    <path id="Tracé_191" data-name="Tracé 191" d="M38.333,101.209a15.246,15.246,0,0,0-.683,3.422c-.222,2.961.642,5.092,2.175,6.03.394.239,1.918,1.1,2.283,1.319a4.657,4.657,0,0,0,4.488-.146,12.554,12.554,0,0,0,4.144-3.46Z" opacity="0.1"/>
    <path id="Tracé_192" data-name="Tracé 192" d="M48.024,92.89c-4.088,1.971-7.732,7.808-8.126,13.04s2.6,7.884,6.7,5.9,7.732-7.805,8.126-13.037S52.118,90.921,48.024,92.89Z" fill="#6449d1"/>
    <path id="Tracé_193" data-name="Tracé 193" d="M48.024,92.89c-4.088,1.971-7.732,7.808-8.126,13.04s2.6,7.884,6.7,5.9,7.732-7.805,8.126-13.037S52.118,90.921,48.024,92.89Z" opacity="0.2"/>
    <path id="Tracé_194" data-name="Tracé 194" d="M52.08,99.991a12.452,12.452,0,0,1-1.84,4.964,10.162,10.162,0,0,1-3.451,3.533c-1.305.724-2.473.721-3.294,0s-1.168-2.044-.955-3.743a12.445,12.445,0,0,1,1.84-4.964,10.154,10.154,0,0,1,3.454-3.536c1.3-.718,2.467-.718,3.288,0S52.276,98.3,52.08,99.991Z" fill="#6449d1"/>
    <path id="Tracé_195" data-name="Tracé 195" d="M52.08,99.991a12.452,12.452,0,0,1-1.84,4.964,10.162,10.162,0,0,1-3.451,3.533c-1.305.724-2.473.721-3.294,0s-1.168-2.044-.955-3.743a12.445,12.445,0,0,1,1.84-4.964,10.154,10.154,0,0,1,3.454-3.536c1.3-.718,2.467-.718,3.288,0S52.276,98.3,52.08,99.991Z" opacity="0.4"/>
    <path id="Tracé_196" data-name="Tracé 196" d="M52.807,93.544c-1.133-1-2.765-1.06-4.6-.181A13.568,13.568,0,0,0,42.929,98.5a17.028,17.028,0,0,0-2.6,7.5c-.175,2.336.35,4.182,1.483,5.18s2.765,1.063,4.6.181a13.508,13.508,0,0,0,5.279-5.136,16.966,16.966,0,0,0,2.6-7.513C54.466,96.376,53.94,94.542,52.807,93.544Zm-1.685,2.7a4.187,4.187,0,0,1,.958,3.743,12.453,12.453,0,0,1-1.84,4.964,10.162,10.162,0,0,1-3.451,3.533c-1.305.724-2.473.721-3.294,0s-1.168-2.044-.955-3.743a12.442,12.442,0,0,1,1.84-4.964,10.156,10.156,0,0,1,3.454-3.536C49.134,95.526,50.3,95.526,51.122,96.247Z" fill="#6449d1"/>
    <path id="Tracé_197" data-name="Tracé 197" d="M50.353,104.015c1.817-3.328,1.927-6.769.247-7.686s-4.515,1.037-6.332,4.365-1.927,6.769-.247,7.686S48.537,107.343,50.353,104.015Z" opacity="0.2"/>
    <path id="Tracé_198" data-name="Tracé 198" d="M50.353,104.015c1.817-3.328,1.927-6.769.247-7.686s-4.515,1.037-6.332,4.365-1.927,6.769-.247,7.686S48.537,107.343,50.353,104.015Z" fill="#6449d1"/>
    <path id="Tracé_199" data-name="Tracé 199" d="M50.353,104.015c1.817-3.328,1.927-6.769.247-7.686s-4.515,1.037-6.332,4.365-1.927,6.769-.247,7.686S48.537,107.343,50.353,104.015Z" opacity="0.6"/>
    <path id="Tracé_200" data-name="Tracé 200" d="M51.037,99.3c-.377,3.177-2.666,6.847-5.113,8.2a2.728,2.728,0,0,1-2.546.307,4.37,4.37,0,0,1-.5-2.99c.377-3.174,2.666-6.847,5.113-8.2a2.678,2.678,0,0,1,2.546-.292A4.309,4.309,0,0,1,51.037,99.3Z" fill="#6449d1"/>
    <path id="Tracé_201" data-name="Tracé 201" d="M51.037,99.3c-.377,3.177-2.666,6.847-5.113,8.2a2.728,2.728,0,0,1-2.546.307,4.37,4.37,0,0,1-.5-2.99c.377-3.174,2.666-6.847,5.113-8.2a2.678,2.678,0,0,1,2.546-.292A4.309,4.309,0,0,1,51.037,99.3Z" opacity="0.5"/>
    <path id="Tracé_202" data-name="Tracé 202" d="M49.726,99.766c-.193-.14-.672-.382-.9-.523a.584.584,0,0,0-.66,0l.207-.634a7.887,7.887,0,0,1-.9-.52.751.751,0,0,0-.339.044,1.676,1.676,0,0,0-.616.447,6.423,6.423,0,0,0-.987,1.474l-.491-.263-.756,1.7.1.073.347.26a5.406,5.406,0,0,0-.5,1.988v.137a1.173,1.173,0,0,0,.339,1.043c.19.137.777.441.9.517.242.175.505.1.774-.111l-.175.54.9.52c.549-.021,1.185-.684,1.857-1.957l.453.327.765-1.714-.458-.315a6.952,6.952,0,0,0,.485-1.921v-.015A1.209,1.209,0,0,0,49.726,99.766Z" fill="#6449d1"/>
    <path id="Tracé_203" data-name="Tracé 203" d="M45.285,102.093l.35.257a5.408,5.408,0,0,0-.505,1.989v.14a1.183,1.183,0,0,0,.339,1.04c.272.195.566.087.876-.187.026-.024.053-.056.079-.076l.082-.088a1.009,1.009,0,0,0,.073-.085.4.4,0,0,1,.029-.035c.018-.023.038-.043.056-.07a7.854,7.854,0,0,0,.461-.651c.073-.117.146-.233.216-.356.105-.172.207-.348.292-.517.038-.07.076-.134.114-.2a8.763,8.763,0,0,1,.639-1.025c.1-.129.187-.2.26-.214a.159.159,0,0,1,.114.027c.134.1.134.444-.184,1.168s-.654,1.1-.9,1.054l-.724,2.222c.549-.02,1.186-.683,1.857-1.956l.453.327.765-1.714-.444-.345a6.952,6.952,0,0,0,.485-1.921v-.015a1.21,1.21,0,0,0-.345-1.1c-.584-.435-1.279.514-1.921,1.594-.584,1.014-1.045,1.971-1.334,1.752-.178-.134-.093-.584.158-1.133.4-.893.78-1.083.975-1.033l.768-2.336a.8.8,0,0,0-.339.044,1.676,1.676,0,0,0-.616.447,7,7,0,0,0-1.022,1.545l-.453-.333-.759,1.7Z" fill="#6449d1"/>
    <path id="Tracé_204" data-name="Tracé 204" d="M45.183,102.017l.806-1.486.406.12-.453-.333Z" fill="#f5f5f5"/>
    <path id="Tracé_205" data-name="Tracé 205" d="M48.164,98.8l-.561,2.155.768-2.336a.807.807,0,0,0-.339.044,1.676,1.676,0,0,0-.616.447,4.6,4.6,0,0,0-.4.5l.006-.023A2.359,2.359,0,0,1,48.164,98.8Z" fill="#f5f5f5"/>
    <path id="Tracé_206" data-name="Tracé 206" d="M47.688,104.26l-.724,2.222.768-2.079a1.5,1.5,0,0,0,.715-.8,4.682,4.682,0,0,0,.292-.765c-.038.111-.085.228-.146.365C48.246,103.951,47.93,104.289,47.688,104.26Z" fill="#f5f5f5"/>
    <path id="Tracé_207" data-name="Tracé 207" d="M48.821,104.514l.426.225.791-1.612-.765,1.714Z" fill="#f5f5f5"/>
    <path id="Tracé_208" data-name="Tracé 208" d="M45.125,104.479v-.14a5.406,5.406,0,0,1,.505-1.989l-.35-.257-.1-.076.759-1.7.453.333a7,7,0,0,1,1.022-1.545,1.676,1.676,0,0,1,.616-.447.807.807,0,0,1,.339-.044l-.1.31.1-.31a7.9,7.9,0,0,1-.9-.52.749.749,0,0,0-.339.044,1.676,1.676,0,0,0-.616.447,6.425,6.425,0,0,0-.987,1.475l-.491-.263-.756,1.7.1.073.347.26a5.406,5.406,0,0,0-.5,1.988v.137A1.173,1.173,0,0,0,44.564,105c.19.137.777.441.9.517A1.173,1.173,0,0,1,45.125,104.479Z" opacity="0.3"/>
    <path id="Tracé_209" data-name="Tracé 209" d="M48.585,103.194c.318-.715.318-1.057.184-1.168a.158.158,0,0,0-.114-.026c-.073,0-.158.085-.26.213a8.835,8.835,0,0,0-.639,1.025c-.038.064-.076.129-.114.2-.1.169-.2.344-.292.516-.07.123-.143.24-.216.357-.143.224-.3.442-.461.651-.018.026-.038.047-.056.07a.386.386,0,0,0-.029.035c-.023.029-.047.058-.073.085l-.082.087c-.026.021-.052.053-.079.076l-.093.076-.175.54.9.52.724-2.222C47.931,104.289,48.246,103.951,48.585,103.194Z" opacity="0.3"/>
    <path id="Tracé_210" data-name="Tracé 210" d="M46.628,101.988c-.251.561-.336,1-.158,1.133.292.21.739-.747,1.334-1.752.642-1.08,1.326-2.029,1.921-1.594-.193-.14-.672-.383-.9-.523a.584.584,0,0,0-.66,0l-.561,1.7C47.408,100.9,47.02,101.1,46.628,101.988Z" opacity="0.3"/>
    <path id="Tracé_211" data-name="Tracé 211" d="M46.628,101.988c-.251.561-.336,1-.158,1.133.292.21.739-.747,1.334-1.752.642-1.08,1.326-2.029,1.921-1.594-.193-.14-.672-.383-.9-.523a.584.584,0,0,0-.66,0l-.561,1.7C47.408,100.9,47.02,101.1,46.628,101.988Z" opacity="0.1"/>
    <path id="Tracé_212" data-name="Tracé 212" d="M44.284,101.5l.9.519.452.333-.9-.519Z" opacity="0.4"/>
    <path id="Tracé_213" data-name="Tracé 213" d="M45.13,104.339a5.406,5.406,0,0,1,.505-1.989l-.9-.519a5.406,5.406,0,0,0-.5,1.988v.137A1.173,1.173,0,0,0,44.57,105c.19.137.777.441.9.517a1.183,1.183,0,0,1-.339-1.04A1.042,1.042,0,0,1,45.13,104.339Z" opacity="0.1"/>
    <path id="Tracé_214" data-name="Tracé 214" d="M47.119,104.321q-.214.337-.461.652c-.017.026-.038.046-.055.07a.285.285,0,0,0-.029.035q-.034.043-.073.084l-.082.088c-.026.02-.053.052-.079.076l-.094.076-.175.54.9.52.724-2.222-.386-.214Z" opacity="0.1"/>
    <path id="Tracé_215" data-name="Tracé 215" d="M46.345,111.192c2.841-1.276,5.347-4.964,5.347-4.964a13.573,13.573,0,0,1-5.279,5.136c-1.834.876-3.466.818-4.6-.181C41.813,111.18,43.454,112.491,46.345,111.192Z" fill="#f5f5f5"/>
    <path id="Tracé_216" data-name="Tracé 216" d="M42.143,98.911a14.624,14.624,0,0,1,5.881-6.021c2.336-1.127,4.327-.742,5.522.774,0,0-2.009-2.368-5.533-.543A17.254,17.254,0,0,0,42.143,98.911Z" fill="#f5f5f5"/>
    <path id="Tracé_217" data-name="Tracé 217" d="M15.127,75.577C13.9,76.692,13.551,77,13.705,77.413s1.951,1.443,1.951,1.443a9.321,9.321,0,0,1-2.2-.894c-.566-.438-.529-.794,0-1.381A5.077,5.077,0,0,1,15.127,75.577Z" opacity="0.15"/>
    <path id="Tracé_218" data-name="Tracé 218" d="M30.56,67.567c1.688,1.288,2.841,2.17,1.924,3.18a22.977,22.977,0,0,1-4.324,2.724,18.088,18.088,0,0,0,4.923-2.3C34.555,69.927,32.808,68.7,30.56,67.567Z" opacity="0.15"/>
    <path id="Tracé_219" data-name="Tracé 219" d="M12.885,76.432a1.175,1.175,0,0,0,.085,1.653s-.68-.225-.674-.826a.99.99,0,0,1,.59-.826Z" opacity="0.15"/>
    <path id="Tracé_220" data-name="Tracé 220" d="M19.163,80.226c2.575-.876,5.358-2.724,7.747-3.977,2.523-1.326,4.964-2.783,7.356-4.348a3.23,3.23,0,0,0,1.6-1.848c.129-.657-.12-.931-.657-1.32a12.739,12.739,0,0,0-3.545-1.8,5.055,5.055,0,0,0-1.793-.377c-.71.035-1.416.132-2.117.234a9.332,9.332,0,0,0-2.538.958c-.856.409-1.691.876-2.523,1.326l-5.478,3.016c-1.989,1.092-3.069,1.67-5.422,3.194-.461.292-1.708,1.06-1.729,1.612a1.878,1.878,0,0,0,.832,1.384A8.879,8.879,0,0,0,19.163,80.226Z" opacity="0.1"/>
    <path id="Tracé_221" data-name="Tracé 221" d="M26.916,61.313a4.683,4.683,0,0,0-4.433.178c-4.088,1.968-7.732,7.805-8.126,13.038-.225,2.961.64,5.092,2.175,6.027.394.239,1.918,1.1,2.281,1.32a4.649,4.649,0,0,0,4.488-.143c4.088-1.971,7.735-7.808,8.129-13.038.225-3.008-.669-5.16-2.248-6.071C28.8,62.408,27.3,61.532,26.916,61.313Z" fill="#6449d1"/>
    <path id="Tracé_222" data-name="Tracé 222" d="M26.916,61.313a4.683,4.683,0,0,0-4.433.178c-4.088,1.968-7.732,7.805-8.126,13.038-.225,2.961.64,5.092,2.175,6.027.394.239,1.918,1.1,2.281,1.32a4.649,4.649,0,0,0,4.488-.143c4.088-1.971,7.735-7.808,8.129-13.038.225-3.008-.669-5.16-2.248-6.071C28.8,62.408,27.3,61.532,26.916,61.313Z" opacity="0.25"/>
    <path id="Tracé_223" data-name="Tracé 223" d="M30.817,71.892,18.486,64.773a18.131,18.131,0,0,0-4.129,9.756c-.225,2.961.64,5.092,2.175,6.027.394.24,1.918,1.1,2.281,1.32a4.649,4.649,0,0,0,4.488-.143C26.58,80.158,29.549,76.12,30.817,71.892Z" opacity="0.1"/>
    <path id="Tracé_224" data-name="Tracé 224" d="M15.037,71.106a15.417,15.417,0,0,0-.68,3.422c-.225,2.961.64,5.092,2.175,6.027.394.239,1.918,1.1,2.281,1.32a4.649,4.649,0,0,0,4.488-.143,12.555,12.555,0,0,0,4.155-3.46Z" opacity="0.1"/>
    <path id="Tracé_225" data-name="Tracé 225" d="M24.732,62.8C20.643,64.764,17,70.6,16.6,75.834s2.6,7.884,6.7,5.907S31.036,73.933,31.43,68.7,28.825,60.816,24.732,62.8Z" fill="#6449d1"/>
    <path id="Tracé_226" data-name="Tracé 226" d="M24.732,62.8C20.643,64.764,17,70.6,16.6,75.834s2.6,7.884,6.7,5.907S31.036,73.933,31.43,68.7,28.825,60.816,24.732,62.8Z" opacity="0.2"/>
    <path id="Tracé_227" data-name="Tracé 227" d="M28.787,69.886a12.482,12.482,0,0,1-1.843,4.964,10.164,10.164,0,0,1-3.451,3.533c-1.3.721-2.473.721-3.291,0a4.178,4.178,0,0,1-.955-3.743,12.4,12.4,0,0,1,1.837-4.964,10.121,10.121,0,0,1,3.454-3.533c1.3-.721,2.47-.721,3.288,0S28.986,68.2,28.787,69.886Z" fill="#6449d1"/>
    <path id="Tracé_228" data-name="Tracé 228" d="M28.787,69.886a12.482,12.482,0,0,1-1.843,4.964,10.164,10.164,0,0,1-3.451,3.533c-1.3.721-2.473.721-3.291,0a4.178,4.178,0,0,1-.955-3.743,12.4,12.4,0,0,1,1.837-4.964,10.121,10.121,0,0,1,3.454-3.533c1.3-.721,2.47-.721,3.288,0S28.986,68.2,28.787,69.886Z" opacity="0.4"/>
    <path id="Tracé_229" data-name="Tracé 229" d="M29.5,63.441c-1.13-1-2.765-1.063-4.6-.181A13.523,13.523,0,0,0,19.624,68.4a17.292,17.292,0,0,0-2.587,7.5c-.178,2.336.35,4.184,1.48,5.18s2.765,1.066,4.6.181A13.531,13.531,0,0,0,28.4,76.123a17.1,17.1,0,0,0,2.6-7.5C31.17,66.28,30.647,64.44,29.5,63.441Zm-1.685,2.7c.82.721,1.168,2.044.961,3.743a12.482,12.482,0,0,1-1.842,4.964,10.164,10.164,0,0,1-3.451,3.533c-1.3.721-2.473.721-3.291,0a4.178,4.178,0,0,1-.955-3.743,12.4,12.4,0,0,1,1.837-4.964,10.121,10.121,0,0,1,3.454-3.533c1.314-.718,2.482-.718,3.3,0Z" fill="#6449d1"/>
    <path id="Tracé_230" data-name="Tracé 230" d="M27.06,73.916c1.817-3.328,1.927-6.769.247-7.686s-4.515,1.037-6.332,4.365-1.927,6.769-.247,7.686S25.243,77.243,27.06,73.916Z" opacity="0.2"/>
    <path id="Tracé_231" data-name="Tracé 231" d="M27.06,73.916c1.817-3.328,1.927-6.769.247-7.686s-4.515,1.037-6.332,4.365-1.927,6.769-.247,7.686S25.243,77.243,27.06,73.916Z" fill="#6449d1"/>
    <path id="Tracé_232" data-name="Tracé 232" d="M27.06,73.916c1.817-3.328,1.927-6.769.247-7.686s-4.515,1.037-6.332,4.365-1.927,6.769-.247,7.686S25.243,77.243,27.06,73.916Z" opacity="0.6"/>
    <path id="Tracé_233" data-name="Tracé 233" d="M27.748,69.191c-.377,3.177-2.666,6.847-5.11,8.2a2.692,2.692,0,0,1-2.549.292,4.358,4.358,0,0,1-.5-2.987c.38-3.177,2.666-6.847,5.113-8.2a2.692,2.692,0,0,1,2.549-.292A4.41,4.41,0,0,1,27.748,69.191Z" fill="#6449d1"/>
    <path id="Tracé_234" data-name="Tracé 234" d="M27.748,69.191c-.377,3.177-2.666,6.847-5.11,8.2a2.692,2.692,0,0,1-2.549.292,4.358,4.358,0,0,1-.5-2.987c.38-3.177,2.666-6.847,5.113-8.2a2.692,2.692,0,0,1,2.549-.292A4.41,4.41,0,0,1,27.748,69.191Z" opacity="0.5"/>
    <path id="Tracé_235" data-name="Tracé 235" d="M26.431,69.661c-.193-.14-.669-.383-.9-.52a.584.584,0,0,0-.66,0l.207-.634a8.156,8.156,0,0,1-.9-.52.758.758,0,0,0-.339.041,1.754,1.754,0,0,0-.616.447,6.423,6.423,0,0,0-.987,1.46l-.488-.263-.759,1.7.1.076.35.257a5.4,5.4,0,0,0-.505,1.988v.14a1.179,1.179,0,0,0,.339,1.04c.19.134.78.438.9.514a.607.607,0,0,0,.774-.111l-.175.54.9.52c.552-.021,1.185-.683,1.857-1.959l.453.33.765-1.714-.461-.295a6.966,6.966,0,0,0,.485-1.924v-.015A1.19,1.19,0,0,0,26.431,69.661Z" fill="#6449d1"/>
    <path id="Tracé_236" data-name="Tracé 236" d="M21.993,71.988l.347.257a5.438,5.438,0,0,0-.5,1.989v.14a1.171,1.171,0,0,0,.339,1.039c.269.193.566.085.876-.19l.076-.076.085-.088a1.093,1.093,0,0,0,.07-.085l.032-.035.055-.067c.155-.2.31-.423.458-.654.073-.114.146-.234.219-.356.105-.172.207-.348.292-.514l.117-.2a9.089,9.089,0,0,1,.639-1.025c.1-.126.184-.2.26-.21a.131.131,0,0,1,.111.026c.137.1.134.441-.181,1.153-.339.759-.654,1.095-.9,1.054l-.727,2.222c.552-.021,1.185-.683,1.857-1.959l.453.33.765-1.714-.447-.327a6.965,6.965,0,0,0,.485-1.924v-.015a1.206,1.206,0,0,0-.347-1.1c-.584-.435-1.279.514-1.918,1.6-.584,1.01-1.045,1.968-1.334,1.752-.181-.131-.094-.569.158-1.13.4-.9.777-1.083.975-1.037l.768-2.336a.749.749,0,0,0-.339.041,1.724,1.724,0,0,0-.616.45,7.068,7.068,0,0,0-1.025,1.542l-.453-.33-.756,1.7Z" fill="#6449d1"/>
    <path id="Tracé_237" data-name="Tracé 237" d="M21.89,71.912l.806-1.486.4.12-.453-.33Z" fill="#f5f5f5"/>
    <path id="Tracé_238" data-name="Tracé 238" d="M24.872,68.694l-.561,2.155.768-2.336a.746.746,0,0,0-.339.041,1.723,1.723,0,0,0-.616.45,4.379,4.379,0,0,0-.406.508l.02-.023A2.35,2.35,0,0,1,24.872,68.694Z" fill="#f5f5f5"/>
    <path id="Tracé_239" data-name="Tracé 239" d="M24.393,74.143l-.733,2.225.768-2.079a1.5,1.5,0,0,0,.715-.8,4.622,4.622,0,0,0,.292-.768c-.038.111-.085.231-.143.365C24.953,73.848,24.638,74.184,24.393,74.143Z" fill="#f5f5f5"/>
    <path id="Tracé_240" data-name="Tracé 240" d="M25.525,74.409l.429.225.788-1.609-.765,1.714Z" fill="#f5f5f5"/>
    <path id="Tracé_241" data-name="Tracé 241" d="M21.832,74.374v-.14a5.438,5.438,0,0,1,.5-1.989l-.347-.257-.1-.076.756-1.7.453.33A7.073,7.073,0,0,1,24.118,69a1.722,1.722,0,0,1,.616-.45.746.746,0,0,1,.339-.041l-.1.307.1-.307a8.126,8.126,0,0,1-.9-.52.76.76,0,0,0-.339.041,1.752,1.752,0,0,0-.616.447,6.425,6.425,0,0,0-.987,1.46l-.488-.263-.759,1.7.1.076.35.257A5.4,5.4,0,0,0,20.93,73.7v.14a1.179,1.179,0,0,0,.339,1.039c.19.134.78.438.9.514C21.908,75.232,21.814,74.864,21.832,74.374Z" opacity="0.3"/>
    <path id="Tracé_242" data-name="Tracé 242" d="M25.292,73.089c.315-.712.318-1.054.181-1.153a.131.131,0,0,0-.111-.026c-.076,0-.161.085-.26.21a9.072,9.072,0,0,0-.639,1.025l-.117.2c-.1.166-.2.342-.292.514-.073.123-.146.242-.219.356a6.173,6.173,0,0,1-.458.654l-.056.067-.032.035a1.07,1.07,0,0,1-.07.085l-.085.088-.076.076-.093.079-.175.54.9.52.724-2.225C24.638,74.184,24.953,73.848,25.292,73.089Z" opacity="0.3"/>
    <path id="Tracé_243" data-name="Tracé 243" d="M23.336,71.886c-.251.561-.339,1-.158,1.13.292.21.739-.747,1.335-1.752.639-1.083,1.323-2.044,1.918-1.6-.193-.14-.669-.382-.9-.52a.584.584,0,0,0-.66,0l-.561,1.7C24.112,70.8,23.733,70.99,23.336,71.886Z" opacity="0.3"/>
    <path id="Tracé_244" data-name="Tracé 244" d="M23.336,71.886c-.251.561-.339,1-.158,1.13.292.21.739-.747,1.335-1.752.639-1.083,1.323-2.044,1.918-1.6-.193-.14-.669-.382-.9-.52a.584.584,0,0,0-.66,0l-.561,1.7C24.112,70.8,23.733,70.99,23.336,71.886Z" opacity="0.1"/>
    <path id="Tracé_245" data-name="Tracé 245" d="M20.988,71.393l.9.52.45.333-.9-.52Z" opacity="0.4"/>
    <path id="Tracé_246" data-name="Tracé 246" d="M21.838,74.234a5.437,5.437,0,0,1,.5-1.988l-.9-.52a5.4,5.4,0,0,0-.505,1.989v.14a1.179,1.179,0,0,0,.339,1.04c.19.134.78.438.9.514a1.171,1.171,0,0,1-.339-1.04A.689.689,0,0,1,21.838,74.234Z" opacity="0.1"/>
    <path id="Tracé_247" data-name="Tracé 247" d="M23.823,74.216a6.184,6.184,0,0,1-.458.654l-.056.067-.032.035q-.033.044-.07.085l-.085.088-.076.076-.094.079-.175.54.9.52.724-2.225-.388-.219C23.952,74.023,23.885,74.123,23.823,74.216Z" opacity="0.1"/>
    <path id="Tracé_248" data-name="Tracé 248" d="M23.052,81.09c2.841-1.279,5.344-4.964,5.344-4.964a13.588,13.588,0,0,1-5.279,5.133c-1.834.876-3.463.82-4.6-.181C18.518,81.075,20.156,82.389,23.052,81.09Z" fill="#f5f5f5"/>
    <path id="Tracé_249" data-name="Tracé 249" d="M18.851,68.805a14.6,14.6,0,0,1,5.881-6.018c2.336-1.127,4.327-.745,5.522.771,0,0-2.012-2.368-5.548-.54A17.047,17.047,0,0,0,18.851,68.805Z" fill="#f5f5f5"/>
    <path id="Tracé_250" data-name="Tracé 250" d="M33.462,68.908c.692.584,1.206,1.483.552,2.094,0,0,.771-.415.692-.928S33.462,68.908,33.462,68.908Z" opacity="0.15"/>
    <path id="Tracé_251" data-name="Tracé 251" d="M101.332,105.565a49.644,49.644,0,0,0,6.424-3.3,70.554,70.554,0,0,0,6.1-3.6,2.652,2.652,0,0,0,1.328-1.533c.108-.543-.1-.771-.543-1.1a10.508,10.508,0,0,0-2.94-1.492,4.182,4.182,0,0,0-1.486-.312,17.619,17.619,0,0,0-1.752.193,7.661,7.661,0,0,0-2.1.791c-.709.342-1.4.721-2.091,1.1l-4.543,2.5c-1.647.908-2.543,1.387-4.494,2.649-.382.248-1.416.876-1.431,1.337a1.558,1.558,0,0,0,.689,1.147A7.34,7.34,0,0,0,101.332,105.565Z" opacity="0.1"/>
    <path id="Tracé_252" data-name="Tracé 252" d="M108.979,93.549a4.681,4.681,0,0,0-4.432.175c-4.088,1.971-7.732,7.808-8.126,13.04-.225,2.961.639,5.09,2.175,6.027.394.24,1.918,1.1,2.28,1.32a4.664,4.664,0,0,0,4.488-.143c4.088-1.971,7.736-7.808,8.13-13.041.225-3.007-.669-5.156-2.249-6.07C110.869,94.642,109.365,93.768,108.979,93.549Z" fill="#6449d1"/>
    <path id="Tracé_253" data-name="Tracé 253" d="M108.979,93.549a4.681,4.681,0,0,0-4.432.175c-4.088,1.971-7.732,7.808-8.126,13.04-.225,2.961.639,5.09,2.175,6.027.394.24,1.918,1.1,2.28,1.32a4.664,4.664,0,0,0,4.488-.143c4.088-1.971,7.736-7.808,8.13-13.041.225-3.007-.669-5.156-2.249-6.07C110.869,94.642,109.365,93.768,108.979,93.549Z" opacity="0.25"/>
    <path id="Tracé_254" data-name="Tracé 254" d="M112.881,104.129,100.549,97.01a18.143,18.143,0,0,0-4.129,9.755c-.225,2.961.639,5.09,2.175,6.027.394.24,1.918,1.1,2.28,1.32a4.666,4.666,0,0,0,4.489-.143C108.632,112.395,111.613,108.348,112.881,104.129Z" opacity="0.1"/>
    <path id="Tracé_255" data-name="Tracé 255" d="M97.1,103.34a15.447,15.447,0,0,0-.68,3.425c-.225,2.961.639,5.09,2.175,6.027.394.24,1.918,1.1,2.28,1.32a4.666,4.666,0,0,0,4.489-.143,12.558,12.558,0,0,0,4.143-3.463Z" opacity="0.1"/>
    <path id="Tracé_256" data-name="Tracé 256" d="M106.795,95.024c-4.088,1.968-7.735,7.8-8.129,13.038s2.6,7.884,6.7,5.907,7.735-7.808,8.129-13.041S110.889,93.053,106.795,95.024Z" fill="#6449d1"/>
    <path id="Tracé_257" data-name="Tracé 257" d="M106.795,95.024c-4.088,1.968-7.735,7.8-8.129,13.038s2.6,7.884,6.7,5.907,7.735-7.808,8.129-13.041S110.889,93.053,106.795,95.024Z" opacity="0.2"/>
    <path id="Tracé_258" data-name="Tracé 258" d="M110.851,102.123a12.454,12.454,0,0,1-1.842,4.964,10.206,10.206,0,0,1-3.452,3.536c-1.3.721-2.473.718-3.291,0a4.176,4.176,0,0,1-.954-3.744,12.394,12.394,0,0,1,1.836-4.964,10.153,10.153,0,0,1,3.455-3.536c1.3-.718,2.47-.718,3.288,0S111.05,100.432,110.851,102.123Z" fill="#6449d1"/>
    <path id="Tracé_259" data-name="Tracé 259" d="M110.851,102.123a12.454,12.454,0,0,1-1.842,4.964,10.206,10.206,0,0,1-3.452,3.536c-1.3.721-2.473.718-3.291,0a4.176,4.176,0,0,1-.954-3.744,12.394,12.394,0,0,1,1.836-4.964,10.153,10.153,0,0,1,3.455-3.536c1.3-.718,2.47-.718,3.288,0S111.05,100.432,110.851,102.123Z" opacity="0.4"/>
    <path id="Tracé_260" data-name="Tracé 260" d="M111.576,95.675c-1.131-1-2.766-1.06-4.6-.181a13.568,13.568,0,0,0-5.277,5.139,17.134,17.134,0,0,0-2.6,7.5c-.178,2.336.35,4.181,1.481,5.18s2.765,1.063,4.6.181a13.523,13.523,0,0,0,5.279-5.136,17.11,17.11,0,0,0,2.6-7.5C113.234,98.516,112.72,96.668,111.576,95.675Zm-1.685,2.7c.82.721,1.168,2.044.96,3.744a12.454,12.454,0,0,1-1.842,4.964,10.206,10.206,0,0,1-3.452,3.536c-1.3.721-2.473.718-3.29,0s-1.168-2.044-.955-3.744a12.394,12.394,0,0,1,1.836-4.964,10.161,10.161,0,0,1,3.455-3.536C107.9,97.658,109.073,97.658,109.891,98.379Z" fill="#6449d1"/>
    <path id="Tracé_261" data-name="Tracé 261" d="M106.763,98.744c2.447-1.352,4.123.126,3.747,3.3s-2.666,6.847-5.113,8.2-4.123-.126-3.746-3.3S104.316,100.1,106.763,98.744Z" opacity="0.2"/>
    <path id="Tracé_262" data-name="Tracé 262" d="M106.763,98.744c2.447-1.352,4.123.126,3.747,3.3s-2.666,6.847-5.113,8.2-4.123-.126-3.746-3.3S104.316,100.1,106.763,98.744Z" fill="#6449d1"/>
    <path id="Tracé_263" data-name="Tracé 263" d="M106.763,98.744c2.447-1.352,4.123.126,3.747,3.3s-2.666,6.847-5.113,8.2-4.123-.126-3.746-3.3S104.316,100.1,106.763,98.744Z" opacity="0.6"/>
    <path id="Tracé_264" data-name="Tracé 264" d="M109.8,101.428c-.377,3.177-2.666,6.847-5.11,8.2a2.734,2.734,0,0,1-2.549.307,4.37,4.37,0,0,1-.5-2.991c.379-3.174,2.666-6.847,5.112-8.2a2.686,2.686,0,0,1,2.55-.292A4.233,4.233,0,0,1,109.8,101.428Z" fill="#6449d1"/>
    <path id="Tracé_265" data-name="Tracé 265" d="M109.8,101.428c-.377,3.177-2.666,6.847-5.11,8.2a2.734,2.734,0,0,1-2.549.307,4.37,4.37,0,0,1-.5-2.991c.379-3.174,2.666-6.847,5.112-8.2a2.686,2.686,0,0,1,2.55-.292A4.233,4.233,0,0,1,109.8,101.428Z" opacity="0.5"/>
    <path id="Tracé_266" data-name="Tracé 266" d="M108.5,101.9c-.193-.14-.669-.383-.9-.52a.585.585,0,0,0-.66,0l.207-.634a8.006,8.006,0,0,1-.9-.522.812.812,0,0,0-.339.043,1.678,1.678,0,0,0-.616.447,6.414,6.414,0,0,0-.987,1.475l-.488-.263-.759,1.7.1.076.351.257a5.409,5.409,0,0,0-.506,1.989v.14a1.181,1.181,0,0,0,.339,1.039c.19.138.78.441.9.517a.606.606,0,0,0,.774-.111l-.175.538.9.519c.552-.017,1.186-.683,1.858-1.956l.452.327.765-1.711-.452-.33a6.933,6.933,0,0,0,.484-1.921v-.015A1.2,1.2,0,0,0,108.5,101.9Z" fill="#6449d1"/>
    <path id="Tracé_267" data-name="Tracé 267" d="M104.056,104.225l.348.257a5.445,5.445,0,0,0-.5,1.988v.141a1.175,1.175,0,0,0,.339,1.039c.269.193.567.085.876-.19l.076-.076.085-.087c.024-.027.048-.055.07-.085l.032-.035.055-.067c.155-.2.31-.423.459-.654.073-.114.146-.234.219-.356.105-.173.207-.348.292-.514l.117-.2a9.04,9.04,0,0,1,.639-1.025c.1-.128.184-.2.26-.213a.156.156,0,0,1,.111.026c.137.1.134.444-.181,1.168-.339.76-.654,1.1-.9,1.055l-.724,2.222c.552-.018,1.186-.684,1.857-1.957l.453.327.765-1.711-.453-.33a6.9,6.9,0,0,0,.485-1.921v-.015a1.209,1.209,0,0,0-.347-1.1c-.584-.435-1.279.514-1.919,1.6-.584,1.01-1.045,1.968-1.334,1.752-.181-.132-.094-.57.158-1.13.4-.9.776-1.084.975-1.037l.768-2.336a.737.737,0,0,0-.339.041,1.706,1.706,0,0,0-.616.447,6.992,6.992,0,0,0-1.025,1.544l-.453-.333-.741,1.691Z" fill="#6449d1"/>
    <path id="Tracé_268" data-name="Tracé 268" d="M103.954,104.149l.806-1.486.4.119-.453-.332Z" fill="#f5f5f5"/>
    <path id="Tracé_269" data-name="Tracé 269" d="M106.936,100.931l-.561,2.161.768-2.336a.737.737,0,0,0-.339.041,1.706,1.706,0,0,0-.616.447,4.7,4.7,0,0,0-.406.5.1.1,0,0,0,.021-.026A2.357,2.357,0,0,1,106.936,100.931Z" fill="#f5f5f5"/>
    <path id="Tracé_270" data-name="Tracé 270" d="M106.457,106.38l-.725,2.222.768-2.076a1.508,1.508,0,0,0,.716-.8,4.688,4.688,0,0,0,.292-.768c-.038.111-.085.228-.143.365C107.017,106.085,106.7,106.421,106.457,106.38Z" fill="#f5f5f5"/>
    <path id="Tracé_271" data-name="Tracé 271" d="M107.589,106.646l.43.224.788-1.608-.762,1.711Z" fill="#f5f5f5"/>
    <path id="Tracé_272" data-name="Tracé 272" d="M103.9,106.611v-.141a5.444,5.444,0,0,1,.5-1.988l-.347-.257-.1-.076.757-1.7.452.333a7.034,7.034,0,0,1,1.025-1.545,1.718,1.718,0,0,1,.616-.447.768.768,0,0,1,.339-.041l-.1.292.1-.292a8.16,8.16,0,0,1-.9-.522.814.814,0,0,0-.339.043,1.678,1.678,0,0,0-.616.447,6.415,6.415,0,0,0-.987,1.475l-.488-.263-.759,1.7.1.076.351.257a5.388,5.388,0,0,0-.5,1.989v.14a1.181,1.181,0,0,0,.338,1.039c.19.138.78.441.9.517A1.156,1.156,0,0,1,103.9,106.611Z" opacity="0.3"/>
    <path id="Tracé_273" data-name="Tracé 273" d="M107.356,105.326c.315-.713.318-1.054.181-1.168a.151.151,0,0,0-.111-.026c-.076,0-.161.084-.26.213a8.953,8.953,0,0,0-.639,1.025l-.117.2c-.1.166-.2.342-.292.514-.073.123-.146.242-.219.356a6.014,6.014,0,0,1-.459.654l-.055.067-.032.035a.957.957,0,0,1-.07.085l-.085.088-.076.076-.093.079-.175.537.9.52.724-2.223C106.7,106.421,107.017,106.085,107.356,105.326Z" opacity="0.3"/>
    <path id="Tracé_274" data-name="Tracé 274" d="M105.4,104.123c-.251.56-.339,1-.158,1.13.292.21.739-.748,1.334-1.752.64-1.083,1.323-2.044,1.919-1.6-.193-.141-.669-.383-.9-.52a.585.585,0,0,0-.66,0l-.561,1.708C106.176,103.039,105.8,103.226,105.4,104.123Z" opacity="0.3"/>
    <path id="Tracé_275" data-name="Tracé 275" d="M105.4,104.123c-.251.56-.339,1-.158,1.13.292.21.739-.748,1.334-1.752.64-1.083,1.323-2.044,1.919-1.6-.193-.141-.669-.383-.9-.52a.585.585,0,0,0-.66,0l-.561,1.708C106.176,103.039,105.8,103.226,105.4,104.123Z" opacity="0.1"/>
    <path id="Tracé_276" data-name="Tracé 276" d="M103.052,103.629l.9.52.45.333-.9-.52Z" opacity="0.4"/>
    <path id="Tracé_277" data-name="Tracé 277" d="M103.9,106.47a5.424,5.424,0,0,1,.5-1.988l-.9-.514a5.409,5.409,0,0,0-.506,1.989v.14a1.184,1.184,0,0,0,.339,1.039c.19.137.78.441.9.517a1.172,1.172,0,0,1-.338-1.039A.77.77,0,0,1,103.9,106.47Z" opacity="0.1"/>
    <path id="Tracé_278" data-name="Tracé 278" d="M105.887,106.453a6.255,6.255,0,0,1-.458.654l-.056.067-.032.035a.96.96,0,0,1-.07.085l-.085.087-.076.076-.093.079-.175.538.9.519.724-2.222-.388-.222C106,106.26,105.948,106.357,105.887,106.453Z" opacity="0.1"/>
    <path id="Tracé_279" data-name="Tracé 279" d="M105.128,113.327c2.841-1.279,5.344-4.964,5.344-4.964a13.578,13.578,0,0,1-5.28,5.136c-1.833.876-3.463.817-4.6-.181C100.582,113.312,102.226,114.626,105.128,113.327Z" fill="#f5f5f5"/>
    <path id="Tracé_280" data-name="Tracé 280" d="M100.915,101.048a14.594,14.594,0,0,1,5.88-6.018c2.336-1.127,4.328-.745,5.522.771,0,0-2.012-2.368-5.548-.543A17.014,17.014,0,0,0,100.915,101.048Z" fill="#f5f5f5"/>
    <path id="Tracé_281" data-name="Tracé 281" d="M97.127,102.2c-.8.52-.964.745-.1,1.382a28.063,28.063,0,0,0,2.879,1.632,10.731,10.731,0,0,1-3.323-1.37C95.305,102.923,95.927,102.546,97.127,102.2Z" opacity="0.15"/>
    <path id="Tracé_282" data-name="Tracé 282" d="M74.722,101.323a7.145,7.145,0,0,1-4.07,1.626,8.8,8.8,0,0,0,2.237,2,4.429,4.429,0,0,0,2.894.628,5.3,5.3,0,0,0,2.946-1.808c.794-.864,1.46-1.854,2.248-2.709a3.369,3.369,0,0,1,2.608-1.317,11.317,11.317,0,0,0-2.228-1.507,2.961,2.961,0,0,0-3.276.225C76.936,99.378,75.9,100.438,74.722,101.323Z" opacity="0.1"/>
    <path id="Tracé_283" data-name="Tracé 283" d="M83.521,98.531c-5.335,1.244-3.478,4.885-8.812,6.132l-3.837-2.754c4.879-.292,3.758-4.38,8.608-4.82Z" fill="#ff0c39"/>
    <path id="Tracé_284" data-name="Tracé 284" d="M81.234,98.765c-2.643,1.524-2.666,3.571-5.309,5.1a2.33,2.33,0,0,0-1.037-.064l-2.044-1.4a.426.426,0,0,0,.239-.21.234.234,0,0,0,.014-.127.23.23,0,0,0-.055-.115c3.241-1.133,2.181-3.169,5.422-4.3a1.29,1.29,0,0,0,1.031,0l1.956.748a.47.47,0,0,0-.251.184.143.143,0,0,0,.032.187Zm.38-.023c-.24-.094-.149-.277.271-.374l-2.374-.876a1.106,1.106,0,0,1-.955.053c-3.568,1.08-2.31,3.282-5.878,4.363.239.16.158.382-.245.461l2.327,1.6a1.632,1.632,0,0,1,1.136.088c2.935-1.563,2.794-3.741,5.732-5.3Z" opacity="0.3"/>
    <g id="Groupe_6" data-name="Groupe 6" opacity="0.3">
      <path id="Tracé_285" data-name="Tracé 285" d="M75.963,99.918a1.714,1.714,0,0,1,2.009-.447,1.112,1.112,0,0,1,.359,1.7,1.52,1.52,0,0,1-2,.449,1.124,1.124,0,0,1-.371-1.705Zm2.134,1.136a.917.917,0,0,0-.292-1.387,1.363,1.363,0,0,0-1.609.371.92.92,0,0,0,.307,1.387,1.226,1.226,0,0,0,1.594-.377Z" opacity="0.3"/>
    </g>
    <path id="Tracé_286" data-name="Tracé 286" d="M41.977,76.87h-.035a5.517,5.517,0,0,0,.584,2.409,4.153,4.153,0,0,0,1.343,1.577,3.834,3.834,0,0,0,2.535.6,12.432,12.432,0,0,0,3.571-1.314,8.8,8.8,0,0,1,5.309-.733c-.657-2.03-2.835-2.92-4.8-2.984a11.2,11.2,0,0,0-1.875.266c-.689.1-1.384.172-2.079.222a28.907,28.907,0,0,1-4.179,0Z" opacity="0.1"/>
    <path id="Tracé_287" data-name="Tracé 287" d="M55.281,78.368c-5.256-1.5-5.411,2.581-10.678,1.08l-2.021-4.272c4.412,2.105,5.414-2,9.87-.032Z" fill="#ff0c39"/>
    <path id="Tracé_288" data-name="Tracé 288" d="M53.17,77.466c-3.048.047-4.111,1.726-7.163,1.775a2.362,2.362,0,0,0-.876-.561c-.444-.876-.616-1.232-1.057-2.12a.435.435,0,0,0,.313-.067.234.234,0,0,0,.082-.231c3.384.584,3.446-1.711,6.83-1.127a1.288,1.288,0,0,0,.894.508l1.349,1.6a.482.482,0,0,0-.309.038.149.149,0,0,0-.064.181Zm.336.169c-.161-.2,0-.315.421-.2l-1.644-1.927a1.115,1.115,0,0,1-.859-.432c-3.644-.788-3.612,1.752-7.256.961.129.257-.05.412-.441.292.5,1.013.7,1.422,1.194,2.435a1.674,1.674,0,0,1,.952.628c3.323.061,4.31-1.81,7.633-1.752Z" opacity="0.3"/>
    <g id="Groupe_7" data-name="Groupe 7" opacity="0.3">
      <path id="Tracé_289" data-name="Tracé 289" d="M48.1,75.936a1.84,1.84,0,0,1,1.965.523c.412.526.167,1.168-.514,1.5a1.614,1.614,0,0,1-1.965-.523.975.975,0,0,1,.514-1.5Zm1.314,1.834a.793.793,0,0,0,.409-1.229,1.46,1.46,0,0,0-1.586-.412.8.8,0,0,0-.409,1.229,1.305,1.305,0,0,0,1.586.409Z" opacity="0.3"/>
    </g>
    <path id="Tracé_290" data-name="Tracé 290" d="M115.4,69.55a8.869,8.869,0,0,1-4.815,1c.5.067.978,1,1.247,1.375a4.559,4.559,0,0,0,3.457,2.3,5.839,5.839,0,0,0,2.806-.736c.876-.447,1.676-1.01,2.517-1.51,1.168-.695,2.669-1.437,4.05-.876-.122-.05-.362-.695-.449-.829a5.49,5.49,0,0,0-.666-.823,5.885,5.885,0,0,0-1.647-1.191,4.241,4.241,0,0,0-1.825-.552,5.861,5.861,0,0,0-1.98.631C117.188,68.718,116.309,69.164,115.4,69.55Z" opacity="0.1"/>
    <path id="Tracé_291" data-name="Tracé 291" d="M124.658,69.433c-5.753-.266-4.234,4.073-9.987,3.8-1.445-1.659-2.167-2.488-3.609-4.149,5.13.637,4.468-3.1,9.6-2.467Z" fill="#ff0c39"/>
    <g id="Groupe_8" data-name="Groupe 8" opacity="0.3">
      <path id="Tracé_292" data-name="Tracé 292" d="M122.421,69.071c-3.011.748-3.8,3.1-6.739,3.545a2.81,2.81,0,0,0-.99-.388c-.684-.835-1.206-1.329-1.89-2.164a.389.389,0,0,0,.257-.149.283.283,0,0,0,.043-.125.294.294,0,0,0-.016-.132c3.469-.152,3.136-2.511,6.605-2.663a3.854,3.854,0,0,0,.992.292c.745.584,1.277.861,2.021,1.46a.426.426,0,0,0-.263.12.194.194,0,0,0-.04.1.2.2,0,0,0,.02.1Zm.505.143c-.222-.178-.09-.345.356-.307-.89-.7-1.492-1.016-2.385-1.714a2.544,2.544,0,0,1-1.13-.374c-3.872-.053-3.288,2.657-7.16,2.6.207.251.076.458-.354.406.806,1,1.387,1.571,2.193,2.564a1.811,1.811,0,0,1,1.133.473C119.06,72.555,119.515,69.9,122.926,69.214Z" opacity="0.3"/>
    </g>
    <g id="Groupe_9" data-name="Groupe 9" opacity="0.3">
      <path id="Tracé_293" data-name="Tracé 293" d="M118.686,70.44a1.253,1.253,0,0,1-1.731-.117,1.057,1.057,0,0,1-.114-1.571,1.379,1.379,0,0,1,1.731.12,1.045,1.045,0,0,1,.285.336,1.052,1.052,0,0,1-.171,1.232Zm.213.2a1.282,1.282,0,0,0,.226-1.51,1.28,1.28,0,0,0-.348-.414,1.754,1.754,0,0,0-2.152-.158,1.282,1.282,0,0,0,.122,1.921A1.554,1.554,0,0,0,118.9,70.639Z" opacity="0.3"/>
    </g>
    <path id="Tracé_294" data-name="Tracé 294" d="M79.289,70.838a3.108,3.108,0,0,0-1.27,3.6,2.006,2.006,0,0,1,1.27-3.6Z" opacity="0.15"/>
    <path id="Tracé_295" data-name="Tracé 295" d="M101.916,75.276a2.639,2.639,0,0,1-2.2,3.148,3.23,3.23,0,0,0,2.517-1.077C102.792,76.488,101.916,75.276,101.916,75.276Z" opacity="0.15"/>
    <path id="Tracé_296" data-name="Tracé 296" d="M91.132,69.3s7.51-.966,11.858,2.643,2.211,6.547,2.211,6.547,3.408-3.825-1.4-7.227A13.677,13.677,0,0,0,91.132,69.3Z" opacity="0.15"/>
    <path id="Tracé_297" data-name="Tracé 297" d="M75.128,74.006s-1.881,3.6,3.837,6.182c5.2,2.354,11.143,1,11.143,1s-4.672,2.683-11.338-.12C72.24,78.327,75.128,74.006,75.128,74.006Z" opacity="0.15"/>
    <path id="Tracé_298" data-name="Tracé 298" d="M76.369,28.676c.9-2.044.683-3.078-2.067-2.351-1.726.456-3.113,1.682-3.37,5.84-.076,1.191-.029,2.57,0,5.358a69.731,69.731,0,0,0,.637,9.069A9.791,9.791,0,0,0,72.6,50.006c3.136,5.965,7.525,9.948,9.636,13.8,2.654-.178,6.342-4.549,4.38-7.285-2.257-.955-8.483-7.823-9.344-11.1-.4-1.51-.829-3.016-1.191-4.538-.2-.861-.391-1.729-.537-2.6a4.671,4.671,0,0,1-.079-2.59,9.857,9.857,0,0,1,.806-1.349,7.458,7.458,0,0,0,.785-1.58A15.227,15.227,0,0,1,77.6,31.2c.1-.231.213-.461.333-.686.093-.175.234-.374.14-.584-.166-.385-.905-.126-1.142.064a5,5,0,0,0-.943,1.221c-.064.094-.172.2-.274.146s-.085-.161-.073-.254a5.716,5.716,0,0,1,.321-1.3C76.1,29.429,76.2,29.047,76.369,28.676Z" fill="#ffa8a7"/>
    <path id="Tracé_299" data-name="Tracé 299" d="M76.185,41.372s.984,3.4,1.343,4.479,2.426,4.231,5.7,7.688c2.494,2.628,3.933,2.838,3.933,2.838L82.2,64.9c-.123-1.41-4.917-7.256-6.979-10.153s-3.434-5.358-3.779-7.592A40.374,40.374,0,0,1,71.066,42,8.547,8.547,0,0,0,76.185,41.372Z" fill="#f5f5f5"/>
    <path id="Tracé_300" data-name="Tracé 300" d="M92.572,56.664c2.394.365,5.133.555,6.812.785,1.834.248,2.488,1.752,2.488,4.885,0,4.62-2.362,12.319-2.362,12.319,0,2.219-15.905,3.738-17.356-1.037,0,0-.076-6.818.073-9.458.26-4.646,2.946-7.618,4.672-7.75A18.175,18.175,0,0,1,92.572,56.664Z" fill="#fff"/>
    <path id="Tracé_301" data-name="Tracé 301" d="M97.3,43.042a2.547,2.547,0,0,1,1.533,1.5c.242.926-.312,2.92-1.3,5.046a20.515,20.515,0,0,1-2.216,3.9,1.729,1.729,0,0,1-1.139.584l.584-2.628.458-1.816a7.747,7.747,0,0,1-.724-3.189,4.827,4.827,0,0,1,.666-2.354Z" fill="#263238"/>
    <path id="Tracé_302" data-name="Tracé 302" d="M97.536,43.425l1.98-.467a1.086,1.086,0,0,0-1.261-.838,1.039,1.039,0,0,0-.718,1.305Z" fill="#263238"/>
    <path id="Tracé_303" data-name="Tracé 303" d="M94.713,45.18a5.014,5.014,0,1,1,.008-1.958A5.017,5.017,0,0,1,94.713,45.18Z" fill="#263238"/>
    <path id="Tracé_304" data-name="Tracé 304" d="M95.214,49.332c.365.473.923-.45,1.372-.765a1.333,1.333,0,0,1,2.117.8c.347,1.4-1.168,3-2.158,3.194a1.781,1.781,0,0,1-1.831-.876l-.047,5.043c-1.9,2.243-4.643,3.177-5.312,4.243-.058-1.075-2.1-3.525-.917-4.441l.044-2.2A10.7,10.7,0,0,1,86.244,54c-1.168-.432-1.624-1.46-1.726-2.853a22.823,22.823,0,0,1,1.93-9.732c1.562-.78,6.226.33,8.707,2.7C94.236,47.679,94.846,48.859,95.214,49.332Z" fill="#ffa8a7"/>
    <path id="Tracé_305" data-name="Tracé 305" d="M86.358,38.367a.23.23,0,0,1,.2-.1.293.293,0,0,1,.149.105,8.388,8.388,0,0,0,.934.94,3.922,3.922,0,0,1,.275-1.475c.111-.292.333-.961.718-.961.228,0,.382.222.517.406,1.2,1.679,3.259,1.422,5.031,1.834,1.478.345,3.157,1.308,3.539,2.891a1.4,1.4,0,0,1-.607,1.77,4.288,4.288,0,0,1-1.953.318c-3.069-.076-7.566.292-9.21-2.92a2.222,2.222,0,0,1-.169-1.542,3.054,3.054,0,0,1,.561-1.264Z" fill="#263238"/>
    <path id="Tracé_306" data-name="Tracé 306" d="M88.484,54.328a21.433,21.433,0,0,0,3.851-.307A3.162,3.162,0,0,0,93.9,52.994a4.342,4.342,0,0,1-1.048,1.372c-.876.742-4.38.683-4.38.683Z" fill="#f28f8f"/>
    <path id="Tracé_307" data-name="Tracé 307" d="M90.5,47.542a.552.552,0,1,0,.654-.456.566.566,0,0,0-.654.456Z" fill="#263238"/>
    <path id="Tracé_308" data-name="Tracé 308" d="M92.759,46.444l-.876-1.025a.709.709,0,0,0-.07.978.657.657,0,0,0,.946.047Z" fill="#263238"/>
    <path id="Tracé_309" data-name="Tracé 309" d="M87.316,44.28l-1.267.488a.651.651,0,0,0,.856.4.709.709,0,0,0,.412-.891Z" fill="#263238"/>
    <path id="Tracé_310" data-name="Tracé 310" d="M86.069,46.473a.558.558,0,0,0,.426.669.584.584,0,1,0-.426-.669Z" fill="#263238"/>
    <path id="Tracé_311" data-name="Tracé 311" d="M88.773,46.873l-.794,3.051L86.4,49Z" fill="#f28f8f"/>
    <path id="Tracé_312" data-name="Tracé 312" d="M88.925,51.881c.949-.146,1.267,0,1.168-.4a1.361,1.361,0,0,0-1.513-.841,1.136,1.136,0,0,0-.917,1.2C87.719,52.284,88.072,52.015,88.925,51.881Z" fill="#b16668"/>
    <path id="Tracé_313" data-name="Tracé 313" d="M88.925,51.881c.815-.125,1.168-.035,1.168-.266a.61.61,0,0,0-.018-.137.8.8,0,0,0-.056-.143c-.015-.023-.029-.05-.047-.073a.688.688,0,0,0-.038-.061.937.937,0,0,0-1.072.523.852.852,0,0,0-.053.181Z" fill="#f28f8f"/>
    <path id="Tracé_314" data-name="Tracé 314" d="M92.2,60.151c-1.635,1.618-2.175,1.927-2.905,1.965s-1.977-1.694-1.9-2.628l-.455.733s.429,2.5,2.14,2.847,3.974-2.432,3.974-2.432Z" fill="#37474f"/>
    <path id="Tracé_315" data-name="Tracé 315" d="M90.236,62.177c0,.584.222.66.222.66s-.669,1.051-1.288,1.188a.978.978,0,0,0-1.258-.237,1.816,1.816,0,0,1-.126-1.606,1.434,1.434,0,0,1,.66-.678,2.719,2.719,0,0,1,1.9.272A.552.552,0,0,0,90.236,62.177Z" fill="#3d334a"/>
    <path id="Tracé_316" data-name="Tracé 316" d="M89.159,64.025a99.543,99.543,0,0,0,.292,10.366c.225,2.044-.438,2.739-2.937,4.739a11.557,11.557,0,0,1-4.38.4c-.672-.044-1.521-.292-1.048-1.045A12.231,12.231,0,0,1,82.676,76.2a10.955,10.955,0,0,0,3.11-1.819c.561-.666,1.133-8.223,2.12-10.588S89.159,64.025,89.159,64.025Z" fill="#3d334a"/>
    <path id="Tracé_317" data-name="Tracé 317" d="M94.683,55.137c.35.026.529.079.815.648.324.648.6,1.238.6,1.238a6.981,6.981,0,0,1-1.168,2.514,9.636,9.636,0,0,1-2.152,2.2A14.2,14.2,0,0,0,91.55,60.46a1.264,1.264,0,0,0-1.524-.158,6.127,6.127,0,0,1,.771-1.168c.213-.225,1.08-.488,2.266-1.232a4.266,4.266,0,0,0,1.615-2.044Z" fill="#f0f0f0"/>
    <path id="Tracé_318" data-name="Tracé 318" d="M89.088,60.1a2.6,2.6,0,0,0-.5-1.32,2.813,2.813,0,0,1-.146-1.556c0-.5.02-1.621.02-1.621a1,1,0,0,0-.969.747,6.127,6.127,0,0,0-.78,2.8,4.642,4.642,0,0,0,.117,1.5,8.1,8.1,0,0,1,1.2-.9.712.712,0,0,1,1.057.353Z" fill="#f0f0f0"/>
    <path id="Tracé_319" data-name="Tracé 319" d="M108.206,33.736a11.244,11.244,0,0,0-.777-3.338c-.9-2.044-.683-3.078,2.067-2.351,1.723.453,3.212,1.8,3.484,5.945a43.683,43.683,0,0,1-.026,5.256c-.292,3.189-.693,6.109-1.087,8.76a17.269,17.269,0,0,1-1.238,4.173c-3.8,7.715-6.619,9.875-9.2,14.717-3.036-.356-3.328-7.4-2.645-9.192,0,0,6.272-6.185,7.332-9.391.975-2.955,2.383-8.115,2.31-10.588" fill="#ffa8a7"/>
    <path id="Tracé_320" data-name="Tracé 320" d="M98.508,57.353c1.983-1.413,5.233-5.773,6.132-6.774S107.5,43.55,107.5,43.55a6.405,6.405,0,0,0,4.964.327,34.449,34.449,0,0,1-.336,4.672c-.371,2.794-1.378,4.707-3.39,8.147s-7.507,11.119-7.507,11.119a6.379,6.379,0,0,1-3.151-5.02A14.581,14.581,0,0,1,98.508,57.353Z" fill="#f5f5f5"/>
    <path id="Tracé_321" data-name="Tracé 321" d="M103.271,7.211c1.536-.876,3.556-.876,5.84.234,5.39,2.593,10.179,10.278,10.7,17.164.292,3.9-.844,6.716-2.865,7.934-.52.318-2.523,1.46-3,1.752-1.544.917-3.594.923-5.91-.19-5.39-2.593-10.179-10.278-10.7-17.164-.292-3.96.876-6.792,2.961-7.992C100.783,8.653,102.763,7.5,103.271,7.211Z" fill="#6449d1"/>
    <path id="Tracé_322" data-name="Tracé 322" d="M103.271,7.211c1.536-.876,3.556-.876,5.84.234,5.39,2.593,10.179,10.278,10.7,17.164.292,3.9-.844,6.716-2.865,7.934-.52.318-2.523,1.46-3,1.752-1.544.917-3.594.923-5.91-.19-5.39-2.593-10.179-10.278-10.7-17.164-.292-3.96.876-6.792,2.961-7.992C100.783,8.653,102.763,7.5,103.271,7.211Z" opacity="0.25"/>
    <path id="Tracé_323" data-name="Tracé 323" d="M98.135,21.139l16.235-9.373A23.911,23.911,0,0,1,119.8,24.614c.292,3.9-.844,6.716-2.864,7.934-.52.318-2.523,1.46-3,1.752-1.545.917-3.6.923-5.91-.19C103.724,32.022,99.805,26.7,98.135,21.139Z" opacity="0.1"/>
    <path id="Tracé_324" data-name="Tracé 324" d="M118.907,20.1a20.239,20.239,0,0,1,.9,4.506c.292,3.9-.844,6.716-2.865,7.934-.52.318-2.523,1.46-3,1.752-1.544.917-3.594.923-5.91-.19a16.567,16.567,0,0,1-5.454-4.558Z" opacity="0.1"/>
    <path id="Tracé_325" data-name="Tracé 325" d="M97.329,16.929c.52,6.885,5.308,14.571,10.7,17.164s9.344-.876,8.818-7.776-5.294-14.571-10.7-17.164S96.809,10.04,97.329,16.929Z" fill="#6449d1"/>
    <path id="Tracé_326" data-name="Tracé 326" d="M97.329,16.929c.52,6.885,5.308,14.571,10.7,17.164s9.344-.876,8.818-7.776-5.294-14.571-10.7-17.164S96.809,10.04,97.329,16.929Z" opacity="0.2"/>
    <path id="Tracé_327" data-name="Tracé 327" d="M100.809,18.5a16.417,16.417,0,0,0,2.421,6.526,13.324,13.324,0,0,0,4.547,4.652c1.714.952,3.252.949,4.33,0s1.524-2.7,1.258-4.929a16.383,16.383,0,0,0-2.417-6.523,13.317,13.317,0,0,0-4.55-4.655c-1.714-.946-3.25-.946-4.327,0S100.544,16.272,100.809,18.5Z" fill="#6449d1"/>
    <path id="Tracé_328" data-name="Tracé 328" d="M100.809,18.5a16.417,16.417,0,0,0,2.421,6.526,13.324,13.324,0,0,0,4.547,4.652c1.714.952,3.252.949,4.33,0s1.524-2.7,1.258-4.929a16.383,16.383,0,0,0-2.417-6.523,13.317,13.317,0,0,0-4.55-4.655c-1.714-.946-3.25-.946-4.327,0S100.544,16.272,100.809,18.5Z" opacity="0.4"/>
    <path id="Tracé_329" data-name="Tracé 329" d="M97.9,16.832a22.485,22.485,0,0,0,3.419,9.875,17.8,17.8,0,0,0,6.95,6.76c2.415,1.168,4.561,1.077,6.053-.239s2.193-3.72,1.954-6.818a22.441,22.441,0,0,0-3.423-9.87A17.912,17.912,0,0,0,105.9,9.775c-2.412-1.168-4.561-1.075-6.053.239S97.67,13.74,97.9,16.832Zm8.5-3.265a13.367,13.367,0,0,1,4.55,4.655,16.4,16.4,0,0,1,2.417,6.523c.266,2.228-.181,3.977-1.258,4.929s-2.628.952-4.331,0a13.382,13.382,0,0,1-4.546-4.652,16.417,16.417,0,0,1-2.421-6.526c-.265-2.225.184-3.977,1.262-4.926S104.684,12.622,106.4,13.568Z" fill="#6449d1"/>
    <path id="Tracé_330" data-name="Tracé 330" d="M111.418,29.558c2.211-1.207,2.064-5.737-.327-10.118s-6.123-6.954-8.334-5.747-2.064,5.737.327,10.118S109.207,30.765,111.418,29.558Z" opacity="0.2"/>
    <path id="Tracé_331" data-name="Tracé 331" d="M111.418,29.558c2.211-1.207,2.064-5.737-.327-10.118s-6.123-6.954-8.334-5.747-2.064,5.737.327,10.118S109.207,30.765,111.418,29.558Z" fill="#6449d1"/>
    <path id="Tracé_332" data-name="Tracé 332" d="M111.418,29.558c2.211-1.207,2.064-5.737-.327-10.118s-6.123-6.954-8.334-5.747-2.064,5.737.327,10.118S109.207,30.765,111.418,29.558Z" opacity="0.6"/>
    <path id="Tracé_333" data-name="Tracé 333" d="M102.182,17.583c.5,4.181,3.5,9.017,6.716,10.8a3.591,3.591,0,0,0,3.355.4,5.738,5.738,0,0,0,.651-3.933c-.5-4.181-3.5-9.017-6.716-10.8a3.6,3.6,0,0,0-3.355-.4A5.744,5.744,0,0,0,102.182,17.583Z" fill="#6449d1"/>
    <path id="Tracé_334" data-name="Tracé 334" d="M102.182,17.583c.5,4.181,3.5,9.017,6.716,10.8a3.591,3.591,0,0,0,3.355.4,5.738,5.738,0,0,0,.651-3.933c-.5-4.181-3.5-9.017-6.716-10.8a3.6,3.6,0,0,0-3.355-.4A5.744,5.744,0,0,0,102.182,17.583Z" opacity="0.5"/>
    <path id="Tracé_335" data-name="Tracé 335" d="M110.635,24.489A4.511,4.511,0,0,0,109,21.309l.409.105,1.185-.683a5.4,5.4,0,0,0-.21-.759,5.322,5.322,0,0,0-.619-1.168,6.306,6.306,0,0,0-1.518-1.51l-.047-1.229-1.46-.85-1.188.686v.38a1.37,1.37,0,0,0-.292.131l-.091.064c-.137.1-.82.455-1.095.622-.035.02-.061.041-.09.061a1.516,1.516,0,0,0-.456,1.358,3.849,3.849,0,0,0,.584,1.9l.091.137.1.143.093.123a.5.5,0,0,1,.038.047.83.83,0,0,0,.073.09,7.984,7.984,0,0,0,.657.7c.1.1.208.193.313.292l-.541-.134-1.159.686A5.67,5.67,0,0,0,106,25.712l.05,1.226,1.48.82,1.186-.686-.015-.382a.933.933,0,0,0,.24-.1c.178-.117.972-.552,1.168-.68A1.447,1.447,0,0,0,110.635,24.489Z" fill="#6449d1"/>
    <path id="Tracé_336" data-name="Tracé 336" d="M110.635,24.489A4.511,4.511,0,0,0,109,21.309l.409.105,1.185-.683a5.4,5.4,0,0,0-.21-.759,5.322,5.322,0,0,0-.619-1.168,6.306,6.306,0,0,0-1.518-1.51l-.047-1.229-1.46-.85-1.188.686v.38a1.37,1.37,0,0,0-.292.131l-.091.064c-.137.1-.82.455-1.095.622-.035.02-.061.041-.09.061a1.516,1.516,0,0,0-.456,1.358,3.849,3.849,0,0,0,.584,1.9l.091.137.1.143.093.123a.5.5,0,0,1,.038.047.83.83,0,0,0,.073.09,7.984,7.984,0,0,0,.657.7c.1.1.208.193.313.292l-.541-.134-1.159.686A5.67,5.67,0,0,0,106,25.712l.05,1.226,1.48.82,1.186-.686-.015-.382a.933.933,0,0,0,.24-.1c.178-.117.972-.552,1.168-.68A1.447,1.447,0,0,0,110.635,24.489Z" opacity="0.3"/>
    <path id="Tracé_337" data-name="Tracé 337" d="M107.543,27.753l-.047-1.226,1.218.158.014.385Z" opacity="0.1"/>
    <path id="Tracé_338" data-name="Tracé 338" d="M106.737,22.258l-1.186.683-1.772-.444,1.185-.683Z" opacity="0.1"/>
    <path id="Tracé_339" data-name="Tracé 339" d="M107.017,16.742l1.186-.686.046,1.229-1.185.683Z" opacity="0.1"/>
    <path id="Tracé_340" data-name="Tracé 340" d="M105.56,16.2l.032.949a1.414,1.414,0,0,0-1.507-.064c-.035.02-.061.041-.09.061a1.516,1.516,0,0,0-.456,1.358,3.849,3.849,0,0,0,.584,1.9l.091.137.1.143.094.123a.487.487,0,0,1,.037.047.83.83,0,0,0,.073.09,8.14,8.14,0,0,0,.657.7c.111.105.225.21.342.309.164.146.33.292.485.418l.19.155a7.537,7.537,0,0,1,.987.914,1.359,1.359,0,0,1,.274.482,1.11,1.11,0,0,1,.044.274c.014.371-.2.555-.815.216a2.179,2.179,0,0,1-1.147-1.492l-1.755-.423A5.665,5.665,0,0,0,106,25.712l.049,1.226,1.481.82-.047-1.226a1.663,1.663,0,0,0,1.46.058,1.5,1.5,0,0,0,.488-1.407,4.9,4.9,0,0,0-2.044-3.551c-.955-.818-1.8-1.326-1.825-2.111-.018-.488.292-.529.785-.26a2.416,2.416,0,0,1,1.168,1.682l1.869.482a4.956,4.956,0,0,0-.213-.756,5.06,5.06,0,0,0-.616-1.168,6.372,6.372,0,0,0-1.519-1.513l-.046-1.229-1.46-.847Z" fill="#6449d1"/>
    <path id="Tracé_341" data-name="Tracé 341" d="M105.548,15.892l1.335.92.181,1.156-.047-1.226Z" fill="#fafafa"/>
    <path id="Tracé_342" data-name="Tracé 342" d="M104.133,20.409l.09.137.1.143.094.123c.013.015.026.03.038.047a.727.727,0,0,0,.073.091c.046.058.1.111.146.166-1.168-1.413-1.139-3.262-.678-3.732a1.537,1.537,0,0,1,1.589-.245,1.414,1.414,0,0,0-1.507-.064c-.035.021-.061.041-.09.061a1.516,1.516,0,0,0-.456,1.358A3.839,3.839,0,0,0,104.133,20.409Z" fill="#fafafa"/>
    <path id="Tracé_343" data-name="Tracé 343" d="M107.344,24.591c.138-.029.412-.26.205-.756s-.511-.686-1.168-1.142a6.152,6.152,0,0,1,.812.765,1.36,1.36,0,0,1,.274.482,1.11,1.11,0,0,1,.044.274C107.523,24.4,107.464,24.544,107.344,24.591Z" fill="#fafafa"/>
    <path id="Tracé_344" data-name="Tracé 344" d="M106.013,25.706l.169,1.15,1.361.9-1.481-.821Z" fill="#fafafa"/>
    <path id="Tracé_345" data-name="Tracé 345" d="M103.989,22.693l1.562.248-1.772-.441a5.366,5.366,0,0,0,1.045,2.079A4.485,4.485,0,0,1,103.989,22.693Z" fill="#fafafa"/>
    <path id="Tracé_346" data-name="Tracé 346" d="M104.909,24.681l-.044-.05Z" fill="#fafafa"/>
    <path id="Tracé_347" data-name="Tracé 347" d="M108.358,33.246c-3.741-1.694-7.026-6.538-7.026-6.538a17.894,17.894,0,0,0,6.95,6.76c2.414,1.168,4.561,1.077,6.053-.239C114.323,33.228,112.162,34.957,108.358,33.246Z" fill="#f5f5f5"/>
    <path id="Tracé_348" data-name="Tracé 348" d="M113.888,17.077c-1.991-3.53-4.774-6.5-7.741-7.925-3.083-1.483-5.7-.978-7.268,1.016,0,0,2.646-3.119,7.286-.712S113.888,17.077,113.888,17.077Z" fill="#f5f5f5"/>
    <path id="Tracé_349" data-name="Tracé 349" d="M108.4,38.478c.05-.409-.709-1.495-.94-1.837a11.243,11.243,0,0,1-1.107-2.975c-.292-.806-.686-1.168-.537-1.3a.977.977,0,0,1,1.323.105A14.811,14.811,0,0,1,108.4,34.3C109.041,35.091,108.4,38.478,108.4,38.478Z" fill="#ffa8a7"/>
  </g>
</svg>
