<svg xmlns="http://www.w3.org/2000/svg" width="372.502" height="346.701" viewBox="0 0 372.502 346.701">
  <g id="Groupe_1" data-name="Groupe 1" transform="translate(-0.209 -0.039)">
    <path id="Tracé_1" data-name="Tracé 1" d="M249.981,6.766s-61.036-21.7-120.945,12.855S38.877,122.767,12.916,177.711s-11.04,110.843,34.7,136.324,76.831-12.082,140.99-13.912,81.437,7.343,134.714-28.9,62.858-121.852,20.866-185.188-94.2-79.266-94.2-79.266Z" fill="#6449d1"/>
    <path id="Tracé_2" data-name="Tracé 2" d="M249.981,6.766s-61.036-21.7-120.945,12.855S38.877,122.767,12.916,177.711s-11.04,110.843,34.7,136.324,76.831-12.082,140.99-13.912,81.437,7.343,134.714-28.9,62.858-121.852,20.866-185.188-94.2-79.266-94.2-79.266Z" fill="#fff" opacity="0.7"/>
    <path id="Tracé_3" data-name="Tracé 3" d="M223.469,38.643H29.761V185.266H223.469Z" fill="none" stroke="#263238" stroke-linecap="round" stroke-linejoin="round" stroke-width="1"/>
    <path id="Tracé_4" data-name="Tracé 4" d="M218.942,42.531H34.279V181.386H218.942Z" fill="none" stroke="#263238" stroke-linecap="round" stroke-linejoin="round" stroke-width="1"/>
    <path id="Tracé_5" data-name="Tracé 5" d="M90.569,62.91S60.4,60.725,57.859,65.457s-.734,91.245.725,92.333,42.165,1.814,46.163.363S103.3,68.722,103.3,66.174s-9.463-3.635-9.463-3.635" fill="none" stroke="#263238" stroke-linecap="round" stroke-linejoin="round" stroke-width="2"/>
    <path id="Tracé_6" data-name="Tracé 6" d="M62.945,75.267h35.62M60.973,134.518c.063,11.4.308,19.763.883,19.992,1.814.725,40.344,4,41.433.362s-2.91-85.788-2.91-85.788Zm37.955-65.8s-36.709-1.451-37.064.362c-.236,1.16-.907,35.221-.9,59.984Z" fill="none" stroke="#263238" stroke-linecap="round" stroke-linejoin="round" stroke-width="2"/>
    <path id="Tracé_7" data-name="Tracé 7" d="M95.292,73.619c-2.176,2.3,0,0,1.46-3.289s-1.46.655-4.732,3.289-1.451.662-.363-2.957-1.088,0-4,2.3-1.451,1.317-.363-2.634,0,0-4.36,2.634-2.185,2.627,0-1.317-1.452,0-5.45,1.317,0,0,1.451-3.62-2.547.986-5.449,2.958,0,0,.725-2.3-1.821.663-4.731,3.62,0,0,.363-2.634-3.273,4.282-3.273,4.282,1.088-6.585.363-4.937a14.2,14.2,0,0,1-1.822,2.958Zm-12.72,7.823H64.758V99.983H82.572V81.443Z" fill="none" stroke="#6449d1" stroke-linecap="round" stroke-linejoin="round" stroke-width="2"/>
    <path id="Tracé_8" data-name="Tracé 8" d="M68.394,81.442l-2.9,3.273,6.174-2.176-6.174,5.812L75.664,81.8,65.492,92.712,79.3,82.539,64.758,95.985l17.452-12L64.758,99.983,82.21,88.351,69.853,99.258l12.72-6.909-8,6.546,7.634-2.547-1.46,2.547Zm29.532,56.711H84.307v14.18h13.62v-14.18Z" fill="none" stroke="#6449d1" stroke-linecap="round" stroke-linejoin="round" stroke-width="2"/>
    <path id="Tracé_9" data-name="Tracé 9" d="M87.083,138.153l-2.224,2.5,4.724-1.664-4.724,4.448,7.784-5.008-7.784,8.344,10.56-7.784L84.307,149.273,97.642,140.1,84.307,152.333l13.335-8.9-9.447,8.336,9.731-5.284-6.12,5.008,5.836-1.948L96.53,151.5" fill="none" stroke="#6449d1" stroke-linecap="round" stroke-linejoin="round" stroke-width="2"/>
    <path id="Tracé_10" data-name="Tracé 10" d="M86.208,95.622H97.477m-33.082,11.27h0Zm-.362,3.273,34.532.362ZM86.208,82.539h0Zm0,4.361h0Zm0,4.361h0Z" fill="none" stroke="#263238" stroke-linecap="round" stroke-linejoin="round" stroke-width="2"/>
    <path id="Tracé_11" data-name="Tracé 11" d="M98.565,112.341H64.758V128.7H98.565V112.341Z" fill="none" stroke="#6449d1" stroke-linecap="round" stroke-linejoin="round" stroke-width="2"/>
    <path id="Tracé_12" data-name="Tracé 12" d="M64.4,115.614l4.723-2.91-5.449,8.359,9.085-8.359-8,12,14.18-12.366L66.58,126.884,81.847,112.7l-11.632,14.18,16.718-14.543L73.488,128.335,90.206,112.7l-12.72,14.9,17.08-15.268L81.484,128.335l17.081-15.994L86.208,127.972,97.84,117.8l-7.634,9.448,7.633-5.086-1.5,2.429-1.411,2.3" fill="none" stroke="#6449d1" stroke-linecap="round" stroke-linejoin="round" stroke-width="2"/>
    <path id="Tracé_13" data-name="Tracé 13" d="M91.294,154.872s-2.176,11.27,12.72,14.2m-37.8-36h0Zm-.725,4h0Zm39.255-66.159L129.7,67.838Zm-4,17.808h0ZM59.31,121.8l-11.27,4Z" fill="none" stroke="#263238" stroke-linecap="round" stroke-linejoin="round" stroke-width="2"/>
    <path id="Tracé_14" data-name="Tracé 14" d="M49.491,122.16l-6.174,5.086,7.633.363m50.888,38.533,3.635,3.273-5.094,1.451Zm21.8-80.7,5.82,3.636-5.087,2.185Zm1.333-18.69,6.174.725-4.361,4Z" fill="none" stroke="#263238" stroke-linecap="round" stroke-linejoin="round" stroke-width="2"/>
    <path id="Tracé_15" data-name="Tracé 15" d="M145.091,85.44H131.275V99.983h13.816V85.441Z" fill="#6449d1"/>
    <path id="Tracé_16" data-name="Tracé 16" d="M134.548,94.534l8,.362m-8-6.182,8,.362Zm0,2.91,8,.363Z" fill="none" stroke="#263238" stroke-linecap="round" stroke-linejoin="round" stroke-width="2"/>
    <path id="Tracé_17" data-name="Tracé 17" d="M123.12,105.034,109.4,106.653l1.7,14.443,13.72-1.62-1.7-14.442Z" fill="#6449d1"/>
    <path id="Tracé_18" data-name="Tracé 18" d="M113.706,115.3l7.988-.576m-8.666-5.2,7.98-.576Zm.339,2.886,7.98-.576Z" fill="none" stroke="#263238" stroke-linecap="round" stroke-linejoin="round" stroke-width="2"/>
    <path id="Tracé_19" data-name="Tracé 19" d="M51.523,129.754,37.8,131.373l1.7,14.443,13.72-1.62-1.7-14.442Z" fill="#6449d1"/>
    <path id="Tracé_20" data-name="Tracé 20" d="M42.1,140.022l7.98-.575m-8.666-5.206,7.989-.575Zm.339,2.9,7.989-.576Z" fill="none" stroke="#263238" stroke-linecap="round" stroke-linejoin="round" stroke-width="2"/>
    <path id="Tracé_21" data-name="Tracé 21" d="M122.913,160.011l-13.738-1.461-1.538,14.461,13.738,1.461Z" fill="#6449d1"/>
    <path id="Tracé_22" data-name="Tracé 22" d="M111.482,167.932l7.909,1.207m-7.294-7,7.909,1.206Zm-.307,2.894,7.909,1.206Z" fill="none" stroke="#263238" stroke-linecap="round" stroke-linejoin="round" stroke-width="2"/>
    <path id="Tracé_23" data-name="Tracé 23" d="M223.461,185.266H29.761v4.953h193.7Zm77.731,35.5V211.52H273.378v9.243a13.184,13.184,0,0,1-2.957,8.312l-1.214,1.507h36.156l-1.214-1.507a13.185,13.185,0,0,1-2.957-8.312Z" fill="#263238" stroke="#263238" stroke-linecap="round" stroke-linejoin="round" stroke-width="1"/>
    <path id="Tracé_24" data-name="Tracé 24" d="M299.615,220.763V211.52H271.8v9.243a13.2,13.2,0,0,1-2.957,8.312l-1.214,1.507h36.156l-1.214-1.507a13.185,13.185,0,0,1-2.957-8.312Z" fill="#fff" stroke="#263238" stroke-linecap="round" stroke-linejoin="round" stroke-width="1"/>
    <path id="Tracé_25" data-name="Tracé 25" d="M299.835,214.131H271.912v2.831h27.923Z" fill="#263238"/>
    <path id="Tracé_26" data-name="Tracé 26" d="M334.912,132.341H236.5a6.688,6.688,0,0,0-6.687,6.688v68.714a6.687,6.687,0,0,0,6.687,6.687h98.416a6.687,6.687,0,0,0,6.687-6.687V139.029a6.687,6.687,0,0,0-6.687-6.688Z" fill="#263238" stroke="#263238" stroke-linecap="round" stroke-linejoin="round" stroke-width="1"/>
    <path id="Tracé_27" data-name="Tracé 27" d="M337.916,132.341H239.5a6.688,6.688,0,0,0-6.688,6.688v68.714a6.688,6.688,0,0,0,6.688,6.687h98.415a6.687,6.687,0,0,0,6.687-6.687V139.029a6.687,6.687,0,0,0-6.687-6.688Z" fill="#263238" stroke="#263238" stroke-linecap="round" stroke-linejoin="round" stroke-width="1"/>
    <path id="Tracé_28" data-name="Tracé 28" d="M229.809,201.67h111.8v6.073a6.688,6.688,0,0,1-6.688,6.687H236.5a6.687,6.687,0,0,1-6.687-6.687V201.67Z" fill="#fff" stroke="#263238" stroke-linecap="round" stroke-linejoin="round" stroke-width="1"/>
    <path id="Tracé_29" data-name="Tracé 29" d="M335.976,137.451H235.432v58H335.976v-58Z" fill="#fff"/>
    <path id="Tracé_30" data-name="Tracé 30" d="M270.421,143.492H250.643a2.4,2.4,0,0,0-2.4,2.4v40.851a2.4,2.4,0,0,0,2.4,2.4h19.778a2.4,2.4,0,0,0,2.4-2.4V145.89a2.4,2.4,0,0,0-2.4-2.4Z" fill="#263238"/>
    <path id="Tracé_31" data-name="Tracé 31" d="M270.76,147.317H250.312V185.3H270.76Z" fill="#6449d1"/>
    <path id="Tracé_32" data-name="Tracé 32" d="M297.714,147.956H279.206v1.916h18.508Z" fill="#263238"/>
    <path id="Tracé_33" data-name="Tracé 33" d="M288.148,152.112h-8.619v8.936h8.619Zm8.288,27.445h-4.613v4.787h4.613Zm.86-12.13H279.742v8.936H297.3Z" fill="#6449d1"/>
    <path id="Tracé_34" data-name="Tracé 34" d="M289.741,152.751h0Zm0,2.232h0Zm0,2.232h0Zm0,2.232h0Zm-9.683,5.11h0Zm0,14.046h0Zm19.257-32.555h-21.7v40.22h21.7Z" fill="none" stroke="#263238" stroke-linecap="round" stroke-linejoin="round" stroke-width="1"/>
    <path id="Tracé_35" data-name="Tracé 35" d="M325.8,146.048H305.379v15H325.8Z" fill="#bfbfbf"/>
    <path id="Tracé_36" data-name="Tracé 36" d="M325.8,146.048H305.379v3.194H325.8Z" fill="#263238"/>
    <path id="Tracé_37" data-name="Tracé 37" d="M312.3,151.56h-5.339v5.166H312.3Zm10.677,0h-5.338v5.166h5.338Z" fill="none" stroke="#263238" stroke-linecap="round" stroke-linejoin="round" stroke-width="1"/>
    <path id="Tracé_38" data-name="Tracé 38" d="M323.84,147.861a.792.792,0,0,1-.943.774.792.792,0,0,1-.348-1.385.8.8,0,0,1,.347-.164.781.781,0,0,1,.384.019.792.792,0,0,1,.56.756Zm-4.479.773a.774.774,0,0,0,.3-.059.784.784,0,0,0,.25-.167.773.773,0,0,0,0-1.094.784.784,0,0,0-.25-.167.773.773,0,1,0-.3,1.487Z" fill="#fff"/>
    <path id="Tracé_39" data-name="Tracé 39" d="M324.171,169.178H308.533v11.491h15.638Z" fill="#bfbfbf"/>
    <path id="Tracé_40" data-name="Tracé 40" d="M324.171,169.178H308.533v2.445h15.638Z" fill="#263238"/>
    <path id="Tracé_41" data-name="Tracé 41" d="M322.673,170.566a.6.6,0,1,1-1.2.016.584.584,0,0,1,.043-.23.606.606,0,0,1,.127-.2.6.6,0,0,1,.652-.138.606.606,0,0,1,.2.127A.6.6,0,0,1,322.673,170.566Zm-2.839,0a.593.593,0,0,1-1.16.172.586.586,0,0,1-.015-.288.6.6,0,0,1,.123-.262.581.581,0,0,1,.232-.172.591.591,0,0,1,.285-.043.6.6,0,0,1,.272.1.593.593,0,0,1,.263.495Z" fill="#fff"/>
    <path id="Tracé_42" data-name="Tracé 42" d="M245.313,140.5h-6.569v51.521h6.569V140.5Z" fill="#bfbfbf"/>
    <path id="Tracé_43" data-name="Tracé 43" d="M245.313,140.5h-6.569v2.366h6.569Z" fill="#263238"/>
    <path id="Tracé_44" data-name="Tracé 44" d="M243.475,144.439h-3.154v3.683h3.154Zm0,6.041h-3.154v3.683h3.154Zm0,6.049h-3.154v3.682h3.154Zm0,6.048h-3.154v3.683h3.154Zm0,6.041h-3.154V172.3h3.154Zm0,6.049h-3.154v3.683h3.154Zm0,6.049h-3.154V184.4h3.154Zm0,6.041h-3.154v3.683h3.154Z" fill="none" stroke="#263238" stroke-linecap="round" stroke-linejoin="round" stroke-width="1"/>
    <path id="Tracé_45" data-name="Tracé 45" d="M333.114,139.967h-83.59v2.106h83.59Zm0,51h-83.59v2.106h83.59Z" fill="#bfbfbf"/>
    <path id="Tracé_46" data-name="Tracé 46" d="M303.794,230.582H267.63v1.648h36.164Z" fill="#263238" stroke="#263238" stroke-linecap="round" stroke-linejoin="round" stroke-width="1"/>
    <path id="Tracé_47" data-name="Tracé 47" d="M327.436,229.233H243.475v3h83.961Zm-159.2,116.978h-3.414l-1.711-104.628h6.837Z" fill="#fff" stroke="#263238" stroke-linecap="round" stroke-linejoin="round" stroke-width="1"/>
    <path id="Tracé_48" data-name="Tracé 48" d="M168.236,346.211H166.73l.205-104.628h3.013l-1.712,104.628Z" fill="#263238" stroke="#263238" stroke-linecap="round" stroke-linejoin="round" stroke-width="1"/>
    <path id="Tracé_49" data-name="Tracé 49" d="M216.916,346.211H213.5L211.79,241.583h6.837l-1.711,104.628Z" fill="#fff" stroke="#263238" stroke-linecap="round" stroke-linejoin="round" stroke-width="1"/>
    <path id="Tracé_50" data-name="Tracé 50" d="M216.916,346.211h-1.507l.205-104.628h3.013Zm-17.428,0h-3.422l-1.7-104.628h6.829Z" fill="#263238" stroke="#263238" stroke-linecap="round" stroke-linejoin="round" stroke-width="1"/>
    <path id="Tracé_51" data-name="Tracé 51" d="M199.488,346.211h-1.506l.2-104.628h3.012Zm32.892,0h-3.423l-1.7-104.628h6.829Z" fill="#263238" stroke="#263238" stroke-linecap="round" stroke-linejoin="round" stroke-width="1"/>
    <path id="Tracé_52" data-name="Tracé 52" d="M232.38,346.211h-1.514l.205-104.628h3.012Z" fill="#263238" stroke="#263238" stroke-linecap="round" stroke-linejoin="round" stroke-width="1"/>
    <path id="Tracé_53" data-name="Tracé 53" d="M234.943,243.184H181.335v65.457h53.608V243.184Z" fill="#263238" stroke="#263238" stroke-linecap="round" stroke-linejoin="round" stroke-width="1"/>
    <path id="Tracé_54" data-name="Tracé 54" d="M220.141,243.184H166.533v65.457h53.608V243.184ZM328.414,346.211H325l-1.711-104.628h6.837l-1.711,104.628Z" fill="#fff" stroke="#263238" stroke-linecap="round" stroke-linejoin="round" stroke-width="1"/>
    <path id="Tracé_55" data-name="Tracé 55" d="M328.413,346.211h-1.506l.2-104.628h3.013Zm31.252,0h-3.422l-1.7-104.628h6.829Z" fill="#263238" stroke="#263238" stroke-linecap="round" stroke-linejoin="round" stroke-width="1"/>
    <path id="Tracé_56" data-name="Tracé 56" d="M359.665,346.211h-1.506l.2-104.628h3.012l-1.7,104.628Z" fill="#263238" stroke="#263238" stroke-linecap="round" stroke-linejoin="round" stroke-width="1"/>
    <path id="Tracé_57" data-name="Tracé 57" d="M363.529,237.64H158.608v7.2H363.529Z" fill="#fff" stroke="#263238" stroke-linecap="round" stroke-linejoin="round" stroke-width="1"/>
    <path id="Tracé_58" data-name="Tracé 58" d="M363.529,237.64H158.608v3.6H363.529Z" fill="#263238" stroke="#263238" stroke-linecap="round" stroke-linejoin="round" stroke-width="1"/>
    <path id="Tracé_59" data-name="Tracé 59" d="M363.529,237.64h-30.25v7.2h30.25Z" fill="#263238" stroke="#263238" stroke-linecap="round" stroke-linejoin="round" stroke-width="1"/>
    <path id="Tracé_60" data-name="Tracé 60" d="M370.153,231.859H153.048v7.2H370.153Z" fill="#fff" stroke="#263238" stroke-linecap="round" stroke-linejoin="round" stroke-width="1"/>
    <path id="Tracé_61" data-name="Tracé 61" d="M370.153,231.859H339.9v7.2h30.25Z" fill="#263238" stroke="#263238" stroke-linecap="round" stroke-linejoin="round" stroke-width="1"/>
    <path id="Tracé_62" data-name="Tracé 62" d="M216.86,249.469H169.94V272.34h46.92V249.469Z" fill="#fff" stroke="#263238" stroke-linecap="round" stroke-linejoin="round" stroke-width="1"/>
    <path id="Tracé_63" data-name="Tracé 63" d="M198.526,258.539H188.274v3.548h10.252Z" fill="#263238" stroke="#263238" stroke-linecap="round" stroke-linejoin="round" stroke-width="1"/>
    <path id="Tracé_64" data-name="Tracé 64" d="M216.86,278.255H169.94v22.87h46.92Z" fill="#fff" stroke="#263238" stroke-linecap="round" stroke-linejoin="round" stroke-width="1"/>
    <path id="Tracé_65" data-name="Tracé 65" d="M198.526,287.324H188.274v3.549h10.252Z" fill="#263238" stroke="#263238" stroke-linecap="round" stroke-linejoin="round" stroke-width="1"/>
    <path id="Tracé_66" data-name="Tracé 66" d="M289.087,285.068h14.021v-28.2H289.087Z" fill="#263238"/>
    <path id="Tracé_67" data-name="Tracé 67" d="M292.6,314.106h7.01V275.053H292.6Z" fill="#263238"/>
    <path id="Tracé_68" data-name="Tracé 68" d="M298.952,311.1s5.89,6.688,21.031,9.014c8,1.23,16.324,2.76,23.547,6.585,4.645,2.461,13.895,7.847,13.895,14a5.52,5.52,0,1,1-9.526-3.754,26.082,26.082,0,0,0-16.331-11.081c-11.514-2.508-19.92-1.482-36.118-12.255Z" fill="#263238"/>
    <path id="Tracé_69" data-name="Tracé 69" d="M293.944,311.1s-5.89,6.688-21.031,9.014c-8,1.23-16.324,2.76-23.547,6.585-4.653,2.461-13.9,7.847-13.9,14a5.52,5.52,0,1,0,9.518-3.754,26.1,26.1,0,0,1,16.332-11.081c11.521-2.508,19.927-1.482,36.125-12.255Zm-.236,35.11H299a.516.516,0,0,0,.368-.152.507.507,0,0,0,.113-.169.524.524,0,0,0,.04-.2v-9.306a.523.523,0,0,0-.039-.2.544.544,0,0,0-.113-.17.55.55,0,0,0-.169-.113.532.532,0,0,0-.2-.039h-5.291a.532.532,0,0,0-.2.039.55.55,0,0,0-.169.113.521.521,0,0,0-.152.369v9.306A.52.52,0,0,0,293.708,346.211Z" fill="#263238"/>
    <path id="Tracé_70" data-name="Tracé 70" d="M294.851,346.211h3V312.04h-3Zm35.2-170.771a191.721,191.721,0,0,0-3.155,28.28c-.228,7.319-.347,13.589-.457,19.117-.331,17.184-.521,26.711-3.225,29.274-.347.237-2.587,1.617-7.271,2.011-1.309.111-5.473.166-11.135.2-17.956-.055-36.827-.205-37.126-.205h-1.1c-.047,0-.086.087-.126.126-10.788-.063-13.563-.126-13.761-.126h-1.1c-2.263,1.964-.914,4.488,1.057,4.5,1.475,0,27.175.229,44.752.229h20.5c9.2,0,16.829-.063,18.926-.236,6.506-.537,9.424-2.737,9.731-2.989,4.338-3.849,4.5-12.295,4.9-32.689.1-5.521.229-11.783.45-19.07a187.554,187.554,0,0,1,3.233-28.391l-25.108-.031Z" fill="#263238"/>
    <path id="Tracé_71" data-name="Tracé 71" d="M190.64,322.686l1.774,9.267s-1.577,3.352-7.688,6.112-9.069,3.943-9.069,4.732-.394,2.563,1.183,3.154,35.092,0,35.092,0,1.774-.788,1.774-4.535-1.577-10.646-1.577-12.223-1.112-5.379-1.112-5.915-13.477.2-13.477.2-3.943-3.746-6.9-.789Z" fill="#fff" stroke="#263238" stroke-linecap="round" stroke-linejoin="round" stroke-width="1"/>
    <path id="Tracé_72" data-name="Tracé 72" d="M197.54,323.475s.986,8.872,1.577,9.464,13.012.591,13.012.591" fill="#fff"/>
    <path id="Tracé_73" data-name="Tracé 73" d="M175.657,344.374h37.655m-15.772-20.9s.986,8.872,1.577,9.464,13.012.591,13.012.591Zm14.589,5.718-13.8.2Z" fill="none" stroke="#263238" stroke-linecap="round" stroke-linejoin="round" stroke-width="1"/>
    <path id="Tracé_74" data-name="Tracé 74" d="M215.283,211.552s-10.929,36.8-12.27,41.868,6.4,49.6,6.4,50.394,1.065,3.2,1.065,5.868-1.065,3.462-.529,4.266,2.366,2.666,2.13,4.267a4.676,4.676,0,0,1-1.578,3.2,5.115,5.115,0,0,1-2.129,1.332h-6.4s-1.577-12-5.867-43.729,2.673-49.866,4.006-55.733a50.555,50.555,0,0,1,4-10.931l11.174-.8Z" fill="#263238" stroke="#263238" stroke-linecap="round" stroke-linejoin="round" stroke-width="1"/>
    <path id="Tracé_75" data-name="Tracé 75" d="M181.571,322.686l1.775,9.267s-1.578,3.352-7.689,6.112-9.069,3.943-9.069,4.732-.394,2.563,1.183,3.154,35.092,0,35.092,0,1.774-.788,1.774-4.535-1.577-10.646-1.577-12.223-1.112-5.379-1.112-5.915-13.477.2-13.477.2S184.529,319.729,181.571,322.686Z" fill="#fff" stroke="#263238" stroke-linecap="round" stroke-linejoin="round" stroke-width="1"/>
    <path id="Tracé_76" data-name="Tracé 76" d="M188.472,323.475s.985,8.872,1.577,9.464,13.011.591,13.011.591" fill="#fff"/>
    <path id="Tracé_77" data-name="Tracé 77" d="M166.588,344.374h37.655m-15.771-20.9s.985,8.872,1.577,9.464,13.011.591,13.011.591Zm14.588,5.718-13.8.2Z" fill="none" stroke="#263238" stroke-linecap="round" stroke-linejoin="round" stroke-width="1"/>
    <path id="Tracé_78" data-name="Tracé 78" d="M171.288,211.552s-.268,23.2,1.065,33.067,6.4,32.8,7.2,45.331,2.137,18.407,2.137,18.407-1.893,1.577-1.893,3.154,1.065,1.578.789,4.007-1.333,3.194-.529,4.266,1.333,3.194,4,3.73,15.2.269,17.861-.268,4-3.2,4-5.331-.788-3.73-.788-6.135,1.332-4.527,1.332-6.128-.536-2.4-.536-4.006-3.462-27.193-3.462-32.524-.268-23.47.528-28,4.8-26.128,4.8-26.128l-36.5-3.438Z" fill="#ff0c39" stroke="#263238" stroke-linecap="round" stroke-linejoin="round" stroke-width="1"/>
    <path id="Tracé_79" data-name="Tracé 79" d="M188.188,219.375a36.448,36.448,0,0,0,9.81,1.916,58.959,58.959,0,0,1,7.665.718l1.435-6.7-18.91,4.069Z" fill="#263238" stroke="#263238" stroke-linecap="round" stroke-linejoin="round" stroke-width="1"/>
    <path id="Tracé_80" data-name="Tracé 80" d="M185.262,220.526s1.309,36.64,3.943,48.856,6.1,32.279,5.236,34.9S192.257,313,192.257,313s4.8-.868,4.8,1.743-6.979,4.369-5.236,5.678q1.767,1.336,3.478,2.744" fill="none" stroke="#263238" stroke-linecap="round" stroke-linejoin="round" stroke-width="1"/>
    <path id="Tracé_81" data-name="Tracé 81" d="M200.758,314.169s-14.479,2.366-10.37,3.155,11.939-.2,12.333-1.175-.788-2.177-1.963-1.98Z" fill="#263238" stroke="#263238" stroke-linecap="round" stroke-linejoin="round" stroke-width="1"/>
    <path id="Tracé_82" data-name="Tracé 82" d="M136.851,60.843l-.4,16.373,15.44-.134.134-16.372-15.172.133Z" fill="#ff0c39"/>
    <path id="Tracé_83" data-name="Tracé 83" d="M154.42,91.056a29.072,29.072,0,0,1-4.794-6.388c-1.467-3.06-3.588-4.921-3.588-7.05s.93-7.1.528-9.054,0-6.12,1.333-6.12a2.048,2.048,0,0,1,1.995,2.524c-.268,1.333.789,5.994.789,5.994s1.064-8.92,1.2-9.464,2-.536,2.8-.134,1.727.26,1.727,2-.4,3.723-.4,4.125,3.73,2.531,3.864,4.124-.269,5.458-1.2,7.1a16.538,16.538,0,0,0-1.577,3.155c-.134.528,3.6,6.12,3.6,6.12l-6.27,3.075Z" fill="#fff" stroke="#263238" stroke-linecap="round" stroke-linejoin="round" stroke-width="1"/>
    <path id="Tracé_84" data-name="Tracé 84" d="M160.627,85.433l-9.069,6.932s15.464,31.995,16,33.028,11.726,8,11.726,8l16.8-20.8s-21.063-6.664-21.591-7.461-13.863-19.7-13.863-19.7Z" fill="#263238" stroke="#263238" stroke-linecap="round" stroke-linejoin="round" stroke-width="1"/>
    <path id="Tracé_85" data-name="Tracé 85" d="M171.32,203.011l-.789,12.421a59.236,59.236,0,0,0,21.292,4.14c11.04-.2,25.826-4.534,25.826-4.534l2.169-12.224s-26.615,2.168-34.7,1.38q-6.893-.68-13.8-1.183Z" fill="#fff" stroke="#263238" stroke-linecap="round" stroke-linejoin="round" stroke-width="1"/>
    <path id="Tracé_86" data-name="Tracé 86" d="M163.434,199.068l-.591,3.548s8.351,4.559,26.811,6.31a86.689,86.689,0,0,0,33.712-3.549l.2-6.112a130.245,130.245,0,0,1-29.966,3.549,155.892,155.892,0,0,1-30.163-3.746Z" fill="#263238" stroke="#263238" stroke-linecap="round" stroke-linejoin="round" stroke-width="1"/>
    <path id="Tracé_87" data-name="Tracé 87" d="M178.417,125.724s-6.506,11.436-8.674,20.308-6.506,49.881-7.1,52.247,13.209,7.1,22.278,7.295,29.375.591,32.923-.789,6.9-3.351,6.9-5.52.2-10.252.2-16.759-1.971-40.812-3.745-48.7-2.958-13.407-3.549-14.393-4.929-5.717-13.8-5.126a47.6,47.6,0,0,0-19.715,5.915,20.417,20.417,0,0,0-5.717,5.52Z" fill="#263238" stroke="#263238" stroke-linecap="round" stroke-linejoin="round" stroke-width="1"/>
    <path id="Tracé_88" data-name="Tracé 88" d="M118.958,138.469s-3.2,1.332-3.47,4.534,5.607,6.4,9.069,11.2,8,9.834,8,9.834l6.94,9.6,8.264-6.932-21.331-24.748s1.064-2.365-.268-3.2a9.343,9.343,0,0,0-7.2-.284Z" fill="#fff" stroke="#263238" stroke-linecap="round" stroke-linejoin="round" stroke-width="1"/>
    <path id="Tracé_89" data-name="Tracé 89" d="M119.494,145.937l24.028-8s1.577,6.671,8.793,13.6A118.463,118.463,0,0,0,166.186,163l-21.6,12.264-25.093-29.33Z" fill="#fff" stroke="#263238" stroke-linecap="round" stroke-linejoin="round" stroke-width="1"/>
    <path id="Tracé_90" data-name="Tracé 90" d="M119.494,145.937a7.466,7.466,0,0,0,1.861-4.266,2.972,2.972,0,0,0-2.365-3.2l23.728-6.932s4.534,1.577.789,6.4l-24.013,8Zm31.8,25.355s-5.331-.789-5.6-2.366-1.333-5.063-2.366-6.4-6.135-4-7.736-5.867-2.665-4.535-3.73-4.267-2.665,1.333-2.137,2.366,2.934,5.607,2.934,5.607l.536,1.861s-4.8-.788-5.6-1.064a1.483,1.483,0,0,0-.713-.024,1.468,1.468,0,0,0-.641.315,1.475,1.475,0,0,0-.515,1.286c0,1.333-1.065,1.333.268,2.129q1.487.9,2.934,1.869s1.869,4.267,2.365,5.064,4.8,2.673,5.6,3.2a42.329,42.329,0,0,0,7.2,2.366c2.129.5,6.932,2.406,6.932,2.406l1.332-6.136-1.064-2.35Z" fill="#fff" stroke="#263238" stroke-linecap="round" stroke-linejoin="round" stroke-width="1"/>
    <path id="Tracé_91" data-name="Tracé 91" d="M207.816,134.494s-.537,22.666-.537,23.73.789,22.934-1.577,24.795-14.131,4.266-31.2,3.738-24.533-4.266-24.533-4.266l1.333-11.2,32.529-2.366s-3.462-24.795-2.934-33.328,7.468-13.067,7.468-13.067" fill="#263238"/>
    <path id="Tracé_92" data-name="Tracé 92" d="M207.816,134.494s-.537,22.666-.537,23.73.789,22.934-1.577,24.795-14.131,4.266-31.2,3.738-24.533-4.266-24.533-4.266l1.333-11.2,32.529-2.366s-3.462-24.795-2.934-33.328,7.468-13.067,7.468-13.067" fill="none" stroke="#263238" stroke-linecap="round" stroke-linejoin="round" stroke-width="1"/>
    <path id="Tracé_93" data-name="Tracé 93" d="M186.106,127.128s-6.806,7.366-5.67,17,3.407,24.763,3.407,24.763l-12.468.733m.536,18.131s32.285,1.127,33.988-2.839,1.7-43.052,1.7-43.052Z" fill="none" stroke="#707070" stroke-linecap="round" stroke-linejoin="round" stroke-width="1"/>
    <path id="Tracé_94" data-name="Tracé 94" d="M172.329,65.551s-4.471,7.737-3.611,8.762.173,2.926.173,2.926-4.471,3.438-4.124,4.637,3.943,4.472,3.943,4.472.686,9.282,1.577,10.142,6.7,1.885,7.886,2.058a6.767,6.767,0,0,1,1.892.52l3.431,18.557,19.249-17.35-3.091-8.249s-1.719-11.041-1.577-16.151-8.77-11.349-14.092-12.9-11.656,2.571-11.656,2.571Z" fill="#fff" stroke="#263238" stroke-linecap="round" stroke-linejoin="round" stroke-width="1"/>
    <path id="Tracé_95" data-name="Tracé 95" d="M175.933,55.063s-4.463-4.638-9.794-1.026-3.777,9.464,1.033,11.515,10.48.512,8.6,2.578-2.365,6.53.513,7.39,2.4,4.124,2.4,5.52,2.366,1.207,2.926,0,1.885-4.463,5.149-3.091,3.1,8.935,1.893,10.828-2.4,1.72-2.4,1.72,1.892.685.686,2.917l-1.2,2.24s2.744,3.265,9.621,2.058,8.422-4.3,7.389-6.869-3.438-2.926-.86-6.7,8.943-8.257,8.422-16.846c-.339-5.67-13.745-11.04-13.745-11.04s3.092-5.158-3.943-8.423-15.117.52-14.6,3.943-2.082,3.289-2.082,3.289Z" fill="#263238" stroke="#263238" stroke-linecap="round" stroke-linejoin="round" stroke-width="1"/>
    <path id="Tracé_96" data-name="Tracé 96" d="M168.67,73.7s-2.184-.583-2.366.45,0,6.183,0,6.183a3.763,3.763,0,0,0,2.579.52c1.207-.347.513-4.645.513-4.645" fill="none" stroke="#263238" stroke-linecap="round" stroke-linejoin="round" stroke-width="1"/>
    <path id="Tracé_97" data-name="Tracé 97" d="M182.3,79.47,166.47,76.853l.016-.994L182.3,79.471Z" fill="#263238" stroke="#263238" stroke-linecap="round" stroke-linejoin="round" stroke-width="1"/>
    <path id="Tracé_98" data-name="Tracé 98" d="M204.985,94.944A117.333,117.333,0,0,0,190.2,107.83c-6.017,6.53-13.233,13.754-13.556,15.986s.339,5.67,3.777,2.058,9.794-8.415,14.613-8.762,12.2,2.067,15.976,2.579,6.191,1.578,7.563-.512-2.232-6.7-2.232-9.117.513-6.53-1.206-9.464-7.232-6.514-10.149-5.654Z" fill="#757575" stroke="#263238" stroke-linecap="round" stroke-linejoin="round" stroke-width="1"/>
    <path id="Tracé_99" data-name="Tracé 99" d="M216.214,103.453a24.278,24.278,0,0,1-1.987,4.811c-1,1.491-15.094,4.314-15.094,4.314s11.608-.663,13.761-.663,4.645,1.988,4.645,1.988l-1.159-3.155s.481-5.8-.166-7.295Z" fill="#263238" stroke="#263238" stroke-linecap="round" stroke-linejoin="round" stroke-width="1"/>
    <path id="Tracé_100" data-name="Tracé 100" d="M11.829,346.211H372.212" fill="none" stroke="#263238" stroke-linecap="round" stroke-linejoin="round" stroke-width="1"/>
  </g>
</svg>
