<svg xmlns="http://www.w3.org/2000/svg" width="425.782" height="296.554" viewBox="0 0 425.782 296.554">
  <g id="Groupe_14" data-name="Groupe 14" transform="translate(-0.839 -0.291)">
    <path id="Tracé_236" data-name="Tracé 236" d="M401.24,290.855c2.92-10.68,12.43-46.53,18.89-82.84,7.7-43.35,14.44-103.06-16.38-128.11s-71.28,4.82-92.47-4.81-22.15-57.8-79-72.24-88.62,35.63-113.66,62.6-53,8.67-89.58,37.57c-36.2,28.58-5.5,158,21.27,187.83Z" fill="#6449d1"/>
    <path id="Tracé_237" data-name="Tracé 237" d="M401.24,290.855c2.92-10.68,12.43-46.53,18.89-82.84,7.7-43.35,14.44-103.06-16.38-128.11s-71.28,4.82-92.47-4.81-22.15-57.8-79-72.24-88.62,35.63-113.66,62.6-53,8.67-89.58,37.57c-36.2,28.58-5.5,158,21.27,187.83Z" fill="#fff" opacity="0.7"/>
    <path id="Tracé_238" data-name="Tracé 238" d="M411.21,87.995h-78.5a1.448,1.448,0,0,0-1.44,1.44v202a1.449,1.449,0,0,0,1.44,1.45h78.5a1.449,1.449,0,0,0,1.45-1.45v-202a1.45,1.45,0,0,0-1.45-1.44Zm-1.44,202H334.16V90.885h75.61Z" fill="#fff"/>
    <path id="Tracé_239" data-name="Tracé 239" d="M339.64,132.445h64.65a1.441,1.441,0,0,0,1.44-1.45V96.865a1.43,1.43,0,0,0-1.44-1.44H339.64a1.441,1.441,0,0,0-1.45,1.44v34.13a1.451,1.451,0,0,0,1.45,1.45Zm1.44-34.16h61.76v31.24H341.08V98.285Zm-1.44,82.64h64.65a1.433,1.433,0,0,0,.552-.108,1.45,1.45,0,0,0,.469-.311,1.428,1.428,0,0,0,.419-1.021v-34.13a1.442,1.442,0,0,0-1.44-1.45H339.64a1.451,1.451,0,0,0-1.45,1.45v34.13a1.441,1.441,0,0,0,1.45,1.44Zm1.44-34.13h61.76v31.25H341.08Zm-1.44,82.62h64.65a1.441,1.441,0,0,0,1.44-1.44v-34.14a1.441,1.441,0,0,0-1.44-1.44H339.64a1.449,1.449,0,0,0-1.45,1.44v34.14a1.449,1.449,0,0,0,1.45,1.44Zm1.44-34.13h61.76v31.24H341.08Zm-1.44,82.62h64.65a1.441,1.441,0,0,0,1.44-1.45v-34.17a1.433,1.433,0,0,0-.887-1.333,1.415,1.415,0,0,0-.553-.107H339.64a1.442,1.442,0,0,0-.554.107,1.427,1.427,0,0,0-.471.311,1.449,1.449,0,0,0-.425,1.022v34.13a1.45,1.45,0,0,0,1.45,1.49Zm1.44-34.13h61.76v31.24H341.08Zm-28.2-227.49H101.44a1.441,1.441,0,0,0-1.44,1.4V123a1.441,1.441,0,0,0,1.45,1.44H312.88a1.431,1.431,0,0,0,1.44-1.44V17.685a1.43,1.43,0,0,0-1.44-1.4Zm-1.45,2.89v97.72H102.88V19.135l208.55.04Z" fill="#fff"/>
    <path id="Tracé_240" data-name="Tracé 240" d="M360.43,224.565l-4.55,68.72a1.391,1.391,0,0,1-1.38,1.29,1.371,1.371,0,0,1-1.37-1.42l1.87-68.59Zm11.64,0,4.55,68.72a1.377,1.377,0,0,0,2.75-.13l-1.89-68.55-5.41-.04Zm-45.62,0,4.55,68.72a1.377,1.377,0,0,0,2.75-.13l-1.9-68.55-5.4-.04Zm-18.59,0-4.55,68.72a1.392,1.392,0,0,1-1.38,1.29,1.387,1.387,0,0,1-1.284-.881,1.4,1.4,0,0,1-.1-.539l1.9-68.55,5.41-.04Z" fill="#263238" stroke="#263238" stroke-linecap="round" stroke-linejoin="round" stroke-width="1"/>
    <path id="Tracé_241" data-name="Tracé 241" d="M387.13,155.285s-45.4-1.7-49.24-1.7-4.73,1.7-4.73,1.7l-6.48,45.69s-20.15-5.75-24.1-5,1.95,29.42,1.95,29.42h22.8l.41-1.72h51.48l13.67-65.12c-.83-2.98-5.76-3.27-5.76-3.27Z" fill="#fff" stroke="#263238" stroke-linecap="round" stroke-linejoin="round" stroke-width="1"/>
    <path id="Tracé_242" data-name="Tracé 242" d="M369.85,183.865s4.62,30-.68,33.5c-.82.54-5.27,3.1-9.43,2.68-3.34-.34-26.94,0-26.94,0s-3.28-6.24-3.94-10.84,4.5-24.34,4.5-24.34Z" fill="#fff" stroke="#263238" stroke-linecap="round" stroke-linejoin="round" stroke-width="1"/>
    <path id="Tracé_243" data-name="Tracé 243" d="M331.2,199.935s-34.16,3.55-35.77,4.51-9,7.41-7.73,11.6-1.93,4.51,1,5.16,44.46.64,44.46.64" fill="#ff0c39"/>
    <path id="Tracé_244" data-name="Tracé 244" d="M331.2,199.935s-34.16,3.55-35.77,4.51-9,7.41-7.73,11.6-1.93,4.51,1,5.16,44.46.64,44.46.64" fill="none" stroke="#263238" stroke-linecap="round" stroke-linejoin="round" stroke-width="1"/>
    <path id="Tracé_245" data-name="Tracé 245" d="M300.13,225.345H381.3v-6.06H300.13Z" fill="#fff" stroke="#263238" stroke-linecap="round" stroke-linejoin="round" stroke-width="1"/>
    <path id="Tracé_246" data-name="Tracé 246" d="M362.13,201.225h-48.9s-2.57,2.9-2.9,9,.33,7.41,4.84,9,44.57.78,44.57.78" fill="#ff0c39"/>
    <path id="Tracé_247" data-name="Tracé 247" d="M362.13,201.225h-48.9s-2.57,2.9-2.9,9,.33,7.41,4.84,9,44.57.78,44.57.78" fill="none" stroke="#263238" stroke-linecap="round" stroke-linejoin="round" stroke-width="1"/>
    <path id="Tracé_248" data-name="Tracé 248" d="M323.6,278.825l-5.12-12.13-8.39,1.59,6.42,10.82-3.7,7.41-8,5.23s-.93.92,3.07.61,12.3,0,12.3,0l5.23-6.15s1.9-3.13-1.81-7.38Z" fill="#fff" stroke="#263238" stroke-linecap="round" stroke-linejoin="round" stroke-width="1"/>
    <path id="Tracé_249" data-name="Tracé 249" d="M325.84,284.125l.21,7.93H324.8l-1.67-3.96,2.71-3.97Z" fill="#263238" stroke="#263238" stroke-linecap="round" stroke-linejoin="round" stroke-width="1"/>
    <path id="Tracé_250" data-name="Tracé 250" d="M320.19,292.395l5.23-6.15s1.35-2.29-.51-5.59c-3.72,6.36-8.67,8.27-8.67,8.27l-5.16-1.24-6.26,4.1s-.93.92,3.07.61,12.3,0,12.3,0Z" fill="#263238" stroke="#263238" stroke-linecap="round" stroke-linejoin="round" stroke-width="1"/>
    <path id="Tracé_251" data-name="Tracé 251" d="M303.49,217.015l17.15,51.85-12.17,2.16-24-54s-1.93-8.06,3.22-10.63,20.3-3.87,20.3-3.87" fill="#ff0c39"/>
    <path id="Tracé_252" data-name="Tracé 252" d="M303.49,217.015l17.15,51.85-12.17,2.16-24-54s-1.93-8.06,3.22-10.63,20.3-3.87,20.3-3.87" fill="none" stroke="#263238" stroke-linecap="round" stroke-linejoin="round" stroke-width="1"/>
    <path id="Tracé_253" data-name="Tracé 253" d="M358.5,225.335s-5.91-28.71-1.95-29.42,24.1,5,24.1,5l6.48-45.63s6.84-1.08,7.56,5-13.39,65.05-13.39,65.05Z" fill="#263238" stroke="#263238" stroke-linecap="round" stroke-linejoin="round" stroke-width="1"/>
    <path id="Tracé_254" data-name="Tracé 254" d="M288.91,140.8l-3.05-5a3.231,3.231,0,0,0-2.81-1.54l-2.87.05-4.91-1.47a1.641,1.641,0,0,0-1.74.55l-.18.23,4.52,2-4.51,1.66-4.79-2.43a.907.907,0,0,0-1.311.923.881.881,0,0,0,.111.333.9.9,0,0,0,.23.264l6.7,5.17a1.868,1.868,0,0,0,1.5.36l7.41-1.49,2.07,2.26,3.63-1.87Z" fill="#fff" stroke="#263238" stroke-linecap="round" stroke-linejoin="round" stroke-width="1"/>
    <path id="Tracé_255" data-name="Tracé 255" d="M340.57,130.545l-27.47,28.73-26.22-21.19-3.62,2.63,28.85,32.69,25.01-13.47,3.45-29.39Zm41.1,7.34,14.4,44.25-12.42.36-12.35-20.77s6.94-20.95,10.37-23.84Z" fill="#fff" stroke="#263238" stroke-linecap="round" stroke-linejoin="round" stroke-width="1"/>
    <path id="Tracé_256" data-name="Tracé 256" d="M366,130.285l15.67,7.65-13.12,36.69,1.55,10.23-36.74.06,4.38-16.48-3-10.56a8.086,8.086,0,0,1-.06-4.2l5.88-23.08,15.44-2.48,10,2.17Z" fill="#fff" stroke="#263238" stroke-linecap="round" stroke-linejoin="round" stroke-width="1"/>
    <path id="Tracé_257" data-name="Tracé 257" d="M365.25,128.135s3.08,2.08,3.18,3.93c.05,1.09,0,3-.1,4.46a9.473,9.473,0,0,1-.77,3.31l-5.55,6.7-6.42-5.07-5.33,2.72s-1-8.17,1.33-13.87S364.06,126.705,365.25,128.135Z" fill="#fff" stroke="#263238" stroke-linecap="round" stroke-linejoin="round" stroke-width="1"/>
    <path id="Tracé_258" data-name="Tracé 258" d="M369.66,112.285s-1.26,4.53-1.85,7.53-1.78,9-1.67,11.25-9.36,11.83-10.55,10.4-2.44-9.74-2.44-9.74l1.18-13.44s12.34-13.67,15.33-6Z" fill="#fff" stroke="#263238" stroke-linecap="round" stroke-linejoin="round" stroke-width="1"/>
    <path id="Tracé_259" data-name="Tracé 259" d="M349.87,105.285s-1.69,2.79-1.69,4,.59,3.58.49,4.27-1.78,3-2,3.78a1.381,1.381,0,0,0,.69,1.69,13.283,13.283,0,0,1,1.19.69s.5,6.16,1.3,7.75,1.49,2.29,3.87,2.49,8.05-2.29,8.84-4.28.9-4.37,1-7.25-1.89-7-3.38-10.93-7.73-6.09-10.31-2.21Z" fill="#fff" stroke="#263238" stroke-linecap="round" stroke-linejoin="round" stroke-width="1"/>
    <path id="Tracé_260" data-name="Tracé 260" d="M375.52,125.625a7.631,7.631,0,1,0-5.395-2.235,7.629,7.629,0,0,0,5.395,2.235Z" fill="#263238" stroke="#263238" stroke-linecap="round" stroke-linejoin="round" stroke-width="1"/>
    <path id="Tracé_261" data-name="Tracé 261" d="M349.83,104.855s3.07-2.65,8.59,2.62,3.42,12.89,7.11,14.47,10.52-6.32,11.31-10.26-1.58-12.11-8.95-13.69S351.49,97.495,349.83,104.855Z" fill="#263238" stroke="#263238" stroke-linecap="round" stroke-linejoin="round" stroke-width="1"/>
    <path id="Tracé_262" data-name="Tracé 262" d="M349.83,104.855a4.1,4.1,0,0,1,4.65-4.49c5,.27,5.52,8.16,8.15,11.32s3.95,2.63,3.95,2.63-4.47,1.31-7.37-.27-4.3-10.49-9.38-9.19Z" fill="#263238" stroke="#263238" stroke-linecap="round" stroke-linejoin="round" stroke-width="1"/>
    <path id="Tracé_263" data-name="Tracé 263" d="M376.84,111.685s-.23,7.22-5.77,8.74M358,99.445a15.6,15.6,0,0,1,6,6.81c2.27,4.81,2.27,8.78,7.66,8.5,0,0-2.55.57-6.52-1.42s-4.82-7.65-7.37-9.92a8.384,8.384,0,0,0-5.1-2.27Z" fill="none" stroke="#fff" stroke-linecap="round" stroke-linejoin="round" stroke-width="0.5"/>
    <path id="Tracé_264" data-name="Tracé 264" d="M361.38,119.055s5.28-6.91,6.52-1.75-3,6.42-5,5.83-1.72-1.66-1.72-1.66" fill="#fff"/>
    <path id="Tracé_265" data-name="Tracé 265" d="M361.38,119.055s5.28-6.91,6.52-1.75-3,6.42-5,5.83-1.72-1.66-1.72-1.66" fill="none" stroke="#263238" stroke-linecap="round" stroke-linejoin="round" stroke-width="1"/>
    <path id="Tracé_266" data-name="Tracé 266" d="M349.63,178.185s-10.08,1.4-11.76,1.4-5.88,5.32-5.88,5.32h18.48l-.84-6.72Z" fill="#fff" stroke="#263238" stroke-linecap="round" stroke-linejoin="round" stroke-width="1"/>
    <path id="Tracé_267" data-name="Tracé 267" d="M392.45,171.4l3.62,8.16a3.221,3.221,0,0,1-3,4.25l-43.7.25.28-5.88,33.88-5.36" fill="#fff"/>
    <path id="Tracé_268" data-name="Tracé 268" d="M392.45,171.4l3.62,8.16a3.221,3.221,0,0,1-3,4.25l-43.7.25.28-5.88,33.88-5.36" fill="none" stroke="#263238" stroke-linecap="round" stroke-linejoin="round" stroke-width="1"/>
    <path id="Tracé_269" data-name="Tracé 269" d="M333.96,284.125l.21,7.93h-1.25l-1.67-3.96,2.71-3.97Z" fill="#263238" stroke="#263238" stroke-linecap="round" stroke-linejoin="round" stroke-width="1"/>
    <path id="Tracé_270" data-name="Tracé 270" d="M331.72,278.825l-1.61-11.54-8.38.54,2.9,11.36-3.7,7.41-8,5.23s-.92.92,3.08.61,12.3,0,12.3,0l5.23-6.15s1.89-3.21-1.82-7.46Z" fill="#fff" stroke="#263238" stroke-linecap="round" stroke-linejoin="round" stroke-width="1"/>
    <path id="Tracé_271" data-name="Tracé 271" d="M328.31,292.395l5.23-6.15s1.35-2.29-.52-5.59c-3.72,6.36-8.67,8.27-8.67,8.27l-5.15-1.24-6.27,4.1s-.92.92,3.08.61,12.3,0,12.3,0Z" fill="#263238" stroke="#263238" stroke-linecap="round" stroke-linejoin="round" stroke-width="1"/>
    <path id="Tracé_272" data-name="Tracé 272" d="M327.88,208.085l3.59,61.32-11.37.27L309,213.965s.21-10.61,3.6-11.83,12.39.09,12.39.09" fill="#ff0c39"/>
    <path id="Tracé_273" data-name="Tracé 273" d="M327.88,208.085l3.59,61.32-11.37.27L309,213.965s.21-10.61,3.6-11.83,12.39.09,12.39.09" fill="none" stroke="#263238" stroke-linecap="round" stroke-linejoin="round" stroke-width="1"/>
    <path id="Tracé_274" data-name="Tracé 274" d="M278.18,76.1l14.11,39.55s-1.86,8.95-7.46,8.58-7.09-8.21-8.58-9.33-3.73-9.7-3.73-9.7l5.66-29.1Z" fill="#fff" stroke="#263238" stroke-linecap="round" stroke-linejoin="round" stroke-width="1"/>
    <path id="Tracé_275" data-name="Tracé 275" d="M241.68,68.165l-22.94,8.28,8.8,63.61h41.39l9.25-63.96-24.76-7.75-11.74-.18Z" fill="#fff" stroke="#263238" stroke-linecap="round" stroke-linejoin="round" stroke-width="1"/>
    <path id="Tracé_276" data-name="Tracé 276" d="M243.89,79.065l3.31,4.99-2.87,42.32,4.22,11.02,4.33-10.72-3.71-41.99,2.98-7.21-4.13-5.43-4.13,7.02Z" fill="#ff0c39" stroke="#263238" stroke-linecap="round" stroke-linejoin="round" stroke-width="1"/>
    <path id="Tracé_277" data-name="Tracé 277" d="M248.47,77l-5.91,4.43-3.89-11.55,2.71-5.85,12.09-.29,2.95,2.65-.59,14.74L248.47,77Z" fill="#fff" stroke="#263238" stroke-linecap="round" stroke-linejoin="round" stroke-width="1"/>
    <path id="Tracé_278" data-name="Tracé 278" d="M254.72,61.035l-.92,7.43L247.18,77l-4.95-8.66V54.415s8.67,2.17,12.49,6.62Z" fill="#fff" stroke="#263238" stroke-linecap="round" stroke-linejoin="round" stroke-width="1"/>
    <path id="Tracé_279" data-name="Tracé 279" d="M238.83,45.6c0-6.75,4.92-12.22,11-12.22s9.45,5.77,9.45,12.52c0,2.18-.45,5.92-.63,7.91-.31,3.4-1.34,4.84-3.35,7.89-6.59,10-12-4.67-14.77-9.6a13.123,13.123,0,0,1-1.7-6.5Z" fill="#fff" stroke="#263238" stroke-linecap="round" stroke-linejoin="round" stroke-width="1"/>
    <path id="Tracé_280" data-name="Tracé 280" d="M254.61,47.715l.93,6.97-3.27-.09" fill="#fff"/>
    <path id="Tracé_281" data-name="Tracé 281" d="M254.61,47.715l.93,6.97-3.27-.09" fill="none" stroke="#263238" stroke-linecap="round" stroke-linejoin="round" stroke-width="1"/>
    <path id="Tracé_282" data-name="Tracé 282" d="M261.91,46.5l-15.72.07a3.669,3.669,0,0,0,.78,3.57c1,1,5.07.65,5.72.39s1-3.12,1-3.12h1.17s.13,3,1.81,3.25,3.87.17,4.29-.13C262.82,49.285,261.91,46.5,261.91,46.5Z" fill="#fff" stroke="#263238" stroke-linecap="round" stroke-linejoin="round" stroke-width="1"/>
    <path id="Tracé_283" data-name="Tracé 283" d="M240.77,53.225s3.54,7.25,4.38,9.76,5,4.47,9.21,3.07,3.07-7.63,3.07-7.63-4.47-3.82-5.3-3-5.31,4.47-5.59,3.63-2.23-5.86-2.23-5.86l-.91-3.56,1.87-1.2a1.4,1.4,0,0,0,.25-1.88l-.88-1.27a1.424,1.424,0,0,1-.23-1.08c.23-1.09.86-3.35,2.32-4,2-.83,4.43.38,6.67.94s4.67-1.46,4.67-1.46l1,3.32a15.937,15.937,0,0,0,4.54-7.7c1.12-4.75-10.33-6.7-14-6.7s-9.49,2-11.17,7.26,1.34,16.42,2.33,17.36Z" fill="#263238" stroke="#263238" stroke-linecap="round" stroke-linejoin="round" stroke-width="1"/>
    <path id="Tracé_284" data-name="Tracé 284" d="M255.45,57.985s-3.15,1.64-4.71-.31m-.91-22.34s2.08,3.12-.65,3.77-8.05-1.69-10.39-.78Zm-4.68,6.88s-4.28-.52-6,1.3Z" fill="none" stroke="#fff" stroke-linecap="round" stroke-linejoin="round" stroke-width="0.5"/>
    <path id="Tracé_285" data-name="Tracé 285" d="M241.3,51.015s-3.09-3.4-3.09.31.93,3.71,2.78,5,2.48-.31,2.48-.31" fill="#fff"/>
    <path id="Tracé_286" data-name="Tracé 286" d="M241.3,51.015s-3.09-3.4-3.09.31.93,3.71,2.78,5,2.48-.31,2.48-.31" fill="none" stroke="#263238" stroke-linecap="round" stroke-linejoin="round" stroke-width="1"/>
    <path id="Tracé_287" data-name="Tracé 287" d="M282.56,281.525h.14l-.27-1.36-13.5-140.1H227.54l-13.61,141.45h.15l8.78.75s9.74-32.7,9.74-35.14,2.78-25,2.78-25l13.81-48.55,12.21,48.55s2.78,22.61,2.78,25,9.75,35.16,9.75,35.16l8.26-.71h.37Z" fill="#263238" stroke="#263238" stroke-linecap="round" stroke-linejoin="round" stroke-width="1"/>
    <path id="Tracé_288" data-name="Tracé 288" d="M230,141.4h36.5m-.66,6.9-9.21,13.15Zm-4.93,2.96-5.59,9.21Zm-26.3-.65,8.21,8.87Zm-.66,3.28,11.83,11.84Z" fill="none" stroke="#fff" stroke-linecap="round" stroke-linejoin="round" stroke-width="0.5"/>
    <path id="Tracé_289" data-name="Tracé 289" d="M214.08,281.515s-5.27,4.15-8.31,5.29-8.72,4.17-8.72,4.17,0,1.9,4.93,1.9h19.35l-.33-11.36Z" fill="#263238" stroke="#263238" stroke-linecap="round" stroke-linejoin="round" stroke-width="1"/>
    <path id="Tracé_290" data-name="Tracé 290" d="M221.26,290.8a188.137,188.137,0,0,1-23.18-.37l-1,.54s0,1.9,4.93,1.9h19.35Z" fill="#fff" stroke="#263238" stroke-linecap="round" stroke-linejoin="round" stroke-width="1"/>
    <path id="Tracé_291" data-name="Tracé 291" d="M281.76,281.515s5.28,4.15,8.31,5.29,8.73,4.17,8.73,4.17,0,1.9-4.94,1.9H274.52l.35-11.36Z" fill="#263238" stroke="#263238" stroke-linecap="round" stroke-linejoin="round" stroke-width="1"/>
    <path id="Tracé_292" data-name="Tracé 292" d="M274.58,290.8a188.14,188.14,0,0,0,23.18-.37l1,.54s0,1.9-4.94,1.9h-19.3ZM218.74,76.445l-15.24,40.69h14.62l5.46-11.1Z" fill="#fff" stroke="#263238" stroke-linecap="round" stroke-linejoin="round" stroke-width="1"/>
    <path id="Tracé_293" data-name="Tracé 293" d="M285.41,110.835c-6.1-2.52-25.67-3.77-26.69-3.77s-32.83-2.62-35.44-3-5.6,5.6-5.6,5.6l13.8-.38,16.79,3.36s34,12.31,36.56,11.57a2.278,2.278,0,0,0,.92-.58" fill="#fff"/>
    <path id="Tracé_294" data-name="Tracé 294" d="M285.41,110.835c-6.1-2.52-25.67-3.77-26.69-3.77s-32.83-2.62-35.44-3-5.6,5.6-5.6,5.6l13.8-.38,16.79,3.36s34,12.31,36.56,11.57a2.278,2.278,0,0,0,.92-.58" fill="none" stroke="#263238" stroke-linecap="round" stroke-linejoin="round" stroke-width="1"/>
    <path id="Tracé_295" data-name="Tracé 295" d="M214.32,108.925l52.6-5.22.38,4.47-45.52,13.81s-8.2,1.86-14.55.74-3.35-7.46-1.86-11.19" fill="#fff"/>
    <path id="Tracé_296" data-name="Tracé 296" d="M214.32,108.925l52.6-5.22.38,4.47-45.52,13.81s-8.2,1.86-14.55.74-3.35-7.46-1.86-11.19" fill="none" stroke="#263238" stroke-linecap="round" stroke-linejoin="round" stroke-width="1"/>
    <path id="Tracé_297" data-name="Tracé 297" d="M266.93,103.705l10.07-.38,2.98,5.97-12.68-1.11Z" fill="#fff" stroke="#263238" stroke-linecap="round" stroke-linejoin="round" stroke-width="1"/>
    <path id="Tracé_298" data-name="Tracé 298" d="M334,191.445l8.59,102.27a1.141,1.141,0,0,0,.158.429,1.156,1.156,0,0,0,.314.332,1.134,1.134,0,0,0,.878.179,1.1,1.1,0,0,0,.83-1.18l-5.85-102-4.92-.03Zm57.73,0,8.62,102.61a1.119,1.119,0,0,0,1.35.94,1.1,1.1,0,0,0,.83-1.18l-5.87-102.37Zm-238.24,0L149,292.825a1.118,1.118,0,0,0,1.295,1.207,1.074,1.074,0,0,0,.875-.937l7.27-101.65Zm-53.21,0-4.52,101a1.13,1.13,0,0,0,.85,1.19,1.079,1.079,0,0,0,1.33-.92l7.24-101.31-4.9.04Z" fill="#263238" stroke="#263238" stroke-linecap="round" stroke-linejoin="round" stroke-width="1"/>
    <path id="Tracé_299" data-name="Tracé 299" d="M402.97,185.775H97.08v8.78H402.97v-8.78Z" fill="#6449d1" stroke="#263238" stroke-linecap="round" stroke-linejoin="round" stroke-width="1"/>
    <path id="Tracé_300" data-name="Tracé 300" d="M402.97,185.775H97.08v3.01H402.97v-3.01Z" fill="#263238" stroke="#263238" stroke-linecap="round" stroke-linejoin="round" stroke-width="1"/>
    <path id="Tracé_301" data-name="Tracé 301" d="M402.96,185.775H326.42v8.78h76.54Z" fill="#263238" stroke="#263238" stroke-linecap="round" stroke-linejoin="round" stroke-width="1"/>
    <path id="Tracé_302" data-name="Tracé 302" d="M405.69,182.855H94.35v3.35H405.69v-3.35Z" fill="#6449d1" stroke="#263238" stroke-linecap="round" stroke-linejoin="round" stroke-width="1"/>
    <path id="Tracé_303" data-name="Tracé 303" d="M405.68,182.855H329.61v3.35h76.07Z" fill="#263238" stroke="#263238" stroke-linecap="round" stroke-linejoin="round" stroke-width="1"/>
    <path id="Tracé_304" data-name="Tracé 304" d="M163.7,182.555h41.78a.824.824,0,0,0,.449-.133.811.811,0,0,0,.3-.357l11.57-26.38a.81.81,0,0,0-.75-1.13H175.27a.808.808,0,0,0-.74.48L163,181.415a.8.8,0,0,0,.049.755.807.807,0,0,0,.278.273.792.792,0,0,0,.373.112Z" fill="#fff" stroke="#263238" stroke-linecap="round" stroke-linejoin="round" stroke-width="1"/>
    <path id="Tracé_305" data-name="Tracé 305" d="M167.62,180.495h35.65a.7.7,0,0,0,.376-.111.69.69,0,0,0,.254-.3l9.87-22.51a.684.684,0,0,0-.032-.678.7.7,0,0,0-.6-.322H177.49a.684.684,0,0,0-.64.42L167,179.525a.692.692,0,0,0,.295.883.7.7,0,0,0,.325.087Z" fill="#6449d1" stroke="#263238" stroke-linecap="round" stroke-linejoin="round" stroke-width="1"/>
    <path id="Tracé_306" data-name="Tracé 306" d="M206.06,180.8H143.29v2.05h62.77Z" fill="#fff" stroke="#263238" stroke-linecap="round" stroke-linejoin="round" stroke-width="1"/>
    <path id="Tracé_307" data-name="Tracé 307" d="M206.07,180.8H175.64v2.05h30.43Zm20.16-14.27H215.16V182.9h11.07v-16.36Z" fill="#fff" stroke="#263238" stroke-linecap="round" stroke-linejoin="round" stroke-width="1"/>
    <path id="Tracé_308" data-name="Tracé 308" d="M225.74,180.665h-1.16a.91.91,0,1,1,0-1.82h1.16a1.74,1.74,0,0,0,1.73-1.73v-4a1.738,1.738,0,0,0-1.73-1.73h-1.49a.92.92,0,0,1-.644-.267.909.909,0,0,1,.644-1.553h1.49a3.554,3.554,0,0,1,3.55,3.55v4a3.554,3.554,0,0,1-3.55,3.55Zm86.98,1.89H270.94a.815.815,0,0,1-.74-.49l-11.57-26.38a.8.8,0,0,1,.74-1.13h41.78a.818.818,0,0,1,.75.48l11.57,26.38a.819.819,0,0,1-.363,1.041.83.83,0,0,1-.387.1Z" fill="#fff" stroke="#263238" stroke-linecap="round" stroke-linejoin="round" stroke-width="1"/>
    <path id="Tracé_309" data-name="Tracé 309" d="M270.36,182.855h62.77V180.8H270.36Z" fill="#fff" stroke="#263238" stroke-linecap="round" stroke-linejoin="round" stroke-width="1"/>
    <path id="Tracé_310" data-name="Tracé 310" d="M270.36,182.855h43.28V180.8H270.36Zm16.38-17.35a2.46,2.46,0,1,1-3.37-1,2.488,2.488,0,0,1,3.37,1ZM91.37,87.855l3.08,30.43,14,40.53-4.79,2.74-16.44-37.1L79.01,92.6s-.69-9.58,2.74-11,8.25.09,9.62,6.25Zm17.12,71s3.08,6.51,3.43,8.22.7,5.2-.65,6.76c-1.63,1.88-3.12.43-3.12.43s-4.11-1-4.11-4.45-.34-8.22-.34-8.22Z" fill="#fff" stroke="#263238" stroke-linecap="round" stroke-linejoin="round" stroke-width="1"/>
    <path id="Tracé_311" data-name="Tracé 311" d="M105.13,169.065l5.77,1.5" fill="none" stroke="#263238" stroke-linecap="round" stroke-linejoin="round" stroke-width="1"/>
    <path id="Tracé_312" data-name="Tracé 312" d="M106.51,165.175l1.64,2.58s-3.82,6.53-1.77,4.82,5.88-3.79,5.54-5.5a27.154,27.154,0,0,0-2.28-5.16" fill="#fff"/>
    <path id="Tracé_313" data-name="Tracé 313" d="M106.51,165.175l1.64,2.58s-3.82,6.53-1.77,4.82,5.88-3.79,5.54-5.5a27.154,27.154,0,0,0-2.28-5.16" fill="none" stroke="#263238" stroke-linecap="round" stroke-linejoin="round" stroke-width="1"/>
    <path id="Tracé_314" data-name="Tracé 314" d="M75,51.285s-3.52-3.8-11.64-1.36-10,15.44-9.75,21.93,6.5,13.81,4.61,17.06-8.94,10.83-8.4,19,7.31,14.62,17.06,11.64,8.12-14.91,6.18-19.27,2.17-6.23,3.52-15.71-7.31-17.33-7.31-24.1,7-5.68,7-5.68Z" fill="#263238" stroke="#263238" stroke-linecap="round" stroke-linejoin="round" stroke-width="1"/>
    <path id="Tracé_315" data-name="Tracé 315" d="M65.05,115.775a6.063,6.063,0,0,0,2.43.38M62.8,76.985c1.28,2.64,2.77,5.46,4.25,8.5,4.94,10.08,1.08,13.72-6.43,19.3s-5.79,12.44-3.86,13.5Zm9.62-23.03s-10.08.86-12.66,7.29c-1.56,3.91-.36,8.29,1.94,13.39Z" fill="none" stroke="#fff" stroke-linecap="round" stroke-linejoin="round" stroke-width="0.5"/>
    <path id="Tracé_316" data-name="Tracé 316" d="M75,53.285s-9.44,1.71-11.58,8.57,10.51,17,11.15,24.46S66.2,98.135,63,103.925c-2.25,4.06-2,8.53.37,10.78" fill="none" stroke="#fff" stroke-linecap="round" stroke-linejoin="round" stroke-width="0.5"/>
    <path id="Tracé_317" data-name="Tracé 317" d="M99.22,191.355s-2.33,20.12-4.67,26.54-7.58,56.87-7.87,59.79,7.58,9.62,10.79,11.67,1.75,2.62-1.75,2.91-7.58-.29-9.33-3.5-5.84-4.08-5.84-4.08l-.58,7H78.8l-.87-8.75a10.078,10.078,0,0,1,.87-5.83c1.46-3.21,2-9.92,2-19s-1.75-23.63-.88-30.63,4.38-12.25,4.38-18.08.29-14.58.29-14.58l14.63-3.46Z" fill="#fff" stroke="#263238" stroke-linecap="round" stroke-linejoin="round" stroke-width="1"/>
    <path id="Tracé_318" data-name="Tracé 318" d="M77.93,282.935a9.66,9.66,0,0,1,.37-4.49c1.81,3.06,7,7.21,11,8.86a14.591,14.591,0,0,0,6.89,1.16c.47.35.91.65,1.28.89,3.21,2,1.75,2.62-1.75,2.91s-7.58-.29-9.33-3.5-5.84-4.08-5.84-4.08l-.58,7H78.8l-.87-8.75Z" fill="#263238" stroke="#263238" stroke-linecap="round" stroke-linejoin="round" stroke-width="1"/>
    <path id="Tracé_319" data-name="Tracé 319" d="M82.3,194.565s-5,14.87-9.62,27.7-15.75,42.29-16.92,47.54-1.75,14.88-5,19.84-6.42,7.29-5.84-1.46,5.84-15.17,7-21.88,1.75-30.91,5.83-41.7,8.46-19.54,9-22.75a75.241,75.241,0,0,0,.58-9.63l14.97,2.34Z" fill="#fff" stroke="#263238" stroke-linecap="round" stroke-linejoin="round" stroke-width="1"/>
    <path id="Tracé_320" data-name="Tracé 320" d="M45.52,284.435a8.662,8.662,0,0,0,1.48,4.62c1.68,1.88,4.39-1.77,5.8-4a18.956,18.956,0,0,1-2,4.58c-3.21,4.95-6.42,7.29-5.84-1.46a26.2,26.2,0,0,1,.56-3.74Z" fill="#263238" stroke="#263238" stroke-linecap="round" stroke-linejoin="round" stroke-width="1"/>
    <path id="Tracé_321" data-name="Tracé 321" d="M80,77.185s-1.75,1.46-2.92,11.38,6.13,40.83,6.13,40.83-12.54,20.54-15.46,30.75-4.67,48.46-4.67,48.46,6.13,2.34,18.67,3.21,19.25-2.33,19.25-2.33.58-54.59.58-63,.59-27.54,1.46-29.87,3.5-8.46,3.5-10.79S89,78.645,89,78.645l-9-1.46Z" fill="#fff" stroke="#263238" stroke-linecap="round" stroke-linejoin="round" stroke-width="1"/>
    <path id="Tracé_322" data-name="Tracé 322" d="M67.72,160.145c2.3-8,11.82-29.28,15.22-32.94,5.17,1.72,14.6,3.42,18.81,2.16-.13,3-.2,14.2-.2,17.07,0,8.46-.58,63-.58,63s-6.71,3.21-19.25,2.33-18.67-3.21-18.67-3.21S64.8,170.355,67.72,160.145ZM86.47,42.8s3.13-6.82,9.32-6.82,8.94,5.5,7.57,10.31,4.12,3.44,4.81,6.54-4.47,5.15-7.22,5.15S86.47,42.8,86.47,42.8Z" fill="#263238" stroke="#263238" stroke-linecap="round" stroke-linejoin="round" stroke-width="1"/>
    <path id="Tracé_323" data-name="Tracé 323" d="M92.36,44.285s.59-.51,1.47-1.13m1.68-1.05c1.84-1,4-1.72,5-.16,1.93,3-4.07,5.36-2.14,8.58s6.65,2.36,6.43,3.43-3.21,1.71-3.21,1.71Z" fill="none" stroke="#fff" stroke-linecap="round" stroke-linejoin="round" stroke-width="0.5"/>
    <path id="Tracé_324" data-name="Tracé 324" d="M102.34,58.675a3.135,3.135,0,0,1-1-1.26c-.5-3.69-1.58-7.32-3.62-9.36A19.83,19.83,0,0,0,86.49,42.8a7.91,7.91,0,0,0-3.71.34c-5.31,1.86-9.87,5.53-8.89,14.38,1.08,9.75,8.67,12.19,8.67,12.19l.54,6,7.58,3.52.27-6.5s5.14,2.16,7,1.89,2.44-2.71,3.25-6.23a26.257,26.257,0,0,0,.44-4.87l2.27-2.26C105.2,59.955,103.93,59.635,102.34,58.675Z" fill="#fff" stroke="#263238" stroke-linecap="round" stroke-linejoin="round" stroke-width="1"/>
    <path id="Tracé_325" data-name="Tracé 325" d="M73.87,57.525c-1-8.85,3.58-12.52,8.89-14.38a7.91,7.91,0,0,1,3.71-.34,21.488,21.488,0,0,1,8.12,2.82c-1.52-.31,1.07,4.16-1.31,7a22.131,22.131,0,0,1-7.77,6.22s-2.7-2.17-3.52.81-.54,5.14,1.63,5.69,3,0,3,0-1.44,3.41-4,4.82v-.49S75,67.285,73.87,57.525Z" fill="#263238" stroke="#263238" stroke-linecap="round" stroke-linejoin="round" stroke-width="1"/>
    <path id="Tracé_326" data-name="Tracé 326" d="M94.55,77.475l-1.45,7.88-15.46-8.17,1.46-7.29,15.45,7.58Zm-7.47,66.44a32.48,32.48,0,0,0,4.86.66c1.27-.08,3-1.51,4.28-.9s3.07,4.46,3.07,4.46,1.7.86,1.21,1.77-2.59,1.75-2.59,1.75-2,1.89-3.16,2.08-8.23-5-8.23-5l.56-4.82Z" fill="#fff" stroke="#263238" stroke-linecap="round" stroke-linejoin="round" stroke-width="1"/>
    <path id="Tracé_327" data-name="Tracé 327" d="M87.83,147.655a2.448,2.448,0,0,0-.75-3.74l-19.43-18.2,21.16-32.9a7.61,7.61,0,0,0-13.15-7.65l-18.34,36.45a5.06,5.06,0,0,0-.16,7.1l.07.07c1.84,2.84,22.08,17.69,28,19.63a2.429,2.429,0,0,0,2.6-.76Zm76.88-50.37s2.51,7.77,2.51,9.28a27.581,27.581,0,0,1-.25,3.26l2.21,3.43a1,1,0,0,1-.31,1.34l-3.41,2s-.5,8-1,9-9,.76-9,.76l-2.76,5.26-14.3-5.51,3.76-10.29-.78-15.53s8.78-7.76,23.33-3Z" fill="#fff" stroke="#263238" stroke-linecap="round" stroke-linejoin="round" stroke-width="1"/>
    <path id="Tracé_328" data-name="Tracé 328" d="M154.92,116.185s-2.49,2.34-4.36,2.5-7.95-1.25-8.42-1.87-4.67-9.35-4.52-13.56.32-10.44,4.83-12.46,11.69-1.41,15.43-3.74,9.66-4.21,12.78-.16.78,9.66-1.71,12-5.61,3-5.3,4,2.18,2.18,1.09,3.74-5,3-5,3.58.94,2.81-.15,3.12-2.19-2.18-3.28-2.18-3.41,3.01-1.39,5.03Z" fill="#263238" stroke="#263238" stroke-linecap="round" stroke-linejoin="round" stroke-width="1"/>
    <path id="Tracé_329" data-name="Tracé 329" d="M163.65,102.945s-3.55,3-7.35,6.09a32.376,32.376,0,0,1-8.55,4.75m.66-4.75a7.93,7.93,0,0,0-1.14,1.66Zm20.48-16.15a10.327,10.327,0,0,1-5.7,8.08c-4,2.07-9.33,3.76-12.87,6.36Z" fill="none" stroke="#fff" stroke-linecap="round" stroke-linejoin="round" stroke-width="0.5"/>
    <path id="Tracé_330" data-name="Tracé 330" d="M154.67,116.605l2,.5a6.91,6.91,0,0,0,1.51,5.27" fill="#fff"/>
    <path id="Tracé_331" data-name="Tracé 331" d="M167.48,107.455l3.22.14s1.11,3.64-2.24,4.06m-13.79,4.95,2,.5a6.91,6.91,0,0,0,1.51,5.27Zm2.32-5.37,14.12-3.5Z" fill="none" stroke="#263238" stroke-linecap="round" stroke-linejoin="round" stroke-width="1"/>
    <path id="Tracé_332" data-name="Tracé 332" d="M153.24,280.345s13,8.21,15.29,8.21,3.43,2.06,2.29,2.29-8.22.45-13,.68-8-.23-10.73-.23-5.94.23-7.31-.45.92-8.45.92-9.82,10.94-1.6,12.54-.68Z" fill="#263238" stroke="#263238" stroke-linecap="round" stroke-linejoin="round" stroke-width="1"/>
    <path id="Tracé_333" data-name="Tracé 333" d="M170,288.895c-5.05,1.66-13.24.57-18.16.12-3.89-.35-10-.43-12.49-.45-.1,1.17,0,2.06.39,2.28,1.37.68,4.57.45,7.31.45s5.93.46,10.73.23,11.87-.46,13-.68c.89-.18.47-1.36-.78-1.95Z" fill="#fff" stroke="#263238" stroke-linecap="round" stroke-linejoin="round" stroke-width="1"/>
    <path id="Tracé_334" data-name="Tracé 334" d="M163.51,223.945l-10.26,51.45,2.14,5.34a10.749,10.749,0,0,1-6.49,4.38,49.086,49.086,0,0,1-8.9.92s-1.14-5.71-.45-6.4.91-3.42.91-3.42l5.93-51.82Z" fill="#ff0c39" stroke="#263238" stroke-linecap="round" stroke-linejoin="round" stroke-width="1"/>
    <path id="Tracé_335" data-name="Tracé 335" d="M194.78,278.605s8,6.62,11.65,7.76,7.53,2.28,7.53,3.42-8.67,2.28-15.29,1.6-16.67-3.65-18.95-3.65-1.83-5.94-1.83-6.85,11.19-8.22,16.89-2.28Z" fill="#263238" stroke="#263238" stroke-linecap="round" stroke-linejoin="round" stroke-width="1"/>
    <path id="Tracé_336" data-name="Tracé 336" d="M214,289.785c0-.41-.51-.82-1.32-1.23a70.473,70.473,0,0,1-19.68-.14c-6.57-.94-12.07-2.2-14.88-2.9.24,1.23.71,2.22,1.64,2.22,2.28,0,12.33,3,18.95,3.65s15.29-.46,15.29-1.6Z" fill="#fff" stroke="#263238" stroke-linecap="round" stroke-linejoin="round" stroke-width="1"/>
    <path id="Tracé_337" data-name="Tracé 337" d="M155.07,200.885a104.143,104.143,0,0,1,20.54.46c11.64,1.37,37.65,3,38.1,5.94s-20.18,64.73-20.18,66.32,1.82,3.2,2.28,4.11a5.289,5.289,0,0,1,.46,2.06s-5.59,6-9.93,7.63-8,.1-8.9.1-.91-6.16-.22-9.13,1.82-10.5,2.05-11.18S192,222.575,192,222.575s-34,5.48-54.31,3.19-22.37-5.47-23.51-10.27,1.14-14.38,1.14-14.38l39.75-.23Z" fill="#ff0c39" stroke="#263238" stroke-linecap="round" stroke-linejoin="round" stroke-width="1"/>
    <path id="Tracé_338" data-name="Tracé 338" d="M156,205.685a24.249,24.249,0,0,1-11.87,10m8.37-.01a14.766,14.766,0,0,1-1.54,1.88Zm6.22-12.28a86.4,86.4,0,0,1-4.53,9.59Z" fill="none" stroke="#263238" stroke-linecap="round" stroke-linejoin="round" stroke-width="1"/>
    <path id="Tracé_339" data-name="Tracé 339" d="M207.82,218.285c.78-.3,1.53-.61,2.24-.93Z" fill="#fff"/>
    <path id="Tracé_340" data-name="Tracé 340" d="M207.82,218.285c.78-.3,1.53-.61,2.24-.93" fill="none" stroke="#263238" stroke-linecap="round" stroke-linejoin="round" stroke-width="1"/>
    <path id="Tracé_341" data-name="Tracé 341" d="M192,222.575a117.726,117.726,0,0,0,13-3.29Z" fill="#fff"/>
    <path id="Tracé_342" data-name="Tracé 342" d="M192,222.575a117.726,117.726,0,0,0,13-3.29" fill="none" stroke="#263238" stroke-linecap="round" stroke-linejoin="round" stroke-width="1"/>
    <path id="Tracé_343" data-name="Tracé 343" d="M218.39,146.765c.48-1.91,1.28-1.76.64-2.39-.88-.88-1.59.16-4.14,1.59s-5.09,3.18-5.09,3.18a2.558,2.558,0,0,1,.63-1.43,6.81,6.81,0,0,0,1-3.5c0-1-.8-.8-1.12.16s-3.18,2.7-3.34,3.5-.73,3.94-.73,3.94c-.91,1.37-.91,7.76-.91,7.76l-18.53,13.92-9.36,11s4.11,6.62,6.39,5.71,3.42-1.83,8.9-6.4c4.64-3.87,16.27-21.72,16.27-21.72a43.145,43.145,0,0,0,5.73-4.3,13.89,13.89,0,0,0,3.46-8.4,10.523,10.523,0,0,1,.2-2.62Zm-85.74-21.12s1.76-6.6,9.24-5.28,13.2,7.48,14.52,9.68-24.2-.88-24.2-.88l.44-3.52Z" fill="#fff" stroke="#263238" stroke-linecap="round" stroke-linejoin="round" stroke-width="1"/>
    <path id="Tracé_344" data-name="Tracé 344" d="M175.77,183.285s-1.74,1.88,0,4.84c1.19,2.05,3.29,3.62,7.31,2.93,3.76-.66,9.41-10,9.41-16.57s-4.84-7-6.6-5.72-10.12,14.52-10.12,14.52Z" fill="#fff" stroke="#263238" stroke-linecap="round" stroke-linejoin="round" stroke-width="1"/>
    <path id="Tracé_345" data-name="Tracé 345" d="M135.89,124.875s-17.8,8.45-20.31,10-4.11,21.45-4.11,24.88,2.51,37,3.19,42.68,22.6,9.59,29.91,7.53,14.43-7.25,14.43-9.08-.69-17.34-.23-20.31,4.56-15.52,4.56-15.52l12.46,19.88s1.31,2.44,5.94.52c6.62-2.74,7.17-13.33,7.17-13.33s-7.3-12.78-9.36-19.17-3-11.19-3.88-12.33-21.46-10.73-25.11-13.24a16.222,16.222,0,0,0-14.66-2.51Z" fill="#fff" stroke="#263238" stroke-linecap="round" stroke-linejoin="round" stroke-width="1"/>
    <path id="Tracé_346" data-name="Tracé 346" d="M162.32,163.815l-10.45-5.15m11.41,6.39-5.93-8.68Z" fill="none" stroke="#263238" stroke-linecap="round" stroke-linejoin="round" stroke-width="1"/>
    <path id="Tracé_347" data-name="Tracé 347" d="M131.35,229.285l9.12,64.82a1.088,1.088,0,0,0,1.966.48,1.111,1.111,0,0,0,.2-.74l-6.43-65.63-4.86,1.07Zm-26.2.51-15.24,63.66a1.09,1.09,0,0,0,2.11.55l17.7-61.78Z" fill="#263238" stroke="#263238" stroke-linecap="round" stroke-linejoin="round" stroke-width="1"/>
    <path id="Tracé_348" data-name="Tracé 348" d="M132.83,229.005l-9.7,64.73a1.09,1.09,0,0,0,.226.847,1.1,1.1,0,0,0,.774.413,1.087,1.087,0,0,0,1.13-.88l12.31-63.08-4.74-2.03Zm34.34.28,9.12,64.82a1.093,1.093,0,0,0,.271.578,1.089,1.089,0,0,0,1.694-.1,1.112,1.112,0,0,0,.205-.74L172,228.2l-4.83,1.09Z" fill="#263238" stroke="#263238" stroke-linecap="round" stroke-linejoin="round" stroke-width="1"/>
    <path id="Tracé_349" data-name="Tracé 349" d="M90.72,162.015l11.1,72.17h78.94s1.17-20.8-2.31-28.15-46.45,8.41-48,8c-1.15-.29.55-37.55,2.66-52.11a7.221,7.221,0,0,0-7.15-8.25H97.86a7.218,7.218,0,0,0-7.14,8.34Z" fill="#6449d1" stroke="#263238" stroke-linecap="round" stroke-linejoin="round" stroke-width="1"/>
    <path id="Tracé_350" data-name="Tracé 350" d="M178.45,206.035c-3.48-7.35-46.45,8.41-48,8-1.15-.29.55-37.55,2.66-52.11a7,7,0,1,0-13.76.07l11.1,72.17h50.31s1.17-20.78-2.31-28.13Z" fill="#263238" stroke="#263238" stroke-linecap="round" stroke-linejoin="round" stroke-width="1"/>
    <path id="Tracé_351" data-name="Tracé 351" d="M218.39,146.765s-1.27,1.27-3.18,3.5Z" fill="#fff"/>
    <path id="Tracé_352" data-name="Tracé 352" d="M218.39,146.765s-1.27,1.27-3.18,3.5" fill="none" stroke="#263238" stroke-linecap="round" stroke-linejoin="round" stroke-width="1"/>
    <path id="Tracé_353" data-name="Tracé 353" d="M218.19,149.345s-1.55,3.15-2.5,4.58Z" fill="#fff"/>
    <path id="Tracé_354" data-name="Tracé 354" d="M218.19,149.345s-1.55,3.15-2.5,4.58" fill="none" stroke="#263238" stroke-linecap="round" stroke-linejoin="round" stroke-width="1"/>
    <path id="Tracé_355" data-name="Tracé 355" d="M4.36,185.825c1.66.72,5.71.63,5.72.63s-.87-2.65-.95-2.81c-.89-1.87-3.71-4.94-6-4.63a2.731,2.731,0,0,0-2.19,3.43C1.32,184.025,2.94,185.205,4.36,185.825Z" fill="#263238"/>
    <path id="Tracé_356" data-name="Tracé 356" d="M57.51,172.015c-2.3-.25-5,2.9-5.87,4.79-.07.16-.91,2.84-.87,2.84-.44.49-.9,1-1.39,1.62-.9,1.1-1.9,2.36-2.91,3.8a51.074,51.074,0,0,0-3,4.8,36.546,36.546,0,0,0-2.58,5.8.192.192,0,0,1,0,.07v-2.71c-.27-2.05-2-5.85-4.26-6.27a2.729,2.729,0,0,0-3.16,2.53,5.544,5.544,0,0,0,2.19,4.28c1.3,1.16,4.9,2.28,5.19,2.37a46.788,46.788,0,0,0-1.52,6.35c-.23,1.24-.41,2.49-.58,3.75v-1.18c-.26-2.05-2-5.85-4.25-6.27a2.743,2.743,0,0,0-3.16,2.57,5.59,5.59,0,0,0,2.2,4.29,18.793,18.793,0,0,0,5,2.31c-.06.49-.13,1-.19,1.45-.27,2.32-.54,4.64-.87,6.9-.12.8-.26,1.58-.4,2.36v-1c-.27-2.05-2-5.85-4.26-6.27a2.738,2.738,0,0,0-3.15,2.58,5.586,5.586,0,0,0,2.2,4.28,17.5,17.5,0,0,0,4.85,2.23c-.17.8-.34,1.59-.54,2.36-.15.52-.25,1-.43,1.54s-.33,1-.49,1.52c-.35.95-.7,1.94-1.06,2.86-.25.65-.5,1.26-.74,1.87.12-.79.33-2.35.34-2.48a10.659,10.659,0,0,0-1.43-5.17,2.438,2.438,0,0,0,0-.6,2.731,2.731,0,0,0-3.37-2.33c-2.24.59-3.65,4.51-3.76,6.57,0,.12.08,1.45.14,2.29-.11-.49-.22-1-.34-1.46-.23-1-.5-2-.77-3-.16-.51-.31-1-.47-1.53s-.36-1-.54-1.56c-.44-1.21-.94-2.41-1.48-3.61.86-.21,3.92-1,5.15-1.93s2.52-2.48,2.51-4.11a2.73,2.73,0,0,0-3-2.8c-2.3.25-4.3,3.91-4.71,5.93,0,.13-.17,1.61-.23,2.43-.32-.72-.65-1.44-1-2.16-1-2.06-2.14-4.13-3.23-6.19l-1-1.9c.31-.07,4-.91,5.34-2s2.52-2.47,2.51-4.11a2.739,2.739,0,0,0-3-2.8c-2.3.25-4.29,3.91-4.71,5.93,0,.16-.23,2.29-.25,2.84-.72-1.39-1.43-2.79-2.07-4.19a48.3,48.3,0,0,1-2.26-5.83c.14,0,4-.9,5.38-2,1.22-.94,2.52-2.48,2.5-4.11a2.73,2.73,0,0,0-3-2.8c-2.3.25-4.29,3.91-4.71,5.93,0,.16-.24,2.46-.25,2.88a1.212,1.212,0,0,0-.12-.35,35.889,35.889,0,0,1-1.17-6.15q-.166-1.661-.22-3.33c.73-.09,4-.53,5.43-1.36a5.714,5.714,0,0,0,3-3.81,2.742,2.742,0,0,0-2.63-3.11c-2.32,0-4.7,3.42-5.34,5.38,0,.11-.26,1.23-.42,2.05v-1.45c0-1.75.11-3.35.22-4.76.07-.81.15-1.54.23-2.22.67-.46,3.34-2.34,4.16-3.69s1.46-3.22.86-4.74a2.73,2.73,0,0,0-3.76-1.54c-2.06,1.06-2.6,5.19-2.26,7.23,0,.17.81,2.87.84,2.85-.09.65-.18,1.35-.26,2.12-.14,1.42-.28,3-.33,4.78a49.994,49.994,0,0,0,.14,5.66,35.748,35.748,0,0,0,1,6.26.192.192,0,0,1,0,.07c-.36-.57-1.43-2.13-1.53-2.24-1.35-1.56-4.88-3.79-7-2.88a2.731,2.731,0,0,0-1.22,3.88c.79,1.43,2.67,2.14,4.2,2.36,1.72.25,5.34-.8,5.63-.88a48.767,48.767,0,0,0,2.19,6.08c.5,1.15,1,2.3,1.59,3.44-.33-.49-.63-.92-.67-1-1.35-1.56-4.88-3.79-7-2.88a2.731,2.731,0,0,0-1.03,3.95c.78,1.43,2.67,2.14,4.19,2.36s4.65-.6,5.47-.84c.22.44.43.88.65,1.31,1,2.09,2.11,4.17,3.08,6.24.34.73.65,1.46,1,2.19l-.59-.84c-1.35-1.56-4.88-3.78-7-2.88a2.739,2.739,0,0,0-1.21,3.89c.79,1.43,2.67,2.14,4.19,2.36a17.7,17.7,0,0,0,5.33-.8c.3.76.6,1.52.85,2.26.17.52.36,1,.49,1.53s.29,1,.43,1.54c.24,1,.49,2,.7,3,.15.67.28,1.32.41,2-.34-.73-1-2.15-1.09-2.26-1.1-1.75-4.25-4.48-6.49-3.91a2.739,2.739,0,0,0-1.78,3.66c.56,1.53,2.31,2.52,3.78,3,1.63.49,5.22,0,5.67,0,.22,1.07.41,2.12.59,3.11.6,3.43,1,6.32,1.21,8.33a9.865,9.865,0,0,0,.11,1h-7l2.54,49.57H33.67l2.54-49.57H29.72l.15-.29c.89-1.86,2.12-4.52,3.45-7.78.43-1,.86-2.13,1.29-3.27.44.09,4,.81,5.65.43,1.51-.34,3.33-1.19,4-2.67a2.728,2.728,0,0,0-1.51-3.78c-2.19-.74-5.53,1.75-6.76,3.41-.07.1-.74,1.25-1.15,2l.53-1.4c.35-.95.67-1.92,1-2.95l.45-1.53c.17-.51.28-1.06.42-1.6.29-1.25.53-2.53.75-3.83.83.3,3.82,1.34,5.36,1.23s3.47-.67,4.36-2a2.74,2.74,0,0,0-.92-4c-2-1-5.74.9-7.2,2.35-.09.1-1,1.26-1.52,1.91.12-.78.24-1.56.34-2.36.29-2.29.5-4.62.73-6.94.07-.71.15-1.42.22-2.13.3.11,3.82,1.42,5.55,1.3,1.53-.11,3.46-.67,4.35-2a2.74,2.74,0,0,0-.92-4c-2-1.05-5.73.9-7.2,2.35-.11.11-1.45,1.79-1.77,2.23.17-1.56.35-3.11.59-4.64a47.081,47.081,0,0,1,1.33-6.1c.14,0,3.8,1.43,5.58,1.31,1.53-.11,3.46-.68,4.35-2a2.728,2.728,0,0,0-.92-4c-2-1.06-5.73.89-7.2,2.35-.11.11-1.55,1.92-1.79,2.26l.09-.35a35.573,35.573,0,0,1,2.42-5.78c.53-1,1.09-2,1.65-2.9.66.33,3.68,1.8,5.28,1.86s3.52-.29,4.56-1.55a2.73,2.73,0,0,0-.48-4c-1.93-1.28-5.8.25-7.41,1.54-.09.07-.91.88-1.49,1.48.26-.41.52-.84.78-1.22,1-1.46,1.94-2.73,2.82-3.86.5-.63,1-1.19,1.41-1.71.81,0,4.08-.12,5.51-.79s3-1.88,3.33-3.47a2.732,2.732,0,0,0-2.27-3.63Zm-25.45,61.75c-1.39,3.2-2.67,5.81-3.58,7.62l-.51,1h-.15a9.543,9.543,0,0,0-.16-1.17c-.28-2-.72-4.94-1.41-8.39-.21-1.09-.46-2.25-.73-3.44a30.688,30.688,0,0,0,3.16-1.49,20.025,20.025,0,0,0,4.61,3c-.41.97-.83,1.95-1.23,2.87Z" fill="#263238"/>
    <path id="Tracé_357" data-name="Tracé 357" d="M45.4,186.715s.74-2.69.76-2.87c.29-2.05-.36-6.16-2.45-7.17a2.742,2.742,0,0,0-3.71,1.61c-.56,1.53.15,3.41,1,4.71,1,1.56,4.4,3.72,4.4,3.72Zm376.53,105.15H15.18v4.98H421.93Z" fill="#263238"/>
  </g>
</svg>
