<svg xmlns="http://www.w3.org/2000/svg" width="368.804" height="362.359" viewBox="0 0 368.804 362.359">
  <g id="Groupe_7" data-name="Groupe 7" transform="translate(-0.91 -0.438)">
    <path id="Tracé_121" data-name="Tracé 121" d="M257.3,17.992c-18.775,10.738-32.018,28.8-48.065,43.3a154.628,154.628,0,0,1-70.49,36.14c-21.511,4.655-43.986,4.724-64.715,12.046-40.442,14.189-68.14,56.3-68.837,99.117s23.663,84.326,59.466,107.8a142.527,142.527,0,0,0,39.582,18.027c26.33,7.409,54.252,7.082,81.46,4.251,47-4.9,96.269-31.588,125.9-69.216a269.926,269.926,0,0,0,33.248-54.6,272.318,272.318,0,0,0,24.541-101.664c1.247-30.116,0-63.5-23.9-85.452s-60.18-25.78-88.189-9.75Z" fill="#6449d1"/>
    <path id="Tracé_122" data-name="Tracé 122" d="M257.3,17.992c-18.775,10.738-32.018,28.8-48.065,43.3a154.628,154.628,0,0,1-70.49,36.14c-21.511,4.655-43.986,4.724-64.715,12.046-40.442,14.189-68.14,56.3-68.837,99.117s23.663,84.326,59.466,107.8a142.527,142.527,0,0,0,39.582,18.027c26.33,7.409,54.252,7.082,81.46,4.251,47-4.9,96.269-31.588,125.9-69.216a269.926,269.926,0,0,0,33.248-54.6,272.318,272.318,0,0,0,24.541-101.664c1.247-30.116,0-63.5-23.9-85.452s-60.18-25.78-88.189-9.75Z" fill="#fff" opacity="0.7"/>
    <path id="Tracé_123" data-name="Tracé 123" d="M207.9,362.8c85.221,0,154.307-18.607,154.307-41.56S293.126,279.676,207.9,279.676,53.6,298.284,53.6,321.237,122.683,362.8,207.9,362.8Z" fill="#6449d1"/>
    <path id="Tracé_124" data-name="Tracé 124" d="M207.9,362.8c85.221,0,154.307-18.607,154.307-41.56S293.126,279.676,207.9,279.676,53.6,298.284,53.6,321.237,122.683,362.8,207.9,362.8Z" fill="#fff" opacity="0.5"/>
    <path id="Tracé_125" data-name="Tracé 125" d="M226.715,21.838H45.3a7.7,7.7,0,0,0-7.7,7.7v101.7a7.7,7.7,0,0,0,7.7,7.7H226.715a7.7,7.7,0,0,0,7.7-7.7V29.539a7.7,7.7,0,0,0-7.7-7.7Z" fill="#fff"/>
    <path id="Tracé_126" data-name="Tracé 126" d="M234.416,29.54v3.045H37.6V29.54A7.744,7.744,0,0,1,45.3,21.8H226.75a7.691,7.691,0,0,1,7.667,7.744Z" fill="#6449d1"/>
    <path id="Tracé_127" data-name="Tracé 127" d="M226.715,21.838H45.3a7.7,7.7,0,0,0-7.7,7.7v101.7a7.7,7.7,0,0,0,7.7,7.7H226.715a7.7,7.7,0,0,0,7.7-7.7V29.539a7.7,7.7,0,0,0-7.7-7.7Z" fill="none" stroke="#263238" stroke-linecap="round" stroke-linejoin="round" stroke-width="1"/>
    <path id="Tracé_128" data-name="Tracé 128" d="M234.416,29.54v3.045H37.6V29.54A7.744,7.744,0,0,1,45.3,21.8H226.75a7.691,7.691,0,0,1,7.667,7.744Z" fill="none" stroke="#263238" stroke-linecap="round" stroke-linejoin="round" stroke-width="1"/>
    <path id="Tracé_129" data-name="Tracé 129" d="M59.707,27.207a1.97,1.97,0,1,1-.583-1.39,1.971,1.971,0,0,1,.583,1.39Zm10.283,0a1.973,1.973,0,1,1-.584-1.391,1.971,1.971,0,0,1,.584,1.391ZM78.3,29.178a1.972,1.972,0,1,0-1.393-.578,1.97,1.97,0,0,0,1.393.578Z" fill="#263238"/>
    <path id="Tracé_130" data-name="Tracé 130" d="M52.918,70.067h53.753m1.42-28.955H52.445a3.175,3.175,0,0,0-3.175,3.175v26.77a3.175,3.175,0,0,0,3.175,3.175h55.646a3.175,3.175,0,0,0,3.175-3.175V44.287a3.175,3.175,0,0,0-3.175-3.175Z" fill="none" stroke="#263238" stroke-linecap="round" stroke-linejoin="round" stroke-width="1"/>
    <path id="Tracé_131" data-name="Tracé 131" d="M63.149,63.743H56.911v6.238h6.238V63.743Zm9.129-8.2H66.04V70.067h6.238V55.543Zm10.282,2.5H76.322V70.213h6.239V58.038ZM93.368,45.914H87.13V69.792h6.238Zm10.8.189H97.929V69.981h6.238Zm83.965,29.841A17.441,17.441,0,1,0,170.69,58.5a17.442,17.442,0,0,0,17.442,17.442Z" fill="#6449d1" stroke="#263238" stroke-miterlimit="10" stroke-width="1"/>
    <path id="Tracé_132" data-name="Tracé 132" d="M189.56,69.379v1.79h-2.926v-1.79a5.318,5.318,0,0,1-4.061-5.421v-.809l3.313-.361v.86c0,1.66.86,2.667,2.211,2.667a2.039,2.039,0,0,0,2.2-2.177c0-1.591-1.489-2.96-3.244-4.414-2.082-1.72-4.156-3.768-4.156-6.66s1.359-4.844,3.734-5.43v-1.8h2.926v1.782c2.4.559,3.795,2.581,3.795,5.463v.586l-3.313.352v-.6c0-1.72-.68-2.667-1.885-2.667s-1.884.748-1.884,2.177c0,1.592,1.532,2.925,3.252,4.414,2.048,1.72,4.157,3.769,4.157,6.66a5.3,5.3,0,0,1-4.122,5.378Z" fill="#263238"/>
    <path id="Tracé_133" data-name="Tracé 133" d="M200.47,128.123v-3.958M47.824,91.148h0Zm0,9.844h0Zm0,9.852h0Zm0,9.844h0Zm16.323,7.435v0Zm8.071,0v0Zm8.072,0v0Zm8.08,0v0Zm8.07,0v0Zm8.071,0v0Zm8.072,0v0Zm8.079,0v0Zm8.071,0v0Zm8.072,0v0Zm8.071,0v0Zm8.08,0v0Zm8.071,0v0Zm8.071,0v0Zm8.071,0v0Zm7.77,0v0Zm7.77,0v0Z" fill="none" stroke="#263238" stroke-linecap="round" stroke-linejoin="round" stroke-width="1"/>
    <path id="Tracé_134" data-name="Tracé 134" d="M221.019,85.125v38.256c0,2.625-2.668,4.742-5.955,4.742H53.8a6.385,6.385,0,0,1-5.163-2.332,4.072,4.072,0,0,1-.86-2.41V85.125c0-2.581,2.667-4.741,5.954-4.741H215.064C218.351,80.384,221.019,82.5,221.019,85.125Z" fill="none" stroke="#6449d1" stroke-linecap="round" stroke-linejoin="round" stroke-width="1"/>
    <path id="Tracé_135" data-name="Tracé 135" d="M171.937,11.03,120.456,80.384,100.768,106.9,79.257,93.2,52.935,128.123h-.379a4.747,4.747,0,0,1-4.087-2.332L78.043,86.545l21.512,13.673,14.723-19.791,53.684-72.28,3.975,2.883Z" fill="#263238"/>
    <path id="Tracé_136" data-name="Tracé 136" d="M158.875,11.908,177.8.438l-5.232,19.843L169.227,11.1l-10.352.81Z" fill="#263238"/>
    <path id="Tracé_137" data-name="Tracé 137" d="M35.52,226.852V215.511M337.947,230.26H35.33L1.41,260.419ZM35.52,209.144v0Z" fill="none" stroke="#263238" stroke-linecap="round" stroke-linejoin="round" stroke-width="1"/>
    <path id="Tracé_138" data-name="Tracé 138" d="M319.731,87.595s0-3.546-4.965-8.5-8.149-7.8-8.149-7.8-2.487,8.149,2.126,13.114A86.8,86.8,0,0,0,319.731,94v-6.4Zm-7.2,22.139s0-3.545-4.965-8.51-8.149-7.8-8.149-7.8-2.478,8.149,2.125,13.114a88.178,88.178,0,0,0,10.989,9.594v-6.4Z" fill="#6449d1"/>
    <path id="Tracé_139" data-name="Tracé 139" d="M319.412,93.635s.379-3.528,5.834-7.942,8.932-6.884,8.932-6.884,1.6,8.39-3.5,12.813a87.384,87.384,0,0,1-11.935,8.355l.671-6.342Zm-8.7,26.141s.749-3.442,6.634-7.28,9.594-5.92,9.594-5.92.715,8.493-4.8,12.383a86.785,86.785,0,0,1-12.744,7.047l1.317-6.23Zm1.643,28.49s0-3.545,4.957-8.5,8.148-7.8,8.148-7.8,2.487,8.157-2.125,13.113a86.061,86.061,0,0,1-10.98,9.594Z" fill="#6449d1"/>
    <path id="Tracé_140" data-name="Tracé 140" d="M312.271,155.227s.5-3.51-3.709-9.121-6.952-8.88-6.952-8.88-3.6,7.745.249,13.286a87.228,87.228,0,0,0,9.517,11.031Zm-4.9,20.608s0-3.536,4.964-8.5,8.149-7.744,8.149-7.744,2.487,8.148-2.125,13.1a86.953,86.953,0,0,1-10.988,9.6Zm3.313,18.7s-.861-3.442,2.658-9.465,5.912-9.594,5.912-9.594,4.457,7.262,1.265,13.225a87.116,87.116,0,0,1-8.209,12.047Z" fill="#6449d1"/>
    <path id="Tracé_141" data-name="Tracé 141" d="M312.529,153.308a55.557,55.557,0,0,1,9.594-12.8m-1.945-53.788a100.349,100.349,0,0,1-1.359,11c-1.962,10.137-6.884,16.676-8.828,25.814s3.674,20.953,2.168,32.7-6.092,18.294-4.8,26.141,8.174,29.084,8.174,29.084Zm-.808,9.276,5.343-4.113Zm.24-4.724-2.228-3.984Zm-9.318,31.846s4.474-3.365,9.077-6.721Zm2.237-7.022a71.728,71.728,0,0,0-7.96-12.167Z" fill="none" stroke="#263238" stroke-linecap="round" stroke-linejoin="round" stroke-width="1.177"/>
    <path id="Tracé_142" data-name="Tracé 142" d="M312.3,200.7a15.155,15.155,0,0,1,1.342-7.848c1.868-3.6,3.976-8.338,4.853-10.2m-6.84-24.377a63.262,63.262,0,0,0-4.888-9.216c-2.581-3.855-2.994-4.354-2.994-4.354Zm-4.285,24.076a59.851,59.851,0,0,1,4.035-8.158,52.863,52.863,0,0,1,5.215-6.883Z" fill="none" stroke="#263238" stroke-linecap="round" stroke-linejoin="round" stroke-width="1.177"/>
    <path id="Tracé_143" data-name="Tracé 143" d="M287.239,134.937s-.387-2.211,2.186-5.868,4.3-5.782,4.3-5.782,2.435,4.835.086,8.449a55.11,55.11,0,0,1-5.851,7.194Zm6.919,13.131s-.387-2.228,2.186-5.877,4.3-5.774,4.3-5.774,2.435,4.845.086,8.45a54.654,54.654,0,0,1-5.851,7.194l-.723-3.993Z" fill="#6449d1"/>
    <path id="Tracé_144" data-name="Tracé 144" d="M288.092,138.689s-.6-2.168-4.518-4.3-6.35-3.356-6.35-3.356-.1,5.395,3.6,7.658a55.234,55.234,0,0,0,8.389,3.941Zm8.295,15.445s-.861-2.091-4.957-3.837-6.668-2.668-6.668-2.668.473,5.4,4.371,7.237a55.469,55.469,0,0,0,8.759,3.037Zm2.065,18.027s-.388-2.22-4.036-4.793-5.963-4.009-5.963-4.009-.671,5.4,2.762,7.993a54.943,54.943,0,0,0,7.925,4.793l-.688-3.984Z" fill="#6449d1"/>
    <path id="Tracé_145" data-name="Tracé 145" d="M299.252,176.541s-.7-2.143,1.333-6.118,3.442-6.324,3.442-6.324,3.1,4.44,1.291,8.355a56.162,56.162,0,0,1-4.8,7.95l-1.265-3.863Zm6.229,17.923s.259-2.237,3.752-5.016,5.722-4.3,5.722-4.3.981,5.334-2.3,8.14a55.8,55.8,0,0,1-7.633,5.248Zm-.92-5.524s-.387-2.228-4.036-4.8-5.954-4-5.954-4-.671,5.4,2.753,7.993a55.322,55.322,0,0,0,7.934,4.793Zm-.052,12.081s.2-2.254-2.685-5.662-4.749-5.395-4.749-5.395-2.014,5.034.645,8.433a56.235,56.235,0,0,0,6.454,6.668l.335-4.044Z" fill="#6449d1"/>
    <path id="Tracé_146" data-name="Tracé 146" d="M298.89,175.362a35.4,35.4,0,0,0-7.4-6.987m-4.637-33.954a63.651,63.651,0,0,0,2.056,6.755c2.323,6.135,6.109,9.706,8.329,15.23s0,13.535,2.2,20.737,5.808,10.79,5.834,15.876-1.937,19.137-1.937,19.137Zm1.523,5.739-3.8-1.987Zm-.671-2.934.972-2.736Zm9.31,18.948s-3.175-1.618-6.419-3.227Zm-2.169-4.113a45.568,45.568,0,0,1,3.674-8.485Z" fill="none" stroke="#263238" stroke-linecap="round" stroke-linejoin="round" stroke-width="1.177"/>
    <path id="Tracé_147" data-name="Tracé 147" d="M304.191,205.065a9.71,9.71,0,0,0-1.721-4.793c-1.566-2.065-3.442-4.8-4.148-5.876m1.653-16a39.354,39.354,0,0,1,2.039-6.29c1.2-2.711,1.4-3.063,1.4-3.063Zm5.128,18.465a33.036,33.036,0,0,1,4.079-4.233,21.843,21.843,0,0,0,2.65-2.315Zm.163-3.837a38.63,38.63,0,0,0-3.441-4.673,33.578,33.578,0,0,0-4.019-3.725Z" fill="none" stroke="#263238" stroke-linecap="round" stroke-linejoin="round" stroke-width="1.177"/>
    <path id="Tracé_148" data-name="Tracé 148" d="M320.694,236.386H298.1a1.718,1.718,0,0,1-1.721-1.678l-3.244-25h32.457l-3.244,25a1.726,1.726,0,0,1-1.653,1.678Z" fill="#263238"/>
    <path id="Tracé_149" data-name="Tracé 149" d="M325.332,213.928H293.168a2.53,2.53,0,0,1-2.538-2.512,2.579,2.579,0,0,1,2.53-2.539h32.172a2.529,2.529,0,0,1,2.539,2.53,2.529,2.529,0,0,1-2.539,2.521Z" fill="#263238"/>
    <path id="Tracé_150" data-name="Tracé 150" d="M252.821,113.916a31.238,31.238,0,0,1-24.2,30.435h-.1c-.818.181-1.635.344-2.478.465a31.94,31.94,0,0,1-4.466.318,31.243,31.243,0,0,1-1.153-62.461h.86a1.415,1.415,0,0,1,.276,0,1.877,1.877,0,0,1,.318,0A30.76,30.76,0,0,1,234.115,85.3a31.243,31.243,0,0,1,18.706,28.619Z" fill="#6449d1"/>
    <path id="Tracé_151" data-name="Tracé 151" d="M234.132,85.306c-36.079-1.876-36.251,38.179-36.251,38.179s-5.507-13.071,3.484-27.535c5.026-8.1,13.768-11.668,20.531-13.251A30.767,30.767,0,0,1,234.132,85.306Z" fill="#fff" opacity="0.4"/>
    <path id="Tracé_152" data-name="Tracé 152" d="M252.821,113.916a31.244,31.244,0,0,1-24.3,30.461,30.731,30.731,0,0,1-6.944.783,31.249,31.249,0,0,1-1.153-62.487h1.153a31.253,31.253,0,0,1,31.243,31.243Z" fill="none" stroke="#263238" stroke-linecap="round" stroke-linejoin="round" stroke-width="1"/>
    <path id="Tracé_153" data-name="Tracé 153" d="M252.821,113.916a31.239,31.239,0,0,1-24.3,30.461h-1.153a31.252,31.252,0,0,1-6.944-61.7h1.153a31.251,31.251,0,0,1,31.243,31.243Z" fill="none" stroke="#263238" stroke-linecap="round" stroke-linejoin="round" stroke-width="1"/>
    <path id="Tracé_154" data-name="Tracé 154" d="M232.342,133.44l.809,3.3-5.4,1.316-.808-3.3c-4.836,0-8.717-3.14-9.956-8.183l-.37-1.5,5.963-2.16.379,1.558c.748,3.063,2.77,4.535,5.291,3.915a3.871,3.871,0,0,0,3.089-5.016c-.722-2.943-4.1-4.785-8-6.686-4.621-2.238-9.387-5.077-10.695-10.421-1.274-5.214.327-9.56,4.448-11.71l-.809-3.305,5.4-1.316.809,3.295c4.69-.068,8.183,3.02,9.465,8.356l.267,1.084-5.954,2.159-.3-1.2c-.792-3.244-2.461-4.612-4.681-4.07s-3.141,2.238-2.5,4.871c.723,2.942,4.139,4.715,8,6.694,4.569,2.315,9.387,5.077,10.7,10.412,1.317,5.137-.783,9.714-5.137,11.891Z" fill="none" stroke="#263238" stroke-miterlimit="10" stroke-width="1"/>
    <path id="Tracé_155" data-name="Tracé 155" d="M232.342,133.44l.809,3.3-5.4,1.316-.808-3.3c-4.836,0-8.717-3.14-9.956-8.183l-.37-1.5,5.963-2.16.379,1.558c.748,3.063,2.77,4.535,5.291,3.915a3.871,3.871,0,0,0,3.089-5.016c-.722-2.943-4.1-4.785-8-6.686-4.621-2.238-9.387-5.077-10.695-10.421-1.274-5.214.327-9.56,4.448-11.71l-.809-3.305,5.4-1.316.809,3.295c4.69-.068,8.183,3.02,9.465,8.356l.267,1.084-5.954,2.159-.3-1.2c-.792-3.244-2.461-4.612-4.681-4.07s-3.141,2.238-2.5,4.871c.723,2.942,4.139,4.715,8,6.694,4.569,2.315,9.387,5.077,10.7,10.412,1.317,5.137-.783,9.714-5.137,11.891Z" opacity="0.3"/>
    <path id="Tracé_156" data-name="Tracé 156" d="M204.575,87.7l5.18-.49m-4.148,53.572,6.6-.3Zm-3.174-2.194,5.756-.491Zm-2.582-2.315,5.757-.49ZM199.06,92.25h0Zm2.435-2.272,4.913-.224Z" fill="none" stroke="#263238" stroke-linecap="round" stroke-linejoin="round" stroke-width="1"/>
    <path id="Tracé_157" data-name="Tracé 157" d="M228.617,144.351h-.1a30.737,30.737,0,0,1-6.944.783,31.243,31.243,0,0,1-1.153-62.461h.86c-7.615,2.4-20.393,8.536-23.809,21.331-4.827,18.181,6.041,38.824,31.141,40.347Z" opacity="0.3"/>
    <path id="Tracé_158" data-name="Tracé 158" d="M252.821,113.916a31.245,31.245,0,0,1-24.205,30.435h-.094c-.818.181-1.635.344-2.479.465l8.089-59.536a31.243,31.243,0,0,1,18.689,28.636Z" opacity="0.1"/>
    <path id="Tracé_159" data-name="Tracé 159" d="M270.547,64.732a18.932,18.932,0,0,1-22.639,6.574l-.112-.052q-.882-.387-1.721-.86a16.756,16.756,0,0,1-1.824-1.136,18.93,18.93,0,0,1,20.814-31.519l.422.267c.2.112.387.25.585.387s.577.422.861.646a18.933,18.933,0,0,1,3.614,25.693Z" fill="#6449d1"/>
    <path id="Tracé_160" data-name="Tracé 160" d="M242.031,64.99s-3.089-9.095,1.015-15.79c5.163-8.389,13.071-12.218,23.835-10.153,0,0-5.834-3.94-15.6-1.144s-15.006,16.237-9.25,27.087Z" fill="#fff" opacity="0.4"/>
    <path id="Tracé_161" data-name="Tracé 161" d="M270.547,64.74A18.928,18.928,0,0,1,247.908,71.3a18.544,18.544,0,0,1-3.7-2.031A18.93,18.93,0,0,1,265.47,38.015c.19.112.387.24.577.378a18.927,18.927,0,0,1,4.5,26.348Z" fill="none" stroke="#263238" stroke-linecap="round" stroke-linejoin="round" stroke-width="1"/>
    <path id="Tracé_162" data-name="Tracé 162" d="M270.547,64.74A18.932,18.932,0,0,1,247.908,71.3l-.577-.379a18.93,18.93,0,0,1,18.139-32.9c.189.112.387.24.577.378a18.927,18.927,0,0,1,4.5,26.348Z" fill="none" stroke="#263238" stroke-linecap="round" stroke-linejoin="round" stroke-width="1"/>
    <path id="Tracé_163" data-name="Tracé 163" d="M253.6,67.253l-.748,1.91-3.133-1.23.749-1.919a6.124,6.124,0,0,1-2.065-7.512l.344-.86,3.7,1.007-.353.912c-.7,1.772-.223,3.2,1.239,3.777a2.34,2.34,0,0,0,3.279-1.4c.671-1.721-.353-3.795-1.618-6.093-1.5-2.719-2.857-5.782-1.643-8.88s3.5-4.611,6.281-4.233l.757-1.91,3.124,1.23-.749,1.9c2.341,1.6,2.986,4.3,1.773,7.443l-.25.62-3.7-1.007.275-.7c.74-1.876.4-3.14-.86-3.649s-2.332,0-2.934,1.54c-.671,1.721.4,3.77,1.617,6.093,1.455,2.745,2.866,5.79,1.653,8.88a6.1,6.1,0,0,1-6.738,4.078Z" fill="none" stroke="#263238" stroke-miterlimit="10" stroke-width="1"/>
    <path id="Tracé_164" data-name="Tracé 164" d="M253.6,67.253l-.748,1.91-3.133-1.23.749-1.919a6.124,6.124,0,0,1-2.065-7.512l.344-.86,3.7,1.007-.353.912c-.7,1.772-.223,3.2,1.239,3.777a2.34,2.34,0,0,0,3.279-1.4c.671-1.721-.353-3.795-1.618-6.093-1.5-2.719-2.857-5.782-1.643-8.88s3.5-4.611,6.281-4.233l.757-1.91,3.124,1.23-.749,1.9c2.341,1.6,2.986,4.3,1.773,7.443l-.25.62-3.7-1.007.275-.7c.74-1.876.4-3.14-.86-3.649s-2.332,0-2.934,1.54c-.671,1.721.4,3.77,1.617,6.093,1.455,2.745,2.866,5.79,1.653,8.88a6.1,6.1,0,0,1-6.738,4.078Z" opacity="0.3"/>
    <path id="Tracé_165" data-name="Tracé 165" d="M265.022,37.748c-5.162-.92-11.7-1.428-15.23.86-6.479,4.157-10.515,9.4-10.454,17.89s7.993,14.447,7.993,14.447l.465.335a18.592,18.592,0,0,1-3.588-1.987,18.93,18.93,0,0,1,20.814-31.519v-.026Z" opacity="0.3"/>
    <path id="Tracé_166" data-name="Tracé 166" d="M270.547,64.732a18.933,18.933,0,0,1-22.639,6.574l-.112-.051q-.881-.387-1.721-.86l20.806-31.348a18.931,18.931,0,0,1,3.666,25.685Z" opacity="0.1"/>
    <path id="Tracé_167" data-name="Tracé 167" d="M260.806,307.048a113.574,113.574,0,0,1-28.257,24.394,99.769,99.769,0,0,1-10.326,5.386c-24.446,10.989-52.308,11.7-78.363,5.387C89.075,328.938,60.008,280.58,56.317,226.9c-.99-14.507-3.21-30.176,2.667-43.978s17.76-22.372,31.2-28.326c9.758-4.346,20.3-7.263,29.876-9.646a76.839,76.839,0,0,1,51.705,5.335c11.264,5.343,19.283,14.628,28.757,22.449a283.949,283.949,0,0,0,33.145,23.646c15.927,9.714,32.233,18.878,42.413,35.193,16.237,26,2.538,54.312-15.274,75.48Z" fill="#ff0c39"/>
    <path id="Tracé_168" data-name="Tracé 168" d="M203.517,175.2q-1.527-1.224-3.029-2.478c-9.465-7.839-17.5-17.1-28.757-22.441a76.9,76.9,0,0,0-51.705-5.335C97.249,150.6,69,159.306,58.933,182.926c-5.877,13.767-3.657,29.462-2.66,43.969,3.735,53.685,32.8,102.043,87.588,115.32,29.806,7.228,61.953,5.249,88.688-10.773a113.574,113.574,0,0,0,28.257-24.394c17.812-21.168,31.511-49.477,15.291-75.48-10.171-16.349-26.477-25.479-42.412-35.193A283.929,283.929,0,0,1,203.517,175.2Z" fill="none" stroke="#263238" stroke-miterlimit="10" stroke-width="1"/>
    <path id="Tracé_169" data-name="Tracé 169" d="M142.639,264.231s-25.711-14.955-56.74-2.969m34.626,9.663a78.9,78.9,0,0,0-13.226,5.352Zm27.922-5.317a141.107,141.107,0,0,0-19.791,3.14Z" fill="none" stroke="#263238" stroke-linecap="round" stroke-linejoin="round" stroke-width="1"/>
    <path id="Tracé_170" data-name="Tracé 170" d="M260.806,307.048a113.574,113.574,0,0,1-28.257,24.394,99.87,99.87,0,0,1-10.326,5.386,80.327,80.327,0,0,1-8.235-3.02c-16.056-6.884-29.531-18.526-42.7-30-7.942-6.884-16.013-13.94-25.521-18.474a58.7,58.7,0,0,0-41.165-3.391,46.233,46.233,0,0,1,27.225-14.98c-6.8-6.187-16.254-8.786-25.444-8.949s-14.25.964-23.232,2.977c3-5.524,10.97-10.523,17.261-10.377a156.288,156.288,0,0,1-17.88-1.265c-8.115-1.308-11.746-10.859-12.96-18.982-3.355-22.372.044-46.2,12.254-65.215a66.348,66.348,0,0,1,8.346-10.557c9.758-4.346,20.3-7.263,29.875-9.646a76.842,76.842,0,0,1,51.706,5.335c11.263,5.343,19.283,14.628,28.756,22.449a283.876,283.876,0,0,0,33.146,23.646c15.927,9.714,32.233,18.878,42.412,35.193,16.245,26,2.547,54.312-15.265,75.48Z" opacity="0.1"/>
    <path id="Tracé_171" data-name="Tracé 171" d="M269.773,306.394a166.359,166.359,0,0,0,15.118,11.186c10.231.688,5.645,13.053,5.645,13.053l-8.76,5.636s-15-11.917-23.189-15.781,11.186-14.094,11.186-14.094Z" fill="#fff"/>
    <path id="Tracé_172" data-name="Tracé 172" d="M197.072,176.205s-1.4-13.879-3.64-17.777l-33.971-6.918v-2.633s.783-4.578-6.789-7.443-23.353.86-27.423,3.941-2.582,8.381-2.582,8.381-13.681,6.909-19.825,9.542a157.036,157.036,0,0,0-14.688,7.745s-2.788,31.906-2.237,39.314-.448,14.379.19,18.483,1.135,6.436,5.437,9.93,8.218,8.6,19.5,3.536l-1.574-1.247,74.258-25.014,13.346-39.84Z" opacity="0.3"/>
    <path id="Tracé_173" data-name="Tracé 173" d="M197.072,176.205s-1.4-13.879-3.64-17.777l-33.971-6.918v-2.633s.783-4.578-6.789-7.443-23.353.86-27.423,3.941-2.582,8.381-2.582,8.381-13.681,6.909-19.825,9.542a157.036,157.036,0,0,0-14.688,7.745s-2.788,31.906-2.237,39.314-.448,14.379.19,18.483,1.135,6.436,5.437,9.93,8.218,8.6,19.5,3.536l-1.574-1.247,74.258-25.014,13.346-39.84Z" fill="#6449d1"/>
    <path id="Tracé_174" data-name="Tracé 174" d="M197.072,176.205s-1.4-13.879-3.64-17.777l-33.971-6.918v-2.633s.783-4.578-6.789-7.443-23.353.86-27.423,3.941-2.582,8.381-2.582,8.381-13.681,6.909-19.825,9.542a157.036,157.036,0,0,0-14.688,7.745s-2.788,31.906-2.237,39.314-.448,14.379.19,18.483,1.135,6.436,5.437,9.93,8.218,8.6,19.5,3.536l-1.574-1.247,74.258-25.014,13.346-39.84Z" opacity="0.05"/>
    <path id="Tracé_175" data-name="Tracé 175" d="M193.88,160.115H179.665a5.65,5.65,0,0,0-5.567,4.724L167.093,207s-9.645.8-16.478,5.783-23.637-30.564-50.19-30.581c0,0,7.64,17.467,9.336,31.407,0,0-16.6-1.807-19.352,4.689s1.247,18.672,8.269,13.957,13.63-12.58,18.319-7.606,25.642,7.649,25.642,7.649l32.242-16.254,12.5-5.877Z" opacity="0.1"/>
    <path id="Tracé_176" data-name="Tracé 176" d="M148.748,139.214s8.071,2.237,9.379,4.948,1.171,9.568,1.171,9.568a33.132,33.132,0,0,1-8.683,11.943l-6.023-11.943.542,13.544s-11.427-1.9-16.28-5.55l-4.844-3.657s-2.091-6.884-1.79-9.216,9.018-7.064,9.018-7.064Z" fill="#fff" opacity="0.4"/>
    <path id="Tracé_177" data-name="Tracé 177" d="M283.187,348.057c-.224-.49,3.313-6.737.542-13.1s-7.185-3.906-7.185-3.906-12.571-8-17.854-10.532A90.02,90.02,0,0,1,247.719,314l-5.585,7.521,5.163,15.97Z" fill="#6449d1"/>
    <path id="Tracé_178" data-name="Tracé 178" d="M276.088,330.668l16.143,9.86s11.349-7.279,16.762-12.3,17.57-15.729,17.57-15.729l7.744-10.421s-5.369-6.643-14.318-1.308c-11.564,6.884-25.667,16.883-35.072,16.788,0,0,1.85,11.556-8.768,13.114" fill="#6449d1"/>
    <path id="Tracé_179" data-name="Tracé 179" d="M146.012,97.5s7.322,11.082,8.656,14.67,2.409,8.9,2.142,11.453-2.951,16.246-4.3,16.642l-1.3,1.471.86,5.8s-5.73,9.9-22.578,2.641c0,0-.654-11.564-2.7-15.2s-5.111.689-8.183-9.8,6.711-21.512,6.711-21.512l20.695-6.17Z" fill="#fff"/>
    <path id="Tracé_180" data-name="Tracé 180" d="M327.277,298.839s-8.3,1.445-11,6.359-7.865,14.042-9.629,18.457S290.3,338.73,290.3,338.73l1.936,1.8s11.875-7.339,19.042-14.318,22.975-24.532,22.975-24.532S333.12,300.551,327.277,298.839Zm-83.086,19.92-2.057,2.762,6.316,13.1L283.187,347.1l1.609-5.085s.534-5.163-11.659-9.087-19.627-6.513-23.095-9.207-5.851-4.964-5.851-4.964Z" fill="#fff" opacity="0.5"/>
    <path id="Tracé_181" data-name="Tracé 181" d="M129.517,221.492s-10.635-1.6-15.6,7.1-4.458,12.469-4.458,12.469,7.03,6.384,16.693,6.023,23.732-11.427,28.318-15.033,16.151-13.922,24.042-11.788l.86-7.46s-.774-3.347-7.52-2.444-9.4,4.75-11.573,4.75-4.234-2.091-8.605,5.378c-.009,0-15.351,2.719-22.157,1.007Z" fill="#fff"/>
    <path id="Tracé_182" data-name="Tracé 182" d="M143.336,113.435a30.65,30.65,0,0,0,.964,4.121,4.791,4.791,0,0,0,.86,1.816,5.569,5.569,0,0,0,3.313,1.265.9.9,0,0,1,.533.223.855.855,0,0,1,.129.517,6.882,6.882,0,0,1-1.17,3.8" fill="none" stroke="#263238" stroke-linecap="round" stroke-linejoin="round" stroke-width="1"/>
    <path id="Tracé_183" data-name="Tracé 183" d="M251.324,309.836l-7.133,8.888s7.83,7.237,15.936,9.921,22.294,7.745,24.669,11.643l-.912-4.638s-22.191-13.613-27.285-16.865a11.763,11.763,0,0,1-5.275-8.949Z" opacity="0.1"/>
    <path id="Tracé_184" data-name="Tracé 184" d="M276.088,330.667,290.3,338.73s7.012-4.8,10.454-8.338,7.684-7.46,10.326-15.385c3.6-10.954,13.931-16.168,13.931-16.168s-14.361,6.763-21.839,12.046-14.765,7.521-19,7.159c-.043.026,3.356,10.782-8.08,12.623Z" opacity="0.1"/>
    <path id="Tracé_185" data-name="Tracé 185" d="M138.328,127.133s5.584,4.38,11.384,2.736c0,0-5.473,10.842-11.384-2.736Z" fill="#fff" stroke="#263238" stroke-linecap="round" stroke-linejoin="round" stroke-width="1"/>
    <path id="Tracé_186" data-name="Tracé 186" d="M138.121,117.668c.164,1.205-.206,2.246-.808,2.332s-1.231-.861-1.394-2.04.2-2.245.809-2.331,1.264.834,1.393,2.039Zm12.159-2.194c.155,1.213-.207,2.254-.809,2.332s-1.239-.861-1.394-2.031.2-2.254.809-2.332S150.116,114.269,150.28,115.474Z" fill="#263238"/>
    <path id="Tracé_187" data-name="Tracé 187" d="M126.213,123.631s-2.091-3.089-4.3-2.995-3.089,3.193-2.3,6.187S123.7,134,126.195,133.6a5.545,5.545,0,0,0,3.589-2m7.477-19.05s-3.253-1.678-5.567,1.919Zm8.338-2.237s3.441-2.952,5.429,0Z" fill="none" stroke="#263238" stroke-linecap="round" stroke-linejoin="round" stroke-width="1"/>
    <path id="Tracé_188" data-name="Tracé 188" d="M126.212,133.6C100.5,119.5,140.5,91,145,92c1.049,2.444,9.037,16.53,10,19,1.024,2.641,1.673,8.983,1.759,11.865a35.1,35.1,0,0,1-1.041,7.908,43.7,43.7,0,0,1-1.592,6.617,11.71,11.71,0,0,1-6.178,6.453c-2.091,1.067-5.576,2.582-7.839,1.153-1.317-.86-5.466-.233-7.109-2.5Zm0,0s3.7,9.069,2.806,15.445" fill="none" stroke="#263238" stroke-linecap="round" stroke-linejoin="round" stroke-width="1"/>
    <path id="Tracé_189" data-name="Tracé 189" d="M125.266,122.108a3.556,3.556,0,0,0,1.429-3.192c-.138-1.394-1.1-2.685-.913-4.079a7.559,7.559,0,0,1,.74-1.91,8.012,8.012,0,0,0-.447-7.245s11.754.55,17.261-2.952,9.706-12.46,6.376-16.736-9.818,1.558-14.628,2.2-21.916,3.373-24.644,9.964,1.429,8.958,1.558,15.248.129,18.207,9.534,17.114c0,0-3.52-4.552-1.076-9.241,1.661-1.971,4.81.826,4.81.826Z" fill="#263238"/>
    <path id="Tracé_190" data-name="Tracé 190" d="M148.318,93.429a14.748,14.748,0,0,1,5.627,10.325c.525,4.716,8.889,13.88,2.857,19.1,0,0-1.4-5.55-2.229-8.287s-1.884-7.744-3.269-9.465-8.734-7.744-8.734-7.744l5.748-3.932Z" fill="#263238"/>
    <path id="Tracé_191" data-name="Tracé 191" d="M127.3,148.851s5.8,3.821,16.572,3.976l1.265,14.447s-12.115-.921-21.124-9.207c0,0-2.435-6.445-1.79-9.216s6.436-5.515,6.436-5.515" fill="none" stroke="#263238" stroke-linecap="round" stroke-linejoin="round" stroke-width="1"/>
    <path id="Tracé_192" data-name="Tracé 192" d="M151.665,142.389l.344,5.163a21.371,21.371,0,0,1-8.14,5.292l6.746,12.846s8.046-6.264,8.846-12.846c0,0,.069-6.738-1.334-8.665s-6.514-2.831-6.514-2.831" fill="none" stroke="#263238" stroke-linecap="round" stroke-linejoin="round" stroke-width="1"/>
    <path id="Tracé_193" data-name="Tracé 193" d="M119.019,102.464c.861-2.16,3.218-3.442,5.516-3.786a56.928,56.928,0,0,1,6.978-.164,17.915,17.915,0,0,0,9.121-2.581,12.2,12.2,0,0,0,5.507-7.538" fill="none" stroke="#fff" stroke-linecap="round" stroke-linejoin="round" stroke-width="1" opacity="0.8"/>
    <path id="Tracé_194" data-name="Tracé 194" d="M113.469,102.042c1.454-4.414,6.17-7.142,10.808-7.53,2.3-.2,4.62.07,6.883-.2s4.673-1.213,5.869-3.184" fill="none" stroke="#fff" stroke-linecap="round" stroke-linejoin="round" stroke-width="1" opacity="0.8"/>
    <path id="Tracé_195" data-name="Tracé 195" d="M111.025,242.306c-11.186,5.8-15.161-.172-21.391-5.111s-2.143-13.767-3.442-27.922,1.936-38.23,1.936-38.23,2.788-.637,10.524-5.37,24.015-11.943,24.015-11.943" fill="none" stroke="#263238" stroke-linecap="round" stroke-linejoin="round" stroke-width="1"/>
    <path id="Tracé_196" data-name="Tracé 196" d="M159.461,151.51s16.521,3.941,24.592,4.879,9.379,2.065,9.379,2.065l1.506,5.627m-72.83,56.8s-1.773-5.619-6.781-5.765-12.907,2.108-18.534,12.752Zm-7.925-6.1a2.761,2.761,0,0,1-.9-.215,21.772,21.772,0,0,0-12.856-.585ZM97.542,178.727c9.112,10.067,13.552,23.387,17.76,36.294Z" fill="none" stroke="#263238" stroke-linecap="round" stroke-linejoin="round" stroke-width="1"/>
    <path id="Tracé_197" data-name="Tracé 197" d="M236.447,161.3l-56.266,2.16-4.6,57.866h9.637l48.857-10.936,6.144-47.705-3.777-1.385Z" fill="#fff"/>
    <path id="Tracé_198" data-name="Tracé 198" d="M178.512,223.041l61.54-58.985-5.971,46.336Z" fill="#6449d1"/>
    <path id="Tracé_199" data-name="Tracé 199" d="M178.512,223.041l61.54-58.985-5.971,46.336Z" fill="#fff" opacity="0.7"/>
    <path id="Tracé_200" data-name="Tracé 200" d="M178.512,221.492l4.922-55.819,56.79-2.985-6.143,47.7Z" fill="none" stroke="#263238" stroke-linecap="round" stroke-linejoin="round" stroke-width="1"/>
    <path id="Tracé_201" data-name="Tracé 201" d="M216.286,189.732c-.378,3.4-2.194,5.98-4.053,5.773s-3.046-3.14-2.667-6.539,2.2-5.98,4.061-5.774S216.673,186.333,216.286,189.732Zm17.794,20.66s26-.74,34.135,4.629,12.907,32.293,11.78,46.594-10.937,47.119-10.937,47.119l-18.792-21.27s-9.259-33.662-4.208-46.844c0,0-24.954,1.4-34.78-1.678,0,0-8.8-14.413-23.9-19.18l46.7-9.37Z" fill="#263238"/>
    <path id="Tracé_202" data-name="Tracé 202" d="M273.025,309.293a128.88,128.88,0,0,1-17.881-20.651,170.135,170.135,0,0,0-34.6-38.058c-10.42-8.45-12.778-22.217-25.633-29.127-21.3-11.418-39.711,11.272-46.594,15.867s-18.8,9.8-18.8,9.8,4.354,16.349,17.14,18.285,25.719-6.884,31.837-2.625,10.644,23.276,30.848,34.419c16.512,9.1,39.013,17.984,50.621,23.972,2.582,1.343,4.509,2.754,5.972,3.554,4.01,2.186,8.3,4.759,12.339,7.306L292.2,340.52s13.982-8.269,19.352-15.893c.714-1.024,2.2-3.752,3.6-6.385,3.038-5.756,6.884-10.919,12.21-13.767,3.683-1.988,6.961-2.582,6.884-2.788-.353-.654-7.03-4.07-11.565-2.2-9.6,3.967-28.8,19.206-37.86,18.07a67.766,67.766,0,0,1-11.8-8.261Z" fill="none" stroke="#263238" stroke-miterlimit="10" stroke-width="1"/>
    <path id="Tracé_203" data-name="Tracé 203" d="M273.025,309.294c-8.372,3.381-11.745,8.6-13.036,11.891-11.608-6.023-34.109-14.869-50.621-23.972-20.2-11.186-24.7-30.168-30.848-34.419s-19.094,4.6-31.837,2.624-17.166-18.3-17.166-18.3,11.926-5.162,18.809-9.757,22.76-27.294,46.586-15.867c13.156,6.307,15.213,20.651,25.633,29.126a170.052,170.052,0,0,1,34.6,38.059,126.518,126.518,0,0,0,17.88,20.617Z" fill="#263238"/>
    <path id="Tracé_204" data-name="Tracé 204" d="M210.108,236.343s-6.445-13.1-16.779-15.634" fill="none" stroke="#fff" stroke-linecap="round" stroke-linejoin="round" stroke-width="1"/>
    <path id="Tracé_205" data-name="Tracé 205" d="M176.326,210.271c-7.107-1.549-14.912,6.307-18.2,4.836-2.444-1.093-6.462,5.378-6.462,5.378a107.68,107.68,0,0,1-19.98,1.007c-9.577-.611-14.112,1.256-17.5,6.376L109.451,240.4s12.485,11.186,25.814,4.672,31.037-26.167,43.238-26.1" fill="none" stroke="#263238" stroke-linecap="round" stroke-linejoin="round" stroke-width="1"/>
    <path id="Tracé_206" data-name="Tracé 206" d="M275.546,330.332s11.668.955,8.932-12.984" fill="none" stroke="#263238" stroke-miterlimit="10" stroke-width="1"/>
    <path id="Tracé_207" data-name="Tracé 207" d="M330.53,308.734c-.861,1.721-11.556,10.825-20.772,18.784,0-.12,2.582-4.982,3.649-7.056,2.452-4.577,8.785-17.131,20.84-18.784C335.959,302.711,330.53,308.734,330.53,308.734Z" fill="#263238"/>
    <path id="Tracé_208" data-name="Tracé 208" d="M283.729,335.357c1.988,3.631,1.05,7.847,0,10.489a21.89,21.89,0,0,1-1.91,3.76c-17.261-2.839-34.522-12.115-34.522-12.115l-4.449-13.768-.714-2.2,6.7-9.027m77.107-13.56C313.751,301.36,310.98,317,306.652,323.655s-16.349,15.7-16.349,15.7Z" fill="none" stroke="#263238" stroke-miterlimit="10" stroke-width="1"/>
    <path id="Tracé_209" data-name="Tracé 209" d="M283.729,345.846a21.89,21.89,0,0,1-1.91,3.76c-17.261-2.839-34.522-12.115-34.522-12.115l-4.448-13.767a24.607,24.607,0,0,0,12.554,8.914C263.81,335.022,279.324,337.809,283.729,345.846Z" fill="#263238"/>
    <path id="Tracé_210" data-name="Tracé 210" d="M175.586,219.315l4.6-55.853,56.266-2.16,3.777,1.385" fill="none" stroke="#263238" stroke-linecap="round" stroke-linejoin="round" stroke-width="1"/>
    <path id="Tracé_211" data-name="Tracé 211" d="M284.4,323.655s7.693,1.376,13.6-3.442,15.437-15.721,15.437-15.721" fill="none" stroke="#263238" stroke-miterlimit="10" stroke-width="1"/>
    <path id="Tracé_212" data-name="Tracé 212" d="M304.191,310.274s-1.557,4.673,0,8.794m-11.96-2.349s-1.859,2.8,0,8.407Zm5.455-2.676a11.45,11.45,0,0,0,.7,8.407Z" fill="none" stroke="#263238" stroke-linecap="round" stroke-linejoin="round" stroke-width="1"/>
    <path id="Tracé_213" data-name="Tracé 213" d="M250.36,311.333l-6.169,7.426a39.035,39.035,0,0,0,14.981,9.611c8.768,2.822,24.428,7.615,25.728,12.718" fill="none" stroke="#263238" stroke-miterlimit="10" stroke-width="1"/>
  </g>
</svg>
