<svg xmlns="http://www.w3.org/2000/svg" xmlns:xlink="http://www.w3.org/1999/xlink" width="108" height="20.486" viewBox="0 0 108 20.486">
  <defs>
    <clipPath id="clip-path">
      <rect id="Rectangle_1" data-name="Rectangle 1" width="108" height="20.486" fill="#fff"/>
    </clipPath>
  </defs>
  <g id="Groupe_2" data-name="Groupe 2" clip-path="url(#clip-path)">
    <path id="Tracé_144" data-name="Tracé 144" d="M6.613,4.313V17c0,1.168.359,1.779,1.887,1.779h1.833a3.623,3.623,0,0,0,3.774-2.336l.665-1.474,1.078.306-.809,4.834H.144V19.03c2.66-.557,2.749-.665,2.749-1.689V4.241c0-1.078-.162-1.114-2.749-1.635V1.527H9.47V2.606C6.757,3.145,6.613,3.2,6.613,4.313Zm20.9,5.607c0,1.725-.97,3.666-7.44,3.971.162,2.66,1.528,4.385,3.774,4.385A4.93,4.93,0,0,0,27.261,16.8l.611.719a6.528,6.528,0,0,1-5.355,2.965c-3.612,0-6.218-2.606-6.218-6.631a6.984,6.984,0,0,1,6.882-7.026C26.291,6.7,27.512,8.59,27.512,9.919ZM23.02,7.835c-2.031,0-2.911,2.192-3,4.942,4.439-.665,4.582-2.336,4.582-3.306A1.529,1.529,0,0,0,23.02,7.835ZM33.065,20.414c-3.217,0-4.439-1.276-4.439-2.66a1.868,1.868,0,0,1,2.336-1.689l.359.413c-.809,1.42-.2,2.75,1.887,2.75,1.33,0,2.3-.719,2.3-1.833,0-1.276-1.078-1.833-2.749-2.5-2.336-.97-3.774-2.031-3.774-4.223,0-2.138,1.887-3.971,4.8-3.971,3.055,0,4.439,1.474,4.439,2.7a1.8,1.8,0,0,1-2.444,1.635l-.306-.467c.97-1.276.467-2.8-1.635-2.8A1.9,1.9,0,0,0,31.753,9.6c0,1.222,1.33,1.833,2.8,2.336,2.336.809,4.223,1.887,4.223,4.277C38.834,18.743,37.09,20.414,33.065,20.414ZM41.637,1.563H56.516l.162,4.888H55.653l-.5-1.527c-.5-1.527-1.581-1.995-3.163-1.995H48.106V9.866h3.828c.809,0,.863-.162,1.42-2.552h1.078V14H53.353c-.557-2.3-.611-2.66-1.42-2.66H48.106V17c0,1.168.359,1.779,1.887,1.779h1.833A3.623,3.623,0,0,0,55.6,16.443l.665-1.474,1.078.306-.863,4.834H41.655V19.084c2.66-.557,2.749-.665,2.749-1.689V4.241c0-1.078-.162-1.114-2.749-1.635V1.563ZM68.862,16.8l.611.719a6.478,6.478,0,0,1-5.355,2.911c-3.612,0-6.218-2.606-6.218-6.631a6.787,6.787,0,0,1,6.685-7.026c2.965,0,4.331,1.635,4.331,2.911,0,1.078-.665,2.138-2.606,1.833l-.305-.5c.5-1.222.719-3.163-1.384-3.163-2.138,0-3,2.444-3,5.463,0,2.965,1.384,5,3.774,5A5.542,5.542,0,0,0,68.862,16.8Zm9.722,1.779V11.393c0-1.527-.557-2.192-1.635-2.192-1.689,0-3.109,2.66-3.109,6.577v4.277H70.317V2.713c0-1.024-.108-1.078-1.779-1.635V0H74c-.162,1.114-.162,9.83-.162,10.4h.054c.917-2.192,2.5-3.72,4.744-3.72,1.995,0,3.414,1.384,3.414,4.025v6.523c0,1.222.2,1.33,2.031,1.779V20.09c-1.581.162-2.857.252-3.612.252A1.562,1.562,0,0,1,78.583,18.581Zm11.932.719c2.336,0,2.965-2.749,2.965-5.553,0-3.055-.413-5.912-2.965-5.912-2.336,0-2.965,2.749-2.965,5.553C87.514,16.389,88.018,19.3,90.515,19.3Zm-.306,1.114A6.093,6.093,0,0,1,83.795,14c0-4.385,2.749-7.3,6.99-7.3A6.065,6.065,0,0,1,97.2,13.118C97.2,17.521,94.487,20.414,90.21,20.414Zm12.076,0c-3.217,0-4.439-1.276-4.439-2.66a1.868,1.868,0,0,1,2.336-1.689l.36.413c-.809,1.42-.2,2.75,1.887,2.75,1.329,0,2.3-.719,2.3-1.833,0-1.276-1.078-1.833-2.75-2.5-2.336-.97-3.773-2.031-3.773-4.223,0-2.138,1.886-3.971,4.744-3.971,3.055,0,4.438,1.474,4.438,2.7a1.8,1.8,0,0,1-2.444,1.635l-.305-.467c.97-1.276.5-2.8-1.635-2.8A1.9,1.9,0,0,0,100.92,9.6c0,1.222,1.276,1.833,2.8,2.336,2.337.809,4.223,1.887,4.223,4.277C108.054,18.743,106.329,20.414,102.286,20.414Z"/>
  </g>
</svg>
