<svg xmlns="http://www.w3.org/2000/svg" width="31.5" height="28.5" viewBox="0 0 31.5 28.5">
  <g id="Groupe_5" data-name="Groupe 5" transform="translate(-0.25 -2.351)">
    <path id="Tracé_114" data-name="Tracé 114" d="M4,6.6a.5.5,0,1,0-.5-.5A.5.5,0,0,0,4,6.6Z" fill="none" stroke="#6449d1" stroke-linecap="round" stroke-linejoin="round" stroke-width="1.5"/>
    <path id="Tracé_115" data-name="Tracé 115" d="M7.5,6.6A.5.5,0,1,0,7,6.1.5.5,0,0,0,7.5,6.6Z" fill="none" stroke="#6449d1" stroke-linecap="round" stroke-linejoin="round" stroke-width="1.5"/>
    <path id="Tracé_116" data-name="Tracé 116" d="M11,6.6a.5.5,0,1,0-.5-.5A.5.5,0,0,0,11,6.6Z" fill="none" stroke="#6449d1" stroke-linecap="round" stroke-linejoin="round" stroke-width="1.5"/>
    <path id="Tracé_117" data-name="Tracé 117" d="M1,9.1v16H17M1,3.1H27v6H1ZM27,14.6v0Z" fill="none" stroke="#6449d1" stroke-linecap="round" stroke-linejoin="round" stroke-width="1.5"/>
    <path id="Tracé_118" data-name="Tracé 118" d="M17.1,24.451l3.5,3.5M27.5,14.1,17.1,24.451,14.9,30.1l5.7-2.15L31,17.6Z" fill="none" stroke="#6449d1" stroke-linecap="round" stroke-linejoin="round" stroke-width="1.5"/>
  </g>
</svg>
