<svg xmlns="http://www.w3.org/2000/svg" width="32.438" height="24.188" viewBox="0 0 32.438 24.188">
  <g id="Groupe_9" data-name="Groupe 9" transform="translate(-0.281 -4.406)">
    <path id="Tracé_218" data-name="Tracé 218" d="M12.375,17.531h8.25M8.25,24.75v2.063a1.031,1.031,0,0,1-1.031,1.031H3.094a1.031,1.031,0,0,1-1.031-1.031V24.647Zm22.688-.1v2.166a1.031,1.031,0,0,1-1.031,1.031H25.781a1.031,1.031,0,0,1-1.031-1.031V24.75Z" fill="none" stroke="#6449d1" stroke-linecap="round" stroke-linejoin="round" stroke-width="1.5"/>
    <path id="Tracé_219" data-name="Tracé 219" d="M27.844,11.344h4.125m-4.125,0L23.719,5.156H9.281L5.156,11.344,1.031,15.469V23.2A1.547,1.547,0,0,0,2.578,24.75H30.422A1.547,1.547,0,0,0,31.969,23.2V15.469ZM4.228,12.375h0Zm-3.2,8.25h0Zm0-9.281h0Z" fill="none" stroke="#6449d1" stroke-linecap="round" stroke-linejoin="round" stroke-width="1.5"/>
    <path id="Tracé_220" data-name="Tracé 220" d="M1.031,16.5H6.188l4.125,4.125M31.969,16.5H26.813l-4.125,4.125" fill="none" stroke="#6449d1" stroke-linecap="round" stroke-linejoin="round" stroke-width="1.5"/>
  </g>
</svg>
