<svg xmlns="http://www.w3.org/2000/svg" xmlns:xlink="http://www.w3.org/1999/xlink" width="32" height="32" viewBox="0 0 32 32">
  <defs>
    <clipPath id="clip-path">
      <rect id="Rectangle_5" data-name="Rectangle 5" width="32" height="32" transform="translate(0 0.374)" fill="#fff"/>
    </clipPath>
  </defs>
  <g id="Groupe_12" data-name="Groupe 12" transform="translate(0 -0.374)" clip-path="url(#clip-path)">
    <path id="Tracé_227" data-name="Tracé 227" d="M19,9.374s9,7,9,17a5,5,0,0,1-5,5H9a5,5,0,0,1-5-5c0-10,9-17,9-17s-6-5.2-6-7,4,1,6,1c2.85,0,3.15-2,5-2s2.05,2.05,5,2.05C24.1,3.424,22,6.424,19,9.374Z" fill="none" stroke="#6449d1" stroke-linecap="round" stroke-linejoin="round" stroke-miterlimit="10" stroke-width="1.5"/>
    <path id="Tracé_228" data-name="Tracé 228" d="M25,11.374a3.25,3.25,0,0,1,3,1.5m-15-3.5h6.5a9.6,9.6,0,0,0,6.5-2Z" fill="none" stroke="#6449d1" stroke-linecap="round" stroke-linejoin="round" stroke-miterlimit="10" stroke-width="1.5"/>
    <path id="Tracé_229" data-name="Tracé 229" d="M19,14.374h-.85a6.7,6.7,0,0,0-6.65,6.5,6.683,6.683,0,0,0,6.65,6.5H19m-9-8h0Zm0,3h0Z" fill="none" stroke="#6449d1" stroke-linecap="round" stroke-linejoin="round" stroke-miterlimit="10" stroke-width="1.5"/>
  </g>
</svg>
