<svg xmlns="http://www.w3.org/2000/svg" width="31.5" height="30.5" viewBox="0 0 31.5 30.5">
  <g id="Groupe_8" data-name="Groupe 8" transform="translate(-0.25 -0.75)">
    <path id="Tracé_214" data-name="Tracé 214" d="M26,27.6c-1,0-7.45,2.9-11,2.9-2.1,0-3.95-1.1-8-3-1.9-.9-6-3.3-6-5s5.45.55,10.05,2M26,18.5h5v11H26Z" fill="none" stroke="#6449d1" stroke-linecap="round" stroke-linejoin="round" stroke-miterlimit="10" stroke-width="1.5"/>
    <path id="Tracé_215" data-name="Tracé 215" d="M17.05,9.5a4,4,0,1,0-4-4A4,4,0,0,0,17.05,9.5Z" fill="none" stroke="#6449d1" stroke-linecap="round" stroke-linejoin="round" stroke-miterlimit="10" stroke-width="1.5"/>
    <path id="Tracé_216" data-name="Tracé 216" d="M10,18.5a4,4,0,1,0-4-4A4,4,0,0,0,10,18.5Z" fill="none" stroke="#6449d1" stroke-linecap="round" stroke-linejoin="round" stroke-miterlimit="10" stroke-width="1.5"/>
    <path id="Tracé_217" data-name="Tracé 217" d="M18.05,26.5h-5a2,2,0,0,1,0-4h2c6,0,4-3,11-3" fill="none" stroke="#6449d1" stroke-linecap="round" stroke-linejoin="round" stroke-miterlimit="10" stroke-width="1.5"/>
  </g>
</svg>
