<svg xmlns="http://www.w3.org/2000/svg" width="365.982" height="317.275" viewBox="0 0 365.982 317.275">
  <g id="Groupe_321" data-name="Groupe 321" transform="translate(-1.006 -0.631)">
    <path id="Tracé_12201" data-name="Tracé 12201" d="M13.658,131.038s-5.6,48.418,32.431,82.39,84.769,28.491,124.48,36.484c20.8,4.2,37.29,19.516,56.624,27.945,61.826,26.944,128.382-25.5,131.8-79.022,3-46.34-19.8-87.244-69.739-127.49S205.568,1.026,136.214.633,23.813,69.3,13.658,131.038Z" fill="#6449d1"/>
    <path id="Tracé_12202" data-name="Tracé 12202" d="M13.658,131.038s-5.6,48.418,32.431,82.39,84.769,28.491,124.48,36.484c20.8,4.2,37.29,19.516,56.624,27.945,61.826,26.944,128.382-25.5,131.8-79.022,3-46.34-19.8-87.244-69.739-127.49S205.568,1.026,136.214.633,23.813,69.3,13.658,131.038Z" fill="#fff" opacity="0.8"/>
    <path id="Tracé_12203" data-name="Tracé 12203" d="M143.332,119.823c-4.277-2.325-6.2-.385-7.751-2.325s4.278-6.967-7.357-11.968c0,0-.778-10.84-16.656-11.224s-11.626,10.839-15.886,13.515-5.424-1.547-9.684,1.162-2.318,8.13-5.809,8.908-8.136-3.488-12.4-.778-4.277,5.035-6.194,5.035-5.809-1.547-8.136,0-5,3.513-5,3.513h97.97S147.592,122.148,143.332,119.823Z" fill="none" stroke="#1d1d1d" stroke-miterlimit="10" stroke-width="1.101" opacity="0.8"/>
    <path id="Tracé_12204" data-name="Tracé 12204" d="M74.124,104.222c-1.882-1.034-2.738-.18-3.422-1.034s1.882-3.078-3.259-5.309c0,0-.342-4.8-7.366-4.967s-5.133,4.8-7.032,5.984-2.4-.684-4.277.521-1.027,3.59-2.566,3.932-3.6-1.539-5.484-.342-1.891,2.231-2.746,2.231-2.566-.684-3.6,0-2.224,1.539-2.224,1.539H75.51A2.2,2.2,0,0,0,74.124,104.222Z" fill="none" stroke="#1d1d1d" stroke-miterlimit="10" stroke-width="1.101" opacity="0.8"/>
    <path id="Tracé_12205" data-name="Tracé 12205" d="M219.393,37.331c-1.882-1.026-2.747-.171-3.422-1.026s1.89-3.086-3.251-5.317c0,0-.351-4.787-7.374-4.967s-5.133,4.8-7.024,5.984-2.4-.684-4.277.513-1.035,3.6-2.567,3.941-3.6-1.547-5.483-.342-1.882,2.223-2.746,2.223-2.567-.684-3.593,0-2.233,1.539-2.233,1.539h43.364A2.235,2.235,0,0,0,219.393,37.331Z" fill="none" stroke="#1d1d1d" stroke-miterlimit="10" stroke-width="1.101" opacity="0.8"/>
    <path id="Tracé_12206" data-name="Tracé 12206" d="M19.228,254.314H346.243" fill="none" stroke="#1d1d1d" stroke-miterlimit="10" stroke-width="1.101"/>
    <path id="Tracé_12207" data-name="Tracé 12207" d="M346.243,214.829H321.212V203.255H308.294V180.79H289.722V89.553h-17.76v55.154H255.81V124.96h-21.8v51.06h-8.88v16.344H204.14v-6.129H210.6v-3.4H183.95v4.086h3.234v17.695h-13.73V171.258H158.919v23.825H124.195v-17.7H111.277v19.747H83.825V161.043h-11.3v-12.25H52.335v55.821H32.146v12.259H19.228" fill="none" stroke="#1d1d1d" stroke-miterlimit="10" stroke-width="1.101"/>
    <path id="Tracé_12208" data-name="Tracé 12208" d="M60.265,160.881H55.9v4.359h4.363Z" fill="#1d1d1d"/>
    <path id="Tracé_12209" data-name="Tracé 12209" d="M69.359,160.881H65v4.359h4.363Z" fill="#1d1d1d"/>
    <path id="Tracé_12210" data-name="Tracé 12210" d="M60.265,169.968H55.9v4.359h4.363Z" fill="#1d1d1d"/>
    <path id="Tracé_12211" data-name="Tracé 12211" d="M69.359,169.968H65v4.359h4.363Z" fill="#1d1d1d"/>
    <path id="Tracé_12212" data-name="Tracé 12212" d="M79.189,169.968H74.826v4.359h4.363Z" fill="#1d1d1d"/>
    <path id="Tracé_12213" data-name="Tracé 12213" d="M79.189,179.063H74.826v4.36h4.363Z" fill="#1d1d1d"/>
    <path id="Tracé_12214" data-name="Tracé 12214" d="M79.189,188.15H74.826v4.36h4.363Z" fill="#1d1d1d"/>
    <path id="Tracé_12215" data-name="Tracé 12215" d="M79.189,197.237H74.826v4.36h4.363Z" fill="#1d1d1d"/>
    <path id="Tracé_12216" data-name="Tracé 12216" d="M79.189,206.324H74.826v4.36h4.363Z" fill="#1d1d1d"/>
    <path id="Tracé_12217" data-name="Tracé 12217" d="M79.189,215.419H74.826v4.36h4.363Z" fill="#1d1d1d"/>
    <path id="Tracé_12218" data-name="Tracé 12218" d="M60.265,179.063H55.9v4.36h4.363Z" fill="#1d1d1d"/>
    <path id="Tracé_12219" data-name="Tracé 12219" d="M69.359,179.063H65v4.36h4.363Z" fill="#1d1d1d"/>
    <path id="Tracé_12220" data-name="Tracé 12220" d="M60.265,188.15H55.9v4.36h4.363Z" fill="#1d1d1d"/>
    <path id="Tracé_12221" data-name="Tracé 12221" d="M69.359,188.15H65v4.36h4.363Z" fill="#1d1d1d"/>
    <path id="Tracé_12222" data-name="Tracé 12222" d="M60.265,197.237H55.9v4.36h4.363Z" fill="#1d1d1d"/>
    <path id="Tracé_12223" data-name="Tracé 12223" d="M69.359,197.237H65v4.36h4.363Z" fill="#1d1d1d"/>
    <path id="Tracé_12224" data-name="Tracé 12224" d="M60.265,206.324H55.9v4.36h4.363Z" fill="#1d1d1d"/>
    <path id="Tracé_12225" data-name="Tracé 12225" d="M40.256,211.419H35.893v4.359h4.363Z" fill="#1d1d1d"/>
    <path id="Tracé_12226" data-name="Tracé 12226" d="M103.2,201.6H98.839v4.359H103.2Z" fill="#1d1d1d"/>
    <path id="Tracé_12227" data-name="Tracé 12227" d="M111.927,201.6h-4.363v4.359h4.363Z" fill="#1d1d1d"/>
    <path id="Tracé_12228" data-name="Tracé 12228" d="M279.225,94.707h-4.363v4.36h4.363Z" fill="#1d1d1d"/>
    <path id="Tracé_12229" data-name="Tracé 12229" d="M284.683,94.707H280.32v4.36h4.363Z" fill="#1d1d1d"/>
    <path id="Tracé_12230" data-name="Tracé 12230" d="M279.225,103.8h-4.363v4.36h4.363Z" fill="#1d1d1d"/>
    <path id="Tracé_12231" data-name="Tracé 12231" d="M284.683,103.8H280.32v4.36h4.363Z" fill="#1d1d1d"/>
    <path id="Tracé_12232" data-name="Tracé 12232" d="M279.225,112.89h-4.363v4.36h4.363Z" fill="#1d1d1d"/>
    <path id="Tracé_12233" data-name="Tracé 12233" d="M284.683,112.89H280.32v4.36h4.363Z" fill="#1d1d1d"/>
    <path id="Tracé_12234" data-name="Tracé 12234" d="M279.225,121.977h-4.363v4.36h4.363Z" fill="#1d1d1d"/>
    <path id="Tracé_12235" data-name="Tracé 12235" d="M284.683,121.977H280.32v4.36h4.363Z" fill="#1d1d1d"/>
    <path id="Tracé_12236" data-name="Tracé 12236" d="M279.225,131.064h-4.363v4.36h4.363Z" fill="#1d1d1d"/>
    <path id="Tracé_12237" data-name="Tracé 12237" d="M284.683,131.064H280.32v4.36h4.363Z" fill="#1d1d1d"/>
    <path id="Tracé_12238" data-name="Tracé 12238" d="M279.225,140.159h-4.363v4.36h4.363Z" fill="#1d1d1d"/>
    <path id="Tracé_12239" data-name="Tracé 12239" d="M284.683,140.159H280.32v4.36h4.363Z" fill="#1d1d1d"/>
    <path id="Tracé_12240" data-name="Tracé 12240" d="M279.225,149.246h-4.363v4.36h4.363Z" fill="#1d1d1d"/>
    <path id="Tracé_12241" data-name="Tracé 12241" d="M284.683,149.246H280.32v4.36h4.363Z" fill="#1d1d1d"/>
    <path id="Tracé_12242" data-name="Tracé 12242" d="M279.225,158.333h-4.363v4.36h4.363Z" fill="#1d1d1d"/>
    <path id="Tracé_12243" data-name="Tracé 12243" d="M284.683,158.333H280.32v4.36h4.363Z" fill="#1d1d1d"/>
    <path id="Tracé_12244" data-name="Tracé 12244" d="M279.225,167.429h-4.363v4.359h4.363Z" fill="#1d1d1d"/>
    <path id="Tracé_12245" data-name="Tracé 12245" d="M284.683,167.429H280.32v4.359h4.363Z" fill="#1d1d1d"/>
    <path id="Tracé_12246" data-name="Tracé 12246" d="M242.114,167.429h-4.363v4.359h4.363Z" fill="#1d1d1d"/>
    <path id="Tracé_12247" data-name="Tracé 12247" d="M251.576,167.429h-4.363v4.359h4.363Z" fill="#1d1d1d"/>
    <path id="Tracé_12248" data-name="Tracé 12248" d="M261.037,167.429h-4.363v4.359h4.363Z" fill="#1d1d1d"/>
    <path id="Tracé_12249" data-name="Tracé 12249" d="M242.114,187.056h-4.363v4.359h4.363Z" fill="#1d1d1d"/>
    <path id="Tracé_12250" data-name="Tracé 12250" d="M251.576,187.056h-4.363v4.359h4.363Z" fill="#1d1d1d"/>
    <path id="Tracé_12251" data-name="Tracé 12251" d="M261.037,187.056h-4.363v4.359h4.363Z" fill="#1d1d1d"/>
    <path id="Tracé_12252" data-name="Tracé 12252" d="M242.114,206.691h-4.363v4.36h4.363Z" fill="#1d1d1d"/>
    <path id="Tracé_12253" data-name="Tracé 12253" d="M251.576,206.691h-4.363v4.36h4.363Z" fill="#1d1d1d"/>
    <path id="Tracé_12254" data-name="Tracé 12254" d="M261.037,206.691h-4.363v4.36h4.363Z" fill="#1d1d1d"/>
    <path id="Tracé_12255" data-name="Tracé 12255" d="M279.225,176.516h-4.363v4.359h4.363Z" fill="#1d1d1d"/>
    <path id="Tracé_12256" data-name="Tracé 12256" d="M284.683,176.516H280.32v4.359h4.363Z" fill="#1d1d1d"/>
    <path id="Tracé_12257" data-name="Tracé 12257" d="M279.225,185.6h-4.363v4.359h4.363Z" fill="#1d1d1d"/>
    <path id="Tracé_12258" data-name="Tracé 12258" d="M284.683,185.6H280.32v4.359h4.363Z" fill="#1d1d1d"/>
    <path id="Tracé_12259" data-name="Tracé 12259" d="M279.225,194.689h-4.363v4.36h4.363Z" fill="#1d1d1d"/>
    <path id="Tracé_12260" data-name="Tracé 12260" d="M284.683,194.689H280.32v4.36h4.363Z" fill="#1d1d1d"/>
    <path id="Tracé_12261" data-name="Tracé 12261" d="M293.785,185.6h-4.363v4.359h4.363Z" fill="#1d1d1d"/>
    <path id="Tracé_12262" data-name="Tracé 12262" d="M303.965,185.6H299.6v4.359h4.363Z" fill="#1d1d1d"/>
    <path id="Tracé_12263" data-name="Tracé 12263" d="M293.785,194.33h-4.363v4.36h4.363Z" fill="#1d1d1d"/>
    <path id="Tracé_12264" data-name="Tracé 12264" d="M303.965,194.33H299.6v4.36h4.363Z" fill="#1d1d1d"/>
    <path id="Tracé_12265" data-name="Tracé 12265" d="M293.785,203.058h-4.363v4.36h4.363Z" fill="#1d1d1d"/>
    <path id="Tracé_12266" data-name="Tracé 12266" d="M303.965,203.058H299.6v4.36h4.363Z" fill="#1d1d1d"/>
    <path id="Tracé_12267" data-name="Tracé 12267" d="M293.785,211.778h-4.363v4.359h4.363Z" fill="#1d1d1d"/>
    <path id="Tracé_12268" data-name="Tracé 12268" d="M303.965,211.778H299.6v4.359h4.363Z" fill="#1d1d1d"/>
    <path id="Tracé_12269" data-name="Tracé 12269" d="M279.225,203.785h-4.363v4.36h4.363Z" fill="#1d1d1d"/>
    <path id="Tracé_12270" data-name="Tracé 12270" d="M284.683,203.785H280.32v4.36h4.363Z" fill="#1d1d1d"/>
    <path id="Tracé_12271" data-name="Tracé 12271" d="M279.225,212.872h-4.363v4.36h4.363Z" fill="#1d1d1d"/>
    <path id="Tracé_12272" data-name="Tracé 12272" d="M284.683,212.872H280.32v4.36h4.363Z" fill="#1d1d1d"/>
    <path id="Tracé_12273" data-name="Tracé 12273" d="M69.359,206.324H65v4.36h4.363Z" fill="#1d1d1d"/>
    <path id="Tracé_12274" data-name="Tracé 12274" d="M60.265,215.419H55.9v4.36h4.363Z" fill="#1d1d1d"/>
    <path id="Tracé_12275" data-name="Tracé 12275" d="M69.359,215.419H65v4.36h4.363Z" fill="#1d1d1d"/>
    <path id="Tracé_12276" data-name="Tracé 12276" d="M60.265,224.506H55.9v4.36h4.363Z" fill="#1d1d1d"/>
    <path id="Tracé_12277" data-name="Tracé 12277" d="M69.359,224.506H65v4.36h4.363Z" fill="#1d1d1d"/>
    <path id="Tracé_12278" data-name="Tracé 12278" d="M60.265,233.593H55.9v4.36h4.363Z" fill="#1d1d1d"/>
    <path id="Tracé_12279" data-name="Tracé 12279" d="M69.359,233.593H65v4.36h4.363Z" fill="#1d1d1d"/>
    <path id="Tracé_12280" data-name="Tracé 12280" d="M265.409,236.329v17.986H229.017V218.557h36.392v14.566" fill="none" stroke="#1d1d1d" stroke-miterlimit="10" stroke-width="1.101"/>
    <path id="Tracé_12281" data-name="Tracé 12281" d="M332.35,248.886v5.429H295.967v-18.9h7.511" fill="none" stroke="#1d1d1d" stroke-miterlimit="10" stroke-width="1.101"/>
    <path id="Tracé_12282" data-name="Tracé 12282" d="M307.909,235.414H332.35v10.515" fill="none" stroke="#1d1d1d" stroke-miterlimit="10" stroke-width="1.101"/>
    <path id="Tracé_12283" data-name="Tracé 12283" d="M98.095,235.414h25.844v18.9H87.555v-18.9h7.092" fill="none" stroke="#1d1d1d" stroke-miterlimit="10" stroke-width="1.101"/>
    <path id="Tracé_12284" data-name="Tracé 12284" d="M41.171,235.414h3.456v18.9H31.162v-18.9h7.3" fill="none" stroke="#1d1d1d" stroke-miterlimit="10" stroke-width="1.101"/>
    <path id="Tracé_12285" data-name="Tracé 12285" d="M250.121,218.548H244.3v35.766h5.817Z" fill="none" stroke="#1d1d1d" stroke-miterlimit="10" stroke-width="1.101"/>
    <path id="Tracé_12286" data-name="Tracé 12286" d="M204.9,223.412h-5.714v-9.454h19.282v9.454h-8.392" fill="none" stroke="#1d1d1d" stroke-miterlimit="10" stroke-width="1.101"/>
    <path id="Tracé_12287" data-name="Tracé 12287" d="M152.665,207.418H130.474v8h22.191Z" fill="none" stroke="#1d1d1d" stroke-miterlimit="10" stroke-width="1.101"/>
    <path id="Tracé_12288" data-name="Tracé 12288" d="M158.928,207.418H125.034v46.9h33.894Z" fill="none" stroke="#1d1d1d" stroke-miterlimit="10" stroke-width="1.101"/>
    <path id="Tracé_12289" data-name="Tracé 12289" d="M237.186,148.554s36.478,3.607,54.965,26.2c0,0,19.53-26.176,54.614-25.646a70.905,70.905,0,1,0-109.587-.495Z" fill="#6449d1"/>
    <path id="Tracé_12290" data-name="Tracé 12290" d="M237.186,148.554s36.478,3.607,54.965,26.2c0,0,19.53-26.176,54.614-25.646a70.905,70.905,0,1,0-109.587-.495Z" fill="#fff" opacity="0.5"/>
    <path id="Tracé_12291" data-name="Tracé 12291" d="M290.945,38.066l-1.232,236.217h6.159Z" fill="#1d1d1d"/>
    <path id="Tracé_12292" data-name="Tracé 12292" d="M292.792,167.873s12.311-22.149,34.476-28.919c0,0-23.4,5.539-35.074,24.611Z" fill="#1d1d1d"/>
    <path id="Tracé_12293" data-name="Tracé 12293" d="M292.792,105.145S305.1,83,327.268,76.234c0,0-23.4,5.531-35.074,24.6Z" fill="#1d1d1d"/>
    <path id="Tracé_12294" data-name="Tracé 12294" d="M292.792,136.492s12.311-22.14,34.476-28.911c0,0-23.4,5.54-35.074,24.611Z" fill="#1d1d1d"/>
    <path id="Tracé_12295" data-name="Tracé 12295" d="M290.97,121.114S279.088,98.965,257.7,92.2c0,0,22.576,5.531,33.86,24.6Z" fill="#1d1d1d"/>
    <path id="Tracé_12296" data-name="Tracé 12296" d="M290.97,151.879S279.088,129.73,257.7,122.96c0,0,22.576,5.539,33.86,24.611Z" fill="#1d1d1d"/>
    <path id="Tracé_12297" data-name="Tracé 12297" d="M1.006,274.284H366.988" fill="none" stroke="#1d1d1d" stroke-miterlimit="10" stroke-width="1.101"/>
    <path id="Tracé_12298" data-name="Tracé 12298" d="M198.57,317.906c36.938,0,66.881-4.447,66.881-9.933s-29.943-9.933-66.881-9.933-66.881,4.447-66.881,9.933S161.633,317.906,198.57,317.906Z" fill="#1d1d1d"/>
    <path id="Tracé_12299" data-name="Tracé 12299" d="M183.36,114.206l-13.517,19.73-8.11-21.166s-.214-2.214-.35-3.684-10.831-.479-10.831-.479,3.268,5.086,5.082,6.582a14.341,14.341,0,0,1,2.926,3.42s3.216,20.516,4.765,27.055,3.421,9.156,4.713,8.668,18.744-18.293,18.744-18.293l2.831-31.056Z" fill="#fff" stroke="#1d1d1d" stroke-linecap="round" stroke-linejoin="round" stroke-width="1.161"/>
    <path id="Tracé_12300" data-name="Tracé 12300" d="M178.064,144.844c4.466-4.445,8.718-8.779,8.718-8.779l2.831-31.082-1.112,2.043L170.93,132.243Z" fill="#1d1d1d" stroke="#1d1d1d" stroke-linecap="round" stroke-linejoin="round" stroke-width="1.161"/>
    <path id="Tracé_12301" data-name="Tracé 12301" d="M182.29,176.584l-.941,10.369s-15.911,48.4-15.911,52.376,2.352,53.932,2.352,53.932l11.232,2.342,7.956-54.479,14.971-38.818s3.747,40.682,4.911,41.887,20.6,53.778,20.6,53.778l7.246-.462-6.083-55.65,2.755-51.521a14.088,14.088,0,0,0-.488-4.471l-2.883-10.386-.547-6.574-44.485-1.872Z" fill="#1d1d1d" stroke="#1d1d1d" stroke-linecap="round" stroke-linejoin="round" stroke-width="1.161"/>
    <path id="Tracé_12302" data-name="Tracé 12302" d="M201.256,99.05s-11.309,5.565-12.789,7.976-4.278,63.557-4.278,63.557.557,2.231,15.947,2.231h27.82s.556-54.855-.368-60.044a11.679,11.679,0,0,0-6.844-9.266C217.425,101.837,205.713,98.306,201.256,99.05Z" fill="#1d1d1d" stroke="#1d1d1d" stroke-linecap="round" stroke-linejoin="round" stroke-width="1.161"/>
    <path id="Tracé_12303" data-name="Tracé 12303" d="M217.579,71.994s12.053,10.754,10.206,13.9-13.731,5.377-20.4,1.71S196.26,68.7,196.26,68.7,211.856,69.242,217.579,71.994Z" fill="#b2b2b2" stroke="#1d1d1d" stroke-linecap="round" stroke-linejoin="round" stroke-width="1.161"/>
    <path id="Tracé_12304" data-name="Tracé 12304" d="M189.023,67.532s1.48-12.823,4.277-15.2,13.166-1.855,17.623-1.3,8.161,4.821,8.718,6.839S217.6,71.952,217.6,71.952a104.675,104.675,0,0,0-17.614-3.7c-7.973-.735-10.386,1.111-10.386,1.111l.18-1.111Z" fill="#b2b2b2" stroke="#1d1d1d" stroke-linecap="round" stroke-linejoin="round" stroke-width="1.161"/>
    <path id="Tracé_12305" data-name="Tracé 12305" d="M198.476,100.871s-4.277,12.976-4.081,21.687-1.291,33.536-1.291,40.579S190.871,180,190.871,180l-12.832-2.222s4.636-26.5,3.892-35.579,4.277-33.92,4.277-33.92a17.165,17.165,0,0,1,12.268-7.411Z" fill="#ff0c39" stroke="#1d1d1d" stroke-linecap="round" stroke-linejoin="round" stroke-width="1.161"/>
    <path id="Tracé_12306" data-name="Tracé 12306" d="M191.213,161.915l-9.727-.983.437-5.736,9.735.992Z" fill="#ff0c39" stroke="#1d1d1d" stroke-linecap="round" stroke-linejoin="round" stroke-width="1.161"/>
    <path id="Tracé_12307" data-name="Tracé 12307" d="M211.642,99.426s-3.148,7.779-5.749,14.079-9.829,27.056-11.309,35.237.744,31.509.744,31.509,12.242,1.112,19.1,1.112,18.358-2.411,18.358-2.411-2.78-22.611-2.78-34.467-.376-33.92-2.045-37.81S220.548,101.649,211.642,99.426Z" fill="#ff0c39" stroke="#1d1d1d" stroke-linecap="round" stroke-linejoin="round" stroke-width="1.161"/>
    <path id="Tracé_12308" data-name="Tracé 12308" d="M221.48,102.042a25.727,25.727,0,0,0-8.658,12.327c-2.968,8.9-.5,23.234,9.89,24.217a11.814,11.814,0,0,0,7.246-2.051c-.146-11.874-.65-26.757-1.994-29.919C227.032,104.47,224.816,103.162,221.48,102.042Z" fill="#1d1d1d" stroke="#1d1d1d" stroke-linecap="round" stroke-linejoin="round" stroke-width="1.161"/>
    <path id="Tracé_12309" data-name="Tracé 12309" d="M221.557,162.8l-20.6.3v-5.736l20.6-.291Z" fill="#ff0c39" stroke="#1d1d1d" stroke-linecap="round" stroke-linejoin="round" stroke-width="1.161"/>
    <path id="Tracé_12310" data-name="Tracé 12310" d="M181.88,108.146l18.889-8.506-.377-9.437L184.1,86.5l-19.813,4.813-.368,10.916Z" fill="#525252" stroke="#1d1d1d" stroke-linecap="round" stroke-linejoin="round" stroke-width="1.161"/>
    <path id="Tracé_12311" data-name="Tracé 12311" d="M200.769,99.64l-.377-9.437-.265-.06L181.7,96.118l.171,12.019.009.009Z" fill="#1d1d1d" stroke="#1d1d1d" stroke-linecap="round" stroke-linejoin="round" stroke-width="1.161"/>
    <path id="Tracé_12312" data-name="Tracé 12312" d="M182.111,108.043,181.7,96.118l-16.724-4.975-.685.171-.368,10.916,17.957,5.916Z" fill="#525252" stroke="#1d1d1d" stroke-linecap="round" stroke-linejoin="round" stroke-width="1.161"/>
    <path id="Tracé_12313" data-name="Tracé 12313" d="M140.851,91.194s3.593-.436,4.337-.436S161.665,92.6,161.665,92.6l10.18,1.111s3.336.556,4.449,2.223.556,5.181.179,6.839-14.62,10.361-14.62,10.361Z" fill="#1d1d1d" stroke="#1d1d1d" stroke-linecap="round" stroke-linejoin="round" stroke-width="1.161"/>
    <path id="Tracé_12314" data-name="Tracé 12314" d="M161.22,112.881l-20.369-4.658a1.986,1.986,0,0,1-1.48-1.821V92.323a1.147,1.147,0,0,1,1.48-1.146l20.335,4.667a1.968,1.968,0,0,1,1.48,1.821v14.062a1.137,1.137,0,0,1-.911,1.175A1.127,1.127,0,0,1,161.22,112.881Z" fill="#525252" stroke="#1d1d1d" stroke-linecap="round" stroke-linejoin="round" stroke-width="1.161"/>
    <path id="Tracé_12315" data-name="Tracé 12315" d="M158.183,109.967l-14.252-3.275a1.974,1.974,0,0,1-1.489-1.82V95.255a1.147,1.147,0,0,1,1.489-1.137l14.252,3.266a1.975,1.975,0,0,1,1.48,1.821v9.626a1.13,1.13,0,0,1-.1.531,1.154,1.154,0,0,1-.339.423,1.143,1.143,0,0,1-1.037.183Z" fill="#1d1d1d" stroke="#1d1d1d" stroke-linecap="round" stroke-linejoin="round" stroke-width="1.161"/>
    <path id="Tracé_12316" data-name="Tracé 12316" d="M189.023,67.532s-.376,9.822.736,16.31,2.224,10.745,4.825,10.745a17.022,17.022,0,0,0,4.825-.744l-.933,7.027s-1.112.923-.735,3.89,2.036,4.274,4.816,4.274,7.6-5.377,7.6-5.377l1.48-4.274.744-17.8s4.825-3.334,5.381-6.48a4.187,4.187,0,0,0-1.711-4.454A38.864,38.864,0,0,0,189.023,67.532Z" fill="#fff" stroke="#1d1d1d" stroke-linecap="round" stroke-linejoin="round" stroke-width="1.161"/>
    <path id="Tracé_12317" data-name="Tracé 12317" d="M215.2,70.225a33.328,33.328,0,0,0-4.911-1.949c-.043,1.214-.658,4.83.984,4.83C212.557,73.106,214.422,70.952,215.2,70.225Z" fill="#1d1d1d" stroke="#1d1d1d" stroke-linecap="round" stroke-linejoin="round" stroke-width="1.161"/>
    <path id="Tracé_12318" data-name="Tracé 12318" d="M199.023,71.071a7.611,7.611,0,0,1,8.555-.744" fill="none" stroke="#1d1d1d" stroke-linecap="round" stroke-linejoin="round" stroke-width="1.161"/>
    <path id="Tracé_12319" data-name="Tracé 12319" d="M202,73.516a5.487,5.487,0,0,0,4.825,0" fill="none" stroke="#1d1d1d" stroke-linecap="round" stroke-linejoin="round" stroke-width="1.161"/>
    <path id="Tracé_12320" data-name="Tracé 12320" d="M195.7,72.738l-1.857,7.967,4.637-.188" fill="none" stroke="#1d1d1d" stroke-linecap="round" stroke-linejoin="round" stroke-width="1.161"/>
    <path id="Tracé_12321" data-name="Tracé 12321" d="M195.328,83.672s5,1.855,8.9-3.154" fill="none" stroke="#1d1d1d" stroke-linecap="round" stroke-linejoin="round" stroke-width="1.161"/>
    <path id="Tracé_12322" data-name="Tracé 12322" d="M202.745,79.962l2.224,1.3" fill="none" stroke="#1d1d1d" stroke-linecap="round" stroke-linejoin="round" stroke-width="1.161"/>
    <path id="Tracé_12323" data-name="Tracé 12323" d="M199.409,93.861s7.785-2.966,10.385-7.6" fill="none" stroke="#1d1d1d" stroke-linecap="round" stroke-linejoin="round" stroke-width="1.161"/>
    <path id="Tracé_12324" data-name="Tracé 12324" d="M221.471,104.615a19.95,19.95,0,0,0-6.51,4.274c-3.08,3.061-15.826,23.329-15.826,23.329s-25.554-19.713-25.87-21.174-1.258-1.565-1.446-3.779-.428-9.078-.539-10.369-2.079-2.428-3.216-2.693a23.784,23.784,0,0,0-7.238.257c-1.249.479.856.855,1.626,1.53s1.882,15.1,3.721,16.977a23.244,23.244,0,0,0,3.028,2.71s17.82,24.858,21.969,29.705,9.231,5.514,10.069,4.514S226.5,123.687,226.5,123.687" fill="#1d1d1d"/>
    <path id="Tracé_12325" data-name="Tracé 12325" d="M221.471,104.615a19.95,19.95,0,0,0-6.51,4.274c-3.08,3.061-15.826,23.329-15.826,23.329s-25.554-19.713-25.87-21.174-1.258-1.565-1.446-3.779-.428-9.078-.539-10.369-2.079-2.428-3.216-2.693a23.784,23.784,0,0,0-7.238.257c-1.249.479.856.855,1.626,1.53s1.882,15.1,3.721,16.977a23.244,23.244,0,0,0,3.028,2.71s17.82,24.858,21.969,29.705,9.231,5.514,10.069,4.514S226.5,123.687,226.5,123.687" fill="none" stroke="#1d1d1d" stroke-linecap="round" stroke-linejoin="round" stroke-width="1.161"/>
    <path id="Tracé_12326" data-name="Tracé 12326" d="M201.718,128.174c-1.548,2.42-2.566,4.061-2.566,4.061s-25.553-19.713-25.87-21.174-1.258-1.565-1.446-3.779-.427-9.078-.539-10.369-2.078-2.428-3.216-2.693a23.784,23.784,0,0,0-7.238.257c-1.249.479.856.855,1.626,1.53s1.882,15.1,3.721,16.977a23.253,23.253,0,0,0,3.029,2.71s17.819,24.859,21.968,29.705,9.231,5.514,10.069,4.514c.377-.444,5.381-5.642,10.839-11.292Z" fill="#fff" stroke="#1d1d1d" stroke-linecap="round" stroke-linejoin="round" stroke-width="1.161"/>
    <path id="Tracé_12327" data-name="Tracé 12327" d="M162.375,94.2a4.45,4.45,0,0,1,2.43,1.539,18.966,18.966,0,0,1,1.189,4.479" fill="#fff"/>
    <path id="Tracé_12328" data-name="Tracé 12328" d="M162.375,94.2a4.45,4.45,0,0,1,2.43,1.539,18.966,18.966,0,0,1,1.189,4.479" fill="none" stroke="#1d1d1d" stroke-linecap="round" stroke-linejoin="round" stroke-width="1.161"/>
    <path id="Tracé_12329" data-name="Tracé 12329" d="M166.037,94.229a3.233,3.233,0,0,1,1.411,1.71,31.212,31.212,0,0,1,.916,3.924" fill="#fff"/>
    <path id="Tracé_12330" data-name="Tracé 12330" d="M166.037,94.229a3.233,3.233,0,0,1,1.411,1.71,31.212,31.212,0,0,1,.916,3.924" fill="none" stroke="#1d1d1d" stroke-linecap="round" stroke-linejoin="round" stroke-width="1.161"/>
    <path id="Tracé_12331" data-name="Tracé 12331" d="M168.7,94.451a6.375,6.375,0,0,1,1.394,2.855c.12,1.368.231,2.616.231,2.616" fill="#fff"/>
    <path id="Tracé_12332" data-name="Tracé 12332" d="M168.7,94.451a6.375,6.375,0,0,1,1.394,2.855c.12,1.368.231,2.616.231,2.616" fill="none" stroke="#1d1d1d" stroke-linecap="round" stroke-linejoin="round" stroke-width="1.161"/>
    <path id="Tracé_12333" data-name="Tracé 12333" d="M195.029,73.362c0,2.864-1.994,5.18-4.449,5.18s-4.44-2.317-4.44-5.18,1.985-5.18,4.44-5.18S195.029,70.507,195.029,73.362Z" fill="#1d1d1d" stroke="#1d1d1d" stroke-linecap="round" stroke-linejoin="round" stroke-width="1.161"/>
    <path id="Tracé_12334" data-name="Tracé 12334" d="M183.36,80.03l2.96,7.95,3.7.923-3.884-10.54-4.26-.556Z" fill="#1d1d1d" stroke="#1d1d1d" stroke-linecap="round" stroke-linejoin="round" stroke-width="1.161"/>
    <path id="Tracé_12335" data-name="Tracé 12335" d="M150.039,70.4l9.633-2.146A3.08,3.08,0,0,1,163.3,70.37l1.762,5.77-15,1.3Z" fill="#525252" stroke="#1d1d1d" stroke-linecap="round" stroke-linejoin="round" stroke-width="1.161"/>
    <path id="Tracé_12336" data-name="Tracé 12336" d="M148.5,70.336l-15.2,4.753a1.913,1.913,0,0,0,.676,3.736l15.9-.8a3.936,3.936,0,1,0-1.377-7.685Z" fill="#1d1d1d" stroke="#1d1d1d" stroke-linecap="round" stroke-linejoin="round" stroke-width="1.161"/>
    <path id="Tracé_12337" data-name="Tracé 12337" d="M167.807,81.133l5.74,9.437,3.705,1.3L170.4,81.133Z" fill="#1d1d1d" stroke="#1d1d1d" stroke-linecap="round" stroke-linejoin="round" stroke-width="1.161"/>
    <path id="Tracé_12338" data-name="Tracé 12338" d="M187.252,71.328l-7.22,2.035V75.4l-9.077,1.3-2.96-3.18-12.952,1.47a1.968,1.968,0,0,0-1.711,1.881l-.077,2.855a1.932,1.932,0,0,0,1.711,1.983l10.155,1.385a1.617,1.617,0,0,0,.642,0L181.734,79.1l1.669.923,6.108-2.035S190.956,73.362,187.252,71.328Z" fill="#525252" stroke="#1d1d1d" stroke-linecap="round" stroke-linejoin="round" stroke-width="1.161"/>
    <path id="Tracé_12339" data-name="Tracé 12339" d="M153.307,77.286l-.069,2.471a1.932,1.932,0,0,0,1.711,1.983l8.555,1.171a1.709,1.709,0,0,0,1.925-1.71v-3.36a1.71,1.71,0,0,0-1.54-1.71l-8.426-.778a1.948,1.948,0,0,0-2.156,1.932Z" fill="#1d1d1d" stroke="#1d1d1d" stroke-linecap="round" stroke-linejoin="round" stroke-width="1.161"/>
    <path id="Tracé_12340" data-name="Tracé 12340" d="M227.46,297.937s-5.133,8.651-6.091,11.463,3.045,3.736,4.919,3.736,7.485-.231,8.417-2.565,0-13.087,0-13.087Z" fill="#fff" stroke="#1d1d1d" stroke-linecap="round" stroke-linejoin="round" stroke-width="1.161"/>
    <path id="Tracé_12341" data-name="Tracé 12341" d="M234.706,310.563a8.747,8.747,0,0,0,.376-2.462,10.138,10.138,0,0,1-8.2,2.761,11.75,11.75,0,0,1-5.51-1.479c-.932,2.8,3.046,3.736,4.919,3.736S233.773,312.871,234.706,310.563Z" fill="#fff" stroke="#1d1d1d" stroke-linecap="round" stroke-linejoin="round" stroke-width="1.161"/>
    <path id="Tracé_12342" data-name="Tracé 12342" d="M167.79,293.261s-5.62,4.445-7.956,6.078-7.494,3.744-7.7,5.377,6.082,1.41,10.531.94,13.568-.7,15.672-1.4,1.412-3.043,1.172-5.129-.462-3.505-.462-3.505Z" fill="#fff" stroke="#1d1d1d" stroke-linecap="round" stroke-linejoin="round" stroke-width="1.161"/>
    <path id="Tracé_12343" data-name="Tracé 12343" d="M179.741,302.562c-6.176,1.06-10.129-.214-18.068,1.1-4.824.812-7.536.522-8.982.111a1.825,1.825,0,0,0-.582.941c-.231,1.641,6.083,1.41,10.531.94s13.568-.7,15.672-1.4a1.972,1.972,0,0,0,1.429-1.692Z" fill="#fff" stroke="#1d1d1d" stroke-linecap="round" stroke-linejoin="round" stroke-width="1.161"/>
  </g>
</svg>
