<svg xmlns="http://www.w3.org/2000/svg" width="350.768" height="292.404" viewBox="0 0 350.768 292.404">
  <g id="Groupe_7" data-name="Groupe 7" transform="translate(-0.792 -0.552)">
    <path id="Tracé_322" data-name="Tracé 322" d="M334.013,47.514S312.6,7.3,265.329,1.346,185.038,24.434,150.251,39.331c-18.225,7.8-39.028,4.777-58.37,8.552C30.035,59.955,6.732,135.589,32.5,178.616c22.3,37.236,61.548,56.6,121.317,61.072s101.693,9.679,155.223-26.81S358.987,100.4,334.013,47.514Z" fill="#6449d1"/>
    <path id="Tracé_323" data-name="Tracé 323" d="M334.013,47.514S312.6,7.3,265.329,1.346,185.038,24.434,150.251,39.331c-18.225,7.8-39.028,4.777-58.37,8.552C30.035,59.955,6.732,135.589,32.5,178.616c22.3,37.236,61.548,56.6,121.317,61.072s101.693,9.679,155.223-26.81S358.987,100.4,334.013,47.514Z" fill="#fff" opacity="0.8"/>
    <path id="Tracé_324" data-name="Tracé 324" d="M176.176,292.956c96.862,0,175.384-7.788,175.384-17.395s-78.522-17.395-175.384-17.395S.792,265.954.792,275.561,79.314,292.956,176.176,292.956Z" fill="#6449d1"/>
    <path id="Tracé_325" data-name="Tracé 325" d="M176.176,292.956c96.862,0,175.384-7.788,175.384-17.395s-78.522-17.395-175.384-17.395S.792,265.954.792,275.561,79.314,292.956,176.176,292.956Z" fill="#fff" opacity="0.5"/>
    <path id="Tracé_326" data-name="Tracé 326" d="M349.949,185.1H22.589v2.983h327.36V185.1Zm-97.2-36.4" fill="#263238"/>
    <path id="Tracé_327" data-name="Tracé 327" d="M271.04,143.922c-.792-.088-1.76.994-2.015,1.637,0,.061-.317.976-.3.976l-.476.563c-.316.379-.66.81-1,1.3a17.242,17.242,0,0,1,1.654,12.457" fill="#263238"/>
    <path id="Tracé_328" data-name="Tracé 328" d="M266.842,148.973s.255-.933.264-.995c.1-.7-.123-2.111-.88-2.455a.948.948,0,0,1-.005.94l1.952,1.952" fill="#263238"/>
    <path id="Tracé_329" data-name="Tracé 329" d="M81.233,145.946c-.748-.079-1.646.941-1.919,1.557,0,.062-.3.933-.281.933-.15.158-.3.334-.458.528-.29.361-.624.774-.95,1.24a17.973,17.973,0,0,0-.986,1.567,12.492,12.492,0,0,0-.88,1.9v-.88c-.088-.668-.65-1.909-1.39-2.041a1.037,1.037,0,0,1,.88,1.878h6.107a2.715,2.715,0,0,0,1.828.931c.8.11,1.387-.1,1.387-.487s-.588-.851-1.387-1.086-1.574-.175-1.828.141" fill="#263238"/>
    <path id="Tracé_330" data-name="Tracé 330" d="M77.282,150.741s.237-.88.246-.932c.088-.669-.123-2.015-.8-2.341a.97.97,0,1,1,.537,1.864" fill="#263238"/>
    <path id="Tracé_331" data-name="Tracé 331" d="M273.68,186.86V21.584M125.84,186.86V22.613M31.46,105.726H338.131" fill="none" stroke="#263238" stroke-linecap="round" stroke-linejoin="round" stroke-width="1"/>
    <path id="Tracé_332" data-name="Tracé 332" d="M77.757,32.195h6.028" fill="#263238"/>
    <path id="Tracé_333" data-name="Tracé 333" d="M86.143,50.646a5.525,5.525,0,1,1,0,5.525" fill="#fff"/>
    <path id="Tracé_334" data-name="Tracé 334" d="M104.271,50.9h-47L74.9,41.3H86.6l17.67,9.6ZM81.76,14.307H79.772V33.515h1.989V14.307ZM303.442,32.195h6.019" fill="#263238"/>
    <path id="Tracé_335" data-name="Tracé 335" d="M306.3,56.172a5.526,5.526,0,1,1,5.527,5.527" fill="#fff"/>
    <path id="Tracé_336" data-name="Tracé 336" d="M329.956,50.9h-47l17.626-9.6h11.7Zm-22.51-36.594h-1.989V33.515h1.989Z" fill="#263238"/>
    <path id="Tracé_337" data-name="Tracé 337" d="M168.995,75.37l-3.819,2.35m68.288-42.076L174.134,72.2M241.3,38.117,193.758,67.4m68.3-42.076-14.361,8.843" fill="none" stroke="#263238" stroke-linecap="round" stroke-linejoin="round" stroke-width="0.5"/>
    <path id="Tracé_338" data-name="Tracé 338" d="M197.739,178.915s-1.531,10.145-.458,15.521,5.069,31.676,6.16,42.419,6.3,27.039,6.609,27.813-.458,2.912-.458,3.836.308,3.08.308,3.08-4.461,2.912-6.767,4.3-1.223,2,.924,2.3,32.56,0,32.56,0,.766-.15-.158-1.531-7.225-5.684-7.225-5.684" fill="#263238" stroke="#263238" stroke-linecap="round" stroke-miterlimit="10" stroke-width="1"/>
    <path id="Tracé_339" data-name="Tracé 339" d="M236.468,276.652c-.924-1.382-7.225-5.684-7.225-5.684v-.308" fill="#fff" stroke="#263238" stroke-linecap="round" stroke-linejoin="round" stroke-width="1"/>
    <path id="Tracé_340" data-name="Tracé 340" d="M203.327,276.836s5.659.414,8-.272" fill="none" stroke="#263238" stroke-linecap="round" stroke-linejoin="round" stroke-width="0.75"/>
    <path id="Tracé_341" data-name="Tracé 341" d="M196.076,136.5s-4.4,23.757-5.535,27.329-.7,11.878,2.64,10.91,4.4-5.939,4.69-7.32.554-25.517.554-29.687S196.076,136.5,196.076,136.5Z" fill="#6449d1" stroke="#263238" stroke-linecap="round" stroke-linejoin="round" stroke-width="1"/>
    <path id="Tracé_342" data-name="Tracé 342" d="M212.1,127.336s-11.352,3.335-13.2,3.722-2.763,3.15-2.86,5.438.29,25.648.193,32.617-1.047,9.344,2.1,11.913,12.021,3.054,20.125,2.482,11.74-3.053,11.74-6.67-.572-20.791-.572-20.791.88-10.013,2.86-14.307,3.141-5.631,1.619-7.154-10.974-6.959-14.687-8.015" fill="#6449d1" stroke="#263238" stroke-linecap="round" stroke-linejoin="round" stroke-width="1"/>
    <path id="Tracé_343" data-name="Tracé 343" d="M209.909,134.015l1.047,6.678,7.63-4.488-3.335-5.437s-4.673,1.434-5.342,3.247Z" fill="#ff0c39" stroke="#263238" stroke-linecap="round" stroke-linejoin="round" stroke-width="1"/>
    <path id="Tracé_344" data-name="Tracé 344" d="M212.7,123.878" fill="#6449d1" stroke="#263238" stroke-linecap="round" stroke-linejoin="round" stroke-width="1"/>
    <path id="Tracé_345" data-name="Tracé 345" d="M212.127,110.513s-.158-3.766-.158-6.063.325-3.519,1.716-4.021,1.8,1.646,1.76,2.79S212.127,110.513,212.127,110.513Z" fill="#263238" stroke="#263238" stroke-linecap="round" stroke-linejoin="round" stroke-width="1"/>
    <path id="Tracé_346" data-name="Tracé 346" d="M212.127,109.615s-.079-2.789-1.065-1.311-.651,4.919,0,4.593,1.065-3.282,1.065-3.282Zm.167,14.105s-.246,6.634-.413,9.256.739,4.1,2.3,3.52,5.333-5.579,6.477-7.541" fill="#fff" stroke="#263238" stroke-linecap="round" stroke-linejoin="round" stroke-width="1"/>
    <path id="Tracé_347" data-name="Tracé 347" d="M214.16,102.4s-2.948,9.758-3.766,13.278-.414,6.485,1.064,8.8" fill="#fff" stroke="#263238" stroke-linecap="round" stroke-linejoin="round" stroke-width="1"/>
    <path id="Tracé_348" data-name="Tracé 348" d="M229.12,114.948s2.05-1.646,2.64-.414-.493,3.44-1.884,4.179" fill="#fff" stroke="#263238" stroke-linecap="round" stroke-linejoin="round" stroke-width="1"/>
    <path id="Tracé_349" data-name="Tracé 349" d="M231.8,98.96l-.88-.985s-.079-.66-2.711-1.637-5.658-.827-6.723-2.138-2.3-1.637-5.412-1.144-4.4,3.687-4.4,6.309,5.659,6.317,9.592,6.889,7.8-.66,6.97.079-3.2,3.362-2.376,4.268a3.533,3.533,0,0,1,1.311,2.543c0,.73-.15,2.419-.114,3.44-.317.642-1.162,2.358-1.356,2.64s-2.543-1.637-3.942-2.376" fill="#263238" stroke="#263238" stroke-linecap="round" stroke-linejoin="round" stroke-width="1"/>
    <path id="Tracé_350" data-name="Tracé 350" d="M224.28,99.427s-5.28-1.98-6.16,1.759,7.92,4.84,15.18,3.52m-6.38,4.4s1.54.44,5.06-.66" fill="none" stroke="#fff" stroke-linecap="round" stroke-linejoin="round" stroke-width="0.75"/>
    <path id="Tracé_351" data-name="Tracé 351" d="M217.293,109.615l-.326,1.883s-2.129,4.761-1.557,5.332,3.608,1.232,3.854.247a6.7,6.7,0,0,0,.246-1.4l-.985-.247m2.217-5.076s3.027-.74,3.767,1.8m-7.867-3.361" fill="none" stroke="#263238" stroke-linecap="round" stroke-linejoin="round" stroke-width="1"/>
    <path id="Tracé_352" data-name="Tracé 352" d="M221.966,113.214c-.071.493-.361.88-.652.818s-.475-.475-.4-.968.352-.879.651-.818S222.027,112.721,221.966,113.214Zm-6.847-2.05c-.071.493-.361.88-.651.818s-.476-.466-.4-.968.352-.88.651-.818S215.18,110.671,215.119,111.164Z" fill="#263238"/>
    <path id="Tracé_353" data-name="Tracé 353" d="M221.147,119.285c-3.432,4.074-6.16.713-6.4-.158Z" fill="#fff"/>
    <path id="Tracé_354" data-name="Tracé 354" d="M210.957,140.693s-4,15.925-4.77,23.554" fill="#ff0c39" stroke="#263238" stroke-linecap="round" stroke-linejoin="round" stroke-width="1"/>
    <path id="Tracé_355" data-name="Tracé 355" d="M229.859,143.728s-2.455,5.535-1.531,8.3,8.756,14.289,9.522,14.755,6.767,1.839,7.532-1.689-5.684-24.434-7.682-27.505-3.52-2.772-4.3-2.156" fill="#6449d1"/>
    <path id="Tracé_356" data-name="Tracé 356" d="M229.859,143.728s-2.455,5.535-1.531,8.3,8.756,14.289,9.522,14.755,6.767,1.839,7.532-1.689-5.684-24.434-7.682-27.505-3.52-2.772-4.3-2.156" fill="none" stroke="#263238" stroke-linecap="round" stroke-linejoin="round" stroke-width="1"/>
    <path id="Tracé_357" data-name="Tracé 357" d="M208.651,155.255l.924,24.584,18.753-.916-.467-24.126-19.21.458Z" fill="#fff" stroke="#263238" stroke-linecap="round" stroke-linejoin="round" stroke-width="1"/>
    <path id="Tracé_358" data-name="Tracé 358" d="M241.7,160.789s-4.761.458-7.533,2-13.525,3.837-13.525,3.837l.616,5.992" fill="#6449d1"/>
    <path id="Tracé_359" data-name="Tracé 359" d="M241.7,160.789s-4.761.458-7.533,2-13.525,3.837-13.525,3.837l.616,5.992" fill="none" stroke="#263238" stroke-linecap="round" stroke-linejoin="round" stroke-width="1"/>
    <path id="Tracé_360" data-name="Tracé 360" d="M221.1,167.239,215.92,163.1s-3.52-1.848-4.3-1.848a45.02,45.02,0,0,0-4.761.765c-.616.159-.308.924.766,1.391" fill="#fff" stroke="#263238" stroke-linecap="round" stroke-linejoin="round" stroke-width="1"/>
    <path id="Tracé_361" data-name="Tracé 361" d="M195.231,164.652s-3.59-4.276-4.69-7.594-3.591-9.678-3.591-9.678l-4-.141s.414,12.424,2.64,19.472,5.1,10.629,6.627,9.942,3.731-4,3.731-4" fill="#6449d1"/>
    <path id="Tracé_362" data-name="Tracé 362" d="M195.231,164.652s-3.59-4.276-4.69-7.594-3.591-9.678-3.591-9.678l-4-.141s.414,12.424,2.64,19.472,5.1,10.629,6.627,9.942,3.731-4,3.731-4" fill="none" stroke="#263238" stroke-linecap="round" stroke-linejoin="round" stroke-width="1"/>
    <path id="Tracé_363" data-name="Tracé 363" d="M191.1,131.8" fill="#fff" stroke="#263238" stroke-linecap="round" stroke-linejoin="round" stroke-width="1"/>
    <path id="Tracé_364" data-name="Tracé 364" d="M182.163,137.2s.493-2.578,1.4-3.212,4.057-2.446,4.189-1.6-.977,1.76-1.76,2.367-2.446,2.8-2.446,3.774a8.135,8.135,0,0,0,.563,2.376s-.88,1.61-1.54,1.813-1.17-2.93-.4-5.517Z" fill="#fff" stroke="#263238" stroke-linecap="round" stroke-linejoin="round" stroke-width="1"/>
    <path id="Tracé_365" data-name="Tracé 365" d="M182.3,138.739s.493-2.586,1.4-3.211,4.048-2.446,4.189-1.61-.977,1.759-1.76,2.375-2.447,2.8-2.447,3.775a8.105,8.105,0,0,0,.564,2.376s-.88,1.6-1.54,1.812S181.538,141.326,182.3,138.739Z" fill="#fff" stroke="#263238" stroke-linecap="round" stroke-linejoin="round" stroke-width="1"/>
    <path id="Tracé_366" data-name="Tracé 366" d="M182.48,145.655s-1.118-3.845-.977-5.376.7-2.868,1.47-2.939,4.048-1.258,4.048-.351-3,1.891-3,1.891,1.883,2.446,1.813,3.7" fill="#fff"/>
    <path id="Tracé_367" data-name="Tracé 367" d="M182.48,145.655s-1.118-3.845-.977-5.376.7-2.868,1.47-2.939,4.048-1.258,4.048-.351-3,1.891-3,1.891,1.883,2.446,1.813,3.7" fill="none" stroke="#263238" stroke-linecap="round" stroke-linejoin="round" stroke-width="1"/>
    <path id="Tracé_368" data-name="Tracé 368" d="M207.27,193.362l3.458,2.534,8.07,79.295" fill="none" stroke="#fff" stroke-linecap="round" stroke-linejoin="round" stroke-width="0.75"/>
    <path id="Tracé_369" data-name="Tracé 369" d="M88.493,154.665s2.728,6.872,2.851,9.336-.51,2.067.52,5.279,4.021,10.884,5.71,17.1" fill="#ff0c39" stroke="#263238" stroke-linecap="round" stroke-linejoin="round" stroke-width="1"/>
    <path id="Tracé_370" data-name="Tracé 370" d="M69.978,155.44c.15-1.813,1.53-1.558,1.53-1.558l15.691.132s1.038-.132,1.294.651c0,0,2.728,6.872,2.85,9.336a11.075,11.075,0,0,1-.052,1.944l-.334.511s-.52,4.54-6.741,4.8-9.68-2.6-11.018-5.323-1.813-7.127-2.85-9.679c-.106-.3-.239-.519-.37-.818Z" fill="#fff" stroke="#263238" stroke-linecap="round" stroke-linejoin="round" stroke-width="1"/>
    <path id="Tracé_371" data-name="Tracé 371" d="M72.424,166.72c0-3.115-1.69-6.221-2.34-9.723-.45-2.42.4-2.983.976-3.1.22.079,1.02.545,2.006,3.616,1.17,3.625.52,8.42,1.17,12.318s3.89,12.451,6.222,18.8c1.919,5.227,2.35,10.277,1.567,13.348h-1.7s1.426-3.889-2.464-14.773-5.438-17.4-5.438-20.492Zm96.035,35.028H152.847" fill="#fff" stroke="#263238" stroke-linecap="round" stroke-linejoin="round" stroke-width="1"/>
    <path id="Tracé_372" data-name="Tracé 372" d="M166.505,150.169l-3.539-.425-5.482,45.7,3.539.425Zm.017-.018" fill="#fff" stroke="#263238" stroke-linecap="round" stroke-linejoin="round" stroke-width="1"/>
    <path id="Tracé_373" data-name="Tracé 373" d="M178.719,201.642H24.279v67.311h154.44Z" fill="#263238"/>
    <path id="Tracé_374" data-name="Tracé 374" d="M178.719,201.642H24.279v67.311h154.44Z" fill="#fff" opacity="0.72"/>
    <path id="Tracé_375" data-name="Tracé 375" d="M178.719,201.642H24.279v67.311h154.44Z" fill="none" stroke="#263238" stroke-linecap="round" stroke-linejoin="round" stroke-width="1"/>
    <path id="Tracé_376" data-name="Tracé 376" d="M178.754,203.551H24.3v2.235H178.754Z" fill="#263238"/>
    <path id="Tracé_377" data-name="Tracé 377" d="M180.039,200.322H20.319v3.52h159.72Z" fill="#fff" stroke="#263238" stroke-linecap="round" stroke-linejoin="round" stroke-width="1"/>
    <path id="Tracé_378" data-name="Tracé 378" d="M333.2,148.77l-17.353.15s-1.144-.15-1.435.712c0,0-3.009,7.6-3.159,10.33s.581,2.288-.572,5.878-4.444,12.045-6.31,18.935c-2.508,9.256-3.159,19.076-3.317,28.622,0,1.531-.942,14.721,1.443,14.721,1.98,0,20.24,2.419,20.46-1.1.88-14.025-1.654-27.734,3.221-41.354,1.892-5.28,4.057-10.893,5.667-16.437s1.883-11.306,2.93-16.981c.722-3.907-1.575-3.476-1.575-3.476Z" fill="#ff0c39" stroke="#263238" stroke-linecap="round" stroke-linejoin="round" stroke-width="1"/>
    <path id="Tracé_379" data-name="Tracé 379" d="M334.9,150.46c-.167-2-1.7-1.716-1.7-1.716l-17.353.149s-1.144-.149-1.435.713c0,0-3.009,7.6-3.159,10.33a13.5,13.5,0,0,0,.062,2.156l.369.563s.572,5.024,7.463,5.279,10.753-2.868,12.188-5.878,2.006-7.918,3.159-10.752c.114-.237.255-.528.4-.844Z" fill="#fff" stroke="#263238" stroke-linecap="round" stroke-linejoin="round" stroke-width="1"/>
    <path id="Tracé_380" data-name="Tracé 380" d="M330.88,156.091c-1.162,4.188-.466,5.358-1.628,12.573s-5.35,15.354-6.987,22.807-.88,33.752-.7,34.913a11.2,11.2,0,0,1,.105,1.866c.775-.291,1.25-.7,1.285-1.241.88-14.025-1.654-27.734,3.221-41.354,1.892-5.28,4.057-10.893,5.667-16.436s1.883-11.307,2.93-16.982c.44-2.376-.255-3.133-.88-3.352" fill="#fff" stroke="#263238" stroke-linecap="round" stroke-linejoin="round" stroke-width="1"/>
    <path id="Tracé_381" data-name="Tracé 381" d="M269.7,180.613c.88,2.983,2.992,10.418,3.52,13.295,0-1.232,0-2.42-.044-3.4-.141-4.153,0-10.04,4.162-19.648,3.194-7.382,5.034-12.213,5.711-14.078" fill="#6449d1" stroke="#263238" stroke-linecap="round" stroke-linejoin="round" stroke-width="1"/>
    <path id="Tracé_382" data-name="Tracé 382" d="M248.046,201.264s-1.875,2.833-3.2,4.637-3.449,5.279-1.971,5.429,3.124-1.311,4.77-2.138" fill="#fff" stroke="#263238" stroke-linecap="round" stroke-linejoin="round" stroke-width="1"/>
    <path id="Tracé_383" data-name="Tracé 383" d="M248.926,204.924s-8,0-9.3.748-5.764,21.751-9.477,30.3c0,0-2.975,7.435-5.4,10.972-.88,1.241-4.84,2.789-7.629,3.52s-3.9,1.3-3.52,2.05,6.16,2.041,8.738,2.419a15.366,15.366,0,0,0,5.025-.378c.748,0,1.672.933,3.159.378s.554-4.469.554-6.7,2.79-10.225,5.949-13.577,9.3-16.172,10.6-20.079,1.672-4.83,1.672-4.83" fill="#fff"/>
    <path id="Tracé_384" data-name="Tracé 384" d="M248.926,204.924s-8,0-9.3.748-5.764,21.751-9.477,30.3c0,0-2.975,7.435-5.4,10.972-.88,1.241-4.84,2.789-7.629,3.52s-3.9,1.3-3.52,2.05,6.16,2.041,8.738,2.419a15.366,15.366,0,0,0,5.025-.378c.748,0,1.672.933,3.159.378s.554-4.469.554-6.7,2.79-10.225,5.949-13.577,9.3-16.172,10.6-20.079,1.672-4.83,1.672-4.83" fill="none" stroke="#263238" stroke-linecap="round" stroke-linejoin="round" stroke-width="1"/>
    <path id="Tracé_385" data-name="Tracé 385" d="M247,209.411" fill="#fff" stroke="#263238" stroke-linecap="round" stroke-linejoin="round" stroke-width="1"/>
    <path id="Tracé_386" data-name="Tracé 386" d="M242.6,209.015s6.328,6.881,14.362,10.075l2.79-13.568s-11.907-2.05-20.091.185" fill="#fff"/>
    <path id="Tracé_387" data-name="Tracé 387" d="M242.6,209.015s6.328,6.881,14.362,10.075l2.79-13.568s-11.907-2.05-20.091.185" fill="none" stroke="#263238" stroke-linecap="round" stroke-linejoin="round" stroke-width="1"/>
    <path id="Tracé_388" data-name="Tracé 388" d="M300.08,202.372a125.149,125.149,0,0,1,.722-15.2c.88-6.449,2.728-8.746,2.728-18.636,0-9.212-9.319-11.438-12.8-11.966" fill="#6449d1" stroke="#263238" stroke-linecap="round" stroke-linejoin="round" stroke-width="1"/>
    <path id="Tracé_389" data-name="Tracé 389" d="M283.017,156.795l-7.436,10.761.863,2.437-2.438,2.727-.431,7.893m16.35-19.8-.431,8.6-3.01,1.865,1.144,2.3-5.878,11.042" fill="none" stroke="#263238" stroke-linecap="round" stroke-linejoin="round" stroke-width="1"/>
    <path id="Tracé_390" data-name="Tracé 390" d="M277.587,131.1s-1.7,3.819-1.557,4.954-.132,2.472-1.232,2.9-2.3,1.293-1.76,2.234" fill="#fff" stroke="#263238" stroke-linecap="round" stroke-linejoin="round" stroke-width="1"/>
    <path id="Tracé_391" data-name="Tracé 391" d="M280.192,147.5s.3,2.42,3.019,1.074" fill="none" stroke="#263238" stroke-linecap="round" stroke-linejoin="round" stroke-width="1"/>
    <path id="Tracé_392" data-name="Tracé 392" d="M283.448,127.02s-3.062-.2-5.1-.388-2.851,2.64-2.376,4.2.942,1.76.942,1.76,2.833-1.645,3.115-.528-2.341,3.326-.959,5.183,3.59,3.308,2.455,4.61-.563,2.526.44,2.4,2.349-2.023,2.895.071-2,3.713-1.452,4.663,5.764,2.173,7.225,1.126,5.1-2.067,6.811-8.059,0-10.26-3.608-14.008-9.777-.818-9.777-.818l-.607-.211Z" fill="#263238" stroke="#263238" stroke-linecap="round" stroke-linejoin="round" stroke-width="1"/>
    <path id="Tracé_393" data-name="Tracé 393" d="M289.027,131.833" fill="none" stroke="#fff" stroke-linecap="round" stroke-linejoin="round" stroke-width="0.75"/>
    <path id="Tracé_394" data-name="Tracé 394" d="M248.046,201.264l.431-1c.431-1,5.034-1.857,9.583-2.508,7.366-1.047,10.965-2.226,15.233-3.088,5.28-1.074,10.894-2.437,10.894-2.437s9.469,2.146,7.92,5.279-5.887,3.73-5.887,3.73H250.264" fill="#fff"/>
    <path id="Tracé_395" data-name="Tracé 395" d="M248.046,201.264l.431-1c.431-1,5.034-1.857,9.583-2.508,7.366-1.047,10.965-2.226,15.233-3.088,5.28-1.074,10.894-2.437,10.894-2.437s9.469,2.146,7.92,5.279-5.887,3.73-5.887,3.73H250.264" fill="none" stroke="#263238" stroke-linecap="round" stroke-linejoin="round" stroke-width="1"/>
    <path id="Tracé_396" data-name="Tracé 396" d="M290.075,175.158s-1.866,8.323-3.019,10.47-3.581,1.434-3.44,2.728" fill="#6449d1"/>
    <path id="Tracé_397" data-name="Tracé 397" d="M290.075,175.158s-1.866,8.323-3.019,10.47-3.581,1.434-3.44,2.728" fill="none" stroke="#263238" stroke-linecap="round" stroke-linejoin="round" stroke-width="1"/>
    <path id="Tracé_398" data-name="Tracé 398" d="M287.329,189.922" fill="none" stroke="#263238" stroke-linecap="round" stroke-linejoin="round" stroke-width="0.75"/>
    <path id="Tracé_399" data-name="Tracé 399" d="M295.575,136.98s.281,4.3-3.441,11.042-8.9,19.648-5.166,26.67,13.913,5.6,16.782-.713,1-22.376-2.006-29.115-4.3-9.178-4.3-9.178-1.76-.862-1.865,1.294Z" fill="#263238" stroke="#263238" stroke-linecap="round" stroke-linejoin="round" stroke-width="1"/>
    <path id="Tracé_400" data-name="Tracé 400" d="M296.947,175.615" fill="none" stroke="#fff" stroke-linecap="round" stroke-linejoin="round" stroke-width="0.75"/>
    <path id="Tracé_401" data-name="Tracé 401" d="M295.9,144.96s-4.4,11.219-7.92,18.918-.44,12.538,4.84,13.638" fill="none" stroke="#fff" stroke-linecap="round" stroke-linejoin="round" stroke-width="0.75"/>
    <path id="Tracé_402" data-name="Tracé 402" d="M281.134,202.373s-.651,7.32.7,8.332,11.158,4.065,17.6,2.033m-26.057-7.409,6.089,1.021" fill="none" stroke="#263238" stroke-linecap="round" stroke-linejoin="round" stroke-width="1"/>
    <path id="Tracé_403" data-name="Tracé 403" d="M249.472,274.347c2.085-.88,4.4-4.558,6.661-4.4,2.4.141,2.7-1.012,2.7-3.387" fill="#6449d1" stroke="#263238" stroke-linecap="round" stroke-linejoin="round" stroke-width="1"/>
    <path id="Tracé_404" data-name="Tracé 404" d="M297.361,261.993l-.115-.088v-16.2h2.324V235.465h-8.616v10.242h2.332v16.5l-20.6,6.564V270.4" fill="#263238" stroke="#263238" stroke-linecap="round" stroke-linejoin="round" stroke-width="1"/>
    <path id="Tracé_405" data-name="Tracé 405" d="M320.76,225.469H271.92" fill="#263238" stroke="#263238" stroke-linecap="round" stroke-linejoin="round" stroke-width="1"/>
    <path id="Tracé_406" data-name="Tracé 406" d="M222.42,199.09h24.164V171.181H222.42Z" fill="#fff" stroke="#263238" stroke-linecap="round" stroke-linejoin="round" stroke-width="1"/>
    <path id="Tracé_407" data-name="Tracé 407" d="M248.459,200.34H221.17v-25.2h12.919Z" fill="#fff" stroke="#263238" stroke-linecap="round" stroke-linejoin="round" stroke-width="1"/>
    <path id="Tracé_408" data-name="Tracé 408" d="M215.318,201.748H230.93" fill="#fff" stroke="#263238" stroke-linecap="round" stroke-linejoin="round" stroke-width="1"/>
    <path id="Tracé_409" data-name="Tracé 409" d="M222.71,195.873l3.539-.424-5.483-45.7-3.538.424Z" fill="#fff" stroke="#263238" stroke-linecap="round" stroke-linejoin="round" stroke-width="1"/>
    <path id="Tracé_410" data-name="Tracé 410" d="M217.254,150.151" fill="#fff" stroke="#263238" stroke-linecap="round" stroke-linejoin="round" stroke-width="1"/>
    <path id="Tracé_411" data-name="Tracé 411" d="M344.8,201.642H202.021v80.509H344.8Z" fill="#263238"/>
    <path id="Tracé_412" data-name="Tracé 412" d="M344.8,201.642H202.021v80.509H344.8Z" fill="#fff" opacity="0.72"/>
    <path id="Tracé_413" data-name="Tracé 413" d="M344.8,201.642H202.021v80.509H344.8Z" fill="none" stroke="#263238" stroke-linecap="round" stroke-linejoin="round" stroke-width="1"/>
    <path id="Tracé_414" data-name="Tracé 414" d="M344.7,203.578h-142.6V205.8H344.7v-2.226Z" fill="#263238"/>
    <path id="Tracé_415" data-name="Tracé 415" d="M345.84,200.322H198.906v3.52H345.84Z" fill="#fff" stroke="#263238" stroke-linecap="round" stroke-linejoin="round" stroke-width="1"/>
    <path id="Tracé_416" data-name="Tracé 416" d="M65.025,226.94h3.02l2.18,6q.3.859.52,1.64l.26.82h.08l.36-1.14q.321-1.08.42-1.32l2.12-6H77V240H74.5v-5.18q0-1.1.26-3.56l.08-.78h-.08l-1.06,3.06-1.94,5.3h-1.56l-1.94-5.3-1.04-3.06h-.08l.08.78q.261,2.46.26,3.56V240h-2.46ZM82.4,240.24a2.858,2.858,0,0,1-2.14-.84,2.953,2.953,0,0,1-.8-2.12,2.738,2.738,0,0,1,1.34-2.44,10.086,10.086,0,0,1,4.3-1.2,1.465,1.465,0,0,0-1.64-1.6,3.575,3.575,0,0,0-1.26.24,9.514,9.514,0,0,0-1.4.68l-.98-1.8a7.863,7.863,0,0,1,4.16-1.3,3.62,3.62,0,0,1,2.88,1.12,4.831,4.831,0,0,1,.98,3.3V240H85.6l-.2-1.04h-.06A4.531,4.531,0,0,1,82.4,240.24Zm.9-2.12a1.834,1.834,0,0,0,.9-.22,4.725,4.725,0,0,0,.9-.7v-1.9a6.171,6.171,0,0,0-2.32.66,1.281,1.281,0,0,0-.7,1.1,1.007,1.007,0,0,0,.32.8,1.392,1.392,0,0,0,.9.26Zm7.128-8.02h2.22l.2,1.28h.08a6.462,6.462,0,0,1,1.48-1.1" fill="#6449d1"/>
    <path id="Tracé_417" data-name="Tracé 417" d="M122.635,240.24a1.6,1.6,0,0,1-1.2-.5,1.894,1.894,0,0,1,0-2.52,1.69,1.69,0,0,1,2.4,0,1.894,1.894,0,0,1,0,2.52A1.6,1.6,0,0,1,122.635,240.24Z" fill="#ff0c39"/>
    <path id="Tracé_418" data-name="Tracé 418" d="M127.135,193.617l-2.2,1.76s-6.265,3.3-7.48,4.285-.325,1.98.335,3.194,3.845,2.525,4.945,2.525,6.16-2.419,6.935-3.845,1.54-6.493,1.54-6.493l-4.075-1.426Z" fill="#fff" stroke="#263238" stroke-linecap="round" stroke-linejoin="round" stroke-width="1"/>
    <path id="Tracé_419" data-name="Tracé 419" d="M126,198.562l-.326,2.64s-4.514,2.64-4.074,3.414.88.546,3.52-.22,4.4-2.2,4.514-2.86m-8.439-3.519,1.1,5.165m-3.52-3.96,2.314,5.614m-3.3-4.734s.545,3.08,1.865,4.074" fill="none" stroke="#263238" stroke-linecap="round" stroke-linejoin="round" stroke-width="1"/>
    <path id="Tracé_420" data-name="Tracé 420" d="M127.909,190.1l-.88,3.959,4.18.986,1.866-4.4Z" fill="#6449d1" stroke="#263238" stroke-linecap="round" stroke-linejoin="round" stroke-width="1"/>
    <path id="Tracé_421" data-name="Tracé 421" d="M121.6,145.5a21.351,21.351,0,0,0,.343,7.752c.985,3.414,5.165,20.351,5.72,21.557s.44,3.079.105,5.059.995,6.713.995,7.039-1.875,1.654-1.98,2.974,2.085,2.2,4.065,2.42,3.3,0,4.515-5.5-2.315-12.872-4.515-21.557-5.165-15.072-5.605-16.832-2.975-4.945-3.643-2.912Z" fill="#6449d1" stroke="#263238" stroke-linecap="round" stroke-linejoin="round" stroke-width="1"/>
    <path id="Tracé_422" data-name="Tracé 422" d="M144.629,265.583s2.2,2.93,1.76,3.81-4.989,2.2-5.869,2.938" fill="#fff" stroke="#263238" stroke-linecap="round" stroke-linejoin="round" stroke-width="1"/>
    <path id="Tracé_423" data-name="Tracé 423" d="M145.835,268.733s-4.937,1.76-6.521,2.991" fill="none" stroke="#263238" stroke-linecap="round" stroke-linejoin="round" stroke-width="0.75"/>
    <path id="Tracé_424" data-name="Tracé 424" d="M140.37,256.344l4.26,9.239s-.15.589-2.79,1.76" fill="#263238" stroke="#263238" stroke-linecap="round" stroke-linejoin="round" stroke-width="1"/>
    <path id="Tracé_425" data-name="Tracé 425" d="M133.189,187.863s-3.379,2.05-3.52,2.93a17.283,17.283,0,0,0,.581,3.81s-6.89,14.377-8.941,18.037-4.989,10.849-2.059,15.4,11.739,25.957,11.739,25.957l-2.939,16.427,7.48,1.91s4.55-12.319,6.16-16.868,5.43-16.278,6.019-20.387,1.021-9.969,1.171-10.409,12.909-19.067,14.669-23.316,1.611-13.2.731-15.108-31.091,1.619-31.091,1.619Z" fill="#263238" stroke="#263238" stroke-linecap="round" stroke-linejoin="round" stroke-width="1"/>
    <path id="Tracé_426" data-name="Tracé 426" d="M141.989,192.843l-3.96,1.91,4.251,2.78-6.6-.88,6.89,2.64" fill="none" stroke="#fff" stroke-linecap="round" stroke-linejoin="round" stroke-width="0.75"/>
    <path id="Tracé_427" data-name="Tracé 427" d="M152.84,194.752l-8.07,3.221s10.12-1.91,14.67-1.76" fill="none" stroke="#263238" stroke-linecap="round" stroke-linejoin="round" stroke-width="1"/>
    <path id="Tracé_428" data-name="Tracé 428" d="M143.6,200.032s-10.12,22.146-10.12,26.247-1.47,26.7-1.47,26.7" fill="none" stroke="#fff" stroke-linecap="round" stroke-linejoin="round" stroke-width="0.75"/>
    <path id="Tracé_429" data-name="Tracé 429" d="M135.451,137.437s-13.526,6.67-13.825,8.06,1.294,5.367,1.294,5.367,8.351,27.162,9.046,29.353.995,2.683.3,3.775-1.592,3.088-.6,4.179,7.665,3.088,11.942,3.088,11.941-1.293,16.913-2.49,4.779-3.378,4.576-5.666-3.08-41.487-3.08-42.982-10.56-3.678-14.132-3.881-11.238,0-12.435,1.2Z" fill="#6449d1" stroke="#263238" stroke-linecap="round" stroke-linejoin="round" stroke-width="1"/>
    <path id="Tracé_430" data-name="Tracé 430" d="M136.912,144.212l3.423,9.679,5.5-9.811s-1.487-4.751-5.5-4.452S136.912,144.212,136.912,144.212Z" fill="#ff0c39" stroke="#263238" stroke-linecap="round" stroke-linejoin="round" stroke-width="1"/>
    <path id="Tracé_431" data-name="Tracé 431" d="M140.335,153.873s-1.76,26.9-1.76,28.236a35.468,35.468,0,0,1-1.338,5.648l2.975,3.414s4.752-3.414,5.5-5.939-5.377-31.359-5.377-31.359Z" fill="#ff0c39" stroke="#263238" stroke-linecap="round" stroke-linejoin="round" stroke-width="1"/>
    <path id="Tracé_432" data-name="Tracé 432" d="M135.451,136.54s-.7,4.179-.3,5.974-1.294,5.869-.493,6.362S138.135,144,138.135,144l2.992,5.077,1.989-5.376s2.781,5.473,3.582,4.98-.5-3.88.7-5.57a8.81,8.81,0,1,1,8.81,8.81" fill="#6449d1" stroke="#263238" stroke-linecap="round" stroke-linejoin="round" stroke-width="1"/>
    <path id="Tracé_433" data-name="Tracé 433" d="M135.451,137.437s3.186,4.4,3.784,6.467,1.487,6.467,1.892,5.174.194-6.265,2.587-9.054,1.76-4.778,1.76-4.778-3.053,3.775-10.023,2.191Z" fill="#fff" stroke="#263238" stroke-linecap="round" stroke-linejoin="round" stroke-width="1"/>
    <path id="Tracé_434" data-name="Tracé 434" d="M129.089,129.483s3.872,7.655,7.858,9.679a6.584,6.584,0,0,0,9.249-3.177c1.091-3.079.1-7.039.1-7.039s2.191-1.293,2.49-2.983.6-2.287-1.689-3.581" fill="#fff" stroke="#263238" stroke-linecap="round" stroke-linejoin="round" stroke-width="1"/>
    <path id="Tracé_435" data-name="Tracé 435" d="M135.68,128.682a14.561,14.561,0,0,1,1.689,3.186c.2.994-.6,2.19.6,2.19" fill="none" stroke="#263238" stroke-linecap="round" stroke-linejoin="round" stroke-width="1"/>
    <path id="Tracé_436" data-name="Tracé 436" d="M136.146,130.724a2.733,2.733,0,1,1,2.528,2.742l2.742,2.742v12.568" fill="none" stroke="#263238" stroke-linecap="round" stroke-linejoin="round" stroke-width="0.5"/>
    <path id="Tracé_437" data-name="Tracé 437" d="M141.189,127.53c.141.308.088.642-.123.739s-.493-.088-.634-.4-.088-.642.123-.739S141.048,127.213,141.189,127.53Zm-6.125,2.455c.141.316.088.651-.123.739s-.493-.08-.634-.4-.088-.643.123-.739S134.923,129.668,135.064,129.985Z" fill="#263238"/>
    <path id="Tracé_438" data-name="Tracé 438" d="M135.68,129.677s1.091-1.391,2.085-.792" fill="none" stroke="#263238" stroke-linecap="round" stroke-linejoin="round" stroke-width="0.5"/>
    <path id="Tracé_439" data-name="Tracé 439" d="M137.343,120.543s-3.379,3.678-5.966,7.039a32.975,32.975,0,1,1,3.775,27.2l29.361,29.361" fill="#263238" stroke="#263238" stroke-linecap="round" stroke-linejoin="round" stroke-width="1"/>
    <path id="Tracé_440" data-name="Tracé 440" d="M138.267,111.155" fill="none" stroke="#fff" stroke-linecap="round" stroke-linejoin="round" stroke-width="0.75"/>
    <path id="Tracé_441" data-name="Tracé 441" d="M161.2,139.153s3.836,1,5.174,2.842,10.349,27.206,10.683,31.544-1,13.347-.669,14.35,1.338,2.341.335,2.842a30.576,30.576,0,0,1,2,61.12" fill="#6449d1"/>
    <path id="Tracé_442" data-name="Tracé 442" d="M161.2,139.153s3.836,1,5.174,2.842,10.349,27.206,10.683,31.544-1,13.347-.669,14.35,1.338,2.341.335,2.842a30.576,30.576,0,0,1,2,61.12" fill="none" stroke="#263238" stroke-linecap="round" stroke-linejoin="round" stroke-width="1"/>
    <path id="Tracé_443" data-name="Tracé 443" d="M167.747,192.06l-.334,3.176,5.508.827,1.329-3.334-6.5-.669Z" fill="#6449d1" stroke="#263238" stroke-linecap="round" stroke-linejoin="round" stroke-width="1"/>
    <path id="Tracé_444" data-name="Tracé 444" d="M167.413,195.237s-6.345,2.833-6.847,3.669-1.5,4.839-2.173,5.341-1.329,1.17.5,1a2.792,2.792,0,0,0,2.34-1.171" fill="#fff" stroke="#263238" stroke-linecap="round" stroke-linejoin="round" stroke-width="1"/>
    <path id="Tracé_445" data-name="Tracé 445" d="M161.235,204.079l.334-4.2m1.321,6.274.545-5.939m1.54,5.824.88-5.5m.81,5.614s.73-4.734.88-5.28" fill="none" stroke="#263238" stroke-linecap="round" stroke-linejoin="round" stroke-width="1"/>
    <path id="Tracé_446" data-name="Tracé 446" d="M128.05,270.422s-2.49,2.2-2.93,2.49-8.51,4.7-8.36,5.869,8.509.59,13.2-.59,4.989-1.61,5.13-2.34.44-3.52.44-3.52l-7.48-1.909Z" fill="#fff" stroke="#263238" stroke-linecap="round" stroke-linejoin="round" stroke-width="1"/>
    <path id="Tracé_447" data-name="Tracé 447" d="M118.353,278.244s11.1-.176,15.505-2.991" fill="none" stroke="#263238" stroke-linecap="round" stroke-linejoin="round" stroke-width="0.75"/>
    <path id="Tracé_448" data-name="Tracé 448" d="M61.325,271.83s9.363,2.525,11.6,4.461-4.461,2.525-8.624,2.376-4.6-1.338-7.577-1.338-5.65,1.338-6.1-1.337,3.274-3.713,5.8-4.311" fill="#fff" stroke="#263238" stroke-linecap="round" stroke-linejoin="round" stroke-width="1"/>
    <path id="Tracé_449" data-name="Tracé 449" d="M58.623,276.133s4.585,2.991,12.69,1.232" fill="none" stroke="#263238" stroke-linecap="round" stroke-linejoin="round" stroke-width="0.75"/>
    <path id="Tracé_450" data-name="Tracé 450" d="M51.961,273.317" fill="#fff" stroke="#263238" stroke-linecap="round" stroke-linejoin="round" stroke-width="1"/>
    <path id="Tracé_451" data-name="Tracé 451" d="M44.358,279.476" fill="none" stroke="#263238" stroke-linecap="round" stroke-linejoin="round" stroke-width="0.75"/>
    <path id="Tracé_452" data-name="Tracé 452" d="M72.624,170.336l1.76,18.724s-2.534,26.9-5.65,35.661-5.948,18.425-6.987,22-2.077,17.536-1.188,20.352a11.531,11.531,0,0,1,.74,4.162v.6s.6.449-1.488,1.637" fill="#263238" stroke="#263238" stroke-linecap="round" stroke-linejoin="round" stroke-width="1"/>
    <path id="Tracé_453" data-name="Tracé 453" d="M50.36,186.385" fill="none" stroke="#fff" stroke-linecap="round" stroke-linejoin="round" stroke-width="0.75"/>
    <path id="Tracé_454" data-name="Tracé 454" d="M56.124,173.011s8.923,1.188,12.936.88,4.6-1.927,5.05-3.414-5.35-36.849-5.649-38.935.15-5.5-2.64-6.687-8.8.88-9.812,4.91,2.235,27.338,1.338,32.388" fill="#fff" stroke="#263238" stroke-linecap="round" stroke-linejoin="round" stroke-width="1"/>
    <path id="Tracé_455" data-name="Tracé 455" d="M63.85,131.85l2.235,4.012.74,33.286,2.675,6.388,2.226-7.875-4.3-32.1.59-4.751-1.778-3.863-2.385,4.9Z" fill="#ff0c39" stroke="#263238" stroke-linecap="round" stroke-linejoin="round" stroke-width="1"/>
    <path id="Tracé_456" data-name="Tracé 456" d="M66.824,130.213l2.676,4.611-1.338-8.473-2.675,1.636,1.337,2.226Z" fill="#fff" stroke="#263238" stroke-linecap="round" stroke-linejoin="round" stroke-width="1"/>
    <path id="Tracé_457" data-name="Tracé 457" d="M60.286,117.139l-.74,3.414,6.09,10.848s1.822-4.047,2.526-5.05,3.52-5.411,3.52-5.411-4.514.36-5.28-2.314,0-6.388-2.825-6.687-3.29,5.2-3.29,5.2Z" fill="#fff" stroke="#263238" stroke-linecap="round" stroke-linejoin="round" stroke-width="1"/>
    <path id="Tracé_458" data-name="Tracé 458" d="M63.243,115.036l.29,1" fill="#fff" stroke="#263238" stroke-linecap="round" stroke-linejoin="round" stroke-width="1"/>
    <path id="Tracé_459" data-name="Tracé 459" d="M74.436,109.853c0,.546-.237.968-.457.959s-.36-.466-.326-1,.238-.968.458-.959S74.471,109.316,74.436,109.853Z" fill="#263238"/>
    <path id="Tracé_460" data-name="Tracé 460" d="M75.053,107.345s-1.11-1.02-2.236.651m.2,9.028" fill="none" stroke="#263238" stroke-linecap="round" stroke-linejoin="round" stroke-width="1"/>
    <path id="Tracé_461" data-name="Tracé 461" d="M64.325,108.683l-.29,2.719,1.716-.5s-.88,2.129.334,1.144,2.93-4.267,3.467-4.575,3.52-3.2,5.6-5.2S78.106,97.544,77.4,96.2s-9.222-7.215-17-3.088-9.882,10.163-9.064,13.489,7.04,12.019,8.193,12.151,3.714-3.713,3.714-3.713-3.353-.88-2.64-2.315,3.722-4.038,3.722-4.038Z" fill="#263238" stroke="#263238" stroke-linecap="round" stroke-linejoin="round" stroke-width="1"/>
    <path id="Tracé_462" data-name="Tracé 462" d="M59.248,109.422" fill="none" stroke="#fff" stroke-linecap="round" stroke-linejoin="round" stroke-width="0.75"/>
    <path id="Tracé_463" data-name="Tracé 463" d="M59.248,119.365l7.577,10.848-5.5,5.5-3.864-14.861,1.787-1.487Z" fill="#fff" stroke="#263238" stroke-linecap="round" stroke-linejoin="round" stroke-width="1"/>
    <path id="Tracé_464" data-name="Tracé 464" d="M55.385,121.749l-10.4,3.414s-8.175,38.935-8.8,39.973-11.29,20.237-9.953,22.287,14.08,8.922,15.154,8.474,8.624-14.862,13.2-19.024,9.266-9.361,9.856-15.151l-4.013-17.1-.449-10.7-4.593-12.178Z" fill="#6449d1" stroke="#263238" stroke-linecap="round" stroke-linejoin="round" stroke-width="1"/>
    <path id="Tracé_465" data-name="Tracé 465" d="M58.36,120.852l-2.975.9-.748,14.562,5.06,2.824-2.975,4.453,7.727,18.134-3.124-28.086-2.966-12.784Zm-9.62,62.841L36.87,194.022s1.17,1.408,4.54,1.875c0,0,5.28-7.215,7.33-12.2Z" fill="#6449d1" stroke="#263238" stroke-linecap="round" stroke-linejoin="round" stroke-width="1"/>
    <path id="Tracé_466" data-name="Tracé 466" d="M50.624,175.1a52.591,52.591,0,0,1,5.948.44c1.039.3,5.052,4.461,5.052,4.461s0,.449-1.488.88-4.162-1.487-4.162-1.487l-5.79,5.5-3.573-4.452Z" fill="#fff" stroke="#263238" stroke-linecap="round" stroke-linejoin="round" stroke-width="1"/>
    <path id="Tracé_467" data-name="Tracé 467" d="M50.184,173.459l1.338,1.778-4.91,5.2-.59-1.927Z" fill="#fff" stroke="#263238" stroke-linecap="round" stroke-linejoin="round" stroke-width="1"/>
    <path id="Tracé_468" data-name="Tracé 468" d="M53.88,122.937s-13.975,0-15.013,1.188-12.038,34.474-12.038,36.4,18.876,19.622,18.876,19.622l5.35-6.538-10.683-16.8,8.474-18.275" fill="#6449d1"/>
    <path id="Tracé_469" data-name="Tracé 469" d="M53.88,122.937s-13.975,0-15.013,1.188-12.038,34.474-12.038,36.4,18.876,19.622,18.876,19.622l5.35-6.538-10.683-16.8,8.474-18.275" fill="none" stroke="#263238" stroke-linecap="round" stroke-linejoin="round" stroke-width="1"/>
  </g>
</svg>
