<svg xmlns="http://www.w3.org/2000/svg" width="94.439" height="24.621" viewBox="0 0 94.439 24.621">
  <path id="Tracé_146" data-name="Tracé 146" d="M55.321,13.245H54.214v2.6h1.107c.51,0,.765-.207.765-.729V13.975C56.086,13.463,55.831,13.245,55.321,13.245ZM17.879,14.408h1.534l-.712-4.3ZM55.321,8.466H54.214v2.62h1.107c.51,0,.765-.22.765-.736V9.21C56.086,8.664,55.831,8.466,55.321,8.466Zm-14.34,0H39.969V11.4h1.012c.582,0,.846-.214.846-.8V9.266C41.827,8.694,41.563,8.466,40.981,8.466ZM0,24.716H94.439V.1H0Zm13.643-5.744H5.562V5.669H9.155v9.973h4.486v3.329Zm6.594,0L19.874,17H17.331L16.9,18.972H13.707l3.06-13.3h4.1l3.043,13.3Zm15.386-10.2H32.857V18.791H29.263V8.774h-2.75V5.494h9.108v3.28ZM45.816,18.791H42.751c-.531,0-.825-1.04-.825-2.048v-2c0-.578-.227-1-.786-1H39.967v5.047H36.378V5.494h5.513A3.1,3.1,0,0,1,45.3,8.824v1.215a2.285,2.285,0,0,1-1.583,2.326,2.113,2.113,0,0,1,1.647,2.188v2.024a5.1,5.1,0,0,0,.451,2.158v.056Zm3.862,0H46.088V5.494h3.591ZM59.54,15.74A2.961,2.961,0,0,1,56.3,18.791H50.629V5.494h5.617a2.978,2.978,0,0,1,3.249,3.064V9.6a2.33,2.33,0,0,1-1.809,2.462A2.317,2.317,0,0,1,59.54,14.5Zm10.186-.872a4.222,4.222,0,0,1-4.586,4.311,4.335,4.335,0,0,1-4.679-4.311V5.494h3.611v9.246a1.157,1.157,0,1,0,2.314,0V5.494h3.338v9.373Zm10.356,3.923H77.121l-2.529-4.607L73.8,12.721v6.07H70.556V5.494h3.071L76.1,10.2l.754,1.441V5.494h3.226Zm8.87-10.127H84.383v2.182h2.988v2.32H84.383V15.4h4.569v3.388H80.8V5.494h8.156Z" transform="translate(0 -0.096)" fill="#0059b3"/>
</svg>
